<?xml version="1.0" encoding="utf-8" standalone="no"?>
<!DOCTYPE svg PUBLIC "-//W3C//DTD SVG 1.1//EN"
  "http://www.w3.org/Graphics/SVG/1.1/DTD/svg11.dtd">
<!-- Created with matplotlib (https://matplotlib.org/) -->
<svg height="288pt" version="1.1" viewBox="0 0 576 288" width="576pt" xmlns="http://www.w3.org/2000/svg" xmlns:xlink="http://www.w3.org/1999/xlink">
 <defs>
  <style type="text/css">
*{stroke-linecap:butt;stroke-linejoin:round;}
  </style>
 </defs>
 <g id="figure_1">
  <g id="patch_1">
   <path d="M 0 288 
L 576 288 
L 576 0 
L 0 0 
z
" style="fill:#ffffff;"/>
  </g>
  <g id="axes_1">
   <g id="patch_2">
    <path d="M 72 252 
L 518.4 252 
L 518.4 34.56 
L 72 34.56 
z
" style="fill:#eaeaf2;"/>
   </g>
   <g id="matplotlib.axis_1">
    <g id="xtick_1">
     <g id="line2d_1">
      <path clip-path="url(#p96fc017614)" d="M 92.290909 252 
L 92.290909 34.56 
" style="fill:none;stroke:#ffffff;stroke-linecap:round;"/>
     </g>
     <g id="text_1">
      <!-- 0 -->
      <defs>
       <path d="M 4.15625 35.296875 
Q 4.15625 48 6.765625 55.734375 
Q 9.375 63.484375 14.515625 67.671875 
Q 19.671875 71.875 27.484375 71.875 
Q 33.25 71.875 37.59375 69.546875 
Q 41.9375 67.234375 44.765625 62.859375 
Q 47.609375 58.5 49.21875 52.21875 
Q 50.828125 45.953125 50.828125 35.296875 
Q 50.828125 22.703125 48.234375 14.96875 
Q 45.65625 7.234375 40.5 3 
Q 35.359375 -1.21875 27.484375 -1.21875 
Q 17.140625 -1.21875 11.234375 6.203125 
Q 4.15625 15.140625 4.15625 35.296875 
z
M 13.1875 35.296875 
Q 13.1875 17.671875 17.3125 11.828125 
Q 21.4375 6 27.484375 6 
Q 33.546875 6 37.671875 11.859375 
Q 41.796875 17.71875 41.796875 35.296875 
Q 41.796875 52.984375 37.671875 58.78125 
Q 33.546875 64.59375 27.390625 64.59375 
Q 21.34375 64.59375 17.71875 59.46875 
Q 13.1875 52.9375 13.1875 35.296875 
z
" id="ArialMT-48"/>
      </defs>
      <g style="fill:#262626;" transform="translate(89.232393 269.373594)scale(0.11 -0.11)">
       <use xlink:href="#ArialMT-48"/>
      </g>
     </g>
    </g>
    <g id="xtick_2">
     <g id="line2d_2">
      <path clip-path="url(#p96fc017614)" d="M 173.617198 252 
L 173.617198 34.56 
" style="fill:none;stroke:#ffffff;stroke-linecap:round;"/>
     </g>
     <g id="text_2">
      <!-- 100 -->
      <defs>
       <path d="M 37.25 0 
L 28.46875 0 
L 28.46875 56 
Q 25.296875 52.984375 20.140625 49.953125 
Q 14.984375 46.921875 10.890625 45.40625 
L 10.890625 53.90625 
Q 18.265625 57.375 23.78125 62.296875 
Q 29.296875 67.234375 31.59375 71.875 
L 37.25 71.875 
z
" id="ArialMT-49"/>
      </defs>
      <g style="fill:#262626;" transform="translate(164.441651 269.373594)scale(0.11 -0.11)">
       <use xlink:href="#ArialMT-49"/>
       <use x="55.615234" xlink:href="#ArialMT-48"/>
       <use x="111.230469" xlink:href="#ArialMT-48"/>
      </g>
     </g>
    </g>
    <g id="xtick_3">
     <g id="line2d_3">
      <path clip-path="url(#p96fc017614)" d="M 254.943487 252 
L 254.943487 34.56 
" style="fill:none;stroke:#ffffff;stroke-linecap:round;"/>
     </g>
     <g id="text_3">
      <!-- 200 -->
      <defs>
       <path d="M 50.34375 8.453125 
L 50.34375 0 
L 3.03125 0 
Q 2.9375 3.171875 4.046875 6.109375 
Q 5.859375 10.9375 9.828125 15.625 
Q 13.8125 20.3125 21.34375 26.46875 
Q 33.015625 36.03125 37.109375 41.625 
Q 41.21875 47.21875 41.21875 52.203125 
Q 41.21875 57.421875 37.46875 61 
Q 33.734375 64.59375 27.734375 64.59375 
Q 21.390625 64.59375 17.578125 60.78125 
Q 13.765625 56.984375 13.71875 50.25 
L 4.6875 51.171875 
Q 5.609375 61.28125 11.65625 66.578125 
Q 17.71875 71.875 27.9375 71.875 
Q 38.234375 71.875 44.234375 66.15625 
Q 50.25 60.453125 50.25 52 
Q 50.25 47.703125 48.484375 43.546875 
Q 46.734375 39.40625 42.65625 34.8125 
Q 38.578125 30.21875 29.109375 22.21875 
Q 21.1875 15.578125 18.9375 13.203125 
Q 16.703125 10.84375 15.234375 8.453125 
z
" id="ArialMT-50"/>
      </defs>
      <g style="fill:#262626;" transform="translate(245.76794 269.373594)scale(0.11 -0.11)">
       <use xlink:href="#ArialMT-50"/>
       <use x="55.615234" xlink:href="#ArialMT-48"/>
       <use x="111.230469" xlink:href="#ArialMT-48"/>
      </g>
     </g>
    </g>
    <g id="xtick_4">
     <g id="line2d_4">
      <path clip-path="url(#p96fc017614)" d="M 336.269776 252 
L 336.269776 34.56 
" style="fill:none;stroke:#ffffff;stroke-linecap:round;"/>
     </g>
     <g id="text_4">
      <!-- 300 -->
      <defs>
       <path d="M 4.203125 18.890625 
L 12.984375 20.0625 
Q 14.5 12.59375 18.140625 9.296875 
Q 21.78125 6 27 6 
Q 33.203125 6 37.46875 10.296875 
Q 41.75 14.59375 41.75 20.953125 
Q 41.75 27 37.796875 30.921875 
Q 33.84375 34.859375 27.734375 34.859375 
Q 25.25 34.859375 21.53125 33.890625 
L 22.515625 41.609375 
Q 23.390625 41.5 23.921875 41.5 
Q 29.546875 41.5 34.03125 44.421875 
Q 38.53125 47.359375 38.53125 53.46875 
Q 38.53125 58.296875 35.25 61.46875 
Q 31.984375 64.65625 26.8125 64.65625 
Q 21.6875 64.65625 18.265625 61.421875 
Q 14.84375 58.203125 13.875 51.765625 
L 5.078125 53.328125 
Q 6.6875 62.15625 12.390625 67.015625 
Q 18.109375 71.875 26.609375 71.875 
Q 32.46875 71.875 37.390625 69.359375 
Q 42.328125 66.84375 44.9375 62.5 
Q 47.5625 58.15625 47.5625 53.265625 
Q 47.5625 48.640625 45.0625 44.828125 
Q 42.578125 41.015625 37.703125 38.765625 
Q 44.046875 37.3125 47.5625 32.6875 
Q 51.078125 28.078125 51.078125 21.140625 
Q 51.078125 11.765625 44.234375 5.25 
Q 37.40625 -1.265625 26.953125 -1.265625 
Q 17.53125 -1.265625 11.296875 4.34375 
Q 5.078125 9.96875 4.203125 18.890625 
z
" id="ArialMT-51"/>
      </defs>
      <g style="fill:#262626;" transform="translate(327.094229 269.373594)scale(0.11 -0.11)">
       <use xlink:href="#ArialMT-51"/>
       <use x="55.615234" xlink:href="#ArialMT-48"/>
       <use x="111.230469" xlink:href="#ArialMT-48"/>
      </g>
     </g>
    </g>
    <g id="xtick_5">
     <g id="line2d_5">
      <path clip-path="url(#p96fc017614)" d="M 417.596065 252 
L 417.596065 34.56 
" style="fill:none;stroke:#ffffff;stroke-linecap:round;"/>
     </g>
     <g id="text_5">
      <!-- 400 -->
      <defs>
       <path d="M 32.328125 0 
L 32.328125 17.140625 
L 1.265625 17.140625 
L 1.265625 25.203125 
L 33.9375 71.578125 
L 41.109375 71.578125 
L 41.109375 25.203125 
L 50.78125 25.203125 
L 50.78125 17.140625 
L 41.109375 17.140625 
L 41.109375 0 
z
M 32.328125 25.203125 
L 32.328125 57.46875 
L 9.90625 25.203125 
z
" id="ArialMT-52"/>
      </defs>
      <g style="fill:#262626;" transform="translate(408.420518 269.373594)scale(0.11 -0.11)">
       <use xlink:href="#ArialMT-52"/>
       <use x="55.615234" xlink:href="#ArialMT-48"/>
       <use x="111.230469" xlink:href="#ArialMT-48"/>
      </g>
     </g>
    </g>
    <g id="xtick_6">
     <g id="line2d_6">
      <path clip-path="url(#p96fc017614)" d="M 498.922354 252 
L 498.922354 34.56 
" style="fill:none;stroke:#ffffff;stroke-linecap:round;"/>
     </g>
     <g id="text_6">
      <!-- 500 -->
      <defs>
       <path d="M 4.15625 18.75 
L 13.375 19.53125 
Q 14.40625 12.796875 18.140625 9.390625 
Q 21.875 6 27.15625 6 
Q 33.5 6 37.890625 10.78125 
Q 42.28125 15.578125 42.28125 23.484375 
Q 42.28125 31 38.0625 35.34375 
Q 33.84375 39.703125 27 39.703125 
Q 22.75 39.703125 19.328125 37.765625 
Q 15.921875 35.84375 13.96875 32.765625 
L 5.71875 33.84375 
L 12.640625 70.609375 
L 48.25 70.609375 
L 48.25 62.203125 
L 19.671875 62.203125 
L 15.828125 42.96875 
Q 22.265625 47.46875 29.34375 47.46875 
Q 38.71875 47.46875 45.15625 40.96875 
Q 51.609375 34.46875 51.609375 24.265625 
Q 51.609375 14.546875 45.953125 7.46875 
Q 39.0625 -1.21875 27.15625 -1.21875 
Q 17.390625 -1.21875 11.203125 4.25 
Q 5.03125 9.71875 4.15625 18.75 
z
" id="ArialMT-53"/>
      </defs>
      <g style="fill:#262626;" transform="translate(489.746807 269.373594)scale(0.11 -0.11)">
       <use xlink:href="#ArialMT-53"/>
       <use x="55.615234" xlink:href="#ArialMT-48"/>
       <use x="111.230469" xlink:href="#ArialMT-48"/>
      </g>
     </g>
    </g>
    <g id="text_7">
     <!-- X -->
     <defs>
      <path d="M 0.4375 0 
L 28.125 37.3125 
L 3.71875 71.578125 
L 14.984375 71.578125 
L 27.984375 53.21875 
Q 32.03125 47.515625 33.734375 44.4375 
Q 36.140625 48.34375 39.40625 52.59375 
L 53.8125 71.578125 
L 64.109375 71.578125 
L 38.96875 37.84375 
L 66.0625 0 
L 54.34375 0 
L 36.328125 25.53125 
Q 34.8125 27.734375 33.203125 30.328125 
Q 30.8125 26.421875 29.78125 24.953125 
L 11.8125 0 
z
" id="ArialMT-88"/>
     </defs>
     <g style="fill:#262626;" transform="translate(289.196719 288.443906)scale(0.18 -0.18)">
      <use xlink:href="#ArialMT-88"/>
     </g>
    </g>
   </g>
   <g id="matplotlib.axis_2">
    <g id="ytick_1">
     <g id="line2d_7">
      <path clip-path="url(#p96fc017614)" d="M 72 241.922397 
L 518.4 241.922397 
" style="fill:none;stroke:#ffffff;stroke-linecap:round;"/>
     </g>
     <g id="text_8">
      <!-- −6 -->
      <defs>
       <path d="M 52.828125 31.203125 
L 5.5625 31.203125 
L 5.5625 39.40625 
L 52.828125 39.40625 
z
" id="ArialMT-8722"/>
       <path d="M 49.75 54.046875 
L 41.015625 53.375 
Q 39.84375 58.546875 37.703125 60.890625 
Q 34.125 64.65625 28.90625 64.65625 
Q 24.703125 64.65625 21.53125 62.3125 
Q 17.390625 59.28125 14.984375 53.46875 
Q 12.59375 47.65625 12.5 36.921875 
Q 15.671875 41.75 20.265625 44.09375 
Q 24.859375 46.4375 29.890625 46.4375 
Q 38.671875 46.4375 44.84375 39.96875 
Q 51.03125 33.5 51.03125 23.25 
Q 51.03125 16.5 48.125 10.71875 
Q 45.21875 4.9375 40.140625 1.859375 
Q 35.0625 -1.21875 28.609375 -1.21875 
Q 17.625 -1.21875 10.6875 6.859375 
Q 3.765625 14.9375 3.765625 33.5 
Q 3.765625 54.25 11.421875 63.671875 
Q 18.109375 71.875 29.4375 71.875 
Q 37.890625 71.875 43.28125 67.140625 
Q 48.6875 62.40625 49.75 54.046875 
z
M 13.875 23.1875 
Q 13.875 18.65625 15.796875 14.5 
Q 17.71875 10.359375 21.1875 8.171875 
Q 24.65625 6 28.46875 6 
Q 34.03125 6 38.03125 10.484375 
Q 42.046875 14.984375 42.046875 22.703125 
Q 42.046875 30.125 38.078125 34.390625 
Q 34.125 38.671875 28.125 38.671875 
Q 22.171875 38.671875 18.015625 34.390625 
Q 13.875 30.125 13.875 23.1875 
z
" id="ArialMT-54"/>
      </defs>
      <g style="fill:#262626;" transform="translate(49.958281 245.859194)scale(0.11 -0.11)">
       <use xlink:href="#ArialMT-8722"/>
       <use x="58.398438" xlink:href="#ArialMT-54"/>
      </g>
     </g>
    </g>
    <g id="ytick_2">
     <g id="line2d_8">
      <path clip-path="url(#p96fc017614)" d="M 72 204.583552 
L 518.4 204.583552 
" style="fill:none;stroke:#ffffff;stroke-linecap:round;"/>
     </g>
     <g id="text_9">
      <!-- −4 -->
      <g style="fill:#262626;" transform="translate(49.958281 208.520349)scale(0.11 -0.11)">
       <use xlink:href="#ArialMT-8722"/>
       <use x="58.398438" xlink:href="#ArialMT-52"/>
      </g>
     </g>
    </g>
    <g id="ytick_3">
     <g id="line2d_9">
      <path clip-path="url(#p96fc017614)" d="M 72 167.244708 
L 518.4 167.244708 
" style="fill:none;stroke:#ffffff;stroke-linecap:round;"/>
     </g>
     <g id="text_10">
      <!-- −2 -->
      <g style="fill:#262626;" transform="translate(49.958281 171.181504)scale(0.11 -0.11)">
       <use xlink:href="#ArialMT-8722"/>
       <use x="58.398438" xlink:href="#ArialMT-50"/>
      </g>
     </g>
    </g>
    <g id="ytick_4">
     <g id="line2d_10">
      <path clip-path="url(#p96fc017614)" d="M 72 129.905863 
L 518.4 129.905863 
" style="fill:none;stroke:#ffffff;stroke-linecap:round;"/>
     </g>
     <g id="text_11">
      <!-- 0 -->
      <g style="fill:#262626;" transform="translate(56.382969 133.84266)scale(0.11 -0.11)">
       <use xlink:href="#ArialMT-48"/>
      </g>
     </g>
    </g>
    <g id="ytick_5">
     <g id="line2d_11">
      <path clip-path="url(#p96fc017614)" d="M 72 92.567018 
L 518.4 92.567018 
" style="fill:none;stroke:#ffffff;stroke-linecap:round;"/>
     </g>
     <g id="text_12">
      <!-- 2 -->
      <g style="fill:#262626;" transform="translate(56.382969 96.503815)scale(0.11 -0.11)">
       <use xlink:href="#ArialMT-50"/>
      </g>
     </g>
    </g>
    <g id="ytick_6">
     <g id="line2d_12">
      <path clip-path="url(#p96fc017614)" d="M 72 55.228173 
L 518.4 55.228173 
" style="fill:none;stroke:#ffffff;stroke-linecap:round;"/>
     </g>
     <g id="text_13">
      <!-- 4 -->
      <g style="fill:#262626;" transform="translate(56.382969 59.16497)scale(0.11 -0.11)">
       <use xlink:href="#ArialMT-52"/>
      </g>
     </g>
    </g>
    <g id="text_14">
     <!-- Y -->
     <defs>
      <path d="M 27.875 0 
L 27.875 30.328125 
L 0.296875 71.578125 
L 11.8125 71.578125 
L 25.921875 50 
Q 29.828125 43.953125 33.203125 37.890625 
Q 36.421875 43.5 41.015625 50.53125 
L 54.890625 71.578125 
L 65.921875 71.578125 
L 37.359375 30.328125 
L 37.359375 0 
z
" id="ArialMT-89"/>
     </defs>
     <g style="fill:#262626;" transform="translate(42.380781 149.283281)rotate(-90)scale(0.18 -0.18)">
      <use xlink:href="#ArialMT-89"/>
     </g>
    </g>
   </g>
   <g id="line2d_13">
    <path clip-path="url(#p96fc017614)" d="M 92.290909 103.681082 
L 93.104172 117.133314 
L 93.917435 139.423623 
L 94.730698 114.04601 
L 95.543961 100.154226 
L 96.357224 104.084171 
L 97.170486 119.585292 
L 97.983749 121.514541 
L 98.797012 132.48384 
L 99.610275 130.080964 
L 100.423538 124.758677 
L 101.236801 140.973909 
L 102.050064 138.706572 
L 102.863327 161.273483 
L 103.67659 165.3186 
L 104.489852 182.726354 
L 105.303115 174.990534 
L 106.116378 182.132269 
L 106.929641 186.87335 
L 107.742904 157.000165 
L 108.556167 139.762471 
L 109.36943 139.061566 
L 110.182693 167.939475 
L 110.995956 179.539306 
L 111.809218 176.267643 
L 112.622481 166.733345 
L 113.435744 165.388986 
L 114.249007 179.434046 
L 115.06227 183.119787 
L 115.875533 174.921515 
L 116.688796 148.68915 
L 117.502059 143.949221 
L 118.315322 148.350029 
L 119.128584 138.198083 
L 119.941847 105.365073 
L 120.75511 89.060992 
L 121.568373 84.257502 
L 122.381636 72.167104 
L 123.194899 76.68268 
L 124.008162 76.759541 
L 124.821425 112.069463 
L 125.634688 131.409807 
L 126.44795 133.190471 
L 127.261213 140.905631 
L 128.074476 153.879804 
L 128.887739 165.034473 
L 129.701002 177.756691 
L 130.514265 193.086593 
L 131.327528 188.652301 
L 132.140791 178.545086 
L 132.954054 160.961257 
L 134.580579 187.828309 
L 135.393842 206.435101 
L 136.207105 191.067063 
L 137.020368 127.49153 
L 137.833631 105.227748 
L 138.646894 93.779876 
L 139.460157 117.393339 
L 140.27342 101.677159 
L 141.086682 108.83104 
L 141.899945 93.826568 
L 142.713208 88.803816 
L 143.526471 87.270659 
L 145.152997 103.902814 
L 145.96626 132.153783 
L 146.779523 122.672502 
L 147.592786 131.039851 
L 148.406048 161.381255 
L 149.219311 153.971125 
L 150.032574 127.529692 
L 150.845837 115.307611 
L 151.6591 116.167755 
L 152.472363 77.422559 
L 153.285626 44.443636 
L 154.098889 45.922459 
L 154.912152 68.319434 
L 155.725414 86.84638 
L 156.538677 91.271892 
L 157.35194 80.492036 
L 158.165203 90.230417 
L 158.978466 86.677653 
L 159.791729 47.771792 
L 160.604992 45.572822 
L 162.231518 107.350113 
L 163.04478 112.392003 
L 163.858043 128.212506 
L 164.671306 133.616068 
L 165.484569 130.164112 
L 166.297832 105.89215 
L 167.111095 87.21344 
L 167.924358 97.140709 
L 168.737621 88.053367 
L 169.550884 93.582205 
L 170.364146 82.300148 
L 171.177409 74.779381 
L 171.990672 86.209216 
L 172.803935 95.36575 
L 173.617198 92.761173 
L 174.430461 102.923296 
L 175.243724 91.774256 
L 176.056987 95.397376 
L 176.87025 76.614102 
L 177.683512 53.882901 
L 178.496775 99.119121 
L 179.310038 132.046231 
L 180.123301 101.996353 
L 180.936564 112.67616 
L 181.749827 108.095632 
L 182.56309 124.394233 
L 183.376353 130.122332 
L 184.189616 118.100112 
L 185.002878 90.593049 
L 185.816141 122.93534 
L 186.629404 119.531685 
L 187.442667 124.293703 
L 188.25593 113.721415 
L 189.069193 96.206382 
L 189.882456 96.443453 
L 190.695719 123.638292 
L 191.508982 130.903145 
L 192.322244 132.750213 
L 193.135507 136.145438 
L 193.94877 132.99425 
L 194.762033 109.936097 
L 195.575296 98.474532 
L 196.388559 120.08545 
L 197.201822 129.756924 
L 198.015085 130.417809 
L 198.828348 129.631878 
L 199.64161 124.936369 
L 200.454873 103.437178 
L 201.268136 91.14776 
L 202.081399 70.126418 
L 203.707925 110.659329 
L 205.334451 67.971206 
L 206.147714 72.471558 
L 207.774239 83.571792 
L 208.587502 100.964941 
L 209.400765 83.25933 
L 210.214028 104.529371 
L 211.027291 133.576586 
L 211.840554 133.571827 
L 212.653817 132.923502 
L 213.46708 105.516823 
L 214.280343 104.740139 
L 215.093605 118.654351 
L 215.906868 100.576809 
L 216.720131 86.519949 
L 217.533394 100.551188 
L 218.346657 116.612368 
L 219.15992 122.133444 
L 219.973183 122.852126 
L 220.786446 138.537155 
L 221.599709 149.042366 
L 222.412971 146.081742 
L 223.226234 103.311637 
L 224.039497 123.129891 
L 224.85276 115.474394 
L 225.666023 91.745345 
L 226.479286 103.210698 
L 227.292549 117.387878 
L 228.105812 105.422274 
L 228.919075 138.519064 
L 229.732337 165.747406 
L 230.5456 159.176172 
L 231.358863 185.878609 
L 232.172126 221.901673 
L 232.985389 240.494271 
L 233.798652 223.489916 
L 234.611915 211.508798 
L 235.425178 189.977846 
L 237.051703 241.33371 
L 238.678229 208.0853 
L 239.491492 211.945545 
L 240.304755 233.104173 
L 241.118018 242.116364 
L 241.931281 238.120342 
L 242.744544 207.528459 
L 243.557807 168.226789 
L 244.371069 106.551233 
L 245.184332 97.083352 
L 245.997595 97.616843 
L 246.810858 115.403199 
L 247.624121 130.278817 
L 249.250647 115.764304 
L 250.06391 108.46628 
L 250.877173 145.350207 
L 251.690435 148.220046 
L 252.503698 158.42138 
L 253.316961 172.832963 
L 254.130224 137.633936 
L 254.943487 131.52463 
L 255.75675 136.214401 
L 256.570013 131.588579 
L 257.383276 146.772818 
L 258.196539 136.75016 
L 259.009801 128.67552 
L 259.823064 122.782117 
L 260.636327 114.886555 
L 261.44959 96.59133 
L 262.262853 83.343393 
L 263.076116 86.320772 
L 263.889379 111.544708 
L 264.702642 151.006037 
L 265.515905 131.659523 
L 266.329167 141.705996 
L 267.955693 191.491857 
L 268.768956 201.729962 
L 269.582219 175.295715 
L 270.395482 168.093297 
L 271.208745 167.942177 
L 272.022008 173.928787 
L 272.835271 166.202187 
L 273.648533 147.461465 
L 274.461796 113.154916 
L 276.088322 129.962411 
L 276.901585 123.705817 
L 277.714848 112.980258 
L 278.528111 118.499123 
L 279.341374 106.939654 
L 280.154637 68.493423 
L 280.967899 75.123367 
L 281.781162 110.435218 
L 282.594425 113.724945 
L 283.407688 106.094056 
L 284.220951 106.941869 
L 285.034214 101.264175 
L 285.847477 127.382583 
L 286.66074 145.741176 
L 287.474003 128.516342 
L 288.287265 136.473668 
L 289.100528 107.315476 
L 289.913791 102.335828 
L 292.35358 177.036363 
L 293.166843 167.806349 
L 293.980106 194.030245 
L 294.793369 178.284357 
L 295.606631 169.716394 
L 296.419894 175.987261 
L 297.233157 130.196018 
L 298.04642 98.148864 
L 298.859683 91.843499 
L 299.672946 100.882187 
L 301.299472 160.219088 
L 302.112735 173.305036 
L 302.925997 177.506384 
L 303.73926 151.150739 
L 304.552523 151.947405 
L 305.365786 159.395066 
L 306.179049 145.99656 
L 306.992312 135.287183 
L 307.805575 140.902851 
L 308.618838 144.590226 
L 309.432101 137.384708 
L 310.245363 161.767308 
L 311.058626 169.930248 
L 311.871889 180.244979 
L 312.685152 169.559626 
L 313.498415 153.586185 
L 314.311678 133.748578 
L 315.124941 127.823114 
L 315.938204 129.414138 
L 316.751467 116.494945 
L 317.564729 110.067049 
L 318.377992 88.592889 
L 319.191255 56.179764 
L 320.004518 83.131457 
L 320.817781 80.995319 
L 321.631044 99.907104 
L 322.444307 112.186859 
L 323.25757 110.752551 
L 324.070833 96.137495 
L 324.884095 93.509239 
L 326.510621 122.912846 
L 327.323884 126.036948 
L 328.137147 99.4102 
L 328.95041 84.425373 
L 329.763673 87.806395 
L 330.576936 106.660125 
L 331.390199 110.276651 
L 332.203461 117.840976 
L 333.016724 130.703132 
L 333.829987 132.011643 
L 335.456513 163.454887 
L 336.269776 147.483653 
L 337.083039 125.508785 
L 337.896302 124.069386 
L 338.709565 133.334845 
L 339.522827 131.176259 
L 340.33609 127.78133 
L 341.149353 96.484561 
L 341.962616 123.264254 
L 342.775879 139.44864 
L 343.589142 167.929152 
L 344.402405 147.607184 
L 345.215668 98.60582 
L 346.028931 112.646639 
L 346.842193 140.222693 
L 347.655456 173.96741 
L 348.468719 177.596482 
L 349.281982 166.939214 
L 350.095245 160.782164 
L 350.908508 153.340535 
L 351.721771 153.032036 
L 352.535034 138.717422 
L 353.348297 164.918097 
L 354.161559 152.827059 
L 354.974822 157.894526 
L 355.788085 123.26314 
L 356.601348 144.820184 
L 357.414611 146.520795 
L 358.227874 145.343066 
L 359.041137 144.634452 
L 359.8544 153.429072 
L 360.667663 185.713836 
L 361.480925 186.060787 
L 362.294188 178.224182 
L 363.107451 187.779277 
L 363.920714 183.805259 
L 364.733977 154.452781 
L 365.54724 165.095121 
L 366.360503 164.711851 
L 367.173766 172.161026 
L 367.987029 154.033481 
L 368.800291 159.165198 
L 369.613554 158.944612 
L 370.426817 172.062688 
L 371.24008 225.845666 
L 372.053343 207.685442 
L 372.866606 180.224008 
L 374.493132 159.621885 
L 375.306395 153.163707 
L 376.119657 118.464342 
L 376.93292 119.139574 
L 377.746183 121.163828 
L 378.559446 77.926048 
L 379.372709 71.459547 
L 380.185972 76.150274 
L 380.999235 86.535565 
L 381.812498 67.406136 
L 382.625761 86.287331 
L 383.439024 83.559384 
L 384.252286 68.581731 
L 385.065549 82.410766 
L 385.878812 100.018973 
L 386.692075 99.35933 
L 387.505338 78.724115 
L 388.318601 68.669394 
L 389.131864 56.012297 
L 390.75839 91.966563 
L 391.571652 95.094154 
L 392.384915 122.683881 
L 393.198178 139.453618 
L 394.011441 146.123176 
L 394.824704 141.812713 
L 395.637967 144.497555 
L 396.45123 148.436716 
L 397.264493 125.505754 
L 398.077756 119.825825 
L 398.891018 127.39916 
L 399.704281 151.008448 
L 400.517544 185.622838 
L 401.330807 188.788526 
L 402.14407 150.096848 
L 402.957333 130.167505 
L 403.770596 124.98803 
L 404.583859 109.201858 
L 405.397122 97.187284 
L 406.210384 73.351615 
L 407.023647 59.185379 
L 407.83691 103.016841 
L 408.650173 122.977612 
L 409.463436 125.616561 
L 410.276699 157.2755 
L 411.089962 156.414218 
L 411.903225 160.537173 
L 412.716488 156.479363 
L 413.52975 181.279482 
L 414.343013 174.617602 
L 415.156276 180.984029 
L 415.969539 160.526627 
L 416.782802 184.214394 
L 417.596065 185.579502 
L 418.409328 189.542465 
L 419.222591 170.892035 
L 420.035854 191.555166 
L 420.849116 209.183815 
L 421.662379 192.596615 
L 422.475642 183.942032 
L 423.288905 193.06265 
L 424.102168 195.994655 
L 424.915431 193.784516 
L 425.728694 197.837058 
L 426.541957 172.247208 
L 427.35522 138.055158 
L 428.168482 134.089053 
L 428.981745 169.937219 
L 429.795008 186.575483 
L 430.608271 172.08096 
L 431.421534 179.534659 
L 432.234797 164.875491 
L 433.04806 158.888534 
L 433.861323 166.281017 
L 434.674586 168.756301 
L 435.487848 157.554549 
L 437.114374 199.117502 
L 438.7409 170.246749 
L 439.554163 152.076942 
L 440.367426 147.789261 
L 441.180689 138.889793 
L 441.993952 172.062195 
L 442.807214 200.480342 
L 443.620477 186.916161 
L 444.43374 150.233483 
L 445.247003 138.382597 
L 446.060266 154.444637 
L 446.873529 150.176345 
L 447.686792 154.154227 
L 448.500055 161.389875 
L 449.313318 172.408546 
L 450.12658 151.758518 
L 450.939843 142.200978 
L 451.753106 134.867112 
L 452.566369 133.704423 
L 453.379632 123.943263 
L 454.192895 140.909786 
L 455.819421 169.979239 
L 456.632684 174.744749 
L 457.445946 144.01191 
L 458.259209 138.362131 
L 459.072472 115.237735 
L 459.885735 108.444028 
L 460.698998 108.224436 
L 461.512261 103.386036 
L 462.325524 84.458072 
L 463.138787 78.763958 
L 463.95205 90.542837 
L 464.765312 123.109928 
L 465.578575 143.36611 
L 466.391838 180.880873 
L 467.205101 165.193355 
L 468.018364 140.678831 
L 468.831627 101.058809 
L 469.64489 135.519086 
L 470.458153 161.833156 
L 471.271416 173.584608 
L 472.084678 146.565177 
L 472.897941 164.995414 
L 473.711204 137.189685 
L 474.524467 129.612844 
L 475.33773 168.33317 
L 476.150993 158.342525 
L 476.964256 175.084788 
L 477.777519 159.46439 
L 478.590782 129.474859 
L 479.404044 128.954856 
L 480.217307 152.68544 
L 481.03057 171.896449 
L 481.843833 207.390779 
L 482.657096 197.225435 
L 483.470359 155.333329 
L 484.283622 144.593445 
L 485.096885 154.952688 
L 485.910148 147.946523 
L 486.72341 162.666921 
L 487.536673 162.009531 
L 488.349936 166.497036 
L 489.163199 178.531786 
L 489.976462 178.681539 
L 490.789725 131.414867 
L 491.602988 123.087223 
L 492.416251 111.328191 
L 493.229514 114.059245 
L 494.042776 127.657971 
L 494.856039 137.077888 
L 495.669302 125.756942 
L 496.482565 116.818521 
L 497.295828 91.970276 
L 498.109091 55.741078 
L 498.109091 55.741078 
" style="fill:none;stroke:#4c72b0;stroke-linecap:round;stroke-width:1.5;"/>
   </g>
   <g id="patch_3">
    <path d="M 72 252 
L 72 34.56 
" style="fill:none;stroke:#ffffff;stroke-linecap:square;stroke-linejoin:miter;stroke-width:1.25;"/>
   </g>
   <g id="patch_4">
    <path d="M 518.4 252 
L 518.4 34.56 
" style="fill:none;stroke:#ffffff;stroke-linecap:square;stroke-linejoin:miter;stroke-width:1.25;"/>
   </g>
   <g id="patch_5">
    <path d="M 72 252 
L 518.4 252 
" style="fill:none;stroke:#ffffff;stroke-linecap:square;stroke-linejoin:miter;stroke-width:1.25;"/>
   </g>
   <g id="patch_6">
    <path d="M 72 34.56 
L 518.4 34.56 
" style="fill:none;stroke:#ffffff;stroke-linecap:square;stroke-linejoin:miter;stroke-width:1.25;"/>
   </g>
   <g id="text_15">
    <!-- Autoregressive Process (P=3) -->
    <defs>
     <path d="M -0.140625 0 
L 27.34375 71.578125 
L 37.546875 71.578125 
L 66.84375 0 
L 56.0625 0 
L 47.703125 21.6875 
L 17.78125 21.6875 
L 9.90625 0 
z
M 20.515625 29.390625 
L 44.78125 29.390625 
L 37.3125 49.21875 
Q 33.890625 58.25 32.234375 64.0625 
Q 30.859375 57.171875 28.375 50.390625 
z
" id="ArialMT-65"/>
     <path d="M 40.578125 0 
L 40.578125 7.625 
Q 34.515625 -1.171875 24.125 -1.171875 
Q 19.53125 -1.171875 15.546875 0.578125 
Q 11.578125 2.34375 9.640625 5 
Q 7.71875 7.671875 6.9375 11.53125 
Q 6.390625 14.109375 6.390625 19.734375 
L 6.390625 51.859375 
L 15.1875 51.859375 
L 15.1875 23.09375 
Q 15.1875 16.21875 15.71875 13.8125 
Q 16.546875 10.359375 19.234375 8.375 
Q 21.921875 6.390625 25.875 6.390625 
Q 29.828125 6.390625 33.296875 8.421875 
Q 36.765625 10.453125 38.203125 13.9375 
Q 39.65625 17.4375 39.65625 24.078125 
L 39.65625 51.859375 
L 48.4375 51.859375 
L 48.4375 0 
z
" id="ArialMT-117"/>
     <path d="M 25.78125 7.859375 
L 27.046875 0.09375 
Q 23.34375 -0.6875 20.40625 -0.6875 
Q 15.625 -0.6875 12.984375 0.828125 
Q 10.359375 2.34375 9.28125 4.8125 
Q 8.203125 7.28125 8.203125 15.1875 
L 8.203125 45.015625 
L 1.765625 45.015625 
L 1.765625 51.859375 
L 8.203125 51.859375 
L 8.203125 64.703125 
L 16.9375 69.96875 
L 16.9375 51.859375 
L 25.78125 51.859375 
L 25.78125 45.015625 
L 16.9375 45.015625 
L 16.9375 14.703125 
Q 16.9375 10.9375 17.40625 9.859375 
Q 17.875 8.796875 18.921875 8.15625 
Q 19.96875 7.515625 21.921875 7.515625 
Q 23.390625 7.515625 25.78125 7.859375 
z
" id="ArialMT-116"/>
     <path d="M 3.328125 25.921875 
Q 3.328125 40.328125 11.328125 47.265625 
Q 18.015625 53.03125 27.640625 53.03125 
Q 38.328125 53.03125 45.109375 46.015625 
Q 51.90625 39.015625 51.90625 26.65625 
Q 51.90625 16.65625 48.90625 10.90625 
Q 45.90625 5.171875 40.15625 2 
Q 34.421875 -1.171875 27.640625 -1.171875 
Q 16.75 -1.171875 10.03125 5.8125 
Q 3.328125 12.796875 3.328125 25.921875 
z
M 12.359375 25.921875 
Q 12.359375 15.96875 16.703125 11.015625 
Q 21.046875 6.0625 27.640625 6.0625 
Q 34.1875 6.0625 38.53125 11.03125 
Q 42.875 16.015625 42.875 26.21875 
Q 42.875 35.84375 38.5 40.796875 
Q 34.125 45.75 27.640625 45.75 
Q 21.046875 45.75 16.703125 40.8125 
Q 12.359375 35.890625 12.359375 25.921875 
z
" id="ArialMT-111"/>
     <path d="M 6.5 0 
L 6.5 51.859375 
L 14.40625 51.859375 
L 14.40625 44 
Q 17.4375 49.515625 20 51.265625 
Q 22.5625 53.03125 25.640625 53.03125 
Q 30.078125 53.03125 34.671875 50.203125 
L 31.640625 42.046875 
Q 28.421875 43.953125 25.203125 43.953125 
Q 22.3125 43.953125 20.015625 42.21875 
Q 17.71875 40.484375 16.75 37.40625 
Q 15.28125 32.71875 15.28125 27.15625 
L 15.28125 0 
z
" id="ArialMT-114"/>
     <path d="M 42.09375 16.703125 
L 51.171875 15.578125 
Q 49.03125 7.625 43.21875 3.21875 
Q 37.40625 -1.171875 28.375 -1.171875 
Q 17 -1.171875 10.328125 5.828125 
Q 3.65625 12.84375 3.65625 25.484375 
Q 3.65625 38.578125 10.390625 45.796875 
Q 17.140625 53.03125 27.875 53.03125 
Q 38.28125 53.03125 44.875 45.953125 
Q 51.46875 38.875 51.46875 26.03125 
Q 51.46875 25.25 51.421875 23.6875 
L 12.75 23.6875 
Q 13.234375 15.140625 17.578125 10.59375 
Q 21.921875 6.0625 28.421875 6.0625 
Q 33.25 6.0625 36.671875 8.59375 
Q 40.09375 11.140625 42.09375 16.703125 
z
M 13.234375 30.90625 
L 42.1875 30.90625 
Q 41.609375 37.453125 38.875 40.71875 
Q 34.671875 45.796875 27.984375 45.796875 
Q 21.921875 45.796875 17.796875 41.75 
Q 13.671875 37.703125 13.234375 30.90625 
z
" id="ArialMT-101"/>
     <path d="M 4.984375 -4.296875 
L 13.53125 -5.5625 
Q 14.0625 -9.515625 16.5 -11.328125 
Q 19.78125 -13.765625 25.4375 -13.765625 
Q 31.546875 -13.765625 34.859375 -11.328125 
Q 38.1875 -8.890625 39.359375 -4.5 
Q 40.046875 -1.8125 39.984375 6.78125 
Q 34.234375 0 25.640625 0 
Q 14.9375 0 9.078125 7.71875 
Q 3.21875 15.4375 3.21875 26.21875 
Q 3.21875 33.640625 5.90625 39.90625 
Q 8.59375 46.1875 13.6875 49.609375 
Q 18.796875 53.03125 25.6875 53.03125 
Q 34.859375 53.03125 40.828125 45.609375 
L 40.828125 51.859375 
L 48.921875 51.859375 
L 48.921875 7.03125 
Q 48.921875 -5.078125 46.453125 -10.125 
Q 44 -15.1875 38.640625 -18.109375 
Q 33.296875 -21.046875 25.484375 -21.046875 
Q 16.21875 -21.046875 10.5 -16.875 
Q 4.78125 -12.703125 4.984375 -4.296875 
z
M 12.25 26.859375 
Q 12.25 16.65625 16.296875 11.96875 
Q 20.359375 7.28125 26.46875 7.28125 
Q 32.515625 7.28125 36.609375 11.9375 
Q 40.71875 16.609375 40.71875 26.5625 
Q 40.71875 36.078125 36.5 40.90625 
Q 32.28125 45.75 26.3125 45.75 
Q 20.453125 45.75 16.34375 40.984375 
Q 12.25 36.234375 12.25 26.859375 
z
" id="ArialMT-103"/>
     <path d="M 3.078125 15.484375 
L 11.765625 16.84375 
Q 12.5 11.625 15.84375 8.84375 
Q 19.1875 6.0625 25.203125 6.0625 
Q 31.25 6.0625 34.171875 8.515625 
Q 37.109375 10.984375 37.109375 14.3125 
Q 37.109375 17.28125 34.515625 19 
Q 32.71875 20.171875 25.53125 21.96875 
Q 15.875 24.421875 12.140625 26.203125 
Q 8.40625 27.984375 6.46875 31.125 
Q 4.546875 34.28125 4.546875 38.09375 
Q 4.546875 41.546875 6.125 44.5 
Q 7.71875 47.46875 10.453125 49.421875 
Q 12.5 50.921875 16.03125 51.96875 
Q 19.578125 53.03125 23.640625 53.03125 
Q 29.734375 53.03125 34.34375 51.265625 
Q 38.96875 49.515625 41.15625 46.5 
Q 43.359375 43.5 44.1875 38.484375 
L 35.59375 37.3125 
Q 35.015625 41.3125 32.203125 43.546875 
Q 29.390625 45.796875 24.265625 45.796875 
Q 18.21875 45.796875 15.625 43.796875 
Q 13.03125 41.796875 13.03125 39.109375 
Q 13.03125 37.40625 14.109375 36.03125 
Q 15.1875 34.625 17.484375 33.6875 
Q 18.796875 33.203125 25.25 31.453125 
Q 34.578125 28.953125 38.25 27.359375 
Q 41.9375 25.78125 44.03125 22.75 
Q 46.140625 19.734375 46.140625 15.234375 
Q 46.140625 10.84375 43.578125 6.953125 
Q 41.015625 3.078125 36.171875 0.953125 
Q 31.34375 -1.171875 25.25 -1.171875 
Q 15.140625 -1.171875 9.84375 3.03125 
Q 4.546875 7.234375 3.078125 15.484375 
z
" id="ArialMT-115"/>
     <path d="M 6.640625 61.46875 
L 6.640625 71.578125 
L 15.4375 71.578125 
L 15.4375 61.46875 
z
M 6.640625 0 
L 6.640625 51.859375 
L 15.4375 51.859375 
L 15.4375 0 
z
" id="ArialMT-105"/>
     <path d="M 21 0 
L 1.265625 51.859375 
L 10.546875 51.859375 
L 21.6875 20.796875 
Q 23.484375 15.765625 25 10.359375 
Q 26.171875 14.453125 28.265625 20.21875 
L 39.796875 51.859375 
L 48.828125 51.859375 
L 29.203125 0 
z
" id="ArialMT-118"/>
     <path id="ArialMT-32"/>
     <path d="M 7.71875 0 
L 7.71875 71.578125 
L 34.71875 71.578125 
Q 41.84375 71.578125 45.609375 70.90625 
Q 50.875 70.015625 54.4375 67.546875 
Q 58.015625 65.09375 60.1875 60.640625 
Q 62.359375 56.203125 62.359375 50.875 
Q 62.359375 41.75 56.546875 35.421875 
Q 50.734375 29.109375 35.546875 29.109375 
L 17.1875 29.109375 
L 17.1875 0 
z
M 17.1875 37.546875 
L 35.6875 37.546875 
Q 44.875 37.546875 48.734375 40.96875 
Q 52.59375 44.390625 52.59375 50.59375 
Q 52.59375 55.078125 50.3125 58.265625 
Q 48.046875 61.46875 44.34375 62.5 
Q 41.9375 63.140625 35.5 63.140625 
L 17.1875 63.140625 
z
" id="ArialMT-80"/>
     <path d="M 40.4375 19 
L 49.078125 17.875 
Q 47.65625 8.9375 41.8125 3.875 
Q 35.984375 -1.171875 27.484375 -1.171875 
Q 16.84375 -1.171875 10.375 5.78125 
Q 3.90625 12.75 3.90625 25.734375 
Q 3.90625 34.125 6.6875 40.421875 
Q 9.46875 46.734375 15.15625 49.875 
Q 20.84375 53.03125 27.546875 53.03125 
Q 35.984375 53.03125 41.359375 48.75 
Q 46.734375 44.484375 48.25 36.625 
L 39.703125 35.296875 
Q 38.484375 40.53125 35.375 43.15625 
Q 32.28125 45.796875 27.875 45.796875 
Q 21.234375 45.796875 17.078125 41.03125 
Q 12.9375 36.28125 12.9375 25.984375 
Q 12.9375 15.53125 16.9375 10.796875 
Q 20.953125 6.0625 27.390625 6.0625 
Q 32.5625 6.0625 36.03125 9.234375 
Q 39.5 12.40625 40.4375 19 
z
" id="ArialMT-99"/>
     <path d="M 23.390625 -21.046875 
Q 16.109375 -11.859375 11.078125 0.4375 
Q 6.0625 12.75 6.0625 25.921875 
Q 6.0625 37.546875 9.8125 48.1875 
Q 14.203125 60.546875 23.390625 72.796875 
L 29.6875 72.796875 
Q 23.78125 62.640625 21.875 58.296875 
Q 18.890625 51.5625 17.1875 44.234375 
Q 15.09375 35.109375 15.09375 25.875 
Q 15.09375 2.390625 29.6875 -21.046875 
z
" id="ArialMT-40"/>
     <path d="M 52.828125 42.09375 
L 5.5625 42.09375 
L 5.5625 50.296875 
L 52.828125 50.296875 
z
M 52.828125 20.359375 
L 5.5625 20.359375 
L 5.5625 28.5625 
L 52.828125 28.5625 
z
" id="ArialMT-61"/>
     <path d="M 12.359375 -21.046875 
L 6.0625 -21.046875 
Q 20.65625 2.390625 20.65625 25.875 
Q 20.65625 35.0625 18.5625 44.09375 
Q 16.890625 51.421875 13.921875 58.15625 
Q 12.015625 62.546875 6.0625 72.796875 
L 12.359375 72.796875 
Q 21.53125 60.546875 25.921875 48.1875 
Q 29.6875 37.546875 29.6875 25.921875 
Q 29.6875 12.75 24.625 0.4375 
Q 19.578125 -11.859375 12.359375 -21.046875 
z
" id="ArialMT-41"/>
    </defs>
    <g style="fill:#262626;" transform="translate(162.095312 28.56)scale(0.2 -0.2)">
     <use xlink:href="#ArialMT-65"/>
     <use x="66.699219" xlink:href="#ArialMT-117"/>
     <use x="122.314453" xlink:href="#ArialMT-116"/>
     <use x="150.097656" xlink:href="#ArialMT-111"/>
     <use x="205.712891" xlink:href="#ArialMT-114"/>
     <use x="239.013672" xlink:href="#ArialMT-101"/>
     <use x="294.628906" xlink:href="#ArialMT-103"/>
     <use x="350.244141" xlink:href="#ArialMT-114"/>
     <use x="383.544922" xlink:href="#ArialMT-101"/>
     <use x="439.160156" xlink:href="#ArialMT-115"/>
     <use x="489.160156" xlink:href="#ArialMT-115"/>
     <use x="539.160156" xlink:href="#ArialMT-105"/>
     <use x="561.376953" xlink:href="#ArialMT-118"/>
     <use x="611.376953" xlink:href="#ArialMT-101"/>
     <use x="666.992188" xlink:href="#ArialMT-32"/>
     <use x="694.775391" xlink:href="#ArialMT-80"/>
     <use x="761.474609" xlink:href="#ArialMT-114"/>
     <use x="794.775391" xlink:href="#ArialMT-111"/>
     <use x="850.390625" xlink:href="#ArialMT-99"/>
     <use x="900.390625" xlink:href="#ArialMT-101"/>
     <use x="956.005859" xlink:href="#ArialMT-115"/>
     <use x="1006.005859" xlink:href="#ArialMT-115"/>
     <use x="1056.005859" xlink:href="#ArialMT-32"/>
     <use x="1083.789062" xlink:href="#ArialMT-40"/>
     <use x="1117.089844" xlink:href="#ArialMT-80"/>
     <use x="1183.789062" xlink:href="#ArialMT-61"/>
     <use x="1242.1875" xlink:href="#ArialMT-51"/>
     <use x="1297.802734" xlink:href="#ArialMT-41"/>
    </g>
   </g>
  </g>
 </g>
 <defs>
  <clipPath id="p96fc017614">
   <rect height="217.44" width="446.4" x="72" y="34.56"/>
  </clipPath>
 </defs>
</svg>
