<?xml version="1.0" encoding="utf-8" standalone="no"?>
<!DOCTYPE svg PUBLIC "-//W3C//DTD SVG 1.1//EN"
  "http://www.w3.org/Graphics/SVG/1.1/DTD/svg11.dtd">
<!-- Created with matplotlib (https://matplotlib.org/) -->
<svg height="576pt" version="1.1" viewBox="0 0 864 576" width="864pt" xmlns="http://www.w3.org/2000/svg" xmlns:xlink="http://www.w3.org/1999/xlink">
 <defs>
  <style type="text/css">
*{stroke-linecap:butt;stroke-linejoin:round;}
  </style>
 </defs>
 <g id="figure_1">
  <g id="patch_1">
   <path d="M 0 576 
L 864 576 
L 864 0 
L 0 0 
z
" style="fill:#ffffff;"/>
  </g>
  <g id="axes_1">
   <g id="patch_2">
    <path d="M 108 504 
L 777.6 504 
L 777.6 69.12 
L 108 69.12 
z
" style="fill:#eaeaf2;"/>
   </g>
   <g id="matplotlib.axis_1">
    <g id="xtick_1">
     <g id="line2d_1">
      <path clip-path="url(#p43a5541bea)" d="M 138.436364 504 
L 138.436364 69.12 
" style="fill:none;stroke:#ffffff;stroke-linecap:round;"/>
     </g>
     <g id="text_1">
      <!-- 0 -->
      <defs>
       <path d="M 4.15625 35.296875 
Q 4.15625 48 6.765625 55.734375 
Q 9.375 63.484375 14.515625 67.671875 
Q 19.671875 71.875 27.484375 71.875 
Q 33.25 71.875 37.59375 69.546875 
Q 41.9375 67.234375 44.765625 62.859375 
Q 47.609375 58.5 49.21875 52.21875 
Q 50.828125 45.953125 50.828125 35.296875 
Q 50.828125 22.703125 48.234375 14.96875 
Q 45.65625 7.234375 40.5 3 
Q 35.359375 -1.21875 27.484375 -1.21875 
Q 17.140625 -1.21875 11.234375 6.203125 
Q 4.15625 15.140625 4.15625 35.296875 
z
M 13.1875 35.296875 
Q 13.1875 17.671875 17.3125 11.828125 
Q 21.4375 6 27.484375 6 
Q 33.546875 6 37.671875 11.859375 
Q 41.796875 17.71875 41.796875 35.296875 
Q 41.796875 52.984375 37.671875 58.78125 
Q 33.546875 64.59375 27.390625 64.59375 
Q 21.34375 64.59375 17.71875 59.46875 
Q 13.1875 52.9375 13.1875 35.296875 
z
" id="ArialMT-48"/>
      </defs>
      <g style="fill:#262626;" transform="translate(135.377848 521.373594)scale(0.11 -0.11)">
       <use xlink:href="#ArialMT-48"/>
      </g>
     </g>
    </g>
    <g id="xtick_2">
     <g id="line2d_2">
      <path clip-path="url(#p43a5541bea)" d="M 260.425797 504 
L 260.425797 69.12 
" style="fill:none;stroke:#ffffff;stroke-linecap:round;"/>
     </g>
     <g id="text_2">
      <!-- 100 -->
      <defs>
       <path d="M 37.25 0 
L 28.46875 0 
L 28.46875 56 
Q 25.296875 52.984375 20.140625 49.953125 
Q 14.984375 46.921875 10.890625 45.40625 
L 10.890625 53.90625 
Q 18.265625 57.375 23.78125 62.296875 
Q 29.296875 67.234375 31.59375 71.875 
L 37.25 71.875 
z
" id="ArialMT-49"/>
      </defs>
      <g style="fill:#262626;" transform="translate(251.25025 521.373594)scale(0.11 -0.11)">
       <use xlink:href="#ArialMT-49"/>
       <use x="55.615234" xlink:href="#ArialMT-48"/>
       <use x="111.230469" xlink:href="#ArialMT-48"/>
      </g>
     </g>
    </g>
    <g id="xtick_3">
     <g id="line2d_3">
      <path clip-path="url(#p43a5541bea)" d="M 382.41523 504 
L 382.41523 69.12 
" style="fill:none;stroke:#ffffff;stroke-linecap:round;"/>
     </g>
     <g id="text_3">
      <!-- 200 -->
      <defs>
       <path d="M 50.34375 8.453125 
L 50.34375 0 
L 3.03125 0 
Q 2.9375 3.171875 4.046875 6.109375 
Q 5.859375 10.9375 9.828125 15.625 
Q 13.8125 20.3125 21.34375 26.46875 
Q 33.015625 36.03125 37.109375 41.625 
Q 41.21875 47.21875 41.21875 52.203125 
Q 41.21875 57.421875 37.46875 61 
Q 33.734375 64.59375 27.734375 64.59375 
Q 21.390625 64.59375 17.578125 60.78125 
Q 13.765625 56.984375 13.71875 50.25 
L 4.6875 51.171875 
Q 5.609375 61.28125 11.65625 66.578125 
Q 17.71875 71.875 27.9375 71.875 
Q 38.234375 71.875 44.234375 66.15625 
Q 50.25 60.453125 50.25 52 
Q 50.25 47.703125 48.484375 43.546875 
Q 46.734375 39.40625 42.65625 34.8125 
Q 38.578125 30.21875 29.109375 22.21875 
Q 21.1875 15.578125 18.9375 13.203125 
Q 16.703125 10.84375 15.234375 8.453125 
z
" id="ArialMT-50"/>
      </defs>
      <g style="fill:#262626;" transform="translate(373.239684 521.373594)scale(0.11 -0.11)">
       <use xlink:href="#ArialMT-50"/>
       <use x="55.615234" xlink:href="#ArialMT-48"/>
       <use x="111.230469" xlink:href="#ArialMT-48"/>
      </g>
     </g>
    </g>
    <g id="xtick_4">
     <g id="line2d_4">
      <path clip-path="url(#p43a5541bea)" d="M 504.404664 504 
L 504.404664 69.12 
" style="fill:none;stroke:#ffffff;stroke-linecap:round;"/>
     </g>
     <g id="text_4">
      <!-- 300 -->
      <defs>
       <path d="M 4.203125 18.890625 
L 12.984375 20.0625 
Q 14.5 12.59375 18.140625 9.296875 
Q 21.78125 6 27 6 
Q 33.203125 6 37.46875 10.296875 
Q 41.75 14.59375 41.75 20.953125 
Q 41.75 27 37.796875 30.921875 
Q 33.84375 34.859375 27.734375 34.859375 
Q 25.25 34.859375 21.53125 33.890625 
L 22.515625 41.609375 
Q 23.390625 41.5 23.921875 41.5 
Q 29.546875 41.5 34.03125 44.421875 
Q 38.53125 47.359375 38.53125 53.46875 
Q 38.53125 58.296875 35.25 61.46875 
Q 31.984375 64.65625 26.8125 64.65625 
Q 21.6875 64.65625 18.265625 61.421875 
Q 14.84375 58.203125 13.875 51.765625 
L 5.078125 53.328125 
Q 6.6875 62.15625 12.390625 67.015625 
Q 18.109375 71.875 26.609375 71.875 
Q 32.46875 71.875 37.390625 69.359375 
Q 42.328125 66.84375 44.9375 62.5 
Q 47.5625 58.15625 47.5625 53.265625 
Q 47.5625 48.640625 45.0625 44.828125 
Q 42.578125 41.015625 37.703125 38.765625 
Q 44.046875 37.3125 47.5625 32.6875 
Q 51.078125 28.078125 51.078125 21.140625 
Q 51.078125 11.765625 44.234375 5.25 
Q 37.40625 -1.265625 26.953125 -1.265625 
Q 17.53125 -1.265625 11.296875 4.34375 
Q 5.078125 9.96875 4.203125 18.890625 
z
" id="ArialMT-51"/>
      </defs>
      <g style="fill:#262626;" transform="translate(495.229117 521.373594)scale(0.11 -0.11)">
       <use xlink:href="#ArialMT-51"/>
       <use x="55.615234" xlink:href="#ArialMT-48"/>
       <use x="111.230469" xlink:href="#ArialMT-48"/>
      </g>
     </g>
    </g>
    <g id="xtick_5">
     <g id="line2d_5">
      <path clip-path="url(#p43a5541bea)" d="M 626.394097 504 
L 626.394097 69.12 
" style="fill:none;stroke:#ffffff;stroke-linecap:round;"/>
     </g>
     <g id="text_5">
      <!-- 400 -->
      <defs>
       <path d="M 32.328125 0 
L 32.328125 17.140625 
L 1.265625 17.140625 
L 1.265625 25.203125 
L 33.9375 71.578125 
L 41.109375 71.578125 
L 41.109375 25.203125 
L 50.78125 25.203125 
L 50.78125 17.140625 
L 41.109375 17.140625 
L 41.109375 0 
z
M 32.328125 25.203125 
L 32.328125 57.46875 
L 9.90625 25.203125 
z
" id="ArialMT-52"/>
      </defs>
      <g style="fill:#262626;" transform="translate(617.21855 521.373594)scale(0.11 -0.11)">
       <use xlink:href="#ArialMT-52"/>
       <use x="55.615234" xlink:href="#ArialMT-48"/>
       <use x="111.230469" xlink:href="#ArialMT-48"/>
      </g>
     </g>
    </g>
    <g id="xtick_6">
     <g id="line2d_6">
      <path clip-path="url(#p43a5541bea)" d="M 748.383531 504 
L 748.383531 69.12 
" style="fill:none;stroke:#ffffff;stroke-linecap:round;"/>
     </g>
     <g id="text_6">
      <!-- 500 -->
      <defs>
       <path d="M 4.15625 18.75 
L 13.375 19.53125 
Q 14.40625 12.796875 18.140625 9.390625 
Q 21.875 6 27.15625 6 
Q 33.5 6 37.890625 10.78125 
Q 42.28125 15.578125 42.28125 23.484375 
Q 42.28125 31 38.0625 35.34375 
Q 33.84375 39.703125 27 39.703125 
Q 22.75 39.703125 19.328125 37.765625 
Q 15.921875 35.84375 13.96875 32.765625 
L 5.71875 33.84375 
L 12.640625 70.609375 
L 48.25 70.609375 
L 48.25 62.203125 
L 19.671875 62.203125 
L 15.828125 42.96875 
Q 22.265625 47.46875 29.34375 47.46875 
Q 38.71875 47.46875 45.15625 40.96875 
Q 51.609375 34.46875 51.609375 24.265625 
Q 51.609375 14.546875 45.953125 7.46875 
Q 39.0625 -1.21875 27.15625 -1.21875 
Q 17.390625 -1.21875 11.203125 4.25 
Q 5.03125 9.71875 4.15625 18.75 
z
" id="ArialMT-53"/>
      </defs>
      <g style="fill:#262626;" transform="translate(739.207984 521.373594)scale(0.11 -0.11)">
       <use xlink:href="#ArialMT-53"/>
       <use x="55.615234" xlink:href="#ArialMT-48"/>
       <use x="111.230469" xlink:href="#ArialMT-48"/>
      </g>
     </g>
    </g>
    <g id="text_7">
     <!-- Iteration Number -->
     <defs>
      <path d="M 9.328125 0 
L 9.328125 71.578125 
L 18.796875 71.578125 
L 18.796875 0 
z
" id="ArialMT-73"/>
      <path d="M 25.78125 7.859375 
L 27.046875 0.09375 
Q 23.34375 -0.6875 20.40625 -0.6875 
Q 15.625 -0.6875 12.984375 0.828125 
Q 10.359375 2.34375 9.28125 4.8125 
Q 8.203125 7.28125 8.203125 15.1875 
L 8.203125 45.015625 
L 1.765625 45.015625 
L 1.765625 51.859375 
L 8.203125 51.859375 
L 8.203125 64.703125 
L 16.9375 69.96875 
L 16.9375 51.859375 
L 25.78125 51.859375 
L 25.78125 45.015625 
L 16.9375 45.015625 
L 16.9375 14.703125 
Q 16.9375 10.9375 17.40625 9.859375 
Q 17.875 8.796875 18.921875 8.15625 
Q 19.96875 7.515625 21.921875 7.515625 
Q 23.390625 7.515625 25.78125 7.859375 
z
" id="ArialMT-116"/>
      <path d="M 42.09375 16.703125 
L 51.171875 15.578125 
Q 49.03125 7.625 43.21875 3.21875 
Q 37.40625 -1.171875 28.375 -1.171875 
Q 17 -1.171875 10.328125 5.828125 
Q 3.65625 12.84375 3.65625 25.484375 
Q 3.65625 38.578125 10.390625 45.796875 
Q 17.140625 53.03125 27.875 53.03125 
Q 38.28125 53.03125 44.875 45.953125 
Q 51.46875 38.875 51.46875 26.03125 
Q 51.46875 25.25 51.421875 23.6875 
L 12.75 23.6875 
Q 13.234375 15.140625 17.578125 10.59375 
Q 21.921875 6.0625 28.421875 6.0625 
Q 33.25 6.0625 36.671875 8.59375 
Q 40.09375 11.140625 42.09375 16.703125 
z
M 13.234375 30.90625 
L 42.1875 30.90625 
Q 41.609375 37.453125 38.875 40.71875 
Q 34.671875 45.796875 27.984375 45.796875 
Q 21.921875 45.796875 17.796875 41.75 
Q 13.671875 37.703125 13.234375 30.90625 
z
" id="ArialMT-101"/>
      <path d="M 6.5 0 
L 6.5 51.859375 
L 14.40625 51.859375 
L 14.40625 44 
Q 17.4375 49.515625 20 51.265625 
Q 22.5625 53.03125 25.640625 53.03125 
Q 30.078125 53.03125 34.671875 50.203125 
L 31.640625 42.046875 
Q 28.421875 43.953125 25.203125 43.953125 
Q 22.3125 43.953125 20.015625 42.21875 
Q 17.71875 40.484375 16.75 37.40625 
Q 15.28125 32.71875 15.28125 27.15625 
L 15.28125 0 
z
" id="ArialMT-114"/>
      <path d="M 40.4375 6.390625 
Q 35.546875 2.25 31.03125 0.53125 
Q 26.515625 -1.171875 21.34375 -1.171875 
Q 12.796875 -1.171875 8.203125 3 
Q 3.609375 7.171875 3.609375 13.671875 
Q 3.609375 17.484375 5.34375 20.625 
Q 7.078125 23.78125 9.890625 25.6875 
Q 12.703125 27.59375 16.21875 28.5625 
Q 18.796875 29.25 24.03125 29.890625 
Q 34.671875 31.15625 39.703125 32.90625 
Q 39.75 34.71875 39.75 35.203125 
Q 39.75 40.578125 37.25 42.78125 
Q 33.890625 45.75 27.25 45.75 
Q 21.046875 45.75 18.09375 43.578125 
Q 15.140625 41.40625 13.71875 35.890625 
L 5.125 37.0625 
Q 6.296875 42.578125 8.984375 45.96875 
Q 11.671875 49.359375 16.75 51.1875 
Q 21.828125 53.03125 28.515625 53.03125 
Q 35.15625 53.03125 39.296875 51.46875 
Q 43.453125 49.90625 45.40625 47.53125 
Q 47.359375 45.171875 48.140625 41.546875 
Q 48.578125 39.3125 48.578125 33.453125 
L 48.578125 21.734375 
Q 48.578125 9.46875 49.140625 6.21875 
Q 49.703125 2.984375 51.375 0 
L 42.1875 0 
Q 40.828125 2.734375 40.4375 6.390625 
z
M 39.703125 26.03125 
Q 34.90625 24.078125 25.34375 22.703125 
Q 19.921875 21.921875 17.671875 20.9375 
Q 15.4375 19.96875 14.203125 18.09375 
Q 12.984375 16.21875 12.984375 13.921875 
Q 12.984375 10.40625 15.640625 8.0625 
Q 18.3125 5.71875 23.4375 5.71875 
Q 28.515625 5.71875 32.46875 7.9375 
Q 36.421875 10.15625 38.28125 14.015625 
Q 39.703125 17 39.703125 22.796875 
z
" id="ArialMT-97"/>
      <path d="M 6.640625 61.46875 
L 6.640625 71.578125 
L 15.4375 71.578125 
L 15.4375 61.46875 
z
M 6.640625 0 
L 6.640625 51.859375 
L 15.4375 51.859375 
L 15.4375 0 
z
" id="ArialMT-105"/>
      <path d="M 3.328125 25.921875 
Q 3.328125 40.328125 11.328125 47.265625 
Q 18.015625 53.03125 27.640625 53.03125 
Q 38.328125 53.03125 45.109375 46.015625 
Q 51.90625 39.015625 51.90625 26.65625 
Q 51.90625 16.65625 48.90625 10.90625 
Q 45.90625 5.171875 40.15625 2 
Q 34.421875 -1.171875 27.640625 -1.171875 
Q 16.75 -1.171875 10.03125 5.8125 
Q 3.328125 12.796875 3.328125 25.921875 
z
M 12.359375 25.921875 
Q 12.359375 15.96875 16.703125 11.015625 
Q 21.046875 6.0625 27.640625 6.0625 
Q 34.1875 6.0625 38.53125 11.03125 
Q 42.875 16.015625 42.875 26.21875 
Q 42.875 35.84375 38.5 40.796875 
Q 34.125 45.75 27.640625 45.75 
Q 21.046875 45.75 16.703125 40.8125 
Q 12.359375 35.890625 12.359375 25.921875 
z
" id="ArialMT-111"/>
      <path d="M 6.59375 0 
L 6.59375 51.859375 
L 14.5 51.859375 
L 14.5 44.484375 
Q 20.21875 53.03125 31 53.03125 
Q 35.6875 53.03125 39.625 51.34375 
Q 43.5625 49.65625 45.515625 46.921875 
Q 47.46875 44.1875 48.25 40.4375 
Q 48.734375 37.984375 48.734375 31.890625 
L 48.734375 0 
L 39.9375 0 
L 39.9375 31.546875 
Q 39.9375 36.921875 38.90625 39.578125 
Q 37.890625 42.234375 35.28125 43.8125 
Q 32.671875 45.40625 29.15625 45.40625 
Q 23.53125 45.40625 19.453125 41.84375 
Q 15.375 38.28125 15.375 28.328125 
L 15.375 0 
z
" id="ArialMT-110"/>
      <path id="ArialMT-32"/>
      <path d="M 7.625 0 
L 7.625 71.578125 
L 17.328125 71.578125 
L 54.9375 15.375 
L 54.9375 71.578125 
L 64.015625 71.578125 
L 64.015625 0 
L 54.296875 0 
L 16.703125 56.25 
L 16.703125 0 
z
" id="ArialMT-78"/>
      <path d="M 40.578125 0 
L 40.578125 7.625 
Q 34.515625 -1.171875 24.125 -1.171875 
Q 19.53125 -1.171875 15.546875 0.578125 
Q 11.578125 2.34375 9.640625 5 
Q 7.71875 7.671875 6.9375 11.53125 
Q 6.390625 14.109375 6.390625 19.734375 
L 6.390625 51.859375 
L 15.1875 51.859375 
L 15.1875 23.09375 
Q 15.1875 16.21875 15.71875 13.8125 
Q 16.546875 10.359375 19.234375 8.375 
Q 21.921875 6.390625 25.875 6.390625 
Q 29.828125 6.390625 33.296875 8.421875 
Q 36.765625 10.453125 38.203125 13.9375 
Q 39.65625 17.4375 39.65625 24.078125 
L 39.65625 51.859375 
L 48.4375 51.859375 
L 48.4375 0 
z
" id="ArialMT-117"/>
      <path d="M 6.59375 0 
L 6.59375 51.859375 
L 14.453125 51.859375 
L 14.453125 44.578125 
Q 16.890625 48.390625 20.9375 50.703125 
Q 25 53.03125 30.171875 53.03125 
Q 35.9375 53.03125 39.625 50.640625 
Q 43.3125 48.25 44.828125 43.953125 
Q 50.984375 53.03125 60.84375 53.03125 
Q 68.5625 53.03125 72.703125 48.75 
Q 76.859375 44.484375 76.859375 35.59375 
L 76.859375 0 
L 68.109375 0 
L 68.109375 32.671875 
Q 68.109375 37.9375 67.25 40.25 
Q 66.40625 42.578125 64.15625 43.984375 
Q 61.921875 45.40625 58.890625 45.40625 
Q 53.421875 45.40625 49.796875 41.765625 
Q 46.1875 38.140625 46.1875 30.125 
L 46.1875 0 
L 37.40625 0 
L 37.40625 33.6875 
Q 37.40625 39.546875 35.25 42.46875 
Q 33.109375 45.40625 28.21875 45.40625 
Q 24.515625 45.40625 21.359375 43.453125 
Q 18.21875 41.5 16.796875 37.734375 
Q 15.375 33.984375 15.375 26.90625 
L 15.375 0 
z
" id="ArialMT-109"/>
      <path d="M 14.703125 0 
L 6.546875 0 
L 6.546875 71.578125 
L 15.328125 71.578125 
L 15.328125 46.046875 
Q 20.90625 53.03125 29.546875 53.03125 
Q 34.328125 53.03125 38.59375 51.09375 
Q 42.875 49.171875 45.625 45.671875 
Q 48.390625 42.1875 49.953125 37.25 
Q 51.515625 32.328125 51.515625 26.703125 
Q 51.515625 13.375 44.921875 6.09375 
Q 38.328125 -1.171875 29.109375 -1.171875 
Q 19.921875 -1.171875 14.703125 6.5 
z
M 14.59375 26.3125 
Q 14.59375 17 17.140625 12.84375 
Q 21.296875 6.0625 28.375 6.0625 
Q 34.125 6.0625 38.328125 11.0625 
Q 42.53125 16.0625 42.53125 25.984375 
Q 42.53125 36.140625 38.5 40.96875 
Q 34.46875 45.796875 28.765625 45.796875 
Q 23 45.796875 18.796875 40.796875 
Q 14.59375 35.796875 14.59375 26.3125 
z
" id="ArialMT-98"/>
     </defs>
     <g style="fill:#262626;" transform="translate(375.775313 540.443906)scale(0.18 -0.18)">
      <use xlink:href="#ArialMT-73"/>
      <use x="27.783203" xlink:href="#ArialMT-116"/>
      <use x="55.566406" xlink:href="#ArialMT-101"/>
      <use x="111.181641" xlink:href="#ArialMT-114"/>
      <use x="144.482422" xlink:href="#ArialMT-97"/>
      <use x="200.097656" xlink:href="#ArialMT-116"/>
      <use x="227.880859" xlink:href="#ArialMT-105"/>
      <use x="250.097656" xlink:href="#ArialMT-111"/>
      <use x="305.712891" xlink:href="#ArialMT-110"/>
      <use x="361.328125" xlink:href="#ArialMT-32"/>
      <use x="389.111328" xlink:href="#ArialMT-78"/>
      <use x="461.328125" xlink:href="#ArialMT-117"/>
      <use x="516.943359" xlink:href="#ArialMT-109"/>
      <use x="600.244141" xlink:href="#ArialMT-98"/>
      <use x="655.859375" xlink:href="#ArialMT-101"/>
      <use x="711.474609" xlink:href="#ArialMT-114"/>
     </g>
    </g>
   </g>
   <g id="matplotlib.axis_2">
    <g id="ytick_1">
     <g id="line2d_7">
      <path clip-path="url(#p43a5541bea)" d="M 108 497.934449 
L 777.6 497.934449 
" style="fill:none;stroke:#ffffff;stroke-linecap:round;"/>
     </g>
     <g id="text_8">
      <!-- −1.0 -->
      <defs>
       <path d="M 52.828125 31.203125 
L 5.5625 31.203125 
L 5.5625 39.40625 
L 52.828125 39.40625 
z
" id="ArialMT-8722"/>
       <path d="M 9.078125 0 
L 9.078125 10.015625 
L 19.09375 10.015625 
L 19.09375 0 
z
" id="ArialMT-46"/>
      </defs>
      <g style="fill:#262626;" transform="translate(76.785313 501.871246)scale(0.11 -0.11)">
       <use xlink:href="#ArialMT-8722"/>
       <use x="58.398438" xlink:href="#ArialMT-49"/>
       <use x="114.013672" xlink:href="#ArialMT-46"/>
       <use x="141.796875" xlink:href="#ArialMT-48"/>
      </g>
     </g>
    </g>
    <g id="ytick_2">
     <g id="line2d_8">
      <path clip-path="url(#p43a5541bea)" d="M 108 405.889423 
L 777.6 405.889423 
" style="fill:none;stroke:#ffffff;stroke-linecap:round;"/>
     </g>
     <g id="text_9">
      <!-- −0.5 -->
      <g style="fill:#262626;" transform="translate(76.785313 409.82622)scale(0.11 -0.11)">
       <use xlink:href="#ArialMT-8722"/>
       <use x="58.398438" xlink:href="#ArialMT-48"/>
       <use x="114.013672" xlink:href="#ArialMT-46"/>
       <use x="141.796875" xlink:href="#ArialMT-53"/>
      </g>
     </g>
    </g>
    <g id="ytick_3">
     <g id="line2d_9">
      <path clip-path="url(#p43a5541bea)" d="M 108 313.844398 
L 777.6 313.844398 
" style="fill:none;stroke:#ffffff;stroke-linecap:round;"/>
     </g>
     <g id="text_10">
      <!-- 0.0 -->
      <g style="fill:#262626;" transform="translate(83.21 317.781194)scale(0.11 -0.11)">
       <use xlink:href="#ArialMT-48"/>
       <use x="55.615234" xlink:href="#ArialMT-46"/>
       <use x="83.398438" xlink:href="#ArialMT-48"/>
      </g>
     </g>
    </g>
    <g id="ytick_4">
     <g id="line2d_10">
      <path clip-path="url(#p43a5541bea)" d="M 108 221.799372 
L 777.6 221.799372 
" style="fill:none;stroke:#ffffff;stroke-linecap:round;"/>
     </g>
     <g id="text_11">
      <!-- 0.5 -->
      <g style="fill:#262626;" transform="translate(83.21 225.736169)scale(0.11 -0.11)">
       <use xlink:href="#ArialMT-48"/>
       <use x="55.615234" xlink:href="#ArialMT-46"/>
       <use x="83.398438" xlink:href="#ArialMT-53"/>
      </g>
     </g>
    </g>
    <g id="ytick_5">
     <g id="line2d_11">
      <path clip-path="url(#p43a5541bea)" d="M 108 129.754346 
L 777.6 129.754346 
" style="fill:none;stroke:#ffffff;stroke-linecap:round;"/>
     </g>
     <g id="text_12">
      <!-- 1.0 -->
      <g style="fill:#262626;" transform="translate(83.21 133.691143)scale(0.11 -0.11)">
       <use xlink:href="#ArialMT-49"/>
       <use x="55.615234" xlink:href="#ArialMT-46"/>
       <use x="83.398438" xlink:href="#ArialMT-48"/>
      </g>
     </g>
    </g>
    <g id="text_13">
     <!-- Estimate -->
     <defs>
      <path d="M 7.90625 0 
L 7.90625 71.578125 
L 59.671875 71.578125 
L 59.671875 63.140625 
L 17.390625 63.140625 
L 17.390625 41.21875 
L 56.984375 41.21875 
L 56.984375 32.8125 
L 17.390625 32.8125 
L 17.390625 8.453125 
L 61.328125 8.453125 
L 61.328125 0 
z
" id="ArialMT-69"/>
      <path d="M 3.078125 15.484375 
L 11.765625 16.84375 
Q 12.5 11.625 15.84375 8.84375 
Q 19.1875 6.0625 25.203125 6.0625 
Q 31.25 6.0625 34.171875 8.515625 
Q 37.109375 10.984375 37.109375 14.3125 
Q 37.109375 17.28125 34.515625 19 
Q 32.71875 20.171875 25.53125 21.96875 
Q 15.875 24.421875 12.140625 26.203125 
Q 8.40625 27.984375 6.46875 31.125 
Q 4.546875 34.28125 4.546875 38.09375 
Q 4.546875 41.546875 6.125 44.5 
Q 7.71875 47.46875 10.453125 49.421875 
Q 12.5 50.921875 16.03125 51.96875 
Q 19.578125 53.03125 23.640625 53.03125 
Q 29.734375 53.03125 34.34375 51.265625 
Q 38.96875 49.515625 41.15625 46.5 
Q 43.359375 43.5 44.1875 38.484375 
L 35.59375 37.3125 
Q 35.015625 41.3125 32.203125 43.546875 
Q 29.390625 45.796875 24.265625 45.796875 
Q 18.21875 45.796875 15.625 43.796875 
Q 13.03125 41.796875 13.03125 39.109375 
Q 13.03125 37.40625 14.109375 36.03125 
Q 15.1875 34.625 17.484375 33.6875 
Q 18.796875 33.203125 25.25 31.453125 
Q 34.578125 28.953125 38.25 27.359375 
Q 41.9375 25.78125 44.03125 22.75 
Q 46.140625 19.734375 46.140625 15.234375 
Q 46.140625 10.84375 43.578125 6.953125 
Q 41.015625 3.078125 36.171875 0.953125 
Q 31.34375 -1.171875 25.25 -1.171875 
Q 15.140625 -1.171875 9.84375 3.03125 
Q 4.546875 7.234375 3.078125 15.484375 
z
" id="ArialMT-115"/>
     </defs>
     <g style="fill:#262626;" transform="translate(69.207813 321.57)rotate(-90)scale(0.18 -0.18)">
      <use xlink:href="#ArialMT-69"/>
      <use x="66.699219" xlink:href="#ArialMT-115"/>
      <use x="116.699219" xlink:href="#ArialMT-116"/>
      <use x="144.482422" xlink:href="#ArialMT-105"/>
      <use x="166.699219" xlink:href="#ArialMT-109"/>
      <use x="250" xlink:href="#ArialMT-97"/>
      <use x="305.615234" xlink:href="#ArialMT-116"/>
      <use x="333.398438" xlink:href="#ArialMT-101"/>
     </g>
    </g>
   </g>
   <g id="line2d_12">
    <path clip-path="url(#p43a5541bea)" d="M 108 92.936336 
L 777.6 92.936336 
" style="fill:none;stroke:#c44e52;stroke-linecap:round;stroke-width:1.5;"/>
   </g>
   <g id="line2d_13">
    <path clip-path="url(#p43a5541bea)" d="M 138.436364 376.028615 
L 139.656258 260.522048 
L 140.876152 313.844398 
L 142.096047 377.156672 
L 143.315941 374.068723 
L 145.75573 368.606153 
L 146.975624 367.260649 
L 148.195518 366.499626 
L 150.635307 366.602737 
L 151.855201 366.982502 
L 153.075096 365.965291 
L 154.29499 364.444487 
L 155.514884 353.537983 
L 156.734779 340.496098 
L 157.954673 320.974886 
L 159.174567 309.622154 
L 160.394462 295.052637 
L 161.614356 291.725623 
L 162.83425 291.725581 
L 164.054145 293.196303 
L 165.274039 292.580914 
L 166.493933 280.82831 
L 167.713828 276.075421 
L 168.933722 273.7296 
L 170.153616 271.831591 
L 171.373511 267.627568 
L 172.593405 260.294862 
L 173.813299 258.792732 
L 175.033194 260.343079 
L 176.253088 260.151635 
L 177.472982 260.578865 
L 178.692877 260.575439 
L 179.912771 260.385606 
L 181.132665 250.758196 
L 182.35256 247.329733 
L 183.572454 241.483878 
L 184.792348 237.091993 
L 186.012243 235.785284 
L 187.232137 238.880716 
L 188.452031 235.336195 
L 189.671926 237.190655 
L 190.89182 237.180489 
L 192.111714 235.374261 
L 193.331609 231.48634 
L 194.551503 226.212293 
L 195.771397 218.030035 
L 196.991292 215.58862 
L 198.211186 216.857597 
L 199.43108 217.368849 
L 200.650975 218.2106 
L 203.090763 203.844024 
L 205.530552 210.311239 
L 206.750446 199.570454 
L 207.970341 202.253822 
L 209.190235 206.876636 
L 210.410129 207.795115 
L 211.630024 204.738834 
L 212.849918 203.825949 
L 214.069812 198.716706 
L 215.289707 197.381558 
L 217.729495 197.641264 
L 218.94939 198.744241 
L 220.169284 200.638683 
L 221.389178 200.081693 
L 222.609073 198.23194 
L 223.828967 197.977359 
L 225.048861 201.71362 
L 226.268756 199.762352 
L 227.48865 200.746458 
L 228.708544 197.154634 
L 229.928439 170.450842 
L 231.148333 170.592445 
L 232.368227 175.056409 
L 234.808016 175.081686 
L 236.02791 172.803068 
L 237.247805 172.679029 
L 238.467699 172.300869 
L 239.687593 164.433626 
L 240.907488 159.204665 
L 242.127382 166.991707 
L 243.347276 163.949704 
L 244.567171 165.159851 
L 245.787065 165.265233 
L 247.006959 164.858725 
L 248.226854 165.236436 
L 249.446748 164.66964 
L 250.666642 158.418432 
L 251.886537 161.234091 
L 254.326325 159.333199 
L 255.54622 157.534479 
L 256.766114 153.464376 
L 257.986008 155.780703 
L 259.205903 156.197499 
L 260.425797 155.808009 
L 261.645691 156.472721 
L 262.865586 156.179244 
L 264.08548 155.611739 
L 265.305374 153.344442 
L 266.525269 143.798939 
L 267.745163 163.774643 
L 268.965057 154.548043 
L 270.184952 165.033427 
L 271.404846 166.153435 
L 272.62474 166.027457 
L 273.844635 167.60424 
L 275.064529 167.09708 
L 276.284423 167.813988 
L 277.504318 163.310149 
L 278.724212 174.097765 
L 279.944106 174.320407 
L 281.164001 174.417351 
L 282.383895 174.306521 
L 283.603789 170.596416 
L 284.823684 168.648435 
L 286.043578 173.779025 
L 287.263472 172.824361 
L 289.703261 172.605467 
L 292.14305 172.910523 
L 293.362944 167.958083 
L 294.582838 173.202314 
L 295.802733 172.889378 
L 299.462416 172.889342 
L 300.68231 171.136028 
L 301.902204 164.202051 
L 303.122099 152.629467 
L 304.341993 159.530545 
L 305.561887 160.400389 
L 306.781782 161.475178 
L 308.001676 151.373628 
L 309.22157 150.34789 
L 310.441465 150.427654 
L 311.661359 150.785892 
L 314.101148 153.387255 
L 315.321042 158.80425 
L 316.540936 156.951755 
L 317.760831 156.581413 
L 318.980725 156.522721 
L 320.200619 156.812801 
L 321.420514 155.269477 
L 322.640408 156.785111 
L 323.860302 157.651514 
L 325.080197 152.376452 
L 326.300091 155.139828 
L 327.519985 155.742177 
L 328.73988 155.449136 
L 329.959774 155.444119 
L 331.179668 155.977698 
L 332.399563 153.824371 
L 333.619457 153.617831 
L 334.839351 157.560294 
L 336.059246 165.807977 
L 337.27914 166.658887 
L 338.499034 162.561287 
L 339.718929 164.290151 
L 340.938823 165.157619 
L 342.158717 165.255304 
L 343.378612 172.981552 
L 344.598506 165.289297 
L 345.8184 163.810901 
L 347.038295 157.252808 
L 348.258189 135.315193 
L 349.478083 123.383488 
L 350.697978 130.06232 
L 351.917872 129.761241 
L 353.137766 129.741683 
L 354.357661 132.243505 
L 355.577555 124.068724 
L 356.797449 129.825435 
L 358.017344 129.607604 
L 359.237238 129.823576 
L 360.457132 126.934046 
L 361.677027 124.414358 
L 362.896921 125.199621 
L 364.116815 127.218735 
L 365.33671 121.344973 
L 366.556604 107.59874 
L 367.776498 110.101863 
L 368.996393 109.790112 
L 370.216287 111.02776 
L 371.436181 110.663029 
L 372.656076 111.596363 
L 373.87597 111.005399 
L 375.095864 110.140391 
L 376.315759 115.485036 
L 377.535653 116.989848 
L 378.755547 115.861835 
L 379.975442 111.843973 
L 381.195336 121.691635 
L 382.41523 122.76422 
L 383.635125 122.664177 
L 386.074913 123.313359 
L 387.294808 125.475753 
L 388.514702 125.413982 
L 389.734596 125.237318 
L 390.954491 124.560326 
L 392.174385 121.240044 
L 393.394279 115.458619 
L 394.614174 114.539999 
L 395.834068 118.377533 
L 397.053962 117.028729 
L 398.273857 127.272406 
L 399.493751 129.632308 
L 400.713645 125.422961 
L 401.93354 114.38262 
L 403.153434 106.733289 
L 404.373328 112.73572 
L 405.593223 112.74583 
L 406.813117 111.643652 
L 408.033011 109.729187 
L 409.252906 110.416862 
L 410.4728 111.348507 
L 411.692694 109.395263 
L 412.912589 114.779898 
L 414.132483 114.674038 
L 415.352377 115.110864 
L 416.572272 114.249965 
L 417.792166 115.145484 
L 419.01206 114.637907 
L 420.231955 105.241146 
L 421.451849 109.936153 
L 422.671743 114.156054 
L 423.891638 115.680823 
L 425.111532 115.02259 
L 426.331426 114.86135 
L 427.551321 113.546321 
L 428.771215 118.308475 
L 429.991109 116.509625 
L 431.211004 119.972584 
L 432.430898 121.933367 
L 433.650792 125.393549 
L 434.870687 124.651223 
L 436.090581 128.688084 
L 437.310475 125.648185 
L 438.53037 118.342088 
L 439.750264 118.71854 
L 440.970158 111.203794 
L 442.190053 117.920701 
L 443.409947 117.308188 
L 444.629842 115.830422 
L 445.849736 125.410392 
L 447.06963 119.152049 
L 448.289525 117.495232 
L 449.509419 117.645396 
L 450.729313 119.500304 
L 454.388996 109.773548 
L 455.608891 113.390708 
L 456.828785 114.186773 
L 458.048679 111.60055 
L 459.268574 113.353127 
L 460.488468 113.355418 
L 461.708362 113.56052 
L 462.928257 112.986541 
L 464.148151 113.530362 
L 465.368045 113.436169 
L 466.58794 110.464635 
L 467.807834 105.494157 
L 469.027728 106.986091 
L 470.247623 107.47845 
L 471.467517 107.532138 
L 472.687411 107.841835 
L 475.1272 108.171796 
L 476.347094 107.203526 
L 477.566989 102.924178 
L 478.786883 88.887273 
L 480.006777 104.910802 
L 481.226672 105.451119 
L 482.446566 107.801452 
L 483.66646 107.779827 
L 484.886355 108.02709 
L 486.106249 106.205988 
L 487.326143 105.165706 
L 488.546038 107.153538 
L 489.765932 107.021731 
L 492.205721 107.481937 
L 493.425615 102.679182 
L 494.645509 102.85686 
L 495.865404 104.888505 
L 498.305192 105.437549 
L 499.525087 105.472667 
L 500.744981 105.74362 
L 501.964875 105.349908 
L 503.18477 101.775233 
L 504.404664 107.057853 
L 505.624558 106.844561 
L 506.844453 107.793528 
L 508.064347 108.115718 
L 509.284241 108.575793 
L 510.504136 108.550511 
L 511.72403 107.208773 
L 512.943924 122.317967 
L 514.163819 121.614048 
L 515.383713 117.106837 
L 516.603607 126.717206 
L 517.823502 126.920084 
L 519.043396 137.201717 
L 520.26329 137.213931 
L 522.703079 127.589795 
L 525.142868 120.721542 
L 526.362762 119.598849 
L 527.582656 118.244363 
L 528.802551 119.633989 
L 530.022445 120.445095 
L 531.242339 125.693305 
L 532.462234 124.670546 
L 533.682128 131.432822 
L 534.902022 139.614859 
L 536.121917 139.711126 
L 538.561705 138.677171 
L 539.7816 137.20144 
L 541.001494 128.441662 
L 542.221388 125.531925 
L 543.441283 124.340638 
L 544.661177 121.619808 
L 545.881071 121.931106 
L 548.32086 128.584652 
L 549.540754 128.793313 
L 550.760649 126.888451 
L 551.980543 130.330018 
L 553.200437 130.956093 
L 554.420332 130.9144 
L 555.640226 128.683442 
L 556.86012 112.135867 
L 558.080015 127.829916 
L 559.299909 128.753354 
L 560.519803 127.756111 
L 562.959592 127.741616 
L 564.179486 128.283379 
L 565.399381 129.640072 
L 566.619275 129.445695 
L 567.839169 128.24695 
L 569.059064 124.548465 
L 570.278958 123.017967 
L 571.498852 123.527875 
L 572.718747 121.773218 
L 573.938641 127.907056 
L 575.158535 127.884093 
L 576.37843 125.63548 
L 577.598324 129.296713 
L 578.818218 129.710714 
L 580.038113 129.967291 
L 581.258007 128.211695 
L 582.477901 124.228625 
L 583.697796 119.264996 
L 584.91769 124.542573 
L 586.137584 124.2642 
L 587.357479 124.168337 
L 588.577373 125.582019 
L 589.797267 122.870273 
L 591.017162 121.351982 
L 592.237056 121.684179 
L 593.45695 121.527529 
L 594.676845 121.040941 
L 595.896739 123.912359 
L 597.116633 123.515896 
L 598.336528 124.220596 
L 599.556422 123.356666 
L 600.776316 112.270775 
L 601.996211 109.933398 
L 603.216105 118.463719 
L 604.435999 117.970171 
L 605.655894 117.883787 
L 606.875788 117.154272 
L 608.095682 114.212515 
L 610.535471 98.187413 
L 611.755365 111.787626 
L 612.97526 112.5938 
L 614.195154 112.809772 
L 615.415048 113.773474 
L 616.634943 115.478111 
L 617.854837 114.154388 
L 619.074731 113.567185 
L 620.294626 109.372883 
L 621.51452 111.211754 
L 622.734414 108.609419 
L 623.954309 112.253996 
L 625.174203 113.233491 
L 626.394097 112.30931 
L 627.613992 110.26688 
L 628.833886 113.247972 
L 630.05378 114.24425 
L 631.273675 108.681129 
L 632.493569 114.611644 
L 633.713463 114.600037 
L 634.933358 114.415188 
L 636.153252 113.849356 
L 637.373146 113.951137 
L 638.593041 113.320314 
L 639.812935 117.596305 
L 641.032829 113.390957 
L 642.252724 114.335296 
L 643.472618 116.351575 
L 644.692512 110.158756 
L 645.912407 113.08074 
L 647.132301 112.474844 
L 648.352195 115.751863 
L 649.57209 115.749383 
L 650.791984 115.338923 
L 652.011878 114.697927 
L 653.231773 116.114685 
L 654.451667 115.819908 
L 655.671561 109.147788 
L 656.891456 114.691597 
L 658.11135 115.05384 
L 659.331244 114.490147 
L 660.551139 114.365467 
L 661.771033 114.484049 
L 662.990927 116.135943 
L 664.210822 104.636283 
L 665.430716 109.561637 
L 666.65061 111.394459 
L 667.870505 110.791313 
L 669.090399 111.428279 
L 670.310293 113.178454 
L 671.530188 112.454211 
L 672.750082 111.168674 
L 673.969976 108.222597 
L 675.189871 113.349188 
L 676.409765 113.336255 
L 678.849554 113.182823 
L 680.069448 113.310975 
L 681.289342 115.445059 
L 682.509237 113.464089 
L 683.729131 108.231944 
L 684.949025 105.15332 
L 686.16892 112.196569 
L 687.388814 113.147148 
L 688.608708 113.527488 
L 691.048497 111.582311 
L 692.268391 110.044449 
L 693.488286 105.011482 
L 694.70818 101.901969 
L 695.928074 103.446688 
L 697.147969 105.407333 
L 698.367863 103.462348 
L 699.587757 95.933741 
L 700.807652 106.144793 
L 702.027546 106.455696 
L 703.24744 104.607623 
L 704.467335 121.57571 
L 706.907123 113.614625 
L 708.127018 118.494851 
L 709.346912 120.027351 
L 710.566806 129.394105 
L 711.786701 130.075291 
L 713.006595 130.271223 
L 714.226489 135.142033 
L 715.446384 131.781815 
L 716.666278 134.742042 
L 719.106067 137.317278 
L 720.325961 137.091997 
L 721.545855 131.433798 
L 722.76575 115.669303 
L 723.985644 117.562845 
L 725.205538 121.296587 
L 726.425433 122.712521 
L 727.645327 122.154118 
L 728.865221 123.132292 
L 730.085116 122.152941 
L 731.30501 121.657907 
L 732.524904 119.680565 
L 733.744799 116.011473 
L 734.964693 114.517276 
L 736.184587 122.272793 
L 737.404482 123.849586 
L 738.624376 122.706162 
L 739.84427 122.876354 
L 741.064165 123.46169 
L 742.284059 123.120441 
L 743.503953 124.228716 
L 744.723848 123.608692 
L 745.943742 119.841492 
L 747.163636 104.370614 
L 747.163636 104.370614 
" style="fill:none;stroke:#4c72b0;stroke-linecap:round;stroke-width:1.5;"/>
   </g>
   <g id="line2d_14">
    <path clip-path="url(#p43a5541bea)" d="M 108 387.480418 
L 777.6 387.480418 
" style="fill:none;stroke:#c44e52;stroke-linecap:round;stroke-width:1.5;"/>
   </g>
   <g id="line2d_15">
    <path clip-path="url(#p43a5541bea)" d="M 138.436364 376.028615 
L 139.656258 260.522048 
L 140.876152 313.844398 
L 142.096047 259.008229 
L 143.315941 260.862999 
L 144.535835 259.372303 
L 145.75573 256.219233 
L 146.975624 252.64081 
L 148.195518 251.73937 
L 149.415413 251.506994 
L 150.635307 251.728319 
L 151.855201 251.712185 
L 153.075096 252.201972 
L 154.29499 250.26092 
L 155.514884 247.531587 
L 157.954673 223.10044 
L 159.174567 207.134312 
L 160.394462 194.997231 
L 161.614356 191.846854 
L 162.83425 191.831366 
L 164.054145 190.216812 
L 165.274039 190.059534 
L 166.493933 190.845801 
L 167.713828 187.659579 
L 168.933722 184.802901 
L 170.153616 181.200457 
L 171.373511 177.198196 
L 172.593405 174.622125 
L 173.813299 173.281075 
L 175.033194 176.246056 
L 176.253088 176.65756 
L 177.472982 176.913671 
L 178.692877 176.912934 
L 179.912771 181.067245 
L 181.132665 184.233583 
L 182.35256 182.513837 
L 183.572454 177.801636 
L 184.792348 175.628107 
L 186.012243 173.727551 
L 187.232137 176.565632 
L 188.452031 183.328365 
L 189.671926 183.618658 
L 190.89182 183.602763 
L 192.111714 183.827929 
L 193.331609 183.400905 
L 194.551503 181.218805 
L 195.771397 177.661364 
L 196.991292 176.503658 
L 198.211186 178.574612 
L 199.43108 179.957289 
L 200.650975 176.390532 
L 201.870869 179.085668 
L 203.090763 175.776523 
L 204.310658 176.941175 
L 205.530552 201.890149 
L 206.750446 210.007762 
L 207.970341 212.941372 
L 209.190235 215.41904 
L 210.410129 211.866665 
L 211.630024 214.451132 
L 212.849918 211.626312 
L 214.069812 212.627897 
L 215.289707 211.60215 
L 216.509601 211.684332 
L 217.729495 211.997952 
L 218.94939 213.928453 
L 220.169284 212.014969 
L 221.389178 213.602146 
L 222.609073 218.229841 
L 223.828967 218.305866 
L 225.048861 229.680289 
L 226.268756 232.118805 
L 227.48865 232.667521 
L 228.708544 227.153147 
L 229.928439 233.655443 
L 231.148333 233.72576 
L 232.368227 242.383058 
L 233.588122 242.959754 
L 234.808016 242.070507 
L 236.02791 242.649698 
L 237.247805 242.66187 
L 238.467699 241.236673 
L 239.687593 241.293969 
L 240.907488 242.45438 
L 242.127382 258.197411 
L 243.347276 266.726613 
L 244.567171 266.429407 
L 245.787065 265.695539 
L 248.226854 266.596651 
L 249.446748 268.442508 
L 250.666642 271.562077 
L 251.886537 272.62284 
L 253.106431 269.059027 
L 254.326325 269.153286 
L 255.54622 265.721372 
L 256.766114 265.694405 
L 257.986008 267.260452 
L 259.205903 269.132913 
L 260.425797 268.217728 
L 261.645691 268.266827 
L 262.865586 265.536552 
L 264.08548 265.713161 
L 265.305374 261.176567 
L 266.525269 262.457316 
L 267.745163 269.442686 
L 268.965057 292.714094 
L 270.184952 294.793924 
L 272.62474 291.586876 
L 273.844635 291.103684 
L 275.064529 292.379198 
L 276.284423 292.982789 
L 277.504318 296.389996 
L 279.944106 294.647415 
L 281.164001 294.374215 
L 282.383895 293.262624 
L 283.603789 294.418633 
L 284.823684 294.106308 
L 286.043578 300.656824 
L 287.263472 302.965268 
L 290.923155 302.736358 
L 292.14305 304.503982 
L 293.362944 306.626921 
L 294.582838 309.805975 
L 295.802733 312.655222 
L 299.462416 312.772984 
L 300.68231 313.251988 
L 301.902204 314.300417 
L 303.122099 307.340548 
L 304.341993 309.80864 
L 305.561887 316.37373 
L 306.781782 312.327662 
L 308.001676 317.71866 
L 309.22157 317.287748 
L 310.441465 317.448324 
L 311.661359 317.93181 
L 312.881253 319.897409 
L 314.101148 315.782306 
L 315.321042 312.414922 
L 316.540936 323.582134 
L 317.760831 323.724786 
L 318.980725 323.461602 
L 320.200619 323.9397 
L 321.420514 324.807801 
L 322.640408 327.378976 
L 323.860302 323.141507 
L 325.080197 326.178979 
L 326.300091 327.412432 
L 327.519985 331.65858 
L 328.73988 332.212347 
L 331.179668 332.190072 
L 332.399563 333.843191 
L 333.619457 333.767244 
L 334.839351 341.604908 
L 336.059246 335.756474 
L 337.27914 328.387647 
L 338.499034 331.683557 
L 339.718929 331.670984 
L 340.938823 334.626137 
L 342.158717 332.42186 
L 343.378612 329.642431 
L 344.598506 341.155894 
L 345.8184 340.828903 
L 347.038295 326.271336 
L 348.258189 327.88023 
L 349.478083 323.756548 
L 350.697978 331.753663 
L 351.917872 335.859388 
L 353.137766 336.721407 
L 354.357661 331.98696 
L 355.577555 338.140963 
L 356.797449 340.783852 
L 358.017344 346.068257 
L 359.237238 345.740762 
L 360.457132 347.052289 
L 361.677027 347.07923 
L 362.896921 347.943899 
L 364.116815 354.676644 
L 365.33671 363.957796 
L 366.556604 368.720956 
L 367.776498 367.978863 
L 368.996393 366.743326 
L 370.216287 368.101055 
L 371.436181 369.281316 
L 372.656076 369.272926 
L 373.87597 370.286053 
L 375.095864 370.072805 
L 376.315759 371.27466 
L 377.535653 369.422861 
L 378.755547 365.406886 
L 379.975442 365.172163 
L 381.195336 367.508686 
L 382.41523 364.399791 
L 383.635125 365.640868 
L 384.855019 365.347012 
L 386.074913 363.812621 
L 387.294808 362.562448 
L 388.514702 363.506469 
L 389.734596 363.602124 
L 390.954491 363.432719 
L 392.174385 362.846082 
L 393.394279 362.447055 
L 394.614174 361.925688 
L 395.834068 367.298586 
L 397.053962 376.11188 
L 398.273857 371.449943 
L 399.493751 363.28317 
L 400.713645 367.982715 
L 401.93354 368.823576 
L 403.153434 366.501547 
L 404.373328 371.990619 
L 405.593223 366.84802 
L 406.813117 367.31772 
L 408.033011 366.874563 
L 409.252906 367.028609 
L 410.4728 369.47769 
L 411.692694 374.124401 
L 412.912589 371.544765 
L 414.132483 372.645249 
L 415.352377 372.495673 
L 416.572272 373.574808 
L 417.792166 373.529041 
L 419.01206 370.432843 
L 420.231955 373.430625 
L 421.451849 372.838845 
L 422.671743 385.181708 
L 423.891638 381.338751 
L 425.111532 382.771219 
L 426.331426 382.794993 
L 427.551321 381.223115 
L 428.771215 382.059257 
L 429.991109 385.62847 
L 431.211004 386.46884 
L 432.430898 381.693195 
L 433.650792 375.764831 
L 434.870687 376.360334 
L 436.090581 381.478356 
L 437.310475 388.756937 
L 438.53037 389.175295 
L 439.750264 389.35148 
L 440.970158 373.28125 
L 442.190053 372.11776 
L 443.409947 368.977268 
L 444.629842 367.845916 
L 445.849736 368.131596 
L 447.06963 377.338892 
L 448.289525 376.762716 
L 449.509419 376.95425 
L 451.949208 384.953974 
L 453.169102 384.614056 
L 454.388996 382.296267 
L 455.608891 384.628629 
L 456.828785 378.087685 
L 458.048679 380.404432 
L 459.268574 380.497935 
L 460.488468 380.762446 
L 461.708362 380.429238 
L 462.928257 380.923608 
L 464.148151 381.181227 
L 465.368045 377.025176 
L 466.58794 378.537096 
L 467.807834 374.104125 
L 469.027728 374.746164 
L 471.467517 377.650026 
L 472.687411 377.383735 
L 473.907306 377.742157 
L 475.1272 376.793783 
L 476.347094 377.38064 
L 477.566989 374.700552 
L 478.786883 375.53993 
L 480.006777 378.396796 
L 481.226672 363.913254 
L 482.446566 362.676808 
L 483.66646 362.857588 
L 484.886355 362.651873 
L 486.106249 363.732952 
L 487.326143 363.88782 
L 488.546038 366.017482 
L 489.765932 367.833361 
L 490.985826 367.632547 
L 492.205721 369.714737 
L 493.425615 372.416556 
L 494.645509 372.525574 
L 495.865404 376.121589 
L 497.085298 374.537781 
L 498.305192 374.318256 
L 499.525087 375.236411 
L 500.744981 375.021767 
L 501.964875 373.364433 
L 503.18477 374.942597 
L 504.404664 376.236151 
L 505.624558 381.731483 
L 506.844453 381.13024 
L 508.064347 382.671742 
L 509.284241 382.119648 
L 510.504136 382.353751 
L 511.72403 382.905158 
L 512.943924 376.797955 
L 514.163819 380.031367 
L 515.383713 378.906106 
L 516.603607 378.474496 
L 517.823502 398.603159 
L 519.043396 392.865285 
L 520.26329 399.963953 
L 521.483185 404.917499 
L 522.703079 404.682038 
L 523.922973 400.80081 
L 525.142868 397.344366 
L 526.362762 396.969387 
L 527.582656 395.990136 
L 528.802551 396.135069 
L 530.022445 389.775392 
L 531.242339 386.499246 
L 532.462234 379.24733 
L 533.682128 378.368768 
L 534.902022 366.49303 
L 536.121917 366.338724 
L 537.341811 365.494059 
L 538.561705 365.037618 
L 539.7816 363.948741 
L 541.001494 363.077555 
L 542.221388 363.116291 
L 543.441283 361.223936 
L 544.661177 356.536235 
L 545.881071 356.57716 
L 547.100966 362.679602 
L 548.32086 356.603803 
L 549.540754 356.351099 
L 550.760649 353.973015 
L 551.980543 354.762968 
L 553.200437 351.263465 
L 554.420332 351.292078 
L 555.640226 348.914572 
L 556.86012 348.414632 
L 558.080015 346.221145 
L 559.299909 358.185956 
L 560.519803 359.436135 
L 561.739698 359.005192 
L 562.959592 359.239143 
L 564.179486 360.317882 
L 565.399381 359.281875 
L 566.619275 358.492475 
L 567.839169 356.599415 
L 569.059064 358.373091 
L 570.278958 356.229146 
L 571.498852 356.976471 
L 572.718747 352.734948 
L 573.938641 351.147473 
L 575.158535 346.761289 
L 576.37843 347.42492 
L 577.598324 347.909581 
L 578.818218 352.006365 
L 580.038113 351.581218 
L 581.258007 352.734712 
L 582.477901 353.29409 
L 583.697796 349.607409 
L 584.91769 352.13135 
L 586.137584 356.829681 
L 587.357479 356.937475 
L 588.577373 356.103697 
L 589.797267 359.257536 
L 591.017162 358.738291 
L 592.237056 358.982824 
L 593.45695 358.231384 
L 594.676845 358.294039 
L 595.896739 359.269098 
L 597.116633 359.786627 
L 598.336528 360.64196 
L 599.556422 363.774716 
L 600.776316 367.999358 
L 601.996211 367.838052 
L 603.216105 380.805185 
L 604.435999 382.212245 
L 605.655894 382.115494 
L 606.875788 380.229965 
L 608.095682 381.03603 
L 609.315577 378.104839 
L 610.535471 377.581647 
L 611.755365 386.589435 
L 612.97526 384.155978 
L 614.195154 384.964699 
L 615.415048 381.272373 
L 616.634943 380.165239 
L 617.854837 376.341571 
L 619.074731 376.226678 
L 620.294626 371.065258 
L 621.51452 370.549035 
L 622.734414 363.763183 
L 623.954309 364.228284 
L 625.174203 352.250416 
L 626.394097 352.809055 
L 627.613992 349.703737 
L 628.833886 351.571545 
L 630.05378 342.538402 
L 632.493569 348.777837 
L 633.713463 349.794977 
L 634.933358 349.181838 
L 637.373146 349.349208 
L 638.593041 348.381319 
L 639.812935 350.342719 
L 641.032829 360.081318 
L 642.252724 359.744288 
L 643.472618 368.07836 
L 644.692512 372.021708 
L 645.912407 374.173372 
L 647.132301 368.229905 
L 648.352195 367.23454 
L 650.791984 366.889878 
L 652.011878 366.961565 
L 653.231773 368.115669 
L 654.451667 362.80033 
L 655.671561 365.672672 
L 656.891456 367.515557 
L 658.11135 371.013048 
L 659.331244 373.111149 
L 660.551139 373.247181 
L 661.771033 372.712495 
L 662.990927 369.570577 
L 664.210822 376.868584 
L 665.430716 378.760477 
L 666.65061 391.23975 
L 667.870505 392.006842 
L 669.090399 394.205254 
L 670.310293 392.7595 
L 671.530188 390.268561 
L 672.750082 390.275632 
L 673.969976 389.505818 
L 675.189871 390.926557 
L 676.409765 391.013545 
L 677.629659 390.884779 
L 678.849554 390.902115 
L 680.069448 390.597462 
L 681.289342 389.058095 
L 682.509237 391.33251 
L 683.729131 389.756399 
L 684.949025 388.838125 
L 686.16892 395.329765 
L 687.388814 392.61057 
L 688.608708 388.880604 
L 689.828603 389.48999 
L 691.048497 388.487005 
L 693.488286 385.489809 
L 694.70818 385.366123 
L 695.928074 386.870831 
L 697.147969 394.353261 
L 698.367863 396.758921 
L 699.587757 393.373493 
L 700.807652 391.700332 
L 702.027546 396.01194 
L 703.24744 399.911686 
L 704.467335 393.839095 
L 705.687229 402.250928 
L 706.907123 401.090702 
L 708.127018 404.308718 
L 709.346912 389.380989 
L 710.566806 382.837747 
L 711.786701 380.440725 
L 713.006595 384.892821 
L 714.226489 381.951504 
L 715.446384 367.836676 
L 716.666278 367.562404 
L 717.886172 373.605452 
L 719.106067 372.028158 
L 720.325961 376.128728 
L 721.545855 379.040862 
L 722.76575 373.402032 
L 723.985644 373.678411 
L 725.205538 384.643288 
L 726.425433 381.353593 
L 727.645327 383.784639 
L 728.865221 383.2473 
L 730.085116 379.2689 
L 731.30501 379.436662 
L 732.524904 376.841658 
L 733.744799 375.644737 
L 734.964693 375.299113 
L 736.184587 384.180273 
L 737.404482 381.915691 
L 738.624376 377.786326 
L 739.84427 377.786014 
L 741.064165 379.091602 
L 742.284059 379.751175 
L 743.503953 379.968397 
L 744.723848 380.988613 
L 745.943742 380.05466 
L 747.163636 381.406072 
L 747.163636 381.406072 
" style="fill:none;stroke:#dd8452;stroke-linecap:round;stroke-width:1.5;"/>
   </g>
   <g id="line2d_16">
    <path clip-path="url(#p43a5541bea)" d="M 108 295.435392 
L 777.6 295.435392 
" style="fill:none;stroke:#c44e52;stroke-linecap:round;stroke-width:1.5;"/>
   </g>
   <g id="line2d_17">
    <path clip-path="url(#p43a5541bea)" d="M 138.436364 376.028615 
L 139.656258 260.522048 
L 140.876152 313.844398 
L 142.096047 484.232727 
L 143.315941 481.753758 
L 144.535835 482.632813 
L 145.75573 480.935079 
L 146.975624 476.724038 
L 148.195518 474.254862 
L 149.415413 473.970141 
L 150.635307 473.323514 
L 151.855201 473.134145 
L 153.075096 473.11621 
L 154.29499 474.084175 
L 155.514884 470.419548 
L 156.734779 467.617613 
L 157.954673 455.550269 
L 159.174567 445.185978 
L 160.394462 426.565543 
L 161.614356 423.857758 
L 162.83425 423.843169 
L 165.274039 408.063598 
L 166.493933 408.051331 
L 167.713828 409.245737 
L 168.933722 407.468405 
L 170.153616 402.685138 
L 171.373511 394.30876 
L 172.593405 390.649693 
L 173.813299 390.207325 
L 175.033194 392.942422 
L 176.253088 393.562384 
L 177.472982 387.613075 
L 178.692877 387.610079 
L 179.912771 389.35946 
L 181.132665 395.475152 
L 182.35256 397.809943 
L 183.572454 396.882505 
L 184.792348 394.550969 
L 186.012243 393.401178 
L 187.232137 398.661059 
L 188.452031 404.920453 
L 189.671926 400.29995 
L 190.89182 400.334631 
L 192.111714 400.614344 
L 193.331609 401.525287 
L 194.551503 402.274294 
L 195.771397 401.262906 
L 196.991292 400.709806 
L 198.211186 401.732562 
L 199.43108 404.057909 
L 200.650975 397.042894 
L 201.870869 388.590488 
L 203.090763 389.255764 
L 204.310658 389.554093 
L 205.530552 396.919695 
L 206.750446 407.767895 
L 207.970341 401.173871 
L 209.190235 398.640182 
L 210.410129 398.283888 
L 211.630024 394.456832 
L 212.849918 394.961393 
L 214.069812 391.894527 
L 216.509601 391.946186 
L 217.729495 392.237123 
L 218.94939 396.825072 
L 221.389178 392.72982 
L 222.609073 390.397545 
L 223.828967 390.471156 
L 225.048861 384.850416 
L 226.268756 387.583269 
L 227.48865 385.857302 
L 228.708544 387.822729 
L 229.928439 383.068776 
L 231.148333 383.042812 
L 232.368227 386.372815 
L 233.588122 387.332656 
L 234.808016 380.24018 
L 236.02791 372.242829 
L 237.247805 372.164195 
L 238.467699 371.919393 
L 239.687593 361.376029 
L 240.907488 360.807929 
L 242.127382 355.816651 
L 243.347276 362.87995 
L 244.567171 359.142685 
L 245.787065 360.963388 
L 247.006959 361.338225 
L 249.446748 359.082144 
L 250.666642 359.977839 
L 251.886537 358.543021 
L 253.106431 358.739006 
L 254.326325 357.775025 
L 255.54622 356.634054 
L 256.766114 353.550711 
L 257.986008 354.079556 
L 259.205903 355.006229 
L 260.425797 352.205349 
L 261.645691 353.180408 
L 262.865586 351.761502 
L 264.08548 351.272475 
L 265.305374 351.223598 
L 266.525269 347.340969 
L 267.745163 344.359087 
L 268.965057 347.22489 
L 270.184952 322.550131 
L 272.62474 324.785622 
L 273.844635 327.006246 
L 275.064529 327.30745 
L 276.284423 324.51158 
L 277.504318 322.800116 
L 278.724212 320.074659 
L 279.944106 320.229615 
L 281.164001 320.899907 
L 282.383895 320.676381 
L 283.603789 318.942156 
L 284.823684 319.220947 
L 286.043578 319.062286 
L 287.263472 320.753116 
L 288.483367 321.214951 
L 289.703261 321.546403 
L 292.14305 321.540357 
L 293.362944 322.752491 
L 294.582838 320.174991 
L 295.802733 320.908491 
L 298.242521 320.568527 
L 299.462416 320.543395 
L 300.68231 320.739348 
L 301.902204 321.121986 
L 303.122099 322.983445 
L 305.561887 327.588488 
L 306.781782 310.573542 
L 308.001676 301.267656 
L 309.22157 301.445015 
L 310.441465 301.486978 
L 311.661359 302.564493 
L 312.881253 306.866223 
L 314.101148 301.112562 
L 315.321042 306.378437 
L 316.540936 305.706234 
L 318.980725 306.604628 
L 320.200619 307.022378 
L 321.420514 307.244377 
L 322.640408 305.129322 
L 323.860302 302.430605 
L 325.080197 298.508177 
L 326.300091 297.767979 
L 327.519985 298.558172 
L 328.73988 300.149469 
L 329.959774 300.292321 
L 331.179668 302.062372 
L 332.399563 302.793066 
L 333.619457 302.952836 
L 334.839351 301.955236 
L 336.059246 299.226019 
L 337.27914 304.647841 
L 338.499034 296.323511 
L 339.718929 296.278305 
L 340.938823 296.043389 
L 342.158717 291.047886 
L 343.378612 299.450166 
L 344.598506 300.318854 
L 345.8184 301.637956 
L 347.038295 304.677131 
L 348.258189 291.671344 
L 349.478083 291.294722 
L 350.697978 293.940417 
L 351.917872 297.786847 
L 353.137766 308.042408 
L 354.357661 296.375321 
L 355.577555 289.270914 
L 356.797449 287.081266 
L 358.017344 287.490046 
L 359.237238 285.79952 
L 360.457132 280.117689 
L 361.677027 279.760727 
L 362.896921 279.566832 
L 364.116815 283.532795 
L 365.33671 292.550427 
L 366.556604 315.710144 
L 367.776498 313.599574 
L 368.996393 314.966188 
L 370.216287 314.762376 
L 371.436181 315.16798 
L 372.656076 312.867058 
L 373.87597 312.004639 
L 375.095864 312.375367 
L 376.315759 312.029334 
L 377.535653 312.179784 
L 378.755547 316.458305 
L 379.975442 315.288729 
L 381.195336 316.623542 
L 382.41523 316.472745 
L 383.635125 313.454269 
L 386.074913 314.192132 
L 387.294808 314.979702 
L 388.514702 314.660475 
L 390.954491 315.988524 
L 392.174385 316.312574 
L 393.394279 315.898502 
L 394.614174 315.842087 
L 395.834068 318.47431 
L 397.053962 326.760961 
L 398.273857 315.236037 
L 399.493751 321.383634 
L 400.713645 314.849749 
L 401.93354 315.427809 
L 403.153434 315.674322 
L 404.373328 317.539782 
L 405.593223 313.963265 
L 406.813117 309.187463 
L 408.033011 306.304467 
L 409.252906 306.774361 
L 410.4728 307.956166 
L 411.692694 314.184682 
L 412.912589 309.568191 
L 414.132483 308.611232 
L 415.352377 307.457683 
L 416.572272 306.472924 
L 417.792166 306.272204 
L 419.01206 306.970574 
L 420.231955 301.338759 
L 421.451849 301.315601 
L 422.671743 298.940326 
L 425.111532 290.640634 
L 426.331426 290.537449 
L 427.551321 290.23653 
L 428.771215 293.314357 
L 429.991109 294.117907 
L 431.211004 288.682405 
L 432.430898 290.879102 
L 433.650792 297.856271 
L 434.870687 297.706343 
L 436.090581 293.59364 
L 437.310475 296.135577 
L 438.53037 302.974107 
L 439.750264 302.856922 
L 440.970158 298.416453 
L 442.190053 303.707993 
L 443.409947 303.274903 
L 444.629842 296.891205 
L 445.849736 308.556368 
L 447.06963 311.30747 
L 448.289525 313.784392 
L 449.509419 313.647141 
L 450.729313 316.067159 
L 451.949208 319.921168 
L 453.169102 323.081458 
L 454.388996 324.485953 
L 455.608891 326.163793 
L 456.828785 322.33576 
L 458.048679 316.018865 
L 459.268574 316.967394 
L 460.488468 317.031628 
L 461.708362 314.286056 
L 462.928257 313.493114 
L 464.148151 313.494438 
L 466.58794 311.117678 
L 467.807834 312.77734 
L 470.247623 314.248197 
L 471.467517 317.510119 
L 473.907306 315.7045 
L 475.1272 316.626379 
L 476.347094 316.461299 
L 477.566989 318.569901 
L 478.786883 316.794121 
L 480.006777 316.680975 
L 481.226672 315.936862 
L 482.446566 322.719924 
L 483.66646 322.842003 
L 484.886355 319.350562 
L 486.106249 315.32523 
L 487.326143 315.125131 
L 488.546038 314.726401 
L 489.765932 315.712446 
L 490.985826 314.885469 
L 492.205721 308.310306 
L 493.425615 307.66339 
L 494.645509 307.567483 
L 495.865404 308.22741 
L 497.085298 306.550704 
L 498.305192 308.103858 
L 499.525087 309.39709 
L 500.744981 309.002346 
L 501.964875 311.840423 
L 503.18477 311.927235 
L 504.404664 310.195397 
L 505.624558 309.984911 
L 506.844453 308.326614 
L 508.064347 306.039853 
L 509.284241 305.977999 
L 510.504136 305.739998 
L 511.72403 307.012637 
L 512.943924 306.645394 
L 514.163819 305.52892 
L 515.383713 317.765889 
L 516.603607 315.373844 
L 517.823502 311.822785 
L 519.043396 303.740582 
L 520.26329 298.589132 
L 521.483185 307.323309 
L 522.703079 309.010601 
L 523.922973 308.814143 
L 525.142868 303.489574 
L 526.362762 301.299735 
L 527.582656 298.426766 
L 528.802551 300.473432 
L 530.022445 295.564505 
L 531.242339 298.972944 
L 532.462234 300.998789 
L 533.682128 310.349765 
L 534.902022 307.304954 
L 536.121917 307.465401 
L 537.341811 308.215478 
L 538.561705 307.802746 
L 539.7816 306.09616 
L 541.001494 301.79463 
L 542.221388 301.568909 
L 543.441283 301.67287 
L 544.661177 294.795959 
L 545.881071 295.188042 
L 547.100966 298.791041 
L 548.32086 292.603197 
L 549.540754 293.092956 
L 550.760649 293.172343 
L 551.980543 295.02645 
L 553.200437 293.948599 
L 554.420332 293.851625 
L 555.640226 293.15343 
L 556.86012 288.27971 
L 558.080015 286.191899 
L 559.299909 283.044795 
L 561.739698 291.625629 
L 562.959592 292.292943 
L 564.179486 298.777231 
L 565.399381 298.065167 
L 566.619275 299.037772 
L 567.839169 296.974947 
L 569.059064 296.836372 
L 570.278958 298.235108 
L 571.498852 298.86318 
L 572.718747 291.903263 
L 573.938641 296.538601 
L 575.158535 296.290207 
L 576.37843 290.638322 
L 577.598324 291.666407 
L 578.818218 292.186464 
L 580.038113 291.112164 
L 581.258007 285.199781 
L 582.477901 284.738017 
L 583.697796 286.351966 
L 584.91769 287.620628 
L 586.137584 289.244972 
L 587.357479 289.703699 
L 588.577373 297.964883 
L 589.797267 299.974064 
L 591.017162 302.536508 
L 592.237056 302.137591 
L 593.45695 302.257155 
L 594.676845 301.767727 
L 595.896739 302.19947 
L 597.116633 302.293253 
L 598.336528 300.691828 
L 599.556422 300.266836 
L 600.776316 304.627919 
L 601.996211 305.406683 
L 603.216105 302.723823 
L 604.435999 303.650818 
L 605.655894 304.183645 
L 606.875788 308.093262 
L 608.095682 308.316759 
L 609.315577 309.975141 
L 610.535471 308.637738 
L 611.755365 310.694216 
L 612.97526 309.879758 
L 614.195154 306.592546 
L 615.415048 314.382782 
L 616.634943 314.322186 
L 617.854837 316.953289 
L 619.074731 316.492961 
L 620.294626 312.559432 
L 621.51452 313.445148 
L 622.734414 313.870345 
L 623.954309 318.17807 
L 625.174203 312.443022 
L 626.394097 311.572046 
L 627.613992 312.157315 
L 628.833886 315.123912 
L 631.273675 303.854788 
L 632.493569 302.656635 
L 633.713463 302.875018 
L 634.933358 298.110577 
L 636.153252 297.52275 
L 637.373146 297.547169 
L 638.593041 296.762141 
L 641.032829 305.750946 
L 642.252724 304.45351 
L 643.472618 289.866745 
L 644.692512 289.6702 
L 645.912407 287.176195 
L 647.132301 286.986522 
L 648.352195 291.453531 
L 649.57209 291.402539 
L 650.791984 288.776137 
L 652.011878 288.294104 
L 653.231773 288.477201 
L 654.451667 285.747067 
L 655.671561 281.789402 
L 656.891456 280.396453 
L 658.11135 280.513112 
L 659.331244 286.951123 
L 660.551139 287.343269 
L 661.771033 289.981045 
L 662.990927 285.825962 
L 665.430716 280.689311 
L 666.65061 279.948279 
L 667.870505 281.086943 
L 669.090399 274.496574 
L 670.310293 275.710895 
L 671.530188 276.729061 
L 672.750082 275.605053 
L 673.969976 274.866758 
L 675.189871 275.721006 
L 676.409765 275.735346 
L 677.629659 278.634038 
L 678.849554 278.749371 
L 680.069448 279.99293 
L 681.289342 279.322315 
L 682.509237 278.39234 
L 683.729131 281.627319 
L 684.949025 281.909463 
L 686.16892 282.96197 
L 687.388814 281.674843 
L 688.608708 294.371313 
L 689.828603 294.797351 
L 691.048497 295.932703 
L 692.268391 295.454615 
L 693.488286 292.204858 
L 694.70818 291.414917 
L 695.928074 291.562719 
L 697.147969 297.107597 
L 698.367863 300.334804 
L 699.587757 316.5334 
L 700.807652 313.788273 
L 702.027546 312.358335 
L 703.24744 322.221691 
L 704.467335 308.975222 
L 705.687229 304.13485 
L 706.907123 308.612051 
L 708.127018 307.685965 
L 709.346912 303.220945 
L 710.566806 314.722196 
L 711.786701 314.87744 
L 713.006595 299.683193 
L 714.226489 301.032472 
L 715.446384 307.343312 
L 716.666278 309.870124 
L 717.886172 311.279932 
L 719.106067 308.378537 
L 720.325961 300.635932 
L 721.545855 300.342702 
L 722.76575 305.263438 
L 723.985644 305.531211 
L 725.205538 307.324625 
L 726.425433 302.422923 
L 727.645327 294.611138 
L 728.865221 295.512562 
L 730.085116 295.565025 
L 731.30501 295.256531 
L 732.524904 295.336406 
L 733.744799 292.474176 
L 734.964693 291.864698 
L 736.184587 295.402296 
L 737.404482 294.229719 
L 738.624376 302.465857 
L 739.84427 302.412677 
L 741.064165 302.093354 
L 742.284059 302.653622 
L 743.503953 300.732482 
L 744.723848 300.263652 
L 745.943742 303.135684 
L 747.163636 303.486018 
L 747.163636 303.486018 
" style="fill:none;stroke:#55a868;stroke-linecap:round;stroke-width:1.5;"/>
   </g>
   <g id="patch_3">
    <path d="M 108 504 
L 108 69.12 
" style="fill:none;stroke:#ffffff;stroke-linecap:square;stroke-linejoin:miter;stroke-width:1.25;"/>
   </g>
   <g id="patch_4">
    <path d="M 777.6 504 
L 777.6 69.12 
" style="fill:none;stroke:#ffffff;stroke-linecap:square;stroke-linejoin:miter;stroke-width:1.25;"/>
   </g>
   <g id="patch_5">
    <path d="M 108 504 
L 777.6 504 
" style="fill:none;stroke:#ffffff;stroke-linecap:square;stroke-linejoin:miter;stroke-width:1.25;"/>
   </g>
   <g id="patch_6">
    <path d="M 108 69.12 
L 777.6 69.12 
" style="fill:none;stroke:#ffffff;stroke-linecap:square;stroke-linejoin:miter;stroke-width:1.25;"/>
   </g>
   <g id="text_14">
    <!-- Second order AR parameters estimates (R = 0.1473, Q = 0.0001) -->
    <defs>
     <path d="M 4.5 23 
L 13.421875 23.78125 
Q 14.0625 18.40625 16.375 14.96875 
Q 18.703125 11.53125 23.578125 9.40625 
Q 28.46875 7.28125 34.578125 7.28125 
Q 39.984375 7.28125 44.140625 8.890625 
Q 48.296875 10.5 50.3125 13.296875 
Q 52.34375 16.109375 52.34375 19.4375 
Q 52.34375 22.796875 50.390625 25.3125 
Q 48.4375 27.828125 43.953125 29.546875 
Q 41.0625 30.671875 31.203125 33.03125 
Q 21.34375 35.40625 17.390625 37.5 
Q 12.25 40.1875 9.734375 44.15625 
Q 7.234375 48.140625 7.234375 53.078125 
Q 7.234375 58.5 10.296875 63.203125 
Q 13.375 67.921875 19.28125 70.359375 
Q 25.203125 72.796875 32.421875 72.796875 
Q 40.375 72.796875 46.453125 70.234375 
Q 52.546875 67.671875 55.8125 62.6875 
Q 59.078125 57.71875 59.328125 51.421875 
L 50.25 50.734375 
Q 49.515625 57.515625 45.28125 60.984375 
Q 41.0625 64.453125 32.8125 64.453125 
Q 24.21875 64.453125 20.28125 61.296875 
Q 16.359375 58.15625 16.359375 53.71875 
Q 16.359375 49.859375 19.140625 47.359375 
Q 21.875 44.875 33.421875 42.265625 
Q 44.96875 39.65625 49.265625 37.703125 
Q 55.515625 34.8125 58.484375 30.390625 
Q 61.46875 25.984375 61.46875 20.21875 
Q 61.46875 14.5 58.203125 9.4375 
Q 54.9375 4.390625 48.796875 1.578125 
Q 42.671875 -1.21875 35.015625 -1.21875 
Q 25.296875 -1.21875 18.71875 1.609375 
Q 12.15625 4.4375 8.421875 10.125 
Q 4.6875 15.828125 4.5 23 
z
" id="ArialMT-83"/>
     <path d="M 40.4375 19 
L 49.078125 17.875 
Q 47.65625 8.9375 41.8125 3.875 
Q 35.984375 -1.171875 27.484375 -1.171875 
Q 16.84375 -1.171875 10.375 5.78125 
Q 3.90625 12.75 3.90625 25.734375 
Q 3.90625 34.125 6.6875 40.421875 
Q 9.46875 46.734375 15.15625 49.875 
Q 20.84375 53.03125 27.546875 53.03125 
Q 35.984375 53.03125 41.359375 48.75 
Q 46.734375 44.484375 48.25 36.625 
L 39.703125 35.296875 
Q 38.484375 40.53125 35.375 43.15625 
Q 32.28125 45.796875 27.875 45.796875 
Q 21.234375 45.796875 17.078125 41.03125 
Q 12.9375 36.28125 12.9375 25.984375 
Q 12.9375 15.53125 16.9375 10.796875 
Q 20.953125 6.0625 27.390625 6.0625 
Q 32.5625 6.0625 36.03125 9.234375 
Q 39.5 12.40625 40.4375 19 
z
" id="ArialMT-99"/>
     <path d="M 40.234375 0 
L 40.234375 6.546875 
Q 35.296875 -1.171875 25.734375 -1.171875 
Q 19.53125 -1.171875 14.328125 2.25 
Q 9.125 5.671875 6.265625 11.796875 
Q 3.421875 17.921875 3.421875 25.875 
Q 3.421875 33.640625 6 39.96875 
Q 8.59375 46.296875 13.765625 49.65625 
Q 18.953125 53.03125 25.34375 53.03125 
Q 30.03125 53.03125 33.6875 51.046875 
Q 37.359375 49.078125 39.65625 45.90625 
L 39.65625 71.578125 
L 48.390625 71.578125 
L 48.390625 0 
z
M 12.453125 25.875 
Q 12.453125 15.921875 16.640625 10.984375 
Q 20.84375 6.0625 26.5625 6.0625 
Q 32.328125 6.0625 36.34375 10.765625 
Q 40.375 15.484375 40.375 25.140625 
Q 40.375 35.796875 36.265625 40.765625 
Q 32.171875 45.75 26.171875 45.75 
Q 20.3125 45.75 16.375 40.96875 
Q 12.453125 36.1875 12.453125 25.875 
z
" id="ArialMT-100"/>
     <path d="M -0.140625 0 
L 27.34375 71.578125 
L 37.546875 71.578125 
L 66.84375 0 
L 56.0625 0 
L 47.703125 21.6875 
L 17.78125 21.6875 
L 9.90625 0 
z
M 20.515625 29.390625 
L 44.78125 29.390625 
L 37.3125 49.21875 
Q 33.890625 58.25 32.234375 64.0625 
Q 30.859375 57.171875 28.375 50.390625 
z
" id="ArialMT-65"/>
     <path d="M 7.859375 0 
L 7.859375 71.578125 
L 39.59375 71.578125 
Q 49.171875 71.578125 54.140625 69.640625 
Q 59.125 67.71875 62.109375 62.828125 
Q 65.09375 57.953125 65.09375 52.046875 
Q 65.09375 44.4375 60.15625 39.203125 
Q 55.21875 33.984375 44.921875 32.5625 
Q 48.6875 30.765625 50.640625 29 
Q 54.78125 25.203125 58.5 19.484375 
L 70.953125 0 
L 59.03125 0 
L 49.5625 14.890625 
Q 45.40625 21.34375 42.71875 24.75 
Q 40.046875 28.171875 37.921875 29.53125 
Q 35.796875 30.90625 33.59375 31.453125 
Q 31.984375 31.78125 28.328125 31.78125 
L 17.328125 31.78125 
L 17.328125 0 
z
M 17.328125 39.984375 
L 37.703125 39.984375 
Q 44.1875 39.984375 47.84375 41.328125 
Q 51.515625 42.671875 53.421875 45.625 
Q 55.328125 48.578125 55.328125 52.046875 
Q 55.328125 57.125 51.640625 60.390625 
Q 47.953125 63.671875 39.984375 63.671875 
L 17.328125 63.671875 
z
" id="ArialMT-82"/>
     <path d="M 6.59375 -19.875 
L 6.59375 51.859375 
L 14.59375 51.859375 
L 14.59375 45.125 
Q 17.4375 49.078125 21 51.046875 
Q 24.5625 53.03125 29.640625 53.03125 
Q 36.28125 53.03125 41.359375 49.609375 
Q 46.4375 46.1875 49.015625 39.953125 
Q 51.609375 33.734375 51.609375 26.3125 
Q 51.609375 18.359375 48.75 11.984375 
Q 45.90625 5.609375 40.453125 2.21875 
Q 35.015625 -1.171875 29 -1.171875 
Q 24.609375 -1.171875 21.109375 0.6875 
Q 17.625 2.546875 15.375 5.375 
L 15.375 -19.875 
z
M 14.546875 25.640625 
Q 14.546875 15.625 18.59375 10.84375 
Q 22.65625 6.0625 28.421875 6.0625 
Q 34.28125 6.0625 38.453125 11.015625 
Q 42.625 15.96875 42.625 26.375 
Q 42.625 36.28125 38.546875 41.203125 
Q 34.46875 46.140625 28.8125 46.140625 
Q 23.1875 46.140625 18.859375 40.890625 
Q 14.546875 35.640625 14.546875 25.640625 
z
" id="ArialMT-112"/>
     <path d="M 23.390625 -21.046875 
Q 16.109375 -11.859375 11.078125 0.4375 
Q 6.0625 12.75 6.0625 25.921875 
Q 6.0625 37.546875 9.8125 48.1875 
Q 14.203125 60.546875 23.390625 72.796875 
L 29.6875 72.796875 
Q 23.78125 62.640625 21.875 58.296875 
Q 18.890625 51.5625 17.1875 44.234375 
Q 15.09375 35.109375 15.09375 25.875 
Q 15.09375 2.390625 29.6875 -21.046875 
z
" id="ArialMT-40"/>
     <path d="M 52.828125 42.09375 
L 5.5625 42.09375 
L 5.5625 50.296875 
L 52.828125 50.296875 
z
M 52.828125 20.359375 
L 5.5625 20.359375 
L 5.5625 28.5625 
L 52.828125 28.5625 
z
" id="ArialMT-61"/>
     <path d="M 4.734375 62.203125 
L 4.734375 70.65625 
L 51.078125 70.65625 
L 51.078125 63.8125 
Q 44.234375 56.546875 37.515625 44.484375 
Q 30.8125 32.421875 27.15625 19.671875 
Q 24.515625 10.6875 23.78125 0 
L 14.75 0 
Q 14.890625 8.453125 18.0625 20.40625 
Q 21.234375 32.375 27.171875 43.484375 
Q 33.109375 54.59375 39.796875 62.203125 
z
" id="ArialMT-55"/>
     <path d="M 8.890625 0 
L 8.890625 10.015625 
L 18.890625 10.015625 
L 18.890625 0 
Q 18.890625 -5.515625 16.9375 -8.90625 
Q 14.984375 -12.3125 10.75 -14.15625 
L 8.296875 -10.40625 
Q 11.078125 -9.1875 12.390625 -6.8125 
Q 13.71875 -4.4375 13.875 0 
z
" id="ArialMT-44"/>
     <path d="M 61.96875 7.671875 
Q 68.5625 3.125 74.125 1.03125 
L 71.34375 -5.5625 
Q 63.625 -2.78125 55.953125 3.21875 
Q 48 -1.21875 38.375 -1.21875 
Q 28.65625 -1.21875 20.75 3.46875 
Q 12.84375 8.15625 8.5625 16.640625 
Q 4.296875 25.140625 4.296875 35.796875 
Q 4.296875 46.390625 8.59375 55.078125 
Q 12.890625 63.765625 20.828125 68.3125 
Q 28.765625 72.859375 38.578125 72.859375 
Q 48.484375 72.859375 56.4375 68.140625 
Q 64.40625 63.421875 68.578125 54.953125 
Q 72.75 46.484375 72.75 35.84375 
Q 72.75 27 70.0625 19.9375 
Q 67.390625 12.890625 61.96875 7.671875 
z
M 41.109375 19.78125 
Q 49.3125 17.484375 54.640625 12.9375 
Q 62.984375 20.5625 62.984375 35.84375 
Q 62.984375 44.53125 60.03125 51.015625 
Q 57.078125 57.515625 51.390625 61.109375 
Q 45.703125 64.703125 38.625 64.703125 
Q 28.03125 64.703125 21.046875 57.453125 
Q 14.0625 50.203125 14.0625 35.796875 
Q 14.0625 21.828125 20.96875 14.359375 
Q 27.875 6.890625 38.625 6.890625 
Q 43.703125 6.890625 48.1875 8.796875 
Q 43.75 11.671875 38.8125 12.890625 
z
" id="ArialMT-81"/>
     <path d="M 12.359375 -21.046875 
L 6.0625 -21.046875 
Q 20.65625 2.390625 20.65625 25.875 
Q 20.65625 35.0625 18.5625 44.09375 
Q 16.890625 51.421875 13.921875 58.15625 
Q 12.015625 62.546875 6.0625 72.796875 
L 12.359375 72.796875 
Q 21.53125 60.546875 25.921875 48.1875 
Q 29.6875 37.546875 29.6875 25.921875 
Q 29.6875 12.75 24.625 0.4375 
Q 19.578125 -11.859375 12.359375 -21.046875 
z
" id="ArialMT-41"/>
    </defs>
    <g style="fill:#262626;" transform="translate(153.23125 63.12)scale(0.2 -0.2)">
     <use xlink:href="#ArialMT-83"/>
     <use x="66.699219" xlink:href="#ArialMT-101"/>
     <use x="122.314453" xlink:href="#ArialMT-99"/>
     <use x="172.314453" xlink:href="#ArialMT-111"/>
     <use x="227.929688" xlink:href="#ArialMT-110"/>
     <use x="283.544922" xlink:href="#ArialMT-100"/>
     <use x="339.160156" xlink:href="#ArialMT-32"/>
     <use x="366.943359" xlink:href="#ArialMT-111"/>
     <use x="422.558594" xlink:href="#ArialMT-114"/>
     <use x="455.859375" xlink:href="#ArialMT-100"/>
     <use x="511.474609" xlink:href="#ArialMT-101"/>
     <use x="567.089844" xlink:href="#ArialMT-114"/>
     <use x="600.390625" xlink:href="#ArialMT-32"/>
     <use x="628.095703" xlink:href="#ArialMT-65"/>
     <use x="694.794922" xlink:href="#ArialMT-82"/>
     <use x="767.011719" xlink:href="#ArialMT-32"/>
     <use x="794.794922" xlink:href="#ArialMT-112"/>
     <use x="850.410156" xlink:href="#ArialMT-97"/>
     <use x="906.025391" xlink:href="#ArialMT-114"/>
     <use x="939.326172" xlink:href="#ArialMT-97"/>
     <use x="994.941406" xlink:href="#ArialMT-109"/>
     <use x="1078.242188" xlink:href="#ArialMT-101"/>
     <use x="1133.857422" xlink:href="#ArialMT-116"/>
     <use x="1161.640625" xlink:href="#ArialMT-101"/>
     <use x="1217.255859" xlink:href="#ArialMT-114"/>
     <use x="1250.556641" xlink:href="#ArialMT-115"/>
     <use x="1300.556641" xlink:href="#ArialMT-32"/>
     <use x="1328.339844" xlink:href="#ArialMT-101"/>
     <use x="1383.955078" xlink:href="#ArialMT-115"/>
     <use x="1433.955078" xlink:href="#ArialMT-116"/>
     <use x="1461.738281" xlink:href="#ArialMT-105"/>
     <use x="1483.955078" xlink:href="#ArialMT-109"/>
     <use x="1567.255859" xlink:href="#ArialMT-97"/>
     <use x="1622.871094" xlink:href="#ArialMT-116"/>
     <use x="1650.654297" xlink:href="#ArialMT-101"/>
     <use x="1706.269531" xlink:href="#ArialMT-115"/>
     <use x="1756.269531" xlink:href="#ArialMT-32"/>
     <use x="1784.052734" xlink:href="#ArialMT-40"/>
     <use x="1817.353516" xlink:href="#ArialMT-82"/>
     <use x="1889.570312" xlink:href="#ArialMT-32"/>
     <use x="1917.353516" xlink:href="#ArialMT-61"/>
     <use x="1975.751953" xlink:href="#ArialMT-32"/>
     <use x="2003.535156" xlink:href="#ArialMT-48"/>
     <use x="2059.150391" xlink:href="#ArialMT-46"/>
     <use x="2086.933594" xlink:href="#ArialMT-49"/>
     <use x="2142.548828" xlink:href="#ArialMT-52"/>
     <use x="2198.164062" xlink:href="#ArialMT-55"/>
     <use x="2253.779297" xlink:href="#ArialMT-51"/>
     <use x="2309.394531" xlink:href="#ArialMT-44"/>
     <use x="2337.177734" xlink:href="#ArialMT-32"/>
     <use x="2364.960938" xlink:href="#ArialMT-81"/>
     <use x="2442.744141" xlink:href="#ArialMT-32"/>
     <use x="2470.527344" xlink:href="#ArialMT-61"/>
     <use x="2528.925781" xlink:href="#ArialMT-32"/>
     <use x="2556.708984" xlink:href="#ArialMT-48"/>
     <use x="2612.324219" xlink:href="#ArialMT-46"/>
     <use x="2640.107422" xlink:href="#ArialMT-48"/>
     <use x="2695.722656" xlink:href="#ArialMT-48"/>
     <use x="2751.337891" xlink:href="#ArialMT-48"/>
     <use x="2806.953125" xlink:href="#ArialMT-49"/>
     <use x="2862.568359" xlink:href="#ArialMT-41"/>
    </g>
   </g>
   <g id="legend_1">
    <g id="patch_7">
     <path d="M 557.327813 495 
L 765 495 
Q 768.6 495 768.6 491.4 
L 768.6 416.815313 
Q 768.6 413.215312 765 413.215312 
L 557.327813 413.215312 
Q 553.727813 413.215312 553.727813 416.815313 
L 553.727813 491.4 
Q 553.727813 495 557.327813 495 
z
" style="fill:#eaeaf2;opacity:0.8;stroke:#cccccc;stroke-linejoin:miter;"/>
    </g>
    <g id="line2d_18">
     <path d="M 560.927813 426.999375 
L 596.927813 426.999375 
" style="fill:none;stroke:#4c72b0;stroke-linecap:round;stroke-width:1.5;"/>
    </g>
    <g id="line2d_19"/>
    <g id="text_15">
     <!-- First Parameter -->
     <defs>
      <path d="M 8.203125 0 
L 8.203125 71.578125 
L 56.5 71.578125 
L 56.5 63.140625 
L 17.671875 63.140625 
L 17.671875 40.96875 
L 51.265625 40.96875 
L 51.265625 32.515625 
L 17.671875 32.515625 
L 17.671875 0 
z
" id="ArialMT-70"/>
      <path d="M 7.71875 0 
L 7.71875 71.578125 
L 34.71875 71.578125 
Q 41.84375 71.578125 45.609375 70.90625 
Q 50.875 70.015625 54.4375 67.546875 
Q 58.015625 65.09375 60.1875 60.640625 
Q 62.359375 56.203125 62.359375 50.875 
Q 62.359375 41.75 56.546875 35.421875 
Q 50.734375 29.109375 35.546875 29.109375 
L 17.1875 29.109375 
L 17.1875 0 
z
M 17.1875 37.546875 
L 35.6875 37.546875 
Q 44.875 37.546875 48.734375 40.96875 
Q 52.59375 44.390625 52.59375 50.59375 
Q 52.59375 55.078125 50.3125 58.265625 
Q 48.046875 61.46875 44.34375 62.5 
Q 41.9375 63.140625 35.5 63.140625 
L 17.1875 63.140625 
z
" id="ArialMT-80"/>
     </defs>
     <g style="fill:#262626;" transform="translate(611.327813 433.299375)scale(0.18 -0.18)">
      <use xlink:href="#ArialMT-70"/>
      <use x="61.083984" xlink:href="#ArialMT-105"/>
      <use x="83.300781" xlink:href="#ArialMT-114"/>
      <use x="116.601562" xlink:href="#ArialMT-115"/>
      <use x="166.601562" xlink:href="#ArialMT-116"/>
      <use x="194.384766" xlink:href="#ArialMT-32"/>
      <use x="222.167969" xlink:href="#ArialMT-80"/>
      <use x="288.867188" xlink:href="#ArialMT-97"/>
      <use x="344.482422" xlink:href="#ArialMT-114"/>
      <use x="377.783203" xlink:href="#ArialMT-97"/>
      <use x="433.398438" xlink:href="#ArialMT-109"/>
      <use x="516.699219" xlink:href="#ArialMT-101"/>
      <use x="572.314453" xlink:href="#ArialMT-116"/>
      <use x="600.097656" xlink:href="#ArialMT-101"/>
      <use x="655.712891" xlink:href="#ArialMT-114"/>
     </g>
    </g>
    <g id="line2d_20">
     <path d="M 560.927813 452.460938 
L 596.927813 452.460938 
" style="fill:none;stroke:#dd8452;stroke-linecap:round;stroke-width:1.5;"/>
    </g>
    <g id="line2d_21"/>
    <g id="text_16">
     <!-- Second Parameter -->
     <g style="fill:#262626;" transform="translate(611.327813 458.760938)scale(0.18 -0.18)">
      <use xlink:href="#ArialMT-83"/>
      <use x="66.699219" xlink:href="#ArialMT-101"/>
      <use x="122.314453" xlink:href="#ArialMT-99"/>
      <use x="172.314453" xlink:href="#ArialMT-111"/>
      <use x="227.929688" xlink:href="#ArialMT-110"/>
      <use x="283.544922" xlink:href="#ArialMT-100"/>
      <use x="339.160156" xlink:href="#ArialMT-32"/>
      <use x="366.943359" xlink:href="#ArialMT-80"/>
      <use x="433.642578" xlink:href="#ArialMT-97"/>
      <use x="489.257812" xlink:href="#ArialMT-114"/>
      <use x="522.558594" xlink:href="#ArialMT-97"/>
      <use x="578.173828" xlink:href="#ArialMT-109"/>
      <use x="661.474609" xlink:href="#ArialMT-101"/>
      <use x="717.089844" xlink:href="#ArialMT-116"/>
      <use x="744.873047" xlink:href="#ArialMT-101"/>
      <use x="800.488281" xlink:href="#ArialMT-114"/>
     </g>
    </g>
    <g id="line2d_22">
     <path d="M 560.927813 477.9225 
L 596.927813 477.9225 
" style="fill:none;stroke:#55a868;stroke-linecap:round;stroke-width:1.5;"/>
    </g>
    <g id="line2d_23"/>
    <g id="text_17">
     <!-- Third Parameter -->
     <defs>
      <path d="M 25.921875 0 
L 25.921875 63.140625 
L 2.34375 63.140625 
L 2.34375 71.578125 
L 59.078125 71.578125 
L 59.078125 63.140625 
L 35.40625 63.140625 
L 35.40625 0 
z
" id="ArialMT-84"/>
      <path d="M 6.59375 0 
L 6.59375 71.578125 
L 15.375 71.578125 
L 15.375 45.90625 
Q 21.53125 53.03125 30.90625 53.03125 
Q 36.671875 53.03125 40.921875 50.75 
Q 45.171875 48.484375 47 44.484375 
Q 48.828125 40.484375 48.828125 32.859375 
L 48.828125 0 
L 40.046875 0 
L 40.046875 32.859375 
Q 40.046875 39.453125 37.1875 42.453125 
Q 34.328125 45.453125 29.109375 45.453125 
Q 25.203125 45.453125 21.75 43.421875 
Q 18.3125 41.40625 16.84375 37.9375 
Q 15.375 34.46875 15.375 28.375 
L 15.375 0 
z
" id="ArialMT-104"/>
     </defs>
     <g style="fill:#262626;" transform="translate(611.327813 484.2225)scale(0.18 -0.18)">
      <use xlink:href="#ArialMT-84"/>
      <use x="61.083984" xlink:href="#ArialMT-104"/>
      <use x="116.699219" xlink:href="#ArialMT-105"/>
      <use x="138.916016" xlink:href="#ArialMT-114"/>
      <use x="172.216797" xlink:href="#ArialMT-100"/>
      <use x="227.832031" xlink:href="#ArialMT-32"/>
      <use x="255.615234" xlink:href="#ArialMT-80"/>
      <use x="322.314453" xlink:href="#ArialMT-97"/>
      <use x="377.929688" xlink:href="#ArialMT-114"/>
      <use x="411.230469" xlink:href="#ArialMT-97"/>
      <use x="466.845703" xlink:href="#ArialMT-109"/>
      <use x="550.146484" xlink:href="#ArialMT-101"/>
      <use x="605.761719" xlink:href="#ArialMT-116"/>
      <use x="633.544922" xlink:href="#ArialMT-101"/>
      <use x="689.160156" xlink:href="#ArialMT-114"/>
     </g>
    </g>
   </g>
  </g>
 </g>
 <defs>
  <clipPath id="p43a5541bea">
   <rect height="434.88" width="669.6" x="108" y="69.12"/>
  </clipPath>
 </defs>
</svg>
