<svg class="logo" viewBox="0 0 90 36" version="1.1" xmlns="http://www.w3.org/2000/svg" xmlns:xlink="http://www.w3.org/1999/xlink" preserveAspectRatio="none">
  <g transform="translate(0.000000,46.000000) scale(0.100000,-0.100000)" fill="#000000" stroke="none">
    <path
      d="M100 332 c0 -5 21 -9 48 -8 62 1 142 -29 142 -54 0 -13 -16 -24 -55
  -39 -77 -29 -78 -29 -72 29 3 28 2 50 -2 50 -5 0 -11 -23 -14 -52 -4 -28 -12
  -55 -19 -60 -10 -6 -10 -8 0 -8 6 0 12 -9 12 -19 0 -11 3 -26 6 -35 11 -29 20
  -17 16 22 l-4 38 55 17 c31 10 66 26 79 37 l23 20 -28 25 c-15 13 -44 29 -65
  34 -45 13 -122 14 -122 3z"/>
    <path
      d="M417 333 c-3 -5 20 -9 51 -9 63 0 137 -29 137 -54 0 -16 -51 -43
  -102 -54 l-32 -7 6 52 c5 38 3 50 -5 45 -7 -4 -12 -26 -12 -50 0 -23 -5 -47
  -12 -54 -9 -9 -9 -12 0 -12 7 0 12 -13 12 -29 0 -17 4 -32 9 -35 5 -4 7 11 4
  33 -5 37 -4 39 28 46 18 4 53 16 77 26 55 24 55 53 0 82 -41 21 -152 35 -161
  20z"/>
    <path d="M777 333 c-10 -9 -9 -191 1 -196 4 -3 8 42 9 99 1 57 0 104 -1 104
  -2 0 -6 -3 -9 -7z"/>
    <path d="M350 145 c0 -9 5 -15 11 -13 6 2 11 8 11 13 0 5 -5 11 -11 13 -6 2
  -11 -4 -11 -13z"/>
    <path d="M666 153 c-11 -11 -6 -23 9 -23 8 0 15 4 15 9 0 13 -16 22 -24 14z"/>
    <path d="M867 154 c-8 -8 1 -24 14 -24 5 0 9 7 9 15 0 15 -12 20 -23 9z"/>
  </g>
</svg>