<?xml version="1.0" encoding="utf-8" standalone="no"?>
<!DOCTYPE svg PUBLIC "-//W3C//DTD SVG 1.1//EN"
  "http://www.w3.org/Graphics/SVG/1.1/DTD/svg11.dtd">
<!-- Created with matplotlib (https://matplotlib.org/) -->
<svg height="576pt" version="1.1" viewBox="0 0 864 576" width="864pt" xmlns="http://www.w3.org/2000/svg" xmlns:xlink="http://www.w3.org/1999/xlink">
 <defs>
  <style type="text/css">
*{stroke-linecap:butt;stroke-linejoin:round;}
  </style>
 </defs>
 <g id="figure_1">
  <g id="patch_1">
   <path d="M 0 576 
L 864 576 
L 864 0 
L 0 0 
z
" style="fill:#ffffff;"/>
  </g>
  <g id="axes_1">
   <g id="patch_2">
    <path d="M 108 512.64 
L 777.6 512.64 
L 777.6 69.12 
L 108 69.12 
z
" style="fill:#eaeaf2;"/>
   </g>
   <g id="matplotlib.axis_1">
    <g id="xtick_1">
     <g id="line2d_1">
      <path clip-path="url(#p8fa39385c2)" d="M 138.436364 512.64 
L 138.436364 69.12 
" style="fill:none;stroke:#ffffff;stroke-linecap:round;"/>
     </g>
     <g id="text_1">
      <!-- 0 -->
      <defs>
       <path d="M 4.15625 35.296875 
Q 4.15625 48 6.765625 55.734375 
Q 9.375 63.484375 14.515625 67.671875 
Q 19.671875 71.875 27.484375 71.875 
Q 33.25 71.875 37.59375 69.546875 
Q 41.9375 67.234375 44.765625 62.859375 
Q 47.609375 58.5 49.21875 52.21875 
Q 50.828125 45.953125 50.828125 35.296875 
Q 50.828125 22.703125 48.234375 14.96875 
Q 45.65625 7.234375 40.5 3 
Q 35.359375 -1.21875 27.484375 -1.21875 
Q 17.140625 -1.21875 11.234375 6.203125 
Q 4.15625 15.140625 4.15625 35.296875 
z
M 13.1875 35.296875 
Q 13.1875 17.671875 17.3125 11.828125 
Q 21.4375 6 27.484375 6 
Q 33.546875 6 37.671875 11.859375 
Q 41.796875 17.71875 41.796875 35.296875 
Q 41.796875 52.984375 37.671875 58.78125 
Q 33.546875 64.59375 27.390625 64.59375 
Q 21.34375 64.59375 17.71875 59.46875 
Q 13.1875 52.9375 13.1875 35.296875 
z
" id="ArialMT-48"/>
      </defs>
      <g style="fill:#262626;" transform="translate(135.377848 530.013594)scale(0.11 -0.11)">
       <use xlink:href="#ArialMT-48"/>
      </g>
     </g>
    </g>
    <g id="xtick_2">
     <g id="line2d_2">
      <path clip-path="url(#p8fa39385c2)" d="M 260.425797 512.64 
L 260.425797 69.12 
" style="fill:none;stroke:#ffffff;stroke-linecap:round;"/>
     </g>
     <g id="text_2">
      <!-- 100 -->
      <defs>
       <path d="M 37.25 0 
L 28.46875 0 
L 28.46875 56 
Q 25.296875 52.984375 20.140625 49.953125 
Q 14.984375 46.921875 10.890625 45.40625 
L 10.890625 53.90625 
Q 18.265625 57.375 23.78125 62.296875 
Q 29.296875 67.234375 31.59375 71.875 
L 37.25 71.875 
z
" id="ArialMT-49"/>
      </defs>
      <g style="fill:#262626;" transform="translate(251.25025 530.013594)scale(0.11 -0.11)">
       <use xlink:href="#ArialMT-49"/>
       <use x="55.615234" xlink:href="#ArialMT-48"/>
       <use x="111.230469" xlink:href="#ArialMT-48"/>
      </g>
     </g>
    </g>
    <g id="xtick_3">
     <g id="line2d_3">
      <path clip-path="url(#p8fa39385c2)" d="M 382.41523 512.64 
L 382.41523 69.12 
" style="fill:none;stroke:#ffffff;stroke-linecap:round;"/>
     </g>
     <g id="text_3">
      <!-- 200 -->
      <defs>
       <path d="M 50.34375 8.453125 
L 50.34375 0 
L 3.03125 0 
Q 2.9375 3.171875 4.046875 6.109375 
Q 5.859375 10.9375 9.828125 15.625 
Q 13.8125 20.3125 21.34375 26.46875 
Q 33.015625 36.03125 37.109375 41.625 
Q 41.21875 47.21875 41.21875 52.203125 
Q 41.21875 57.421875 37.46875 61 
Q 33.734375 64.59375 27.734375 64.59375 
Q 21.390625 64.59375 17.578125 60.78125 
Q 13.765625 56.984375 13.71875 50.25 
L 4.6875 51.171875 
Q 5.609375 61.28125 11.65625 66.578125 
Q 17.71875 71.875 27.9375 71.875 
Q 38.234375 71.875 44.234375 66.15625 
Q 50.25 60.453125 50.25 52 
Q 50.25 47.703125 48.484375 43.546875 
Q 46.734375 39.40625 42.65625 34.8125 
Q 38.578125 30.21875 29.109375 22.21875 
Q 21.1875 15.578125 18.9375 13.203125 
Q 16.703125 10.84375 15.234375 8.453125 
z
" id="ArialMT-50"/>
      </defs>
      <g style="fill:#262626;" transform="translate(373.239684 530.013594)scale(0.11 -0.11)">
       <use xlink:href="#ArialMT-50"/>
       <use x="55.615234" xlink:href="#ArialMT-48"/>
       <use x="111.230469" xlink:href="#ArialMT-48"/>
      </g>
     </g>
    </g>
    <g id="xtick_4">
     <g id="line2d_4">
      <path clip-path="url(#p8fa39385c2)" d="M 504.404664 512.64 
L 504.404664 69.12 
" style="fill:none;stroke:#ffffff;stroke-linecap:round;"/>
     </g>
     <g id="text_4">
      <!-- 300 -->
      <defs>
       <path d="M 4.203125 18.890625 
L 12.984375 20.0625 
Q 14.5 12.59375 18.140625 9.296875 
Q 21.78125 6 27 6 
Q 33.203125 6 37.46875 10.296875 
Q 41.75 14.59375 41.75 20.953125 
Q 41.75 27 37.796875 30.921875 
Q 33.84375 34.859375 27.734375 34.859375 
Q 25.25 34.859375 21.53125 33.890625 
L 22.515625 41.609375 
Q 23.390625 41.5 23.921875 41.5 
Q 29.546875 41.5 34.03125 44.421875 
Q 38.53125 47.359375 38.53125 53.46875 
Q 38.53125 58.296875 35.25 61.46875 
Q 31.984375 64.65625 26.8125 64.65625 
Q 21.6875 64.65625 18.265625 61.421875 
Q 14.84375 58.203125 13.875 51.765625 
L 5.078125 53.328125 
Q 6.6875 62.15625 12.390625 67.015625 
Q 18.109375 71.875 26.609375 71.875 
Q 32.46875 71.875 37.390625 69.359375 
Q 42.328125 66.84375 44.9375 62.5 
Q 47.5625 58.15625 47.5625 53.265625 
Q 47.5625 48.640625 45.0625 44.828125 
Q 42.578125 41.015625 37.703125 38.765625 
Q 44.046875 37.3125 47.5625 32.6875 
Q 51.078125 28.078125 51.078125 21.140625 
Q 51.078125 11.765625 44.234375 5.25 
Q 37.40625 -1.265625 26.953125 -1.265625 
Q 17.53125 -1.265625 11.296875 4.34375 
Q 5.078125 9.96875 4.203125 18.890625 
z
" id="ArialMT-51"/>
      </defs>
      <g style="fill:#262626;" transform="translate(495.229117 530.013594)scale(0.11 -0.11)">
       <use xlink:href="#ArialMT-51"/>
       <use x="55.615234" xlink:href="#ArialMT-48"/>
       <use x="111.230469" xlink:href="#ArialMT-48"/>
      </g>
     </g>
    </g>
    <g id="xtick_5">
     <g id="line2d_5">
      <path clip-path="url(#p8fa39385c2)" d="M 626.394097 512.64 
L 626.394097 69.12 
" style="fill:none;stroke:#ffffff;stroke-linecap:round;"/>
     </g>
     <g id="text_5">
      <!-- 400 -->
      <defs>
       <path d="M 32.328125 0 
L 32.328125 17.140625 
L 1.265625 17.140625 
L 1.265625 25.203125 
L 33.9375 71.578125 
L 41.109375 71.578125 
L 41.109375 25.203125 
L 50.78125 25.203125 
L 50.78125 17.140625 
L 41.109375 17.140625 
L 41.109375 0 
z
M 32.328125 25.203125 
L 32.328125 57.46875 
L 9.90625 25.203125 
z
" id="ArialMT-52"/>
      </defs>
      <g style="fill:#262626;" transform="translate(617.21855 530.013594)scale(0.11 -0.11)">
       <use xlink:href="#ArialMT-52"/>
       <use x="55.615234" xlink:href="#ArialMT-48"/>
       <use x="111.230469" xlink:href="#ArialMT-48"/>
      </g>
     </g>
    </g>
    <g id="xtick_6">
     <g id="line2d_6">
      <path clip-path="url(#p8fa39385c2)" d="M 748.383531 512.64 
L 748.383531 69.12 
" style="fill:none;stroke:#ffffff;stroke-linecap:round;"/>
     </g>
     <g id="text_6">
      <!-- 500 -->
      <defs>
       <path d="M 4.15625 18.75 
L 13.375 19.53125 
Q 14.40625 12.796875 18.140625 9.390625 
Q 21.875 6 27.15625 6 
Q 33.5 6 37.890625 10.78125 
Q 42.28125 15.578125 42.28125 23.484375 
Q 42.28125 31 38.0625 35.34375 
Q 33.84375 39.703125 27 39.703125 
Q 22.75 39.703125 19.328125 37.765625 
Q 15.921875 35.84375 13.96875 32.765625 
L 5.71875 33.84375 
L 12.640625 70.609375 
L 48.25 70.609375 
L 48.25 62.203125 
L 19.671875 62.203125 
L 15.828125 42.96875 
Q 22.265625 47.46875 29.34375 47.46875 
Q 38.71875 47.46875 45.15625 40.96875 
Q 51.609375 34.46875 51.609375 24.265625 
Q 51.609375 14.546875 45.953125 7.46875 
Q 39.0625 -1.21875 27.15625 -1.21875 
Q 17.390625 -1.21875 11.203125 4.25 
Q 5.03125 9.71875 4.15625 18.75 
z
" id="ArialMT-53"/>
      </defs>
      <g style="fill:#262626;" transform="translate(739.207984 530.013594)scale(0.11 -0.11)">
       <use xlink:href="#ArialMT-53"/>
       <use x="55.615234" xlink:href="#ArialMT-48"/>
       <use x="111.230469" xlink:href="#ArialMT-48"/>
      </g>
     </g>
    </g>
   </g>
   <g id="matplotlib.axis_2">
    <g id="ytick_1">
     <g id="line2d_7">
      <path clip-path="url(#p8fa39385c2)" d="M 108 477.95871 
L 777.6 477.95871 
" style="fill:none;stroke:#ffffff;stroke-linecap:round;"/>
     </g>
     <g id="text_7">
      <!-- −3 -->
      <defs>
       <path d="M 52.828125 31.203125 
L 5.5625 31.203125 
L 5.5625 39.40625 
L 52.828125 39.40625 
z
" id="ArialMT-8722"/>
      </defs>
      <g style="fill:#262626;" transform="translate(85.958281 481.895507)scale(0.11 -0.11)">
       <use xlink:href="#ArialMT-8722"/>
       <use x="58.398438" xlink:href="#ArialMT-51"/>
      </g>
     </g>
    </g>
    <g id="ytick_2">
     <g id="line2d_8">
      <path clip-path="url(#p8fa39385c2)" d="M 108 407.963411 
L 777.6 407.963411 
" style="fill:none;stroke:#ffffff;stroke-linecap:round;"/>
     </g>
     <g id="text_8">
      <!-- −2 -->
      <g style="fill:#262626;" transform="translate(85.958281 411.900208)scale(0.11 -0.11)">
       <use xlink:href="#ArialMT-8722"/>
       <use x="58.398438" xlink:href="#ArialMT-50"/>
      </g>
     </g>
    </g>
    <g id="ytick_3">
     <g id="line2d_9">
      <path clip-path="url(#p8fa39385c2)" d="M 108 337.968111 
L 777.6 337.968111 
" style="fill:none;stroke:#ffffff;stroke-linecap:round;"/>
     </g>
     <g id="text_9">
      <!-- −1 -->
      <g style="fill:#262626;" transform="translate(85.958281 341.904908)scale(0.11 -0.11)">
       <use xlink:href="#ArialMT-8722"/>
       <use x="58.398438" xlink:href="#ArialMT-49"/>
      </g>
     </g>
    </g>
    <g id="ytick_4">
     <g id="line2d_10">
      <path clip-path="url(#p8fa39385c2)" d="M 108 267.972812 
L 777.6 267.972812 
" style="fill:none;stroke:#ffffff;stroke-linecap:round;"/>
     </g>
     <g id="text_10">
      <!-- 0 -->
      <g style="fill:#262626;" transform="translate(92.382969 271.909609)scale(0.11 -0.11)">
       <use xlink:href="#ArialMT-48"/>
      </g>
     </g>
    </g>
    <g id="ytick_5">
     <g id="line2d_11">
      <path clip-path="url(#p8fa39385c2)" d="M 108 197.977512 
L 777.6 197.977512 
" style="fill:none;stroke:#ffffff;stroke-linecap:round;"/>
     </g>
     <g id="text_11">
      <!-- 1 -->
      <g style="fill:#262626;" transform="translate(92.382969 201.914309)scale(0.11 -0.11)">
       <use xlink:href="#ArialMT-49"/>
      </g>
     </g>
    </g>
    <g id="ytick_6">
     <g id="line2d_12">
      <path clip-path="url(#p8fa39385c2)" d="M 108 127.982213 
L 777.6 127.982213 
" style="fill:none;stroke:#ffffff;stroke-linecap:round;"/>
     </g>
     <g id="text_12">
      <!-- 2 -->
      <g style="fill:#262626;" transform="translate(92.382969 131.91901)scale(0.11 -0.11)">
       <use xlink:href="#ArialMT-50"/>
      </g>
     </g>
    </g>
   </g>
   <g id="PolyCollection_1">
    <defs>
     <path d="M 138.436364 -486.72 
L 138.436364 -134.96657 
L 139.656258 -135.162614 
L 140.876152 -136.34393 
L 142.096047 -345.626133 
L 143.315941 -346.242007 
L 144.535835 -345.687857 
L 145.75573 -345.716614 
L 146.975624 -347.416502 
L 148.195518 -346.539616 
L 149.415413 -347.243344 
L 150.635307 -347.260316 
L 151.855201 -347.936852 
L 153.075096 -348.057503 
L 154.29499 -347.198085 
L 155.514884 -347.557422 
L 156.734779 -345.575419 
L 157.954673 -345.48413 
L 159.174567 -346.161039 
L 160.394462 -346.738902 
L 161.614356 -347.022422 
L 162.83425 -346.489991 
L 164.054145 -348.367378 
L 165.274039 -348.074997 
L 166.493933 -347.094586 
L 167.713828 -347.481018 
L 168.933722 -346.108136 
L 170.153616 -346.211345 
L 171.373511 -344.891354 
L 172.593405 -345.130907 
L 173.813299 -345.020226 
L 175.033194 -344.408086 
L 176.253088 -343.828441 
L 177.472982 -344.227727 
L 178.692877 -346.022699 
L 179.912771 -346.118184 
L 181.132665 -346.57937 
L 182.35256 -346.994678 
L 183.572454 -346.567536 
L 184.792348 -346.263394 
L 186.012243 -347.924115 
L 187.232137 -347.634929 
L 188.452031 -347.176458 
L 189.671926 -347.411187 
L 190.89182 -347.105378 
L 192.111714 -346.791761 
L 193.331609 -347.171732 
L 194.551503 -347.612179 
L 195.771397 -346.973092 
L 196.991292 -345.661229 
L 198.211186 -346.200808 
L 199.43108 -345.858982 
L 200.650975 -345.044239 
L 201.870869 -345.467948 
L 203.090763 -345.011845 
L 204.310658 -344.61495 
L 205.530552 -344.413582 
L 206.750446 -344.352706 
L 207.970341 -344.305764 
L 209.190235 -343.46224 
L 210.410129 -342.945888 
L 211.630024 -343.48915 
L 212.849918 -342.608152 
L 214.069812 -341.788193 
L 215.289707 -340.508895 
L 216.509601 -339.963731 
L 217.729495 -340.741978 
L 218.94939 -341.173853 
L 220.169284 -341.239914 
L 221.389178 -341.883307 
L 222.609073 -343.28814 
L 223.828967 -343.306734 
L 225.048861 -342.958281 
L 226.268756 -341.960231 
L 227.48865 -341.305575 
L 228.708544 -341.152386 
L 229.928439 -340.607436 
L 231.148333 -340.166251 
L 232.368227 -338.811435 
L 233.588122 -339.386506 
L 234.808016 -340.160866 
L 236.02791 -338.988808 
L 237.247805 -338.595462 
L 238.467699 -338.488454 
L 239.687593 -337.034343 
L 240.907488 -338.106137 
L 242.127382 -339.16728 
L 243.347276 -338.060978 
L 244.567171 -337.842707 
L 245.787065 -337.130067 
L 247.006959 -336.246407 
L 248.226854 -336.233981 
L 249.446748 -335.040704 
L 250.666642 -335.070356 
L 251.886537 -336.024523 
L 253.106431 -335.698933 
L 254.326325 -335.190355 
L 255.54622 -336.377022 
L 256.766114 -336.932085 
L 257.986008 -336.978115 
L 259.205903 -336.694461 
L 260.425797 -335.770456 
L 261.645691 -335.691514 
L 262.865586 -335.254527 
L 264.08548 -334.921854 
L 265.305374 -335.205916 
L 266.525269 -334.369911 
L 267.745163 -333.852189 
L 268.965057 -334.942296 
L 270.184952 -334.10844 
L 271.404846 -384.906922 
L 272.62474 -384.980583 
L 273.844635 -385.417375 
L 275.064529 -385.181823 
L 276.284423 -385.312643 
L 277.504318 -384.906519 
L 278.724212 -385.150131 
L 279.944106 -384.763244 
L 281.164001 -385.275884 
L 282.383895 -384.146863 
L 283.603789 -384.5275 
L 284.823684 -383.961386 
L 286.043578 -382.877553 
L 287.263472 -382.9321 
L 288.483367 -383.029423 
L 289.703261 -383.356779 
L 290.923155 -383.464388 
L 292.14305 -383.881353 
L 293.362944 -383.481698 
L 294.582838 -382.525238 
L 295.802733 -383.178239 
L 297.022627 -382.886448 
L 298.242521 -382.849347 
L 299.462416 -383.081497 
L 300.68231 -383.310278 
L 301.902204 -382.482773 
L 303.122099 -382.292426 
L 304.341993 -381.418294 
L 305.561887 -382.464604 
L 306.781782 -382.940844 
L 308.001676 -383.096193 
L 309.22157 -383.80376 
L 310.441465 -383.373623 
L 311.661359 -383.956148 
L 312.881253 -383.013115 
L 314.101148 -383.191674 
L 315.321042 -383.14778 
L 316.540936 -383.171967 
L 317.760831 -382.926525 
L 318.980725 -382.992112 
L 320.200619 -381.603146 
L 321.420514 -380.722551 
L 322.640408 -381.918147 
L 323.860302 -383.033781 
L 325.080197 -382.839589 
L 326.300091 -381.414979 
L 327.519985 -381.723406 
L 328.73988 -383.093776 
L 329.959774 -383.37206 
L 331.179668 -383.644169 
L 332.399563 -383.295635 
L 333.619457 -383.012743 
L 334.839351 -380.118009 
L 336.059246 -378.814107 
L 337.27914 -378.540907 
L 338.499034 -377.3406 
L 339.718929 -377.01662 
L 340.938823 -377.000655 
L 342.158717 -378.402473 
L 343.378612 -378.975352 
L 344.598506 -379.360845 
L 345.8184 -379.166389 
L 347.038295 -378.026626 
L 348.258189 -377.379359 
L 349.478083 -377.147205 
L 350.697978 -377.479614 
L 351.917872 -376.462882 
L 353.137766 -377.171673 
L 354.357661 -377.518601 
L 355.577555 -378.167745 
L 356.797449 -378.946871 
L 358.017344 -378.659834 
L 359.237238 -378.787141 
L 360.457132 -378.356262 
L 361.677027 -378.133162 
L 362.896921 -378.388766 
L 364.116815 -376.834167 
L 365.33671 -377.995603 
L 366.556604 -379.364654 
L 367.776498 -378.715484 
L 368.996393 -379.943449 
L 370.216287 -379.596751 
L 371.436181 -379.498429 
L 372.656076 -381.714518 
L 373.87597 -381.578126 
L 375.095864 -381.252931 
L 376.315759 -380.769055 
L 377.535653 -381.539459 
L 378.755547 -380.947843 
L 379.975442 -381.01647 
L 381.195336 -381.227674 
L 382.41523 -379.672329 
L 383.635125 -379.855221 
L 384.855019 -379.073678 
L 386.074913 -378.245362 
L 387.294808 -378.116475 
L 388.514702 -378.267535 
L 389.734596 -377.505942 
L 390.954491 -377.721514 
L 392.174385 -376.702446 
L 393.394279 -376.147264 
L 394.614174 -375.682978 
L 395.834068 -374.912964 
L 397.053962 -374.771207 
L 398.273857 -375.221957 
L 399.493751 -375.634061 
L 400.713645 -375.532029 
L 401.93354 -373.938281 
L 403.153434 -373.781125 
L 404.373328 -373.121335 
L 405.593223 -373.574882 
L 406.813117 -374.314215 
L 408.033011 -373.533386 
L 409.252906 -372.403908 
L 410.4728 -371.832927 
L 411.692694 -371.717467 
L 412.912589 -371.711092 
L 414.132483 -372.167325 
L 415.352377 -372.464151 
L 416.572272 -372.552438 
L 417.792166 -372.766254 
L 419.01206 -372.554061 
L 420.231955 -371.380857 
L 421.451849 -371.458015 
L 422.671743 -371.823968 
L 423.891638 -371.62108 
L 425.111532 -371.742401 
L 426.331426 -371.196175 
L 427.551321 -371.073405 
L 428.771215 -372.477578 
L 429.991109 -371.461261 
L 431.211004 -372.043837 
L 432.430898 -371.980181 
L 433.650792 -371.098877 
L 434.870687 -371.18511 
L 436.090581 -371.505517 
L 437.310475 -370.954644 
L 438.53037 -370.963477 
L 439.750264 -370.625419 
L 440.970158 -370.176664 
L 442.190053 -370.785341 
L 443.409947 -371.48306 
L 444.629842 -370.923325 
L 445.849736 -370.557957 
L 447.06963 -372.480455 
L 448.289525 -371.398692 
L 449.509419 -370.886812 
L 450.729313 -370.44428 
L 451.949208 -370.293016 
L 453.169102 -369.957898 
L 454.388996 -370.115038 
L 455.608891 -370.141665 
L 456.828785 -370.254826 
L 458.048679 -369.789949 
L 459.268574 -368.314211 
L 460.488468 -369.37947 
L 461.708362 -368.35495 
L 462.928257 -367.742224 
L 464.148151 -367.144166 
L 465.368045 -367.962931 
L 466.58794 -367.67895 
L 467.807834 -367.730626 
L 469.027728 -367.499569 
L 470.247623 -366.37454 
L 471.467517 -367.425148 
L 472.687411 -366.335498 
L 473.907306 -364.976279 
L 475.1272 -365.709816 
L 476.347094 -364.939112 
L 477.566989 -364.689636 
L 478.786883 -364.664236 
L 480.006777 -364.789185 
L 481.226672 -364.456529 
L 482.446566 -365.575106 
L 483.66646 -364.697 
L 484.886355 -365.457424 
L 486.106249 -365.996677 
L 487.326143 -366.264162 
L 488.546038 -366.413239 
L 489.765932 -366.979178 
L 490.985826 -366.938641 
L 492.205721 -366.595358 
L 493.425615 -366.827736 
L 494.645509 -367.191043 
L 495.865404 -366.83527 
L 497.085298 -366.929626 
L 498.305192 -367.223425 
L 499.525087 -368.126458 
L 500.744981 -368.22796 
L 501.964875 -367.972444 
L 503.18477 -367.080877 
L 504.404664 -367.035025 
L 505.624558 -365.171826 
L 506.844453 -364.843151 
L 508.064347 -363.839982 
L 509.284241 -365.414541 
L 510.504136 -365.801147 
L 511.72403 -364.742202 
L 512.943924 -365.085559 
L 514.163819 -364.663418 
L 515.383713 -364.285975 
L 516.603607 -363.824936 
L 517.823502 -362.576905 
L 519.043396 -362.718332 
L 520.26329 -362.11044 
L 521.483185 -362.577609 
L 522.703079 -362.172527 
L 523.922973 -363.929541 
L 525.142868 -364.396391 
L 526.362762 -364.253802 
L 527.582656 -363.445844 
L 528.802551 -364.102011 
L 530.022445 -364.492517 
L 531.242339 -363.969378 
L 532.462234 -364.384181 
L 533.682128 -365.045961 
L 534.902022 -365.30663 
L 536.121917 -365.019877 
L 537.341811 -365.432917 
L 538.561705 -365.272213 
L 539.7816 -364.050694 
L 541.001494 -363.977264 
L 542.221388 -363.920552 
L 543.441283 -363.807312 
L 544.661177 -363.477094 
L 545.881071 -362.95972 
L 547.100966 -361.966142 
L 548.32086 -362.337634 
L 549.540754 -362.524839 
L 550.760649 -362.572347 
L 551.980543 -362.569687 
L 553.200437 -363.064438 
L 554.420332 -363.168784 
L 555.640226 -362.932833 
L 556.86012 -363.260764 
L 558.080015 -361.725119 
L 559.299909 -361.725865 
L 560.519803 -362.11524 
L 561.739698 -362.106716 
L 562.959592 -363.980383 
L 564.179486 -364.574999 
L 565.399381 -364.76583 
L 566.619275 -364.411945 
L 567.839169 -363.332135 
L 569.059064 -362.9739 
L 570.278958 -363.691539 
L 571.498852 -364.482455 
L 572.718747 -364.312716 
L 573.938641 -364.140701 
L 575.158535 -363.876751 
L 576.37843 -363.616811 
L 577.598324 -362.449454 
L 578.818218 -363.334431 
L 580.038113 -363.478722 
L 581.258007 -364.386248 
L 582.477901 -364.099467 
L 583.697796 -364.297146 
L 584.91769 -363.316937 
L 586.137584 -364.184342 
L 587.357479 -366.506904 
L 588.577373 -365.851624 
L 589.797267 -366.002281 
L 591.017162 -366.283638 
L 592.237056 -366.265422 
L 593.45695 -366.828859 
L 594.676845 -365.628451 
L 595.896739 -366.178635 
L 597.116633 -366.423436 
L 598.336528 -365.401614 
L 599.556422 -365.584707 
L 600.776316 -365.790061 
L 601.996211 -366.286636 
L 603.216105 -366.484456 
L 604.435999 -366.660249 
L 605.655894 -366.544763 
L 606.875788 -366.107196 
L 608.095682 -366.24186 
L 609.315577 -365.625062 
L 610.535471 -365.597664 
L 611.755365 -365.812238 
L 612.97526 -366.989171 
L 614.195154 -368.67793 
L 615.415048 -368.427439 
L 616.634943 -368.40955 
L 617.854837 -366.796387 
L 619.074731 -367.046975 
L 620.294626 -367.115138 
L 621.51452 -366.041369 
L 622.734414 -366.586241 
L 623.954309 -366.78924 
L 625.174203 -366.496266 
L 626.394097 -366.278652 
L 627.613992 -366.851507 
L 628.833886 -366.546089 
L 630.05378 -366.469797 
L 631.273675 -366.816269 
L 632.493569 -366.111238 
L 633.713463 -365.808467 
L 634.933358 -366.041127 
L 636.153252 -365.485061 
L 637.373146 -366.214659 
L 638.593041 -365.677163 
L 639.812935 -365.723381 
L 641.032829 -364.051255 
L 642.252724 -364.602038 
L 643.472618 -363.222026 
L 644.692512 -363.657837 
L 645.912407 -364.174098 
L 647.132301 -364.188405 
L 648.352195 -364.591894 
L 649.57209 -364.039679 
L 650.791984 -362.992453 
L 652.011878 -362.410131 
L 653.231773 -361.641825 
L 654.451667 -361.703686 
L 655.671561 -362.441268 
L 656.891456 -362.499613 
L 658.11135 -361.384063 
L 659.331244 -360.802281 
L 660.551139 -360.873294 
L 661.771033 -361.136716 
L 662.990927 -362.938904 
L 664.210822 -362.429307 
L 665.430716 -362.401429 
L 666.65061 -362.780673 
L 667.870505 -362.828904 
L 669.090399 -363.718371 
L 670.310293 -363.517233 
L 671.530188 -363.06115 
L 672.750082 -362.616883 
L 673.969976 -362.734432 
L 675.189871 -361.791011 
L 676.409765 -361.242657 
L 677.629659 -359.791418 
L 678.849554 -361.14186 
L 680.069448 -361.788618 
L 681.289342 -360.995682 
L 682.509237 -361.740215 
L 683.729131 -361.297785 
L 684.949025 -361.818924 
L 686.16892 -361.606289 
L 687.388814 -361.717279 
L 688.608708 -362.358633 
L 689.828603 -361.922826 
L 691.048497 -360.539682 
L 692.268391 -359.737488 
L 693.488286 -360.251835 
L 694.70818 -360.173539 
L 695.928074 -360.437602 
L 697.147969 -360.56349 
L 698.367863 -360.333945 
L 699.587757 -360.236693 
L 700.807652 -359.20101 
L 702.027546 -391.177199 
L 703.24744 -391.42121 
L 704.467335 -391.033682 
L 705.687229 -390.96012 
L 706.907123 -390.287038 
L 708.127018 -390.7344 
L 709.346912 -390.434759 
L 710.566806 -390.154587 
L 711.786701 -390.315322 
L 713.006595 -390.68993 
L 714.226489 -389.323434 
L 715.446384 -389.037011 
L 716.666278 -389.434375 
L 717.886172 -389.009457 
L 719.106067 -390.305117 
L 720.325961 -390.555718 
L 721.545855 -389.357586 
L 722.76575 -387.732926 
L 723.985644 -387.93462 
L 725.205538 -388.560593 
L 726.425433 -388.863653 
L 727.645327 -388.308962 
L 728.865221 -387.680799 
L 730.085116 -387.468958 
L 731.30501 -387.404572 
L 732.524904 -388.013498 
L 733.744799 -388.803856 
L 734.964693 -389.510039 
L 736.184587 -390.117975 
L 737.404482 -389.788799 
L 738.624376 -390.076992 
L 739.84427 -389.513058 
L 741.064165 -388.362057 
L 742.284059 -387.171158 
L 743.503953 -387.557127 
L 744.723848 -387.839156 
L 745.943742 -387.29877 
L 745.943742 -422.323204 
L 745.943742 -422.323204 
L 744.723848 -422.239696 
L 743.503953 -422.266569 
L 742.284059 -422.027091 
L 741.064165 -421.340982 
L 739.84427 -421.615366 
L 738.624376 -421.462923 
L 737.404482 -421.553801 
L 736.184587 -420.437063 
L 734.964693 -421.222502 
L 733.744799 -422.240234 
L 732.524904 -421.632353 
L 731.30501 -421.601681 
L 730.085116 -420.700627 
L 728.865221 -420.386861 
L 727.645327 -419.513106 
L 726.425433 -418.235187 
L 725.205538 -416.874545 
L 723.985644 -416.444166 
L 722.76575 -416.01385 
L 721.545855 -415.102542 
L 720.325961 -416.111114 
L 719.106067 -416.28713 
L 717.886172 -416.034542 
L 716.666278 -415.575997 
L 715.446384 -414.585926 
L 714.226489 -414.719777 
L 713.006595 -414.569115 
L 711.786701 -414.157113 
L 710.566806 -412.99872 
L 709.346912 -412.945719 
L 708.127018 -413.00933 
L 706.907123 -413.509175 
L 705.687229 -413.083269 
L 704.467335 -411.807731 
L 703.24744 -411.93599 
L 702.027546 -410.192488 
L 700.807652 -421.838465 
L 699.587757 -420.606551 
L 698.367863 -419.94433 
L 697.147969 -419.818248 
L 695.928074 -419.225089 
L 694.70818 -418.800526 
L 693.488286 -418.46836 
L 692.268391 -418.488844 
L 691.048497 -419.428238 
L 689.828603 -419.5032 
L 688.608708 -419.715016 
L 687.388814 -419.165386 
L 686.16892 -420.159618 
L 684.949025 -420.334358 
L 683.729131 -419.267619 
L 682.509237 -419.469687 
L 681.289342 -419.251412 
L 680.069448 -418.01258 
L 678.849554 -418.661937 
L 677.629659 -418.597897 
L 676.409765 -418.708434 
L 675.189871 -419.160054 
L 673.969976 -418.92167 
L 672.750082 -418.433003 
L 671.530188 -418.079597 
L 670.310293 -417.193439 
L 669.090399 -418.350439 
L 667.870505 -417.239512 
L 666.65061 -416.439709 
L 665.430716 -416.78976 
L 664.210822 -416.846609 
L 662.990927 -416.329235 
L 661.771033 -415.886025 
L 660.551139 -414.947716 
L 659.331244 -414.960936 
L 658.11135 -414.976511 
L 656.891456 -414.208895 
L 655.671561 -414.105298 
L 654.451667 -414.6215 
L 653.231773 -414.512868 
L 652.011878 -415.199736 
L 650.791984 -415.1127 
L 649.57209 -415.788954 
L 648.352195 -415.527761 
L 647.132301 -415.302427 
L 645.912407 -416.003791 
L 644.692512 -415.312906 
L 643.472618 -415.920876 
L 642.252724 -414.730871 
L 641.032829 -414.927177 
L 639.812935 -414.238283 
L 638.593041 -415.062257 
L 637.373146 -413.489909 
L 636.153252 -413.387691 
L 634.933358 -413.554531 
L 633.713463 -413.160257 
L 632.493569 -413.451373 
L 631.273675 -414.016108 
L 630.05378 -413.100944 
L 628.833886 -413.005714 
L 627.613992 -413.359607 
L 626.394097 -414.223609 
L 625.174203 -413.6148 
L 623.954309 -413.371816 
L 622.734414 -412.483543 
L 621.51452 -412.772623 
L 620.294626 -412.879029 
L 619.074731 -412.646569 
L 617.854837 -412.613952 
L 616.634943 -413.50681 
L 615.415048 -413.589204 
L 614.195154 -413.574551 
L 612.97526 -413.842905 
L 611.755365 -415.532505 
L 610.535471 -414.901302 
L 609.315577 -414.823366 
L 608.095682 -415.048954 
L 606.875788 -414.820389 
L 605.655894 -414.838005 
L 604.435999 -415.041072 
L 603.216105 -415.198882 
L 601.996211 -416.339778 
L 600.776316 -416.593214 
L 599.556422 -414.496184 
L 598.336528 -415.166793 
L 597.116633 -414.84866 
L 595.896739 -415.53936 
L 594.676845 -415.690131 
L 593.45695 -415.700703 
L 592.237056 -416.60672 
L 591.017162 -416.791006 
L 589.797267 -417.354227 
L 588.577373 -417.484591 
L 587.357479 -417.592461 
L 586.137584 -416.740031 
L 584.91769 -416.583118 
L 583.697796 -415.95466 
L 582.477901 -416.134705 
L 581.258007 -415.380643 
L 580.038113 -416.232687 
L 578.818218 -416.433608 
L 577.598324 -415.995027 
L 576.37843 -415.9098 
L 575.158535 -415.799565 
L 573.938641 -415.705484 
L 572.718747 -414.413802 
L 571.498852 -414.587883 
L 570.278958 -414.249933 
L 569.059064 -414.45715 
L 567.839169 -414.097492 
L 566.619275 -414.034407 
L 565.399381 -414.535491 
L 564.179486 -414.618152 
L 562.959592 -414.282097 
L 561.739698 -413.374026 
L 560.519803 -413.41639 
L 559.299909 -413.590862 
L 558.080015 -413.136416 
L 556.86012 -412.592528 
L 555.640226 -412.368901 
L 554.420332 -412.139414 
L 553.200437 -411.053817 
L 551.980543 -410.648669 
L 550.760649 -411.036342 
L 549.540754 -409.92327 
L 548.32086 -410.469887 
L 547.100966 -410.581239 
L 545.881071 -410.552975 
L 544.661177 -409.971984 
L 543.441283 -409.91975 
L 542.221388 -410.620182 
L 541.001494 -410.509147 
L 539.7816 -410.428985 
L 538.561705 -410.06113 
L 537.341811 -409.305404 
L 536.121917 -410.060968 
L 534.902022 -410.547414 
L 533.682128 -409.613319 
L 532.462234 -409.906127 
L 531.242339 -411.048875 
L 530.022445 -410.554104 
L 528.802551 -410.647297 
L 527.582656 -409.268379 
L 526.362762 -408.315953 
L 525.142868 -408.402241 
L 523.922973 -408.020334 
L 522.703079 -408.231081 
L 521.483185 -408.017253 
L 520.26329 -407.643837 
L 519.043396 -407.36849 
L 517.823502 -407.900995 
L 516.603607 -407.100944 
L 515.383713 -406.943067 
L 514.163819 -407.775904 
L 512.943924 -407.280372 
L 511.72403 -407.53239 
L 510.504136 -406.561049 
L 509.284241 -405.845693 
L 508.064347 -404.995369 
L 506.844453 -404.941536 
L 505.624558 -404.862222 
L 504.404664 -405.289371 
L 503.18477 -405.00295 
L 501.964875 -404.657253 
L 500.744981 -405.013364 
L 499.525087 -405.740719 
L 498.305192 -405.586204 
L 497.085298 -405.232887 
L 495.865404 -405.771773 
L 494.645509 -405.332008 
L 493.425615 -404.459007 
L 492.205721 -405.106662 
L 490.985826 -404.980577 
L 489.765932 -405.146408 
L 488.546038 -404.730473 
L 487.326143 -403.442852 
L 486.106249 -403.641183 
L 484.886355 -403.429336 
L 483.66646 -403.75162 
L 482.446566 -403.836512 
L 481.226672 -402.318396 
L 480.006777 -403.232152 
L 478.786883 -404.030481 
L 477.566989 -403.009931 
L 476.347094 -403.466715 
L 475.1272 -403.410277 
L 473.907306 -402.992361 
L 472.687411 -403.614111 
L 471.467517 -404.346605 
L 470.247623 -403.561405 
L 469.027728 -403.252403 
L 467.807834 -403.953931 
L 466.58794 -403.912565 
L 465.368045 -403.797659 
L 464.148151 -403.148039 
L 462.928257 -403.763537 
L 461.708362 -404.161679 
L 460.488468 -404.274277 
L 459.268574 -403.294883 
L 458.048679 -403.187293 
L 456.828785 -402.368186 
L 455.608891 -416.161926 
L 454.388996 -416.753161 
L 453.169102 -417.689038 
L 451.949208 -417.18445 
L 450.729313 -416.981214 
L 449.509419 -416.840125 
L 448.289525 -416.601316 
L 447.06963 -416.152649 
L 445.849736 -416.132795 
L 444.629842 -416.029708 
L 443.409947 -417.285187 
L 442.190053 -417.143881 
L 440.970158 -416.903311 
L 439.750264 -417.141216 
L 438.53037 -416.540171 
L 437.310475 -416.126146 
L 436.090581 -417.428698 
L 434.870687 -417.470534 
L 433.650792 -417.122435 
L 432.430898 -416.305034 
L 431.211004 -416.78681 
L 429.991109 -417.280055 
L 428.771215 -417.207936 
L 427.551321 -417.092947 
L 426.331426 -417.117338 
L 425.111532 -416.531246 
L 423.891638 -416.415719 
L 422.671743 -416.512922 
L 421.451849 -416.222471 
L 420.231955 -416.677316 
L 419.01206 -418.005177 
L 417.792166 -418.219334 
L 416.572272 -418.758952 
L 415.352377 -418.338469 
L 414.132483 -418.248627 
L 412.912589 -418.431799 
L 411.692694 -418.123435 
L 410.4728 -418.455349 
L 409.252906 -418.468719 
L 408.033011 -419.032657 
L 406.813117 -418.07902 
L 405.593223 -417.403908 
L 404.373328 -417.97042 
L 403.153434 -418.529426 
L 401.93354 -417.76637 
L 400.713645 -418.127516 
L 399.493751 -417.196744 
L 398.273857 -417.441895 
L 397.053962 -417.319712 
L 395.834068 -417.475135 
L 394.614174 -418.008352 
L 393.394279 -417.588963 
L 392.174385 -418.060422 
L 390.954491 -418.317804 
L 389.734596 -418.037991 
L 388.514702 -417.882919 
L 387.294808 -417.813412 
L 386.074913 -417.360795 
L 384.855019 -416.914827 
L 383.635125 -417.562787 
L 382.41523 -417.89147 
L 381.195336 -418.098042 
L 379.975442 -417.77288 
L 378.755547 -416.91892 
L 377.535653 -415.373336 
L 376.315759 -415.502432 
L 375.095864 -416.365135 
L 373.87597 -416.634536 
L 372.656076 -416.160181 
L 371.436181 -417.145271 
L 370.216287 -417.716816 
L 368.996393 -417.40247 
L 367.776498 -417.158723 
L 366.556604 -417.58671 
L 365.33671 -417.254361 
L 364.116815 -417.088686 
L 362.896921 -418.418028 
L 361.677027 -418.186455 
L 360.457132 -418.714528 
L 359.237238 -418.64051 
L 358.017344 -418.412376 
L 356.797449 -418.152742 
L 355.577555 -419.300993 
L 354.357661 -418.668574 
L 353.137766 -417.377868 
L 351.917872 -416.589765 
L 350.697978 -417.111504 
L 349.478083 -415.908374 
L 348.258189 -416.279668 
L 347.038295 -416.565959 
L 345.8184 -416.145398 
L 344.598506 -415.926277 
L 343.378612 -416.268093 
L 342.158717 -414.853688 
L 340.938823 -415.895934 
L 339.718929 -415.300407 
L 338.499034 -415.600432 
L 337.27914 -415.808053 
L 336.059246 -415.641759 
L 334.839351 -415.280375 
L 333.619457 -415.627504 
L 332.399563 -416.564156 
L 331.179668 -417.781364 
L 329.959774 -418.035734 
L 328.73988 -417.151399 
L 327.519985 -417.347995 
L 326.300091 -417.123777 
L 325.080197 -416.615032 
L 323.860302 -416.859123 
L 322.640408 -416.692709 
L 321.420514 -417.79945 
L 320.200619 -416.477945 
L 318.980725 -416.577295 
L 317.760831 -416.389649 
L 316.540936 -416.772314 
L 315.321042 -417.159134 
L 314.101148 -416.694414 
L 312.881253 -416.780605 
L 311.661359 -415.564789 
L 310.441465 -415.150549 
L 309.22157 -416.030663 
L 308.001676 -415.248498 
L 306.781782 -415.201921 
L 305.561887 -414.859939 
L 304.341993 -415.065327 
L 303.122099 -416.308018 
L 301.902204 -415.456735 
L 300.68231 -414.870835 
L 299.462416 -415.40294 
L 298.242521 -414.800488 
L 297.022627 -414.998314 
L 295.802733 -414.895521 
L 294.582838 -415.495073 
L 293.362944 -414.214783 
L 292.14305 -414.405117 
L 290.923155 -413.742073 
L 289.703261 -413.51939 
L 288.483367 -414.318482 
L 287.263472 -414.878767 
L 286.043578 -414.731725 
L 284.823684 -415.108784 
L 283.603789 -415.066708 
L 282.383895 -413.518061 
L 281.164001 -414.420562 
L 279.944106 -413.94085 
L 278.724212 -414.542022 
L 277.504318 -413.768992 
L 276.284423 -413.947698 
L 275.064529 -413.586957 
L 273.844635 -414.013512 
L 272.62474 -412.581286 
L 271.404846 -410.383029 
L 270.184952 -410.344735 
L 268.965057 -411.430664 
L 267.745163 -411.384966 
L 266.525269 -411.708788 
L 265.305374 -410.31255 
L 264.08548 -410.361525 
L 262.865586 -410.160141 
L 261.645691 -410.374675 
L 260.425797 -410.247854 
L 259.205903 -410.076739 
L 257.986008 -409.877784 
L 256.766114 -410.675294 
L 255.54622 -411.078617 
L 254.326325 -410.649562 
L 253.106431 -409.740663 
L 251.886537 -410.793889 
L 250.666642 -410.431588 
L 249.446748 -410.471607 
L 248.226854 -409.616261 
L 247.006959 -409.689507 
L 245.787065 -409.717504 
L 244.567171 -409.537457 
L 243.347276 -410.02329 
L 242.127382 -409.538243 
L 240.907488 -409.094313 
L 239.687593 -409.726209 
L 238.467699 -409.376739 
L 237.247805 -408.315717 
L 236.02791 -408.805904 
L 234.808016 -408.916397 
L 233.588122 -408.785055 
L 232.368227 -408.044449 
L 231.148333 -407.395724 
L 229.928439 -408.284725 
L 228.708544 -408.16512 
L 227.48865 -408.342506 
L 226.268756 -408.828616 
L 225.048861 -408.428853 
L 223.828967 -408.637454 
L 222.609073 -409.928666 
L 221.389178 -410.80399 
L 220.169284 -410.640279 
L 218.94939 -410.755442 
L 217.729495 -410.154628 
L 216.509601 -411.55035 
L 215.289707 -412.453505 
L 214.069812 -412.131938 
L 212.849918 -410.729159 
L 211.630024 -411.540174 
L 210.410129 -411.378496 
L 209.190235 -411.661 
L 207.970341 -410.817973 
L 206.750446 -410.05325 
L 205.530552 -409.15302 
L 204.310658 -409.402822 
L 203.090763 -409.621112 
L 201.870869 -409.629334 
L 200.650975 -409.86222 
L 199.43108 -409.984798 
L 198.211186 -409.32866 
L 196.991292 -407.974313 
L 195.771397 -407.472828 
L 194.551503 -406.601461 
L 193.331609 -407.078381 
L 192.111714 -407.57209 
L 190.89182 -408.203146 
L 189.671926 -407.381418 
L 188.452031 -407.361121 
L 187.232137 -406.954579 
L 186.012243 -407.586291 
L 184.792348 -407.556659 
L 183.572454 -406.893408 
L 182.35256 -406.603192 
L 181.132665 -406.486662 
L 179.912771 -407.039972 
L 178.692877 -406.883676 
L 177.472982 -405.890795 
L 176.253088 -406.011842 
L 175.033194 -405.955377 
L 173.813299 -406.384289 
L 172.593405 -405.27593 
L 171.373511 -404.598845 
L 170.153616 -404.482465 
L 168.933722 -404.423636 
L 167.713828 -404.8306 
L 166.493933 -404.623849 
L 165.274039 -403.630845 
L 164.054145 -403.308854 
L 162.83425 -402.331431 
L 161.614356 -401.403703 
L 160.394462 -402.352165 
L 159.174567 -402.336006 
L 157.954673 -402.661091 
L 156.734779 -401.680782 
L 155.514884 -402.28158 
L 154.29499 -401.822327 
L 153.075096 -401.152326 
L 151.855201 -401.421777 
L 150.635307 -401.529306 
L 149.415413 -400.734787 
L 148.195518 -399.59079 
L 146.975624 -398.762081 
L 145.75573 -397.755019 
L 144.535835 -396.629607 
L 143.315941 -396.279799 
L 142.096047 -394.955539 
L 140.876152 -486.300791 
L 139.656258 -486.260283 
L 138.436364 -486.72 
z
" id="m8fa13cb2b6" style="stroke:#4c72b0;stroke-opacity:0.1;"/>
    </defs>
    <g clip-path="url(#p8fa39385c2)">
     <use style="fill:#4c72b0;fill-opacity:0.1;stroke:#4c72b0;stroke-opacity:0.1;" x="0" xlink:href="#m8fa13cb2b6" y="576"/>
    </g>
   </g>
   <g id="PolyCollection_2">
    <defs>
     <path d="M 138.436364 -459.513572 
L 138.436364 -84.181893 
L 139.656258 -83.52 
L 140.876152 -84.084278 
L 142.096047 -226.695015 
L 143.315941 -226.401229 
L 144.535835 -225.6112 
L 145.75573 -226.107902 
L 146.975624 -225.652703 
L 148.195518 -226.599409 
L 149.415413 -226.840886 
L 150.635307 -225.986899 
L 151.855201 -225.396664 
L 153.075096 -225.724679 
L 154.29499 -225.260481 
L 155.514884 -225.394966 
L 156.734779 -225.176232 
L 157.954673 -224.196306 
L 159.174567 -224.504107 
L 160.394462 -223.424575 
L 161.614356 -224.177896 
L 162.83425 -224.449724 
L 164.054145 -224.56242 
L 165.274039 -224.788105 
L 166.493933 -224.654771 
L 167.713828 -225.058134 
L 168.933722 -225.231131 
L 170.153616 -224.484537 
L 171.373511 -224.562231 
L 172.593405 -224.863253 
L 173.813299 -223.424769 
L 175.033194 -224.049697 
L 176.253088 -223.899281 
L 177.472982 -224.482545 
L 178.692877 -224.453218 
L 179.912771 -224.745928 
L 181.132665 -224.64817 
L 182.35256 -224.437378 
L 183.572454 -225.571507 
L 184.792348 -225.514992 
L 186.012243 -224.958237 
L 187.232137 -225.570518 
L 188.452031 -225.712364 
L 189.671926 -225.938461 
L 190.89182 -226.079875 
L 192.111714 -226.622377 
L 193.331609 -225.133813 
L 194.551503 -224.542626 
L 195.771397 -224.762646 
L 196.991292 -224.782597 
L 198.211186 -224.965133 
L 199.43108 -225.202369 
L 200.650975 -224.450882 
L 201.870869 -223.590843 
L 203.090763 -222.810901 
L 204.310658 -223.894857 
L 205.530552 -224.032879 
L 206.750446 -223.97791 
L 207.970341 -224.199719 
L 209.190235 -223.942433 
L 210.410129 -223.656017 
L 211.630024 -223.488382 
L 212.849918 -223.574265 
L 214.069812 -223.631571 
L 215.289707 -223.625659 
L 216.509601 -224.077418 
L 217.729495 -224.128683 
L 218.94939 -224.511436 
L 220.169284 -225.092669 
L 221.389178 -225.071792 
L 222.609073 -225.504796 
L 223.828967 -225.170693 
L 225.048861 -223.989783 
L 226.268756 -223.520564 
L 227.48865 -223.421083 
L 228.708544 -224.357728 
L 229.928439 -224.320535 
L 231.148333 -224.396237 
L 232.368227 -226.016381 
L 233.588122 -226.914608 
L 234.808016 -225.253878 
L 236.02791 -224.737335 
L 237.247805 -225.353726 
L 238.467699 -226.625161 
L 239.687593 -226.459425 
L 240.907488 -225.667674 
L 242.127382 -226.197795 
L 243.347276 -225.893619 
L 244.567171 -226.181598 
L 245.787065 -226.232487 
L 247.006959 -225.065422 
L 248.226854 -226.06737 
L 249.446748 -224.588048 
L 250.666642 -224.33096 
L 251.886537 -224.477234 
L 253.106431 -224.628454 
L 254.326325 -224.17832 
L 255.54622 -224.19924 
L 256.766114 -225.061316 
L 257.986008 -225.26245 
L 259.205903 -225.2427 
L 260.425797 -225.24784 
L 261.645691 -224.435728 
L 262.865586 -224.474357 
L 264.08548 -224.616306 
L 265.305374 -224.541731 
L 266.525269 -224.67177 
L 267.745163 -225.331887 
L 268.965057 -226.224948 
L 270.184952 -226.574835 
L 271.404846 -263.820456 
L 272.62474 -262.581563 
L 273.844635 -263.397472 
L 275.064529 -263.431403 
L 276.284423 -262.757568 
L 277.504318 -262.247895 
L 278.724212 -262.35886 
L 279.944106 -261.688729 
L 281.164001 -261.67772 
L 282.383895 -260.73434 
L 283.603789 -260.680959 
L 284.823684 -260.815906 
L 286.043578 -260.907533 
L 287.263472 -260.576455 
L 288.483367 -260.252269 
L 289.703261 -260.149995 
L 290.923155 -261.82746 
L 292.14305 -261.60233 
L 293.362944 -262.030142 
L 294.582838 -262.087419 
L 295.802733 -262.792912 
L 297.022627 -263.200247 
L 298.242521 -264.222203 
L 299.462416 -264.487995 
L 300.68231 -265.536645 
L 301.902204 -263.848469 
L 303.122099 -263.944386 
L 304.341993 -264.239019 
L 305.561887 -263.824222 
L 306.781782 -263.274773 
L 308.001676 -263.730505 
L 309.22157 -264.82804 
L 310.441465 -263.892643 
L 311.661359 -264.357097 
L 312.881253 -264.48489 
L 314.101148 -264.58381 
L 315.321042 -263.497091 
L 316.540936 -262.008656 
L 317.760831 -262.519018 
L 318.980725 -261.689669 
L 320.200619 -262.447358 
L 321.420514 -262.762981 
L 322.640408 -262.812639 
L 323.860302 -263.133491 
L 325.080197 -261.90237 
L 326.300091 -262.226076 
L 327.519985 -261.199351 
L 328.73988 -260.67321 
L 329.959774 -259.8858 
L 331.179668 -260.281876 
L 332.399563 -259.774631 
L 333.619457 -259.743232 
L 334.839351 -260.104311 
L 336.059246 -259.401653 
L 337.27914 -258.074189 
L 338.499034 -258.10314 
L 339.718929 -258.621558 
L 340.938823 -258.054432 
L 342.158717 -257.6069 
L 343.378612 -257.556165 
L 344.598506 -257.442246 
L 345.8184 -256.870724 
L 347.038295 -256.868224 
L 348.258189 -257.036018 
L 349.478083 -257.41208 
L 350.697978 -256.242442 
L 351.917872 -256.845836 
L 353.137766 -256.916436 
L 354.357661 -257.169984 
L 355.577555 -257.80893 
L 356.797449 -258.021057 
L 358.017344 -257.084864 
L 359.237238 -256.479656 
L 360.457132 -256.673838 
L 361.677027 -257.513136 
L 362.896921 -257.548677 
L 364.116815 -257.505885 
L 365.33671 -258.014245 
L 366.556604 -258.599667 
L 367.776498 -257.813943 
L 368.996393 -258.561491 
L 370.216287 -258.778089 
L 371.436181 -257.445661 
L 372.656076 -257.608098 
L 373.87597 -258.249866 
L 375.095864 -258.211116 
L 376.315759 -258.591992 
L 377.535653 -259.934737 
L 378.755547 -259.46302 
L 379.975442 -259.781041 
L 381.195336 -260.131081 
L 382.41523 -260.001776 
L 383.635125 -260.117241 
L 384.855019 -259.020179 
L 386.074913 -258.964091 
L 387.294808 -258.664782 
L 388.514702 -257.635447 
L 389.734596 -258.312041 
L 390.954491 -257.962976 
L 392.174385 -258.090357 
L 393.394279 -257.231154 
L 394.614174 -256.805827 
L 395.834068 -256.241989 
L 397.053962 -255.837007 
L 398.273857 -255.884047 
L 399.493751 -256.619585 
L 400.713645 -256.714932 
L 401.93354 -256.054864 
L 403.153434 -255.392258 
L 404.373328 -254.955921 
L 405.593223 -255.108809 
L 406.813117 -253.596613 
L 408.033011 -253.497203 
L 409.252906 -252.63416 
L 410.4728 -252.665452 
L 411.692694 -253.767116 
L 412.912589 -253.875935 
L 414.132483 -254.386549 
L 415.352377 -254.754043 
L 416.572272 -254.928412 
L 417.792166 -253.916302 
L 419.01206 -253.121646 
L 420.231955 -251.927639 
L 421.451849 -252.161794 
L 422.671743 -251.457254 
L 423.891638 -251.483342 
L 425.111532 -251.161245 
L 426.331426 -252.236017 
L 427.551321 -252.621969 
L 428.771215 -252.476087 
L 429.991109 -253.061398 
L 431.211004 -253.869414 
L 432.430898 -254.308922 
L 433.650792 -253.942046 
L 434.870687 -253.507082 
L 436.090581 -254.18698 
L 437.310475 -252.883014 
L 438.53037 -253.036407 
L 439.750264 -252.945929 
L 440.970158 -253.907522 
L 442.190053 -253.27041 
L 443.409947 -253.926169 
L 444.629842 -253.799029 
L 445.849736 -252.817142 
L 447.06963 -253.57932 
L 448.289525 -253.086778 
L 449.509419 -253.582181 
L 450.729313 -253.879375 
L 451.949208 -254.679859 
L 453.169102 -253.701244 
L 454.388996 -253.608717 
L 455.608891 -253.558669 
L 456.828785 -253.321977 
L 458.048679 -252.15857 
L 459.268574 -251.632365 
L 460.488468 -250.993485 
L 461.708362 -250.797298 
L 462.928257 -250.698037 
L 464.148151 -250.871602 
L 465.368045 -250.969734 
L 466.58794 -250.084913 
L 467.807834 -249.752399 
L 469.027728 -249.278797 
L 470.247623 -249.156139 
L 471.467517 -248.148402 
L 472.687411 -248.299397 
L 473.907306 -247.644619 
L 475.1272 -248.213162 
L 476.347094 -248.023561 
L 477.566989 -247.446128 
L 478.786883 -246.804566 
L 480.006777 -246.568128 
L 481.226672 -248.163125 
L 482.446566 -248.109671 
L 483.66646 -248.606731 
L 484.886355 -248.262566 
L 486.106249 -247.706494 
L 487.326143 -247.739071 
L 488.546038 -247.892281 
L 489.765932 -246.49076 
L 490.985826 -246.969043 
L 492.205721 -245.626313 
L 493.425615 -245.914711 
L 494.645509 -245.872506 
L 495.865404 -245.897689 
L 497.085298 -245.896902 
L 498.305192 -246.327731 
L 499.525087 -245.987504 
L 500.744981 -246.763296 
L 501.964875 -247.159029 
L 503.18477 -247.211256 
L 504.404664 -246.895243 
L 505.624558 -246.582082 
L 506.844453 -246.121904 
L 508.064347 -246.389193 
L 509.284241 -246.047646 
L 510.504136 -246.052934 
L 511.72403 -245.928005 
L 512.943924 -246.33438 
L 514.163819 -246.967281 
L 515.383713 -246.352266 
L 516.603607 -246.219048 
L 517.823502 -247.008645 
L 519.043396 -247.487556 
L 520.26329 -247.436404 
L 521.483185 -247.444039 
L 522.703079 -246.330938 
L 523.922973 -245.508394 
L 525.142868 -244.395468 
L 526.362762 -243.958065 
L 527.582656 -243.265272 
L 528.802551 -243.605384 
L 530.022445 -242.987581 
L 531.242339 -242.640234 
L 532.462234 -243.342729 
L 533.682128 -243.050263 
L 534.902022 -243.281237 
L 536.121917 -242.78252 
L 537.341811 -243.413194 
L 538.561705 -243.438347 
L 539.7816 -243.753859 
L 541.001494 -242.988991 
L 542.221388 -243.579789 
L 543.441283 -242.826304 
L 544.661177 -242.483359 
L 545.881071 -242.329647 
L 547.100966 -242.522691 
L 548.32086 -242.628243 
L 549.540754 -241.938067 
L 550.760649 -241.734378 
L 551.980543 -241.244583 
L 553.200437 -240.678576 
L 554.420332 -240.66164 
L 555.640226 -240.413263 
L 556.86012 -239.657274 
L 558.080015 -238.986881 
L 559.299909 -238.865635 
L 560.519803 -238.65584 
L 561.739698 -239.51623 
L 562.959592 -240.161789 
L 564.179486 -239.91565 
L 565.399381 -239.652328 
L 566.619275 -240.498797 
L 567.839169 -240.206375 
L 569.059064 -240.958283 
L 570.278958 -241.543659 
L 571.498852 -241.182151 
L 572.718747 -241.041354 
L 573.938641 -241.201335 
L 575.158535 -242.129187 
L 576.37843 -241.318795 
L 577.598324 -241.761833 
L 578.818218 -242.266827 
L 580.038113 -241.989447 
L 581.258007 -242.009848 
L 582.477901 -241.038848 
L 583.697796 -240.069822 
L 584.91769 -240.588773 
L 586.137584 -240.876796 
L 587.357479 -240.661313 
L 588.577373 -240.312388 
L 589.797267 -240.969788 
L 591.017162 -241.561809 
L 592.237056 -242.014491 
L 593.45695 -241.274691 
L 594.676845 -239.749307 
L 595.896739 -240.058944 
L 597.116633 -239.043281 
L 598.336528 -240.574763 
L 599.556422 -240.99388 
L 600.776316 -241.05773 
L 601.996211 -241.940438 
L 603.216105 -241.706267 
L 604.435999 -241.623891 
L 605.655894 -242.162456 
L 606.875788 -241.614558 
L 608.095682 -241.995675 
L 609.315577 -241.189477 
L 610.535471 -241.203491 
L 611.755365 -240.666414 
L 612.97526 -239.528449 
L 614.195154 -239.549748 
L 615.415048 -238.886976 
L 616.634943 -239.92709 
L 617.854837 -239.757707 
L 619.074731 -240.105573 
L 620.294626 -240.014649 
L 621.51452 -239.459091 
L 622.734414 -239.227142 
L 623.954309 -239.221366 
L 625.174203 -238.754884 
L 626.394097 -238.866016 
L 627.613992 -239.023359 
L 628.833886 -239.456721 
L 630.05378 -239.541007 
L 631.273675 -238.655045 
L 632.493569 -240.269444 
L 633.713463 -239.749799 
L 634.933358 -239.197389 
L 636.153252 -239.131378 
L 637.373146 -239.474245 
L 638.593041 -239.52219 
L 639.812935 -240.142897 
L 641.032829 -240.921112 
L 642.252724 -240.931123 
L 643.472618 -240.996927 
L 644.692512 -241.148385 
L 645.912407 -240.209936 
L 647.132301 -240.210237 
L 648.352195 -241.863064 
L 649.57209 -241.089917 
L 650.791984 -240.403613 
L 652.011878 -240.812989 
L 653.231773 -241.443142 
L 654.451667 -240.75438 
L 655.671561 -239.894221 
L 656.891456 -239.983542 
L 658.11135 -240.035502 
L 659.331244 -239.132948 
L 660.551139 -239.03267 
L 661.771033 -239.194743 
L 662.990927 -238.610555 
L 664.210822 -237.949861 
L 665.430716 -238.229335 
L 666.65061 -237.720469 
L 667.870505 -237.568347 
L 669.090399 -237.624534 
L 670.310293 -239.045646 
L 671.530188 -239.615617 
L 672.750082 -239.971231 
L 673.969976 -239.861003 
L 675.189871 -239.817502 
L 676.409765 -239.430988 
L 677.629659 -239.692352 
L 678.849554 -238.678156 
L 680.069448 -238.055792 
L 681.289342 -238.710326 
L 682.509237 -237.391177 
L 683.729131 -236.332724 
L 684.949025 -236.427749 
L 686.16892 -236.84095 
L 687.388814 -236.23948 
L 688.608708 -236.589404 
L 689.828603 -236.798874 
L 691.048497 -236.0764 
L 692.268391 -235.71727 
L 693.488286 -236.10983 
L 694.70818 -235.988671 
L 695.928074 -235.763381 
L 697.147969 -235.700828 
L 698.367863 -235.282249 
L 699.587757 -234.697639 
L 700.807652 -235.236791 
L 702.027546 -250.983352 
L 703.24744 -250.177296 
L 704.467335 -250.087073 
L 705.687229 -249.640343 
L 706.907123 -251.240409 
L 708.127018 -251.503003 
L 709.346912 -252.30097 
L 710.566806 -253.132546 
L 711.786701 -252.930765 
L 713.006595 -252.563051 
L 714.226489 -251.734305 
L 715.446384 -251.815653 
L 716.666278 -251.928501 
L 717.886172 -251.915884 
L 719.106067 -251.414141 
L 720.325961 -251.701053 
L 721.545855 -250.976213 
L 722.76575 -250.019 
L 723.985644 -249.690026 
L 725.205538 -249.582154 
L 726.425433 -250.088759 
L 727.645327 -249.73225 
L 728.865221 -249.462737 
L 730.085116 -249.178655 
L 731.30501 -248.582298 
L 732.524904 -249.07593 
L 733.744799 -248.216984 
L 734.964693 -247.859325 
L 736.184587 -247.613346 
L 737.404482 -247.201634 
L 738.624376 -246.688652 
L 739.84427 -247.350491 
L 741.064165 -247.089325 
L 742.284059 -247.155537 
L 743.503953 -246.664807 
L 744.723848 -246.846595 
L 745.943742 -245.454702 
L 745.943742 -279.037818 
L 745.943742 -279.037818 
L 744.723848 -279.180074 
L 743.503953 -278.651391 
L 742.284059 -278.381322 
L 741.064165 -276.640271 
L 739.84427 -276.367205 
L 738.624376 -277.332886 
L 737.404482 -277.18642 
L 736.184587 -276.108407 
L 734.964693 -275.76919 
L 733.744799 -275.73462 
L 732.524904 -276.516623 
L 731.30501 -275.945643 
L 730.085116 -274.912033 
L 728.865221 -275.127037 
L 727.645327 -275.300616 
L 726.425433 -277.022789 
L 725.205538 -276.630102 
L 723.985644 -276.346024 
L 722.76575 -275.897372 
L 721.545855 -275.202703 
L 720.325961 -274.892308 
L 719.106067 -275.168167 
L 717.886172 -274.648861 
L 716.666278 -274.599244 
L 715.446384 -273.160797 
L 714.226489 -272.789617 
L 713.006595 -272.516108 
L 711.786701 -272.511842 
L 710.566806 -272.392464 
L 709.346912 -271.017031 
L 708.127018 -270.725604 
L 706.907123 -270.407519 
L 705.687229 -270.562321 
L 704.467335 -271.17843 
L 703.24744 -270.248374 
L 702.027546 -269.58793 
L 700.807652 -289.102596 
L 699.587757 -287.919642 
L 698.367863 -287.583769 
L 697.147969 -286.878404 
L 695.928074 -287.362472 
L 694.70818 -287.250885 
L 693.488286 -288.198597 
L 692.268391 -288.151963 
L 691.048497 -287.512983 
L 689.828603 -287.444178 
L 688.608708 -287.31875 
L 687.388814 -285.490523 
L 686.16892 -285.600764 
L 684.949025 -286.579905 
L 683.729131 -286.118085 
L 682.509237 -285.771185 
L 681.289342 -285.770202 
L 680.069448 -285.998627 
L 678.849554 -285.999016 
L 677.629659 -286.492036 
L 676.409765 -286.803477 
L 675.189871 -286.900012 
L 673.969976 -287.444684 
L 672.750082 -288.723737 
L 671.530188 -288.2425 
L 670.310293 -288.373879 
L 669.090399 -288.971409 
L 667.870505 -289.803952 
L 666.65061 -289.562581 
L 665.430716 -288.247658 
L 664.210822 -288.751081 
L 662.990927 -287.76361 
L 661.771033 -287.311745 
L 660.551139 -289.26743 
L 659.331244 -290.104352 
L 658.11135 -291.087447 
L 656.891456 -290.336969 
L 655.671561 -289.740774 
L 654.451667 -288.85265 
L 653.231773 -288.558409 
L 652.011878 -287.014058 
L 650.791984 -287.124198 
L 649.57209 -288.548755 
L 648.352195 -287.840336 
L 647.132301 -288.343087 
L 645.912407 -288.407773 
L 644.692512 -287.625374 
L 643.472618 -288.225654 
L 642.252724 -287.769385 
L 641.032829 -288.005257 
L 639.812935 -287.712758 
L 638.593041 -287.964187 
L 637.373146 -286.66248 
L 636.153252 -286.495189 
L 634.933358 -285.586068 
L 633.713463 -286.405944 
L 632.493569 -285.576698 
L 631.273675 -286.162246 
L 630.05378 -286.227825 
L 628.833886 -286.343276 
L 627.613992 -286.550068 
L 626.394097 -285.978214 
L 625.174203 -286.047021 
L 623.954309 -284.700109 
L 622.734414 -285.794122 
L 621.51452 -285.493148 
L 620.294626 -286.23062 
L 619.074731 -286.666589 
L 617.854837 -286.733999 
L 616.634943 -287.198552 
L 615.415048 -287.567334 
L 614.195154 -287.58651 
L 612.97526 -287.184248 
L 611.755365 -286.861632 
L 610.535471 -286.25043 
L 609.315577 -286.372012 
L 608.095682 -287.308913 
L 606.875788 -286.815486 
L 605.655894 -287.42512 
L 604.435999 -286.404111 
L 603.216105 -286.434745 
L 601.996211 -286.066929 
L 600.776316 -284.537131 
L 599.556422 -283.621002 
L 598.336528 -283.958121 
L 597.116633 -284.266614 
L 595.896739 -284.292964 
L 594.676845 -284.722114 
L 593.45695 -283.473476 
L 592.237056 -283.28514 
L 591.017162 -282.977847 
L 589.797267 -283.376719 
L 588.577373 -283.702954 
L 587.357479 -283.636595 
L 586.137584 -284.484551 
L 584.91769 -284.633386 
L 583.697796 -284.062586 
L 582.477901 -284.724149 
L 581.258007 -285.386967 
L 580.038113 -285.308843 
L 578.818218 -285.342187 
L 577.598324 -284.857008 
L 576.37843 -286.188775 
L 575.158535 -286.100234 
L 573.938641 -285.918401 
L 572.718747 -285.46937 
L 571.498852 -284.807089 
L 570.278958 -284.138852 
L 569.059064 -283.036888 
L 567.839169 -282.631278 
L 566.619275 -282.876841 
L 565.399381 -281.841834 
L 564.179486 -281.564983 
L 562.959592 -282.180121 
L 561.739698 -281.922877 
L 560.519803 -283.379393 
L 559.299909 -282.733306 
L 558.080015 -281.586401 
L 556.86012 -280.671991 
L 555.640226 -280.784621 
L 554.420332 -280.412883 
L 553.200437 -280.905364 
L 551.980543 -281.396897 
L 550.760649 -280.854278 
L 549.540754 -280.738874 
L 548.32086 -280.943363 
L 547.100966 -281.181514 
L 545.881071 -281.343131 
L 544.661177 -281.840762 
L 543.441283 -281.992124 
L 542.221388 -282.560088 
L 541.001494 -281.919421 
L 539.7816 -282.328889 
L 538.561705 -282.275197 
L 537.341811 -282.341049 
L 536.121917 -282.072168 
L 534.902022 -282.442911 
L 533.682128 -282.740247 
L 532.462234 -281.789672 
L 531.242339 -281.776849 
L 530.022445 -281.867644 
L 528.802551 -280.906159 
L 527.582656 -281.211275 
L 526.362762 -280.319582 
L 525.142868 -279.993796 
L 523.922973 -280.259692 
L 522.703079 -280.162052 
L 521.483185 -280.498058 
L 520.26329 -280.495192 
L 519.043396 -281.280054 
L 517.823502 -280.774519 
L 516.603607 -280.732956 
L 515.383713 -281.741457 
L 514.163819 -281.303042 
L 512.943924 -281.317768 
L 511.72403 -280.025757 
L 510.504136 -280.217092 
L 509.284241 -280.745351 
L 508.064347 -281.872598 
L 506.844453 -281.579965 
L 505.624558 -282.457609 
L 504.404664 -282.00573 
L 503.18477 -281.568273 
L 501.964875 -280.844734 
L 500.744981 -279.703499 
L 499.525087 -279.075221 
L 498.305192 -279.543763 
L 497.085298 -280.142202 
L 495.865404 -280.633538 
L 494.645509 -280.883404 
L 493.425615 -280.410936 
L 492.205721 -280.947561 
L 490.985826 -280.934998 
L 489.765932 -279.463117 
L 488.546038 -279.552519 
L 487.326143 -279.466209 
L 486.106249 -278.611204 
L 484.886355 -278.198481 
L 483.66646 -278.346892 
L 482.446566 -277.701896 
L 481.226672 -277.975727 
L 480.006777 -277.084138 
L 478.786883 -276.378375 
L 477.566989 -276.477074 
L 476.347094 -276.689026 
L 475.1272 -276.549445 
L 473.907306 -277.363697 
L 472.687411 -276.96461 
L 471.467517 -276.183062 
L 470.247623 -276.227469 
L 469.027728 -276.465507 
L 467.807834 -276.243471 
L 466.58794 -276.72945 
L 465.368045 -276.652451 
L 464.148151 -276.259035 
L 462.928257 -275.897404 
L 461.708362 -275.967218 
L 460.488468 -276.297521 
L 459.268574 -276.035753 
L 458.048679 -275.213753 
L 456.828785 -274.831542 
L 455.608891 -305.443241 
L 454.388996 -304.745429 
L 453.169102 -304.142285 
L 451.949208 -303.937948 
L 450.729313 -303.736358 
L 449.509419 -304.83854 
L 448.289525 -304.849686 
L 447.06963 -303.667688 
L 445.849736 -304.291287 
L 444.629842 -305.268829 
L 443.409947 -304.562576 
L 442.190053 -304.752623 
L 440.970158 -303.580472 
L 439.750264 -303.683577 
L 438.53037 -303.793952 
L 437.310475 -304.718749 
L 436.090581 -304.668929 
L 434.870687 -304.260273 
L 433.650792 -304.132806 
L 432.430898 -304.216573 
L 431.211004 -302.823279 
L 429.991109 -303.12003 
L 428.771215 -303.870814 
L 427.551321 -303.457458 
L 426.331426 -303.369675 
L 425.111532 -302.515604 
L 423.891638 -302.264036 
L 422.671743 -303.241094 
L 421.451849 -303.777361 
L 420.231955 -303.707875 
L 419.01206 -302.870542 
L 417.792166 -301.783707 
L 416.572272 -302.712646 
L 415.352377 -301.417987 
L 414.132483 -300.893459 
L 412.912589 -299.275689 
L 411.692694 -299.834042 
L 410.4728 -299.95045 
L 409.252906 -299.718416 
L 408.033011 -298.945878 
L 406.813117 -298.991076 
L 405.593223 -298.685593 
L 404.373328 -299.173118 
L 403.153434 -299.463196 
L 401.93354 -298.385858 
L 400.713645 -299.040229 
L 399.493751 -297.888164 
L 398.273857 -297.499445 
L 397.053962 -297.438517 
L 395.834068 -296.817361 
L 394.614174 -296.196745 
L 393.394279 -296.327933 
L 392.174385 -296.395093 
L 390.954491 -296.72573 
L 389.734596 -296.20324 
L 388.514702 -297.64469 
L 387.294808 -297.648024 
L 386.074913 -296.840793 
L 384.855019 -296.185481 
L 383.635125 -296.380417 
L 382.41523 -296.4136 
L 381.195336 -296.25646 
L 379.975442 -296.34248 
L 378.755547 -296.560508 
L 377.535653 -296.432747 
L 376.315759 -296.097053 
L 375.095864 -295.944191 
L 373.87597 -295.09394 
L 372.656076 -294.220031 
L 371.436181 -294.355971 
L 370.216287 -294.373115 
L 368.996393 -294.139657 
L 367.776498 -293.221261 
L 366.556604 -292.887557 
L 365.33671 -292.665667 
L 364.116815 -293.003239 
L 362.896921 -292.72608 
L 361.677027 -294.096754 
L 360.457132 -294.34638 
L 359.237238 -294.553089 
L 358.017344 -294.990315 
L 356.797449 -293.579643 
L 355.577555 -294.053723 
L 354.357661 -294.382252 
L 353.137766 -293.952806 
L 351.917872 -294.442081 
L 350.697978 -294.995334 
L 349.478083 -293.70732 
L 348.258189 -293.737362 
L 347.038295 -293.240709 
L 345.8184 -292.736184 
L 344.598506 -293.312057 
L 343.378612 -294.781084 
L 342.158717 -294.965814 
L 340.938823 -294.468164 
L 339.718929 -294.849516 
L 338.499034 -295.807329 
L 337.27914 -296.236273 
L 336.059246 -295.097478 
L 334.839351 -294.412926 
L 333.619457 -293.885265 
L 332.399563 -292.911703 
L 331.179668 -293.918523 
L 329.959774 -292.970386 
L 328.73988 -292.201394 
L 327.519985 -292.254469 
L 326.300091 -291.53993 
L 325.080197 -292.217213 
L 323.860302 -292.906597 
L 322.640408 -292.951065 
L 321.420514 -292.859895 
L 320.200619 -292.570568 
L 318.980725 -292.255507 
L 317.760831 -292.513391 
L 316.540936 -292.299924 
L 315.321042 -292.013808 
L 314.101148 -291.535004 
L 312.881253 -290.457723 
L 311.661359 -290.769325 
L 310.441465 -290.160251 
L 309.22157 -290.138068 
L 308.001676 -290.37599 
L 306.781782 -289.587923 
L 305.561887 -289.582991 
L 304.341993 -289.267584 
L 303.122099 -289.266334 
L 301.902204 -289.299532 
L 300.68231 -289.470417 
L 299.462416 -290.543813 
L 298.242521 -290.93679 
L 297.022627 -291.905422 
L 295.802733 -292.064603 
L 294.582838 -291.084087 
L 293.362944 -290.556024 
L 292.14305 -291.108708 
L 290.923155 -291.138457 
L 289.703261 -290.992644 
L 288.483367 -291.153906 
L 287.263472 -290.186878 
L 286.043578 -288.931383 
L 284.823684 -289.370204 
L 283.603789 -289.550353 
L 282.383895 -288.5222 
L 281.164001 -289.479932 
L 279.944106 -289.688834 
L 278.724212 -289.804534 
L 277.504318 -289.598897 
L 276.284423 -289.706217 
L 275.064529 -290.128054 
L 273.844635 -291.042173 
L 272.62474 -291.261772 
L 271.404846 -290.665218 
L 270.184952 -351.024559 
L 268.965057 -349.920293 
L 267.745163 -349.241869 
L 266.525269 -348.364543 
L 265.305374 -348.940902 
L 264.08548 -348.98595 
L 262.865586 -349.190138 
L 261.645691 -347.158653 
L 260.425797 -346.753663 
L 259.205903 -346.546187 
L 257.986008 -346.275239 
L 256.766114 -346.668136 
L 255.54622 -346.351604 
L 254.326325 -346.060481 
L 253.106431 -346.008672 
L 251.886537 -346.959267 
L 250.666642 -346.818549 
L 249.446748 -346.502279 
L 248.226854 -346.677339 
L 247.006959 -347.153929 
L 245.787065 -347.234259 
L 244.567171 -345.587698 
L 243.347276 -346.196351 
L 242.127382 -346.469118 
L 240.907488 -345.125349 
L 239.687593 -345.833834 
L 238.467699 -345.906698 
L 237.247805 -344.913067 
L 236.02791 -343.919196 
L 234.808016 -342.787896 
L 233.588122 -342.853902 
L 232.368227 -343.556508 
L 231.148333 -342.983969 
L 229.928439 -344.243183 
L 228.708544 -343.752167 
L 227.48865 -343.866745 
L 226.268756 -344.406391 
L 225.048861 -344.428278 
L 223.828967 -345.254282 
L 222.609073 -345.606836 
L 221.389178 -345.609932 
L 220.169284 -345.465395 
L 218.94939 -345.340893 
L 217.729495 -346.427409 
L 216.509601 -346.660226 
L 215.289707 -346.308043 
L 214.069812 -345.51177 
L 212.849918 -345.158082 
L 211.630024 -345.551621 
L 210.410129 -346.129967 
L 209.190235 -345.231856 
L 207.970341 -346.822824 
L 206.750446 -346.79187 
L 205.530552 -346.74981 
L 204.310658 -347.865271 
L 203.090763 -347.460697 
L 201.870869 -347.180263 
L 200.650975 -346.491103 
L 199.43108 -347.126381 
L 198.211186 -347.108226 
L 196.991292 -346.771982 
L 195.771397 -346.212381 
L 194.551503 -346.164372 
L 193.331609 -345.672862 
L 192.111714 -346.169335 
L 190.89182 -346.527255 
L 189.671926 -344.987838 
L 188.452031 -344.89274 
L 187.232137 -344.688042 
L 186.012243 -345.020266 
L 184.792348 -346.027292 
L 183.572454 -345.541812 
L 182.35256 -344.241524 
L 181.132665 -343.961099 
L 179.912771 -344.153411 
L 178.692877 -344.671199 
L 177.472982 -343.242875 
L 176.253088 -342.467108 
L 175.033194 -342.946102 
L 173.813299 -343.395594 
L 172.593405 -343.259692 
L 171.373511 -343.056742 
L 170.153616 -342.885047 
L 168.933722 -342.211731 
L 167.713828 -341.498772 
L 166.493933 -340.756306 
L 165.274039 -341.533093 
L 164.054145 -341.781342 
L 162.83425 -342.189775 
L 161.614356 -342.037287 
L 160.394462 -342.837427 
L 159.174567 -342.177533 
L 157.954673 -342.752831 
L 156.734779 -343.501416 
L 155.514884 -342.944004 
L 154.29499 -342.220987 
L 153.075096 -342.008486 
L 151.855201 -342.405275 
L 150.635307 -343.176566 
L 149.415413 -343.168025 
L 148.195518 -343.646593 
L 146.975624 -343.199123 
L 145.75573 -343.588237 
L 144.535835 -342.930763 
L 143.315941 -341.916006 
L 142.096047 -340.235946 
L 140.876152 -459.418122 
L 139.656258 -458.976746 
L 138.436364 -459.513572 
z
" id="m8db1508146" style="stroke:#ffa500;stroke-opacity:0.1;"/>
    </defs>
    <g clip-path="url(#p8fa39385c2)">
     <use style="fill:#ffa500;fill-opacity:0.1;stroke:#ffa500;stroke-opacity:0.1;" x="0" xlink:href="#m8db1508146" y="576"/>
    </g>
   </g>
   <g id="line2d_13">
    <path clip-path="url(#p8fa39385c2)" d="M 138.436364 264.516379 
L 140.876152 264.360361 
L 142.096047 186.006225 
L 149.415413 186.20703 
L 151.855201 186.201008 
L 153.075096 186.331778 
L 155.514884 186.120005 
L 159.174567 186.233022 
L 162.83425 186.473766 
L 166.493933 186.345708 
L 167.713828 186.43903 
L 168.933722 186.399083 
L 170.153616 186.238062 
L 171.373511 186.34801 
L 175.033194 186.343422 
L 176.253088 186.400405 
L 177.472982 186.343321 
L 178.692877 186.164793 
L 179.912771 186.112294 
L 181.132665 186.176176 
L 182.35256 186.015639 
L 183.572454 186.180855 
L 186.012243 186.130376 
L 187.232137 186.039664 
L 190.89182 186.058723 
L 193.331609 186.020617 
L 196.991292 186.158968 
L 211.630024 186.118271 
L 214.069812 186.082598 
L 217.729495 186.114293 
L 226.268756 185.820021 
L 227.48865 185.986963 
L 228.708544 185.862709 
L 229.928439 186.003742 
L 236.02791 186.079957 
L 238.467699 186.298973 
L 240.907488 186.311664 
L 243.347276 186.330679 
L 244.567171 186.125257 
L 250.666642 186.304586 
L 255.54622 186.608525 
L 264.08548 186.696485 
L 266.525269 186.709353 
L 267.745163 186.726306 
L 268.965057 186.608928 
L 270.184952 186.685802 
L 271.404846 178.537823 
L 273.844635 178.395525 
L 275.064529 178.46109 
L 276.284423 178.356217 
L 279.944106 178.442084 
L 283.603789 178.377475 
L 287.263472 178.466204 
L 289.703261 178.38672 
L 290.923155 178.406299 
L 293.362944 178.222467 
L 295.802733 178.180335 
L 297.022627 178.1452 
L 298.242521 178.225038 
L 299.462416 178.111044 
L 300.68231 178.160812 
L 301.902204 178.086184 
L 304.341993 178.216794 
L 305.561887 178.051423 
L 308.001676 178.098057 
L 311.661359 178.04189 
L 317.760831 178.181603 
L 318.980725 178.025446 
L 320.200619 178.13016 
L 322.640408 178.131108 
L 325.080197 178.223154 
L 328.73988 178.110417 
L 331.179668 178.030047 
L 334.839351 178.068694 
L 338.499034 178.190274 
L 339.718929 178.065202 
L 344.598506 178.185496 
L 349.478083 178.265875 
L 351.917872 178.220333 
L 354.357661 178.298726 
L 370.216287 178.230843 
L 375.095864 178.239949 
L 378.755547 178.055865 
L 382.41523 178.135608 
L 383.635125 178.229489 
L 386.074913 178.26892 
L 388.514702 178.455505 
L 389.734596 178.3019 
L 392.174385 178.518718 
L 395.834068 178.401669 
L 398.273857 178.391171 
L 400.713645 178.130555 
L 404.373328 178.247845 
L 412.912589 178.3422 
L 415.352377 178.358599 
L 417.792166 178.299598 
L 421.451849 178.68532 
L 427.551321 178.635857 
L 429.991109 178.505944 
L 431.211004 178.63179 
L 432.430898 178.618082 
L 434.870687 178.77532 
L 436.090581 178.804391 
L 438.53037 178.722553 
L 439.750264 178.643647 
L 440.970158 178.765345 
L 444.629842 178.588687 
L 450.729313 178.85441 
L 454.388996 178.859856 
L 455.608891 178.919352 
L 456.828785 187.605072 
L 461.708362 187.815963 
L 465.368045 188.160718 
L 466.58794 188.059552 
L 472.687411 188.301577 
L 476.347094 188.006819 
L 480.006777 188.073489 
L 481.226672 188.163882 
L 484.886355 187.880199 
L 486.106249 188.015635 
L 488.546038 188.029234 
L 490.985826 188.029531 
L 493.425615 187.834578 
L 494.645509 187.902707 
L 497.085298 187.918076 
L 499.525087 188.003243 
L 500.744981 187.883672 
L 506.844453 188.018979 
L 508.064347 187.86078 
L 509.284241 187.873642 
L 510.504136 187.711139 
L 515.383713 187.709534 
L 521.483185 187.598568 
L 522.703079 187.639252 
L 523.922973 187.524747 
L 525.142868 187.638567 
L 531.242339 187.333912 
L 534.902022 187.330929 
L 537.341811 187.266042 
L 538.561705 187.136731 
L 549.540754 187.391841 
L 560.519803 187.177689 
L 567.839169 187.210084 
L 569.059064 187.114895 
L 570.278958 187.173003 
L 572.718747 187.077719 
L 580.038113 187.057618 
L 581.258007 186.987188 
L 582.477901 187.09698 
L 584.91769 186.976886 
L 592.237056 187.059656 
L 593.45695 186.875495 
L 594.676845 186.870676 
L 595.896739 186.716983 
L 606.875788 186.746934 
L 608.095682 186.956766 
L 610.535471 186.778572 
L 614.195154 186.825 
L 616.634943 186.828239 
L 617.854837 186.984367 
L 620.294626 186.676221 
L 627.613992 186.672358 
L 630.05378 186.738904 
L 632.493569 186.615079 
L 633.713463 186.670286 
L 634.933358 186.612361 
L 636.153252 186.667811 
L 638.593041 186.483639 
L 643.472618 186.516787 
L 645.912407 186.368241 
L 649.57209 186.443687 
L 654.451667 186.551477 
L 658.11135 186.472764 
L 660.551139 186.54145 
L 662.990927 186.544113 
L 665.430716 186.594018 
L 675.189871 186.658029 
L 677.629659 186.498333 
L 678.849554 186.36932 
L 680.069448 186.453183 
L 686.16892 186.28226 
L 689.828603 186.427779 
L 692.268391 186.472898 
L 700.807652 186.450877 
L 702.027546 171.052813 
L 705.687229 170.947695 
L 708.127018 170.796797 
L 709.346912 170.761739 
L 710.566806 170.843277 
L 711.786701 170.725475 
L 713.006595 170.79937 
L 720.325961 170.390169 
L 721.545855 170.508541 
L 722.76575 170.486382 
L 725.205538 170.699341 
L 732.524904 170.496437 
L 734.964693 170.580879 
L 737.404482 170.472948 
L 743.503953 170.647011 
L 745.943742 170.620139 
L 745.943742 170.620139 
" style="fill:none;stroke:#4c72b0;stroke-linecap:round;stroke-width:1.5;"/>
   </g>
   <g id="line2d_14">
    <path clip-path="url(#p8fa39385c2)" d="M 138.436364 269.599736 
L 140.876152 269.506941 
L 142.096047 297.375682 
L 143.315941 297.344757 
L 145.75573 297.48493 
L 150.635307 297.196838 
L 151.855201 297.21524 
L 153.075096 297.366895 
L 156.734779 297.229672 
L 157.954673 297.358598 
L 159.174567 297.342875 
L 164.054145 297.718074 
L 170.153616 297.51623 
L 171.373511 297.622442 
L 172.593405 297.575586 
L 176.253088 297.735708 
L 178.692877 297.57447 
L 181.132665 297.544611 
L 182.35256 297.46065 
L 183.572454 297.520979 
L 187.232137 297.391641 
L 188.452031 297.494362 
L 189.671926 297.470584 
L 193.331609 297.748004 
L 195.771397 297.752697 
L 203.090763 298.001611 
L 206.750446 297.835617 
L 209.190235 297.834827 
L 212.849918 297.955612 
L 220.169284 297.763654 
L 221.389178 297.837855 
L 222.609073 297.728102 
L 223.828967 297.798625 
L 225.048861 297.75403 
L 226.268756 297.85238 
L 229.928439 297.66223 
L 232.368227 297.724193 
L 233.588122 297.580227 
L 236.02791 297.560165 
L 240.907488 297.314023 
L 244.567171 297.356356 
L 245.787065 297.159417 
L 249.446748 297.219321 
L 254.326325 297.214112 
L 255.54622 297.358337 
L 257.986008 297.144931 
L 262.865586 297.310001 
L 265.305374 297.152135 
L 266.525269 297.282114 
L 270.184952 297.082761 
L 271.404846 298.433202 
L 276.284423 298.439829 
L 277.504318 298.530655 
L 281.164001 298.519916 
L 282.383895 298.621746 
L 288.483367 298.469953 
L 290.923155 298.238617 
L 295.802733 298.355485 
L 300.68231 298.231793 
L 304.341993 298.286874 
L 305.561887 298.172748 
L 309.22157 298.188799 
L 310.441465 298.367302 
L 314.101148 298.29322 
L 317.760831 298.275 
L 322.640408 297.987853 
L 323.860302 297.9561 
L 326.300091 298.097116 
L 332.399563 298.228957 
L 338.499034 298.375557 
L 339.718929 298.518182 
L 348.258189 298.652643 
L 350.697978 298.824873 
L 351.917872 298.756414 
L 353.137766 298.871457 
L 358.017344 298.924429 
L 359.237238 299.145699 
L 368.996393 299.206841 
L 371.436181 299.157001 
L 373.87597 299.161642 
L 379.975442 299.118025 
L 386.074913 299.188922 
L 388.514702 298.939599 
L 389.734596 299.022168 
L 392.174385 298.951931 
L 393.394279 298.913221 
L 397.053962 299.11213 
L 401.93354 298.856891 
L 408.033011 299.017922 
L 409.252906 298.861772 
L 417.792166 298.842403 
L 419.01206 298.727745 
L 423.891638 298.912088 
L 427.551321 298.86597 
L 428.771215 298.715803 
L 433.650792 298.79378 
L 436.090581 298.729765 
L 444.629842 298.698929 
L 447.06963 298.877022 
L 448.289525 298.740822 
L 455.608891 298.802713 
L 456.828785 310.98443 
L 458.048679 311.02339 
L 460.488468 311.301908 
L 461.708362 311.333901 
L 464.148151 311.256292 
L 466.58794 311.253493 
L 467.807834 311.345078 
L 470.247623 311.286646 
L 471.467517 311.399777 
L 475.1272 311.402381 
L 476.347094 311.538765 
L 480.006777 311.416616 
L 489.765932 311.857343 
L 490.985826 311.814972 
L 492.205721 311.885536 
L 494.645509 311.777071 
L 501.964875 311.98358 
L 506.844453 312.168219 
L 512.943924 312.419678 
L 515.383713 312.357641 
L 517.823502 312.395642 
L 520.26329 312.389973 
L 525.142868 312.4711 
L 526.362762 312.570878 
L 527.582656 312.516277 
L 528.802551 312.611046 
L 530.022445 312.510928 
L 536.121917 312.65603 
L 538.561705 312.566076 
L 542.221388 312.622377 
L 543.441283 312.705244 
L 545.881071 312.547351 
L 548.32086 312.738399 
L 551.980543 312.692199 
L 558.080015 312.698139 
L 562.959592 312.475812 
L 566.619275 312.565447 
L 567.839169 312.660948 
L 571.498852 312.376549 
L 572.718747 312.491621 
L 586.137584 311.749031 
L 592.237056 311.805159 
L 593.45695 311.704986 
L 594.676845 311.771055 
L 595.896739 311.997651 
L 606.875788 311.945275 
L 608.095682 312.098966 
L 609.315577 312.050392 
L 615.415048 312.399124 
L 616.634943 312.316038 
L 621.51452 312.736861 
L 626.394097 312.632988 
L 628.833886 312.80371 
L 636.153252 312.721703 
L 637.373146 312.782833 
L 641.032829 312.657451 
L 642.252724 312.76534 
L 644.692512 312.684483 
L 647.132301 312.641089 
L 649.57209 312.4957 
L 650.791984 312.51037 
L 652.011878 312.662689 
L 654.451667 312.508852 
L 666.65061 312.526014 
L 671.530188 312.356792 
L 672.750082 312.477847 
L 680.069448 312.37906 
L 688.608708 312.670221 
L 689.828603 312.556003 
L 699.587757 312.840368 
L 700.807652 312.744896 
L 702.027546 316.017915 
L 705.687229 315.938109 
L 708.127018 315.946359 
L 716.666278 315.381227 
L 719.106067 315.393596 
L 722.76575 315.29994 
L 726.425433 315.563652 
L 731.30501 315.515274 
L 732.524904 315.399793 
L 736.184587 315.592893 
L 744.723848 315.608922 
L 745.943742 315.656845 
L 745.943742 315.656845 
" style="fill:none;stroke:#dd8452;stroke-linecap:round;stroke-width:1.5;"/>
   </g>
   <g id="line2d_15">
    <path clip-path="url(#p8fa39385c2)" d="M 138.436364 162.979862 
L 155.514884 163.087905 
L 172.593405 163.408697 
L 190.89182 163.977109 
L 210.410129 164.817147 
L 231.148333 165.936655 
L 255.54622 167.484677 
L 292.14305 170.067349 
L 334.839351 173.038997 
L 359.237238 174.50848 
L 379.975442 175.536952 
L 399.493751 176.274806 
L 417.792166 176.73661 
L 434.870687 176.951859 
L 451.949208 176.951859 
L 469.027728 176.73661 
L 487.326143 176.274806 
L 505.624558 175.589984 
L 525.142868 174.641162 
L 547.100966 173.351442 
L 575.158535 171.463342 
L 650.791984 166.228857 
L 672.750082 164.998977 
L 692.268391 164.11709 
L 710.566806 163.504287 
L 728.865221 163.120868 
L 745.943742 162.982073 
L 747.163636 162.980415 
L 747.163636 162.980415 
" style="fill:none;stroke:#c44e52;stroke-linecap:round;stroke-width:1.5;"/>
   </g>
   <g id="line2d_16">
    <path clip-path="url(#p8fa39385c2)" d="M 138.436364 316.969521 
L 226.268756 313.909917 
L 275.064529 312.440434 
L 316.540936 311.411962 
L 354.357661 310.693456 
L 390.954491 310.223909 
L 426.331426 309.997054 
L 460.488468 309.997054 
L 495.865404 310.223909 
L 531.242339 310.674107 
L 567.839169 311.358929 
L 608.095682 312.340649 
L 653.231773 313.674815 
L 709.346912 315.571645 
L 747.163636 316.925542 
L 747.163636 316.925542 
" style="fill:none;stroke:#c44e52;stroke-linecap:round;stroke-width:1.5;"/>
   </g>
   <g id="patch_3">
    <path d="M 108 512.64 
L 108 69.12 
" style="fill:none;stroke:#ffffff;stroke-linecap:square;stroke-linejoin:miter;stroke-width:1.25;"/>
   </g>
   <g id="patch_4">
    <path d="M 777.6 512.64 
L 777.6 69.12 
" style="fill:none;stroke:#ffffff;stroke-linecap:square;stroke-linejoin:miter;stroke-width:1.25;"/>
   </g>
   <g id="patch_5">
    <path d="M 108 512.64 
L 777.6 512.64 
" style="fill:none;stroke:#ffffff;stroke-linecap:square;stroke-linejoin:miter;stroke-width:1.25;"/>
   </g>
   <g id="patch_6">
    <path d="M 108 69.12 
L 777.6 69.12 
" style="fill:none;stroke:#ffffff;stroke-linecap:square;stroke-linejoin:miter;stroke-width:1.25;"/>
   </g>
   <g id="text_13">
    <!-- Second order AR parameters particle filter estimates (Alg 2) -->
    <defs>
     <path d="M 4.5 23 
L 13.421875 23.78125 
Q 14.0625 18.40625 16.375 14.96875 
Q 18.703125 11.53125 23.578125 9.40625 
Q 28.46875 7.28125 34.578125 7.28125 
Q 39.984375 7.28125 44.140625 8.890625 
Q 48.296875 10.5 50.3125 13.296875 
Q 52.34375 16.109375 52.34375 19.4375 
Q 52.34375 22.796875 50.390625 25.3125 
Q 48.4375 27.828125 43.953125 29.546875 
Q 41.0625 30.671875 31.203125 33.03125 
Q 21.34375 35.40625 17.390625 37.5 
Q 12.25 40.1875 9.734375 44.15625 
Q 7.234375 48.140625 7.234375 53.078125 
Q 7.234375 58.5 10.296875 63.203125 
Q 13.375 67.921875 19.28125 70.359375 
Q 25.203125 72.796875 32.421875 72.796875 
Q 40.375 72.796875 46.453125 70.234375 
Q 52.546875 67.671875 55.8125 62.6875 
Q 59.078125 57.71875 59.328125 51.421875 
L 50.25 50.734375 
Q 49.515625 57.515625 45.28125 60.984375 
Q 41.0625 64.453125 32.8125 64.453125 
Q 24.21875 64.453125 20.28125 61.296875 
Q 16.359375 58.15625 16.359375 53.71875 
Q 16.359375 49.859375 19.140625 47.359375 
Q 21.875 44.875 33.421875 42.265625 
Q 44.96875 39.65625 49.265625 37.703125 
Q 55.515625 34.8125 58.484375 30.390625 
Q 61.46875 25.984375 61.46875 20.21875 
Q 61.46875 14.5 58.203125 9.4375 
Q 54.9375 4.390625 48.796875 1.578125 
Q 42.671875 -1.21875 35.015625 -1.21875 
Q 25.296875 -1.21875 18.71875 1.609375 
Q 12.15625 4.4375 8.421875 10.125 
Q 4.6875 15.828125 4.5 23 
z
" id="ArialMT-83"/>
     <path d="M 42.09375 16.703125 
L 51.171875 15.578125 
Q 49.03125 7.625 43.21875 3.21875 
Q 37.40625 -1.171875 28.375 -1.171875 
Q 17 -1.171875 10.328125 5.828125 
Q 3.65625 12.84375 3.65625 25.484375 
Q 3.65625 38.578125 10.390625 45.796875 
Q 17.140625 53.03125 27.875 53.03125 
Q 38.28125 53.03125 44.875 45.953125 
Q 51.46875 38.875 51.46875 26.03125 
Q 51.46875 25.25 51.421875 23.6875 
L 12.75 23.6875 
Q 13.234375 15.140625 17.578125 10.59375 
Q 21.921875 6.0625 28.421875 6.0625 
Q 33.25 6.0625 36.671875 8.59375 
Q 40.09375 11.140625 42.09375 16.703125 
z
M 13.234375 30.90625 
L 42.1875 30.90625 
Q 41.609375 37.453125 38.875 40.71875 
Q 34.671875 45.796875 27.984375 45.796875 
Q 21.921875 45.796875 17.796875 41.75 
Q 13.671875 37.703125 13.234375 30.90625 
z
" id="ArialMT-101"/>
     <path d="M 40.4375 19 
L 49.078125 17.875 
Q 47.65625 8.9375 41.8125 3.875 
Q 35.984375 -1.171875 27.484375 -1.171875 
Q 16.84375 -1.171875 10.375 5.78125 
Q 3.90625 12.75 3.90625 25.734375 
Q 3.90625 34.125 6.6875 40.421875 
Q 9.46875 46.734375 15.15625 49.875 
Q 20.84375 53.03125 27.546875 53.03125 
Q 35.984375 53.03125 41.359375 48.75 
Q 46.734375 44.484375 48.25 36.625 
L 39.703125 35.296875 
Q 38.484375 40.53125 35.375 43.15625 
Q 32.28125 45.796875 27.875 45.796875 
Q 21.234375 45.796875 17.078125 41.03125 
Q 12.9375 36.28125 12.9375 25.984375 
Q 12.9375 15.53125 16.9375 10.796875 
Q 20.953125 6.0625 27.390625 6.0625 
Q 32.5625 6.0625 36.03125 9.234375 
Q 39.5 12.40625 40.4375 19 
z
" id="ArialMT-99"/>
     <path d="M 3.328125 25.921875 
Q 3.328125 40.328125 11.328125 47.265625 
Q 18.015625 53.03125 27.640625 53.03125 
Q 38.328125 53.03125 45.109375 46.015625 
Q 51.90625 39.015625 51.90625 26.65625 
Q 51.90625 16.65625 48.90625 10.90625 
Q 45.90625 5.171875 40.15625 2 
Q 34.421875 -1.171875 27.640625 -1.171875 
Q 16.75 -1.171875 10.03125 5.8125 
Q 3.328125 12.796875 3.328125 25.921875 
z
M 12.359375 25.921875 
Q 12.359375 15.96875 16.703125 11.015625 
Q 21.046875 6.0625 27.640625 6.0625 
Q 34.1875 6.0625 38.53125 11.03125 
Q 42.875 16.015625 42.875 26.21875 
Q 42.875 35.84375 38.5 40.796875 
Q 34.125 45.75 27.640625 45.75 
Q 21.046875 45.75 16.703125 40.8125 
Q 12.359375 35.890625 12.359375 25.921875 
z
" id="ArialMT-111"/>
     <path d="M 6.59375 0 
L 6.59375 51.859375 
L 14.5 51.859375 
L 14.5 44.484375 
Q 20.21875 53.03125 31 53.03125 
Q 35.6875 53.03125 39.625 51.34375 
Q 43.5625 49.65625 45.515625 46.921875 
Q 47.46875 44.1875 48.25 40.4375 
Q 48.734375 37.984375 48.734375 31.890625 
L 48.734375 0 
L 39.9375 0 
L 39.9375 31.546875 
Q 39.9375 36.921875 38.90625 39.578125 
Q 37.890625 42.234375 35.28125 43.8125 
Q 32.671875 45.40625 29.15625 45.40625 
Q 23.53125 45.40625 19.453125 41.84375 
Q 15.375 38.28125 15.375 28.328125 
L 15.375 0 
z
" id="ArialMT-110"/>
     <path d="M 40.234375 0 
L 40.234375 6.546875 
Q 35.296875 -1.171875 25.734375 -1.171875 
Q 19.53125 -1.171875 14.328125 2.25 
Q 9.125 5.671875 6.265625 11.796875 
Q 3.421875 17.921875 3.421875 25.875 
Q 3.421875 33.640625 6 39.96875 
Q 8.59375 46.296875 13.765625 49.65625 
Q 18.953125 53.03125 25.34375 53.03125 
Q 30.03125 53.03125 33.6875 51.046875 
Q 37.359375 49.078125 39.65625 45.90625 
L 39.65625 71.578125 
L 48.390625 71.578125 
L 48.390625 0 
z
M 12.453125 25.875 
Q 12.453125 15.921875 16.640625 10.984375 
Q 20.84375 6.0625 26.5625 6.0625 
Q 32.328125 6.0625 36.34375 10.765625 
Q 40.375 15.484375 40.375 25.140625 
Q 40.375 35.796875 36.265625 40.765625 
Q 32.171875 45.75 26.171875 45.75 
Q 20.3125 45.75 16.375 40.96875 
Q 12.453125 36.1875 12.453125 25.875 
z
" id="ArialMT-100"/>
     <path id="ArialMT-32"/>
     <path d="M 6.5 0 
L 6.5 51.859375 
L 14.40625 51.859375 
L 14.40625 44 
Q 17.4375 49.515625 20 51.265625 
Q 22.5625 53.03125 25.640625 53.03125 
Q 30.078125 53.03125 34.671875 50.203125 
L 31.640625 42.046875 
Q 28.421875 43.953125 25.203125 43.953125 
Q 22.3125 43.953125 20.015625 42.21875 
Q 17.71875 40.484375 16.75 37.40625 
Q 15.28125 32.71875 15.28125 27.15625 
L 15.28125 0 
z
" id="ArialMT-114"/>
     <path d="M -0.140625 0 
L 27.34375 71.578125 
L 37.546875 71.578125 
L 66.84375 0 
L 56.0625 0 
L 47.703125 21.6875 
L 17.78125 21.6875 
L 9.90625 0 
z
M 20.515625 29.390625 
L 44.78125 29.390625 
L 37.3125 49.21875 
Q 33.890625 58.25 32.234375 64.0625 
Q 30.859375 57.171875 28.375 50.390625 
z
" id="ArialMT-65"/>
     <path d="M 7.859375 0 
L 7.859375 71.578125 
L 39.59375 71.578125 
Q 49.171875 71.578125 54.140625 69.640625 
Q 59.125 67.71875 62.109375 62.828125 
Q 65.09375 57.953125 65.09375 52.046875 
Q 65.09375 44.4375 60.15625 39.203125 
Q 55.21875 33.984375 44.921875 32.5625 
Q 48.6875 30.765625 50.640625 29 
Q 54.78125 25.203125 58.5 19.484375 
L 70.953125 0 
L 59.03125 0 
L 49.5625 14.890625 
Q 45.40625 21.34375 42.71875 24.75 
Q 40.046875 28.171875 37.921875 29.53125 
Q 35.796875 30.90625 33.59375 31.453125 
Q 31.984375 31.78125 28.328125 31.78125 
L 17.328125 31.78125 
L 17.328125 0 
z
M 17.328125 39.984375 
L 37.703125 39.984375 
Q 44.1875 39.984375 47.84375 41.328125 
Q 51.515625 42.671875 53.421875 45.625 
Q 55.328125 48.578125 55.328125 52.046875 
Q 55.328125 57.125 51.640625 60.390625 
Q 47.953125 63.671875 39.984375 63.671875 
L 17.328125 63.671875 
z
" id="ArialMT-82"/>
     <path d="M 6.59375 -19.875 
L 6.59375 51.859375 
L 14.59375 51.859375 
L 14.59375 45.125 
Q 17.4375 49.078125 21 51.046875 
Q 24.5625 53.03125 29.640625 53.03125 
Q 36.28125 53.03125 41.359375 49.609375 
Q 46.4375 46.1875 49.015625 39.953125 
Q 51.609375 33.734375 51.609375 26.3125 
Q 51.609375 18.359375 48.75 11.984375 
Q 45.90625 5.609375 40.453125 2.21875 
Q 35.015625 -1.171875 29 -1.171875 
Q 24.609375 -1.171875 21.109375 0.6875 
Q 17.625 2.546875 15.375 5.375 
L 15.375 -19.875 
z
M 14.546875 25.640625 
Q 14.546875 15.625 18.59375 10.84375 
Q 22.65625 6.0625 28.421875 6.0625 
Q 34.28125 6.0625 38.453125 11.015625 
Q 42.625 15.96875 42.625 26.375 
Q 42.625 36.28125 38.546875 41.203125 
Q 34.46875 46.140625 28.8125 46.140625 
Q 23.1875 46.140625 18.859375 40.890625 
Q 14.546875 35.640625 14.546875 25.640625 
z
" id="ArialMT-112"/>
     <path d="M 40.4375 6.390625 
Q 35.546875 2.25 31.03125 0.53125 
Q 26.515625 -1.171875 21.34375 -1.171875 
Q 12.796875 -1.171875 8.203125 3 
Q 3.609375 7.171875 3.609375 13.671875 
Q 3.609375 17.484375 5.34375 20.625 
Q 7.078125 23.78125 9.890625 25.6875 
Q 12.703125 27.59375 16.21875 28.5625 
Q 18.796875 29.25 24.03125 29.890625 
Q 34.671875 31.15625 39.703125 32.90625 
Q 39.75 34.71875 39.75 35.203125 
Q 39.75 40.578125 37.25 42.78125 
Q 33.890625 45.75 27.25 45.75 
Q 21.046875 45.75 18.09375 43.578125 
Q 15.140625 41.40625 13.71875 35.890625 
L 5.125 37.0625 
Q 6.296875 42.578125 8.984375 45.96875 
Q 11.671875 49.359375 16.75 51.1875 
Q 21.828125 53.03125 28.515625 53.03125 
Q 35.15625 53.03125 39.296875 51.46875 
Q 43.453125 49.90625 45.40625 47.53125 
Q 47.359375 45.171875 48.140625 41.546875 
Q 48.578125 39.3125 48.578125 33.453125 
L 48.578125 21.734375 
Q 48.578125 9.46875 49.140625 6.21875 
Q 49.703125 2.984375 51.375 0 
L 42.1875 0 
Q 40.828125 2.734375 40.4375 6.390625 
z
M 39.703125 26.03125 
Q 34.90625 24.078125 25.34375 22.703125 
Q 19.921875 21.921875 17.671875 20.9375 
Q 15.4375 19.96875 14.203125 18.09375 
Q 12.984375 16.21875 12.984375 13.921875 
Q 12.984375 10.40625 15.640625 8.0625 
Q 18.3125 5.71875 23.4375 5.71875 
Q 28.515625 5.71875 32.46875 7.9375 
Q 36.421875 10.15625 38.28125 14.015625 
Q 39.703125 17 39.703125 22.796875 
z
" id="ArialMT-97"/>
     <path d="M 6.59375 0 
L 6.59375 51.859375 
L 14.453125 51.859375 
L 14.453125 44.578125 
Q 16.890625 48.390625 20.9375 50.703125 
Q 25 53.03125 30.171875 53.03125 
Q 35.9375 53.03125 39.625 50.640625 
Q 43.3125 48.25 44.828125 43.953125 
Q 50.984375 53.03125 60.84375 53.03125 
Q 68.5625 53.03125 72.703125 48.75 
Q 76.859375 44.484375 76.859375 35.59375 
L 76.859375 0 
L 68.109375 0 
L 68.109375 32.671875 
Q 68.109375 37.9375 67.25 40.25 
Q 66.40625 42.578125 64.15625 43.984375 
Q 61.921875 45.40625 58.890625 45.40625 
Q 53.421875 45.40625 49.796875 41.765625 
Q 46.1875 38.140625 46.1875 30.125 
L 46.1875 0 
L 37.40625 0 
L 37.40625 33.6875 
Q 37.40625 39.546875 35.25 42.46875 
Q 33.109375 45.40625 28.21875 45.40625 
Q 24.515625 45.40625 21.359375 43.453125 
Q 18.21875 41.5 16.796875 37.734375 
Q 15.375 33.984375 15.375 26.90625 
L 15.375 0 
z
" id="ArialMT-109"/>
     <path d="M 25.78125 7.859375 
L 27.046875 0.09375 
Q 23.34375 -0.6875 20.40625 -0.6875 
Q 15.625 -0.6875 12.984375 0.828125 
Q 10.359375 2.34375 9.28125 4.8125 
Q 8.203125 7.28125 8.203125 15.1875 
L 8.203125 45.015625 
L 1.765625 45.015625 
L 1.765625 51.859375 
L 8.203125 51.859375 
L 8.203125 64.703125 
L 16.9375 69.96875 
L 16.9375 51.859375 
L 25.78125 51.859375 
L 25.78125 45.015625 
L 16.9375 45.015625 
L 16.9375 14.703125 
Q 16.9375 10.9375 17.40625 9.859375 
Q 17.875 8.796875 18.921875 8.15625 
Q 19.96875 7.515625 21.921875 7.515625 
Q 23.390625 7.515625 25.78125 7.859375 
z
" id="ArialMT-116"/>
     <path d="M 3.078125 15.484375 
L 11.765625 16.84375 
Q 12.5 11.625 15.84375 8.84375 
Q 19.1875 6.0625 25.203125 6.0625 
Q 31.25 6.0625 34.171875 8.515625 
Q 37.109375 10.984375 37.109375 14.3125 
Q 37.109375 17.28125 34.515625 19 
Q 32.71875 20.171875 25.53125 21.96875 
Q 15.875 24.421875 12.140625 26.203125 
Q 8.40625 27.984375 6.46875 31.125 
Q 4.546875 34.28125 4.546875 38.09375 
Q 4.546875 41.546875 6.125 44.5 
Q 7.71875 47.46875 10.453125 49.421875 
Q 12.5 50.921875 16.03125 51.96875 
Q 19.578125 53.03125 23.640625 53.03125 
Q 29.734375 53.03125 34.34375 51.265625 
Q 38.96875 49.515625 41.15625 46.5 
Q 43.359375 43.5 44.1875 38.484375 
L 35.59375 37.3125 
Q 35.015625 41.3125 32.203125 43.546875 
Q 29.390625 45.796875 24.265625 45.796875 
Q 18.21875 45.796875 15.625 43.796875 
Q 13.03125 41.796875 13.03125 39.109375 
Q 13.03125 37.40625 14.109375 36.03125 
Q 15.1875 34.625 17.484375 33.6875 
Q 18.796875 33.203125 25.25 31.453125 
Q 34.578125 28.953125 38.25 27.359375 
Q 41.9375 25.78125 44.03125 22.75 
Q 46.140625 19.734375 46.140625 15.234375 
Q 46.140625 10.84375 43.578125 6.953125 
Q 41.015625 3.078125 36.171875 0.953125 
Q 31.34375 -1.171875 25.25 -1.171875 
Q 15.140625 -1.171875 9.84375 3.03125 
Q 4.546875 7.234375 3.078125 15.484375 
z
" id="ArialMT-115"/>
     <path d="M 6.640625 61.46875 
L 6.640625 71.578125 
L 15.4375 71.578125 
L 15.4375 61.46875 
z
M 6.640625 0 
L 6.640625 51.859375 
L 15.4375 51.859375 
L 15.4375 0 
z
" id="ArialMT-105"/>
     <path d="M 6.390625 0 
L 6.390625 71.578125 
L 15.1875 71.578125 
L 15.1875 0 
z
" id="ArialMT-108"/>
     <path d="M 8.6875 0 
L 8.6875 45.015625 
L 0.921875 45.015625 
L 0.921875 51.859375 
L 8.6875 51.859375 
L 8.6875 57.375 
Q 8.6875 62.59375 9.625 65.140625 
Q 10.890625 68.5625 14.078125 70.671875 
Q 17.28125 72.796875 23.046875 72.796875 
Q 26.765625 72.796875 31.25 71.921875 
L 29.9375 64.265625 
Q 27.203125 64.75 24.75 64.75 
Q 20.75 64.75 19.09375 63.03125 
Q 17.4375 61.328125 17.4375 56.640625 
L 17.4375 51.859375 
L 27.546875 51.859375 
L 27.546875 45.015625 
L 17.4375 45.015625 
L 17.4375 0 
z
" id="ArialMT-102"/>
     <path d="M 23.390625 -21.046875 
Q 16.109375 -11.859375 11.078125 0.4375 
Q 6.0625 12.75 6.0625 25.921875 
Q 6.0625 37.546875 9.8125 48.1875 
Q 14.203125 60.546875 23.390625 72.796875 
L 29.6875 72.796875 
Q 23.78125 62.640625 21.875 58.296875 
Q 18.890625 51.5625 17.1875 44.234375 
Q 15.09375 35.109375 15.09375 25.875 
Q 15.09375 2.390625 29.6875 -21.046875 
z
" id="ArialMT-40"/>
     <path d="M 4.984375 -4.296875 
L 13.53125 -5.5625 
Q 14.0625 -9.515625 16.5 -11.328125 
Q 19.78125 -13.765625 25.4375 -13.765625 
Q 31.546875 -13.765625 34.859375 -11.328125 
Q 38.1875 -8.890625 39.359375 -4.5 
Q 40.046875 -1.8125 39.984375 6.78125 
Q 34.234375 0 25.640625 0 
Q 14.9375 0 9.078125 7.71875 
Q 3.21875 15.4375 3.21875 26.21875 
Q 3.21875 33.640625 5.90625 39.90625 
Q 8.59375 46.1875 13.6875 49.609375 
Q 18.796875 53.03125 25.6875 53.03125 
Q 34.859375 53.03125 40.828125 45.609375 
L 40.828125 51.859375 
L 48.921875 51.859375 
L 48.921875 7.03125 
Q 48.921875 -5.078125 46.453125 -10.125 
Q 44 -15.1875 38.640625 -18.109375 
Q 33.296875 -21.046875 25.484375 -21.046875 
Q 16.21875 -21.046875 10.5 -16.875 
Q 4.78125 -12.703125 4.984375 -4.296875 
z
M 12.25 26.859375 
Q 12.25 16.65625 16.296875 11.96875 
Q 20.359375 7.28125 26.46875 7.28125 
Q 32.515625 7.28125 36.609375 11.9375 
Q 40.71875 16.609375 40.71875 26.5625 
Q 40.71875 36.078125 36.5 40.90625 
Q 32.28125 45.75 26.3125 45.75 
Q 20.453125 45.75 16.34375 40.984375 
Q 12.25 36.234375 12.25 26.859375 
z
" id="ArialMT-103"/>
     <path d="M 12.359375 -21.046875 
L 6.0625 -21.046875 
Q 20.65625 2.390625 20.65625 25.875 
Q 20.65625 35.0625 18.5625 44.09375 
Q 16.890625 51.421875 13.921875 58.15625 
Q 12.015625 62.546875 6.0625 72.796875 
L 12.359375 72.796875 
Q 21.53125 60.546875 25.921875 48.1875 
Q 29.6875 37.546875 29.6875 25.921875 
Q 29.6875 12.75 24.625 0.4375 
Q 19.578125 -11.859375 12.359375 -21.046875 
z
" id="ArialMT-41"/>
    </defs>
    <g style="fill:#262626;" transform="translate(178.273438 63.12)scale(0.2 -0.2)">
     <use xlink:href="#ArialMT-83"/>
     <use x="66.699219" xlink:href="#ArialMT-101"/>
     <use x="122.314453" xlink:href="#ArialMT-99"/>
     <use x="172.314453" xlink:href="#ArialMT-111"/>
     <use x="227.929688" xlink:href="#ArialMT-110"/>
     <use x="283.544922" xlink:href="#ArialMT-100"/>
     <use x="339.160156" xlink:href="#ArialMT-32"/>
     <use x="366.943359" xlink:href="#ArialMT-111"/>
     <use x="422.558594" xlink:href="#ArialMT-114"/>
     <use x="455.859375" xlink:href="#ArialMT-100"/>
     <use x="511.474609" xlink:href="#ArialMT-101"/>
     <use x="567.089844" xlink:href="#ArialMT-114"/>
     <use x="600.390625" xlink:href="#ArialMT-32"/>
     <use x="628.095703" xlink:href="#ArialMT-65"/>
     <use x="694.794922" xlink:href="#ArialMT-82"/>
     <use x="767.011719" xlink:href="#ArialMT-32"/>
     <use x="794.794922" xlink:href="#ArialMT-112"/>
     <use x="850.410156" xlink:href="#ArialMT-97"/>
     <use x="906.025391" xlink:href="#ArialMT-114"/>
     <use x="939.326172" xlink:href="#ArialMT-97"/>
     <use x="994.941406" xlink:href="#ArialMT-109"/>
     <use x="1078.242188" xlink:href="#ArialMT-101"/>
     <use x="1133.857422" xlink:href="#ArialMT-116"/>
     <use x="1161.640625" xlink:href="#ArialMT-101"/>
     <use x="1217.255859" xlink:href="#ArialMT-114"/>
     <use x="1250.556641" xlink:href="#ArialMT-115"/>
     <use x="1300.556641" xlink:href="#ArialMT-32"/>
     <use x="1328.339844" xlink:href="#ArialMT-112"/>
     <use x="1383.955078" xlink:href="#ArialMT-97"/>
     <use x="1439.570312" xlink:href="#ArialMT-114"/>
     <use x="1472.871094" xlink:href="#ArialMT-116"/>
     <use x="1500.654297" xlink:href="#ArialMT-105"/>
     <use x="1522.871094" xlink:href="#ArialMT-99"/>
     <use x="1572.871094" xlink:href="#ArialMT-108"/>
     <use x="1595.087891" xlink:href="#ArialMT-101"/>
     <use x="1650.703125" xlink:href="#ArialMT-32"/>
     <use x="1678.486328" xlink:href="#ArialMT-102"/>
     <use x="1706.269531" xlink:href="#ArialMT-105"/>
     <use x="1728.486328" xlink:href="#ArialMT-108"/>
     <use x="1750.703125" xlink:href="#ArialMT-116"/>
     <use x="1778.486328" xlink:href="#ArialMT-101"/>
     <use x="1834.101562" xlink:href="#ArialMT-114"/>
     <use x="1867.402344" xlink:href="#ArialMT-32"/>
     <use x="1895.185547" xlink:href="#ArialMT-101"/>
     <use x="1950.800781" xlink:href="#ArialMT-115"/>
     <use x="2000.800781" xlink:href="#ArialMT-116"/>
     <use x="2028.583984" xlink:href="#ArialMT-105"/>
     <use x="2050.800781" xlink:href="#ArialMT-109"/>
     <use x="2134.101562" xlink:href="#ArialMT-97"/>
     <use x="2189.716797" xlink:href="#ArialMT-116"/>
     <use x="2217.5" xlink:href="#ArialMT-101"/>
     <use x="2273.115234" xlink:href="#ArialMT-115"/>
     <use x="2323.115234" xlink:href="#ArialMT-32"/>
     <use x="2350.898438" xlink:href="#ArialMT-40"/>
     <use x="2384.199219" xlink:href="#ArialMT-65"/>
     <use x="2450.898438" xlink:href="#ArialMT-108"/>
     <use x="2473.115234" xlink:href="#ArialMT-103"/>
     <use x="2528.730469" xlink:href="#ArialMT-32"/>
     <use x="2556.513672" xlink:href="#ArialMT-50"/>
     <use x="2612.128906" xlink:href="#ArialMT-41"/>
    </g>
   </g>
   <g id="legend_1">
    <g id="patch_7">
     <path d="M 557.327813 134.443125 
L 765 134.443125 
Q 768.6 134.443125 768.6 130.843125 
L 768.6 81.72 
Q 768.6 78.12 765 78.12 
L 557.327813 78.12 
Q 553.727813 78.12 553.727813 81.72 
L 553.727813 130.843125 
Q 553.727813 134.443125 557.327813 134.443125 
z
" style="fill:#eaeaf2;opacity:0.8;stroke:#cccccc;stroke-linejoin:miter;"/>
    </g>
    <g id="line2d_17">
     <path d="M 560.927813 91.904063 
L 596.927813 91.904063 
" style="fill:none;stroke:#4c72b0;stroke-linecap:round;stroke-width:1.5;"/>
    </g>
    <g id="line2d_18"/>
    <g id="text_14">
     <!-- First Parameter -->
     <defs>
      <path d="M 8.203125 0 
L 8.203125 71.578125 
L 56.5 71.578125 
L 56.5 63.140625 
L 17.671875 63.140625 
L 17.671875 40.96875 
L 51.265625 40.96875 
L 51.265625 32.515625 
L 17.671875 32.515625 
L 17.671875 0 
z
" id="ArialMT-70"/>
      <path d="M 7.71875 0 
L 7.71875 71.578125 
L 34.71875 71.578125 
Q 41.84375 71.578125 45.609375 70.90625 
Q 50.875 70.015625 54.4375 67.546875 
Q 58.015625 65.09375 60.1875 60.640625 
Q 62.359375 56.203125 62.359375 50.875 
Q 62.359375 41.75 56.546875 35.421875 
Q 50.734375 29.109375 35.546875 29.109375 
L 17.1875 29.109375 
L 17.1875 0 
z
M 17.1875 37.546875 
L 35.6875 37.546875 
Q 44.875 37.546875 48.734375 40.96875 
Q 52.59375 44.390625 52.59375 50.59375 
Q 52.59375 55.078125 50.3125 58.265625 
Q 48.046875 61.46875 44.34375 62.5 
Q 41.9375 63.140625 35.5 63.140625 
L 17.1875 63.140625 
z
" id="ArialMT-80"/>
     </defs>
     <g style="fill:#262626;" transform="translate(611.327813 98.204063)scale(0.18 -0.18)">
      <use xlink:href="#ArialMT-70"/>
      <use x="61.083984" xlink:href="#ArialMT-105"/>
      <use x="83.300781" xlink:href="#ArialMT-114"/>
      <use x="116.601562" xlink:href="#ArialMT-115"/>
      <use x="166.601562" xlink:href="#ArialMT-116"/>
      <use x="194.384766" xlink:href="#ArialMT-32"/>
      <use x="222.167969" xlink:href="#ArialMT-80"/>
      <use x="288.867188" xlink:href="#ArialMT-97"/>
      <use x="344.482422" xlink:href="#ArialMT-114"/>
      <use x="377.783203" xlink:href="#ArialMT-97"/>
      <use x="433.398438" xlink:href="#ArialMT-109"/>
      <use x="516.699219" xlink:href="#ArialMT-101"/>
      <use x="572.314453" xlink:href="#ArialMT-116"/>
      <use x="600.097656" xlink:href="#ArialMT-101"/>
      <use x="655.712891" xlink:href="#ArialMT-114"/>
     </g>
    </g>
    <g id="line2d_19">
     <path d="M 560.927813 117.365625 
L 596.927813 117.365625 
" style="fill:none;stroke:#dd8452;stroke-linecap:round;stroke-width:1.5;"/>
    </g>
    <g id="line2d_20"/>
    <g id="text_15">
     <!-- Second Parameter -->
     <g style="fill:#262626;" transform="translate(611.327813 123.665625)scale(0.18 -0.18)">
      <use xlink:href="#ArialMT-83"/>
      <use x="66.699219" xlink:href="#ArialMT-101"/>
      <use x="122.314453" xlink:href="#ArialMT-99"/>
      <use x="172.314453" xlink:href="#ArialMT-111"/>
      <use x="227.929688" xlink:href="#ArialMT-110"/>
      <use x="283.544922" xlink:href="#ArialMT-100"/>
      <use x="339.160156" xlink:href="#ArialMT-32"/>
      <use x="366.943359" xlink:href="#ArialMT-80"/>
      <use x="433.642578" xlink:href="#ArialMT-97"/>
      <use x="489.257812" xlink:href="#ArialMT-114"/>
      <use x="522.558594" xlink:href="#ArialMT-97"/>
      <use x="578.173828" xlink:href="#ArialMT-109"/>
      <use x="661.474609" xlink:href="#ArialMT-101"/>
      <use x="717.089844" xlink:href="#ArialMT-116"/>
      <use x="744.873047" xlink:href="#ArialMT-101"/>
      <use x="800.488281" xlink:href="#ArialMT-114"/>
     </g>
    </g>
   </g>
  </g>
 </g>
 <defs>
  <clipPath id="p8fa39385c2">
   <rect height="443.52" width="669.6" x="108" y="69.12"/>
  </clipPath>
 </defs>
</svg>
