<?xml version="1.0" encoding="utf-8" standalone="no"?>
<!DOCTYPE svg PUBLIC "-//W3C//DTD SVG 1.1//EN"
  "http://www.w3.org/Graphics/SVG/1.1/DTD/svg11.dtd">
<!-- Created with matplotlib (https://matplotlib.org/) -->
<svg height="576pt" version="1.1" viewBox="0 0 864 576" width="864pt" xmlns="http://www.w3.org/2000/svg" xmlns:xlink="http://www.w3.org/1999/xlink">
 <defs>
  <style type="text/css">
*{stroke-linecap:butt;stroke-linejoin:round;}
  </style>
 </defs>
 <g id="figure_1">
  <g id="patch_1">
   <path d="M 0 576 
L 864 576 
L 864 0 
L 0 0 
z
" style="fill:#ffffff;"/>
  </g>
  <g id="axes_1">
   <g id="patch_2">
    <path d="M 108 512.64 
L 777.6 512.64 
L 777.6 69.12 
L 108 69.12 
z
" style="fill:#eaeaf2;"/>
   </g>
   <g id="matplotlib.axis_1">
    <g id="xtick_1">
     <g id="line2d_1">
      <path clip-path="url(#p13cebcff64)" d="M 138.436364 512.64 
L 138.436364 69.12 
" style="fill:none;stroke:#ffffff;stroke-linecap:round;"/>
     </g>
     <g id="text_1">
      <!-- 0 -->
      <defs>
       <path d="M 4.15625 35.296875 
Q 4.15625 48 6.765625 55.734375 
Q 9.375 63.484375 14.515625 67.671875 
Q 19.671875 71.875 27.484375 71.875 
Q 33.25 71.875 37.59375 69.546875 
Q 41.9375 67.234375 44.765625 62.859375 
Q 47.609375 58.5 49.21875 52.21875 
Q 50.828125 45.953125 50.828125 35.296875 
Q 50.828125 22.703125 48.234375 14.96875 
Q 45.65625 7.234375 40.5 3 
Q 35.359375 -1.21875 27.484375 -1.21875 
Q 17.140625 -1.21875 11.234375 6.203125 
Q 4.15625 15.140625 4.15625 35.296875 
z
M 13.1875 35.296875 
Q 13.1875 17.671875 17.3125 11.828125 
Q 21.4375 6 27.484375 6 
Q 33.546875 6 37.671875 11.859375 
Q 41.796875 17.71875 41.796875 35.296875 
Q 41.796875 52.984375 37.671875 58.78125 
Q 33.546875 64.59375 27.390625 64.59375 
Q 21.34375 64.59375 17.71875 59.46875 
Q 13.1875 52.9375 13.1875 35.296875 
z
" id="ArialMT-48"/>
      </defs>
      <g style="fill:#262626;" transform="translate(135.377848 530.013594)scale(0.11 -0.11)">
       <use xlink:href="#ArialMT-48"/>
      </g>
     </g>
    </g>
    <g id="xtick_2">
     <g id="line2d_2">
      <path clip-path="url(#p13cebcff64)" d="M 260.425797 512.64 
L 260.425797 69.12 
" style="fill:none;stroke:#ffffff;stroke-linecap:round;"/>
     </g>
     <g id="text_2">
      <!-- 100 -->
      <defs>
       <path d="M 37.25 0 
L 28.46875 0 
L 28.46875 56 
Q 25.296875 52.984375 20.140625 49.953125 
Q 14.984375 46.921875 10.890625 45.40625 
L 10.890625 53.90625 
Q 18.265625 57.375 23.78125 62.296875 
Q 29.296875 67.234375 31.59375 71.875 
L 37.25 71.875 
z
" id="ArialMT-49"/>
      </defs>
      <g style="fill:#262626;" transform="translate(251.25025 530.013594)scale(0.11 -0.11)">
       <use xlink:href="#ArialMT-49"/>
       <use x="55.615234" xlink:href="#ArialMT-48"/>
       <use x="111.230469" xlink:href="#ArialMT-48"/>
      </g>
     </g>
    </g>
    <g id="xtick_3">
     <g id="line2d_3">
      <path clip-path="url(#p13cebcff64)" d="M 382.41523 512.64 
L 382.41523 69.12 
" style="fill:none;stroke:#ffffff;stroke-linecap:round;"/>
     </g>
     <g id="text_3">
      <!-- 200 -->
      <defs>
       <path d="M 50.34375 8.453125 
L 50.34375 0 
L 3.03125 0 
Q 2.9375 3.171875 4.046875 6.109375 
Q 5.859375 10.9375 9.828125 15.625 
Q 13.8125 20.3125 21.34375 26.46875 
Q 33.015625 36.03125 37.109375 41.625 
Q 41.21875 47.21875 41.21875 52.203125 
Q 41.21875 57.421875 37.46875 61 
Q 33.734375 64.59375 27.734375 64.59375 
Q 21.390625 64.59375 17.578125 60.78125 
Q 13.765625 56.984375 13.71875 50.25 
L 4.6875 51.171875 
Q 5.609375 61.28125 11.65625 66.578125 
Q 17.71875 71.875 27.9375 71.875 
Q 38.234375 71.875 44.234375 66.15625 
Q 50.25 60.453125 50.25 52 
Q 50.25 47.703125 48.484375 43.546875 
Q 46.734375 39.40625 42.65625 34.8125 
Q 38.578125 30.21875 29.109375 22.21875 
Q 21.1875 15.578125 18.9375 13.203125 
Q 16.703125 10.84375 15.234375 8.453125 
z
" id="ArialMT-50"/>
      </defs>
      <g style="fill:#262626;" transform="translate(373.239684 530.013594)scale(0.11 -0.11)">
       <use xlink:href="#ArialMT-50"/>
       <use x="55.615234" xlink:href="#ArialMT-48"/>
       <use x="111.230469" xlink:href="#ArialMT-48"/>
      </g>
     </g>
    </g>
    <g id="xtick_4">
     <g id="line2d_4">
      <path clip-path="url(#p13cebcff64)" d="M 504.404664 512.64 
L 504.404664 69.12 
" style="fill:none;stroke:#ffffff;stroke-linecap:round;"/>
     </g>
     <g id="text_4">
      <!-- 300 -->
      <defs>
       <path d="M 4.203125 18.890625 
L 12.984375 20.0625 
Q 14.5 12.59375 18.140625 9.296875 
Q 21.78125 6 27 6 
Q 33.203125 6 37.46875 10.296875 
Q 41.75 14.59375 41.75 20.953125 
Q 41.75 27 37.796875 30.921875 
Q 33.84375 34.859375 27.734375 34.859375 
Q 25.25 34.859375 21.53125 33.890625 
L 22.515625 41.609375 
Q 23.390625 41.5 23.921875 41.5 
Q 29.546875 41.5 34.03125 44.421875 
Q 38.53125 47.359375 38.53125 53.46875 
Q 38.53125 58.296875 35.25 61.46875 
Q 31.984375 64.65625 26.8125 64.65625 
Q 21.6875 64.65625 18.265625 61.421875 
Q 14.84375 58.203125 13.875 51.765625 
L 5.078125 53.328125 
Q 6.6875 62.15625 12.390625 67.015625 
Q 18.109375 71.875 26.609375 71.875 
Q 32.46875 71.875 37.390625 69.359375 
Q 42.328125 66.84375 44.9375 62.5 
Q 47.5625 58.15625 47.5625 53.265625 
Q 47.5625 48.640625 45.0625 44.828125 
Q 42.578125 41.015625 37.703125 38.765625 
Q 44.046875 37.3125 47.5625 32.6875 
Q 51.078125 28.078125 51.078125 21.140625 
Q 51.078125 11.765625 44.234375 5.25 
Q 37.40625 -1.265625 26.953125 -1.265625 
Q 17.53125 -1.265625 11.296875 4.34375 
Q 5.078125 9.96875 4.203125 18.890625 
z
" id="ArialMT-51"/>
      </defs>
      <g style="fill:#262626;" transform="translate(495.229117 530.013594)scale(0.11 -0.11)">
       <use xlink:href="#ArialMT-51"/>
       <use x="55.615234" xlink:href="#ArialMT-48"/>
       <use x="111.230469" xlink:href="#ArialMT-48"/>
      </g>
     </g>
    </g>
    <g id="xtick_5">
     <g id="line2d_5">
      <path clip-path="url(#p13cebcff64)" d="M 626.394097 512.64 
L 626.394097 69.12 
" style="fill:none;stroke:#ffffff;stroke-linecap:round;"/>
     </g>
     <g id="text_5">
      <!-- 400 -->
      <defs>
       <path d="M 32.328125 0 
L 32.328125 17.140625 
L 1.265625 17.140625 
L 1.265625 25.203125 
L 33.9375 71.578125 
L 41.109375 71.578125 
L 41.109375 25.203125 
L 50.78125 25.203125 
L 50.78125 17.140625 
L 41.109375 17.140625 
L 41.109375 0 
z
M 32.328125 25.203125 
L 32.328125 57.46875 
L 9.90625 25.203125 
z
" id="ArialMT-52"/>
      </defs>
      <g style="fill:#262626;" transform="translate(617.21855 530.013594)scale(0.11 -0.11)">
       <use xlink:href="#ArialMT-52"/>
       <use x="55.615234" xlink:href="#ArialMT-48"/>
       <use x="111.230469" xlink:href="#ArialMT-48"/>
      </g>
     </g>
    </g>
    <g id="xtick_6">
     <g id="line2d_6">
      <path clip-path="url(#p13cebcff64)" d="M 748.383531 512.64 
L 748.383531 69.12 
" style="fill:none;stroke:#ffffff;stroke-linecap:round;"/>
     </g>
     <g id="text_6">
      <!-- 500 -->
      <defs>
       <path d="M 4.15625 18.75 
L 13.375 19.53125 
Q 14.40625 12.796875 18.140625 9.390625 
Q 21.875 6 27.15625 6 
Q 33.5 6 37.890625 10.78125 
Q 42.28125 15.578125 42.28125 23.484375 
Q 42.28125 31 38.0625 35.34375 
Q 33.84375 39.703125 27 39.703125 
Q 22.75 39.703125 19.328125 37.765625 
Q 15.921875 35.84375 13.96875 32.765625 
L 5.71875 33.84375 
L 12.640625 70.609375 
L 48.25 70.609375 
L 48.25 62.203125 
L 19.671875 62.203125 
L 15.828125 42.96875 
Q 22.265625 47.46875 29.34375 47.46875 
Q 38.71875 47.46875 45.15625 40.96875 
Q 51.609375 34.46875 51.609375 24.265625 
Q 51.609375 14.546875 45.953125 7.46875 
Q 39.0625 -1.21875 27.15625 -1.21875 
Q 17.390625 -1.21875 11.203125 4.25 
Q 5.03125 9.71875 4.15625 18.75 
z
" id="ArialMT-53"/>
      </defs>
      <g style="fill:#262626;" transform="translate(739.207984 530.013594)scale(0.11 -0.11)">
       <use xlink:href="#ArialMT-53"/>
       <use x="55.615234" xlink:href="#ArialMT-48"/>
       <use x="111.230469" xlink:href="#ArialMT-48"/>
      </g>
     </g>
    </g>
   </g>
   <g id="matplotlib.axis_2">
    <g id="ytick_1">
     <g id="line2d_7">
      <path clip-path="url(#p13cebcff64)" d="M 108 455.825455 
L 777.6 455.825455 
" style="fill:none;stroke:#ffffff;stroke-linecap:round;"/>
     </g>
     <g id="text_7">
      <!-- −0.5 -->
      <defs>
       <path d="M 52.828125 31.203125 
L 5.5625 31.203125 
L 5.5625 39.40625 
L 52.828125 39.40625 
z
" id="ArialMT-8722"/>
       <path d="M 9.078125 0 
L 9.078125 10.015625 
L 19.09375 10.015625 
L 19.09375 0 
z
" id="ArialMT-46"/>
      </defs>
      <g style="fill:#262626;" transform="translate(76.785313 459.762251)scale(0.11 -0.11)">
       <use xlink:href="#ArialMT-8722"/>
       <use x="58.398438" xlink:href="#ArialMT-48"/>
       <use x="114.013672" xlink:href="#ArialMT-46"/>
       <use x="141.796875" xlink:href="#ArialMT-53"/>
      </g>
     </g>
    </g>
    <g id="ytick_2">
     <g id="line2d_8">
      <path clip-path="url(#p13cebcff64)" d="M 108 364.189091 
L 777.6 364.189091 
" style="fill:none;stroke:#ffffff;stroke-linecap:round;"/>
     </g>
     <g id="text_8">
      <!-- 0.0 -->
      <g style="fill:#262626;" transform="translate(83.21 368.125888)scale(0.11 -0.11)">
       <use xlink:href="#ArialMT-48"/>
       <use x="55.615234" xlink:href="#ArialMT-46"/>
       <use x="83.398438" xlink:href="#ArialMT-48"/>
      </g>
     </g>
    </g>
    <g id="ytick_3">
     <g id="line2d_9">
      <path clip-path="url(#p13cebcff64)" d="M 108 272.552727 
L 777.6 272.552727 
" style="fill:none;stroke:#ffffff;stroke-linecap:round;"/>
     </g>
     <g id="text_9">
      <!-- 0.5 -->
      <g style="fill:#262626;" transform="translate(83.21 276.489524)scale(0.11 -0.11)">
       <use xlink:href="#ArialMT-48"/>
       <use x="55.615234" xlink:href="#ArialMT-46"/>
       <use x="83.398438" xlink:href="#ArialMT-53"/>
      </g>
     </g>
    </g>
    <g id="ytick_4">
     <g id="line2d_10">
      <path clip-path="url(#p13cebcff64)" d="M 108 180.916364 
L 777.6 180.916364 
" style="fill:none;stroke:#ffffff;stroke-linecap:round;"/>
     </g>
     <g id="text_10">
      <!-- 1.0 -->
      <g style="fill:#262626;" transform="translate(83.21 184.853161)scale(0.11 -0.11)">
       <use xlink:href="#ArialMT-49"/>
       <use x="55.615234" xlink:href="#ArialMT-46"/>
       <use x="83.398438" xlink:href="#ArialMT-48"/>
      </g>
     </g>
    </g>
    <g id="ytick_5">
     <g id="line2d_11">
      <path clip-path="url(#p13cebcff64)" d="M 108 89.28 
L 777.6 89.28 
" style="fill:none;stroke:#ffffff;stroke-linecap:round;"/>
     </g>
     <g id="text_11">
      <!-- 1.5 -->
      <g style="fill:#262626;" transform="translate(83.21 93.216797)scale(0.11 -0.11)">
       <use xlink:href="#ArialMT-49"/>
       <use x="55.615234" xlink:href="#ArialMT-46"/>
       <use x="83.398438" xlink:href="#ArialMT-53"/>
      </g>
     </g>
    </g>
   </g>
   <g id="line2d_12">
    <path clip-path="url(#p13cebcff64)" d="M 138.436364 322.779051 
L 139.656258 352.930951 
L 140.876152 352.715803 
L 142.096047 352.620971 
L 143.315941 352.706884 
L 144.535835 352.310351 
L 145.75573 352.705366 
L 146.975624 352.814534 
L 149.415413 352.192419 
L 151.855201 351.984704 
L 154.29499 352.222764 
L 155.514884 352.400836 
L 156.734779 352.362567 
L 157.954673 352.157259 
L 159.174567 352.267506 
L 160.394462 352.210437 
L 162.83425 352.568382 
L 166.493933 352.256242 
L 167.713828 352.155824 
L 170.153616 352.179098 
L 171.373511 351.589875 
L 172.593405 351.608151 
L 173.813299 351.351263 
L 175.033194 351.561493 
L 177.472982 351.659455 
L 181.132665 351.324346 
L 182.35256 351.448038 
L 183.572454 351.11907 
L 184.792348 351.270194 
L 187.232137 351.195039 
L 190.89182 351.229374 
L 192.111714 351.308836 
L 193.331609 351.177221 
L 196.991292 351.360293 
L 199.43108 351.707617 
L 203.090763 351.295379 
L 205.530552 351.623729 
L 209.190235 351.280584 
L 210.410129 351.221375 
L 211.630024 351.347494 
L 212.849918 351.821055 
L 214.069812 351.748706 
L 215.289707 351.325109 
L 217.729495 351.616845 
L 218.94939 351.646749 
L 220.169284 351.979018 
L 221.389178 352.162932 
L 225.048861 352.364729 
L 226.268756 352.583952 
L 232.368227 352.982996 
L 233.588122 352.535396 
L 234.808016 352.878655 
L 236.02791 352.610291 
L 237.247805 352.999842 
L 238.467699 352.866773 
L 242.127382 353.116562 
L 244.567171 353.032536 
L 245.787065 353.045814 
L 248.226854 352.826012 
L 249.446748 352.968617 
L 250.666642 352.733507 
L 251.886537 352.868695 
L 253.106431 352.783625 
L 254.326325 352.839369 
L 255.54622 352.712478 
L 256.766114 353.142915 
L 257.986008 353.380331 
L 259.205903 353.343334 
L 262.865586 353.730034 
L 265.305374 353.551418 
L 266.525269 353.580197 
L 267.745163 353.779023 
L 270.184952 353.769881 
L 272.62474 353.494573 
L 273.844635 353.467171 
L 275.064529 353.141917 
L 276.284423 353.340658 
L 278.724212 353.317416 
L 279.944106 353.228552 
L 283.603789 353.418972 
L 284.823684 353.73129 
L 286.043578 354.190834 
L 287.263472 354.272777 
L 288.483367 354.645304 
L 289.703261 354.81791 
L 293.362944 354.687882 
L 294.582838 355.047998 
L 297.022627 354.605921 
L 298.242521 354.627458 
L 299.462416 354.816861 
L 301.902204 355.02343 
L 304.341993 355.361954 
L 305.561887 355.041951 
L 308.001676 355.021647 
L 309.22157 354.956618 
L 311.661359 355.660811 
L 312.881253 355.441053 
L 317.760831 355.836013 
L 322.640408 355.572446 
L 326.300091 355.215848 
L 327.519985 355.474091 
L 328.73988 355.534933 
L 331.179668 355.395408 
L 334.839351 355.150248 
L 336.059246 354.863015 
L 339.718929 355.405238 
L 340.938823 355.218629 
L 342.158717 355.296902 
L 343.378612 355.110624 
L 344.598506 355.269263 
L 345.8184 355.314636 
L 348.258189 355.02397 
L 349.478083 355.212839 
L 350.697978 355.086429 
L 351.917872 355.498703 
L 356.797449 355.227316 
L 361.677027 354.662354 
L 362.896921 354.75623 
L 364.116815 354.660173 
L 365.33671 354.785926 
L 366.556604 354.798224 
L 367.776498 354.984349 
L 368.996393 354.929801 
L 370.216287 354.676715 
L 373.87597 355.057278 
L 378.755547 355.32919 
L 382.41523 355.101284 
L 383.635125 355.139508 
L 386.074913 354.79405 
L 387.294808 354.782587 
L 388.514702 354.63513 
L 389.734596 354.672166 
L 392.174385 354.945339 
L 393.394279 355.295611 
L 394.614174 355.346686 
L 398.273857 355.942695 
L 400.713645 355.910972 
L 401.93354 355.625308 
L 403.153434 355.202685 
L 404.373328 355.235579 
L 405.593223 355.093792 
L 406.813117 355.193108 
L 408.033011 355.457114 
L 409.252906 355.359211 
L 410.4728 355.534923 
L 411.692694 355.269632 
L 412.912589 355.172719 
L 414.132483 355.191395 
L 415.352377 354.95212 
L 417.792166 355.192762 
L 419.01206 355.085425 
L 421.451849 355.131705 
L 422.671743 355.030304 
L 423.891638 355.092404 
L 425.111532 354.977472 
L 426.331426 355.065607 
L 427.551321 354.757363 
L 428.771215 354.633521 
L 429.991109 354.309513 
L 431.211004 354.605153 
L 433.650792 354.800094 
L 436.090581 354.648162 
L 438.53037 354.616677 
L 439.750264 354.743492 
L 440.970158 354.447271 
L 442.190053 354.846246 
L 443.409947 354.775524 
L 444.629842 354.396147 
L 447.06963 354.426995 
L 448.289525 354.047756 
L 449.509419 354.1688 
L 450.729313 353.937398 
L 453.169102 353.787482 
L 454.388996 353.806856 
L 455.608891 353.607255 
L 456.828785 353.832245 
L 459.268574 353.83066 
L 460.488468 353.592197 
L 461.708362 353.873096 
L 462.928257 353.562563 
L 464.148151 353.655466 
L 465.368045 354.024532 
L 466.58794 353.885233 
L 469.027728 353.291276 
L 470.247623 353.3297 
L 471.467517 353.243164 
L 472.687411 353.494648 
L 473.907306 353.509116 
L 475.1272 353.410094 
L 477.566989 353.452569 
L 478.786883 353.750613 
L 480.006777 353.803143 
L 481.226672 353.653896 
L 482.446566 353.776753 
L 483.66646 353.685057 
L 484.886355 353.825033 
L 486.106249 353.554595 
L 487.326143 353.421994 
L 488.546038 353.036841 
L 489.765932 352.911009 
L 492.205721 353.032256 
L 493.425615 353.116681 
L 494.645509 353.040681 
L 495.865404 352.753168 
L 497.085298 352.862827 
L 498.305192 352.832337 
L 499.525087 353.130607 
L 504.404664 353.088667 
L 506.844453 353.426843 
L 508.064347 353.526764 
L 509.284241 353.268665 
L 510.504136 353.39615 
L 511.72403 353.269619 
L 514.163819 353.669119 
L 515.383713 353.818443 
L 516.603607 354.207594 
L 517.823502 354.245852 
L 520.26329 354.519197 
L 521.483185 354.646542 
L 522.703079 354.192349 
L 527.582656 353.785476 
L 528.802551 353.761286 
L 530.022445 354.060969 
L 537.341811 353.658793 
L 539.7816 353.70108 
L 541.001494 353.824756 
L 542.221388 353.761171 
L 543.441283 353.283058 
L 544.661177 353.530026 
L 547.100966 353.618473 
L 548.32086 353.93987 
L 549.540754 354.038485 
L 550.760649 353.942645 
L 551.980543 353.647876 
L 553.200437 353.562628 
L 560.519803 353.823255 
L 564.179486 353.290736 
L 565.399381 353.423606 
L 566.619275 353.712139 
L 567.839169 353.755621 
L 569.059064 353.507202 
L 570.278958 353.754145 
L 571.498852 353.684173 
L 572.718747 354.00793 
L 573.938641 353.893302 
L 576.37843 353.895752 
L 577.598324 353.777488 
L 578.818218 353.797633 
L 580.038113 353.930304 
L 581.258007 353.607261 
L 583.697796 354.13925 
L 586.137584 354.361192 
L 587.357479 353.889868 
L 589.797267 354.050603 
L 591.017162 353.944969 
L 592.237056 353.551965 
L 594.676845 353.986337 
L 597.116633 353.659103 
L 598.336528 353.753282 
L 599.556422 353.477485 
L 600.776316 353.571846 
L 601.996211 353.193169 
L 603.216105 353.35469 
L 605.655894 353.424053 
L 606.875788 353.646482 
L 608.095682 353.64818 
L 609.315577 353.365748 
L 611.755365 353.23081 
L 612.97526 353.173984 
L 614.195154 352.949079 
L 615.415048 352.999397 
L 616.634943 352.903634 
L 617.854837 353.109327 
L 619.074731 352.863553 
L 620.294626 352.812515 
L 621.51452 352.938633 
L 623.954309 352.774757 
L 625.174203 352.974385 
L 628.833886 353.01878 
L 632.493569 353.525245 
L 633.713463 353.954218 
L 637.373146 353.848116 
L 638.593041 354.097943 
L 639.812935 353.731172 
L 641.032829 354.14648 
L 642.252724 354.141434 
L 644.692512 354.576253 
L 647.132301 354.458036 
L 648.352195 354.267468 
L 649.57209 354.319846 
L 650.791984 354.136383 
L 653.231773 354.229827 
L 655.671561 354.56895 
L 656.891456 354.582943 
L 658.11135 354.397075 
L 661.771033 355.006221 
L 665.430716 355.026501 
L 666.65061 355.272743 
L 667.870505 355.64316 
L 669.090399 355.683196 
L 670.310293 355.561413 
L 671.530188 355.221644 
L 673.969976 355.078901 
L 675.189871 355.170637 
L 676.409765 355.379916 
L 677.629659 355.854779 
L 678.849554 356.025801 
L 680.069448 355.931863 
L 681.289342 356.03399 
L 682.509237 356.441618 
L 684.949025 356.586076 
L 688.608708 356.981116 
L 689.828603 356.811602 
L 691.048497 357.171781 
L 692.268391 357.140064 
L 693.488286 356.957724 
L 694.70818 357.180202 
L 697.147969 356.90868 
L 698.367863 356.711392 
L 699.587757 356.641281 
L 702.027546 357.11431 
L 703.24744 357.046176 
L 704.467335 357.352636 
L 705.687229 357.070345 
L 706.907123 357.331838 
L 710.566806 357.544253 
L 711.786701 357.308978 
L 713.006595 357.484809 
L 715.446384 357.47904 
L 716.666278 357.26162 
L 717.886172 357.580807 
L 721.545855 357.401187 
L 722.76575 357.460081 
L 723.985644 357.235946 
L 725.205538 357.252865 
L 726.425433 357.121245 
L 727.645327 356.70129 
L 728.865221 356.598027 
L 730.085116 356.234937 
L 731.30501 356.047486 
L 732.524904 355.672523 
L 733.744799 355.946774 
L 734.964693 355.801334 
L 736.184587 355.42751 
L 737.404482 355.459558 
L 738.624376 355.35773 
L 739.84427 355.597825 
L 742.284059 355.189931 
L 743.503953 355.291709 
L 744.723848 355.589917 
L 745.943742 355.743106 
L 745.943742 355.743106 
" style="fill:none;stroke:#4c72b0;stroke-linecap:round;stroke-width:1.5;"/>
   </g>
   <g id="line2d_13">
    <path clip-path="url(#p13cebcff64)" d="M 138.436364 376.007595 
L 139.656258 371.646983 
L 140.876152 371.946521 
L 142.096047 372.08377 
L 146.975624 372.008439 
L 148.195518 372.059975 
L 149.415413 371.885361 
L 151.855201 372.236664 
L 153.075096 372.368204 
L 155.514884 372.381316 
L 156.734779 372.486738 
L 159.174567 372.15894 
L 160.394462 372.01489 
L 166.493933 372.7058 
L 167.713828 372.668901 
L 168.933722 372.344528 
L 170.153616 372.17142 
L 171.373511 371.765117 
L 173.813299 372.023352 
L 176.253088 371.780176 
L 178.692877 371.851144 
L 183.572454 371.482807 
L 184.792348 371.206104 
L 186.012243 371.283224 
L 187.232137 371.506954 
L 188.452031 371.220731 
L 189.671926 371.393197 
L 190.89182 371.072192 
L 192.111714 371.358424 
L 194.551503 371.496826 
L 196.991292 371.613624 
L 200.650975 371.999629 
L 201.870869 372.085389 
L 203.090763 372.479693 
L 204.310658 372.29529 
L 209.190235 372.265796 
L 210.410129 372.139548 
L 211.630024 372.145561 
L 214.069812 372.467144 
L 215.289707 372.873469 
L 216.509601 372.941338 
L 217.729495 372.66878 
L 218.94939 372.939495 
L 220.169284 372.969749 
L 221.389178 373.201339 
L 223.828967 372.785816 
L 225.048861 372.815997 
L 226.268756 372.658237 
L 227.48865 372.74405 
L 228.708544 372.675448 
L 229.928439 372.778761 
L 231.148333 372.744425 
L 232.368227 372.851947 
L 234.808016 372.914734 
L 236.02791 373.249545 
L 239.687593 373.029433 
L 240.907488 373.304401 
L 242.127382 373.093886 
L 243.347276 373.008734 
L 244.567171 373.169898 
L 247.006959 372.906021 
L 249.446748 372.233556 
L 250.666642 372.400689 
L 251.886537 372.753385 
L 253.106431 372.469756 
L 254.326325 372.570881 
L 255.54622 372.861479 
L 260.425797 373.145717 
L 264.08548 373.033163 
L 265.305374 372.958448 
L 266.525269 373.07669 
L 267.745163 372.960211 
L 268.965057 373.072795 
L 270.184952 372.951183 
L 271.404846 373.049285 
L 275.064529 373.009088 
L 278.724212 373.282836 
L 279.944106 373.645147 
L 281.164001 373.585892 
L 282.383895 373.709182 
L 283.603789 373.703605 
L 286.043578 373.345174 
L 287.263472 373.275445 
L 288.483367 373.335319 
L 289.703261 373.231755 
L 290.923155 372.897946 
L 294.582838 373.331368 
L 295.802733 373.706599 
L 297.022627 373.59129 
L 298.242521 373.285397 
L 303.122099 373.416404 
L 305.561887 373.860729 
L 306.781782 373.380188 
L 311.661359 373.374991 
L 315.321042 373.223341 
L 316.540936 372.898301 
L 318.980725 372.936125 
L 320.200619 372.913324 
L 321.420514 372.63434 
L 325.080197 372.375032 
L 326.300091 372.561479 
L 328.73988 372.488822 
L 329.959774 371.974928 
L 331.179668 372.311084 
L 334.839351 372.354367 
L 336.059246 372.235406 
L 337.27914 372.275518 
L 338.499034 372.431183 
L 339.718929 372.044003 
L 342.158717 371.686424 
L 344.598506 371.417892 
L 345.8184 371.647915 
L 347.038295 371.513992 
L 348.258189 371.515732 
L 349.478083 371.641434 
L 350.697978 371.499108 
L 351.917872 371.204401 
L 353.137766 371.294789 
L 354.357661 370.982365 
L 355.577555 371.324929 
L 356.797449 371.422245 
L 358.017344 371.661516 
L 359.237238 371.627749 
L 360.457132 371.317044 
L 364.116815 371.77992 
L 370.216287 371.846493 
L 372.656076 372.21597 
L 375.095864 371.990515 
L 376.315759 372.24698 
L 377.535653 372.088744 
L 378.755547 372.102832 
L 381.195336 371.748612 
L 382.41523 371.667372 
L 384.855019 372.150979 
L 386.074913 372.55683 
L 389.734596 373.028008 
L 390.954491 372.925303 
L 392.174385 372.599908 
L 394.614174 372.882871 
L 395.834068 372.751585 
L 397.053962 372.747911 
L 399.493751 372.623949 
L 401.93354 372.804803 
L 403.153434 372.580161 
L 404.373328 372.751378 
L 406.813117 372.14067 
L 408.033011 372.326531 
L 409.252906 372.066247 
L 410.4728 372.161919 
L 411.692694 372.101922 
L 412.912589 372.237517 
L 419.01206 371.829416 
L 420.231955 372.066895 
L 422.671743 372.115371 
L 423.891638 371.860559 
L 425.111532 372.171894 
L 427.551321 371.909851 
L 428.771215 371.556445 
L 429.991109 371.585858 
L 431.211004 371.297736 
L 433.650792 372.032395 
L 434.870687 371.743901 
L 438.53037 371.406011 
L 439.750264 371.783803 
L 440.970158 372.039107 
L 442.190053 372.050907 
L 444.629842 372.299381 
L 447.06963 372.156059 
L 449.509419 372.294077 
L 450.729313 372.599278 
L 451.949208 372.712305 
L 453.169102 373.061918 
L 454.388996 372.791525 
L 456.828785 372.847184 
L 458.048679 373.211375 
L 460.488468 373.037006 
L 462.928257 373.036013 
L 464.148151 373.250625 
L 465.368045 373.225699 
L 467.807834 373.416895 
L 469.027728 373.358957 
L 471.467517 373.960794 
L 472.687411 373.794546 
L 475.1272 373.786313 
L 476.347094 373.667561 
L 477.566989 373.308922 
L 478.786883 373.374565 
L 480.006777 373.200446 
L 481.226672 373.257756 
L 482.446566 373.151091 
L 483.66646 373.158596 
L 488.546038 372.520742 
L 489.765932 372.722469 
L 492.205721 372.670936 
L 493.425615 372.652376 
L 494.645509 372.900928 
L 495.865404 373.015253 
L 497.085298 372.726464 
L 498.305192 372.899406 
L 499.525087 372.514265 
L 500.744981 372.553681 
L 501.964875 372.269085 
L 504.404664 372.260861 
L 505.624558 372.250403 
L 506.844453 372.392698 
L 508.064347 372.233854 
L 511.72403 372.478175 
L 514.163819 372.379177 
L 515.383713 372.523575 
L 516.603607 372.261002 
L 521.483185 372.776237 
L 522.703079 372.707187 
L 523.922973 372.969684 
L 525.142868 372.979005 
L 526.362762 372.828835 
L 527.582656 372.482781 
L 528.802551 372.520055 
L 531.242339 372.928149 
L 532.462234 372.599588 
L 533.682128 372.930206 
L 534.902022 372.870545 
L 536.121917 373.044659 
L 537.341811 373.347976 
L 538.561705 373.518807 
L 548.32086 373.525615 
L 549.540754 373.334012 
L 551.980543 373.603844 
L 556.86012 373.395225 
L 558.080015 373.277745 
L 559.299909 372.963877 
L 562.959592 372.448862 
L 564.179486 372.565532 
L 566.619275 372.46673 
L 567.839169 372.597262 
L 570.278958 372.050171 
L 571.498852 372.05676 
L 573.938641 371.735464 
L 575.158535 371.819797 
L 576.37843 371.538902 
L 577.598324 371.713912 
L 578.818218 371.712622 
L 580.038113 371.985365 
L 582.477901 371.879795 
L 586.137584 371.968283 
L 587.357479 371.821216 
L 588.577373 372.114503 
L 589.797267 371.798427 
L 591.017162 371.989608 
L 595.896739 371.609787 
L 600.776316 372.104901 
L 605.655894 372.650699 
L 606.875788 372.519456 
L 609.315577 372.85115 
L 610.535471 372.619795 
L 611.755365 372.672953 
L 614.195154 372.562779 
L 616.634943 372.705622 
L 617.854837 372.70039 
L 620.294626 372.979571 
L 621.51452 373.163356 
L 622.734414 373.112822 
L 625.174203 373.333632 
L 626.394097 373.270544 
L 627.613992 373.375662 
L 628.833886 372.936088 
L 630.05378 372.870317 
L 631.273675 372.935519 
L 632.493569 373.22343 
L 634.933358 373.042205 
L 637.373146 373.027281 
L 639.812935 373.261064 
L 641.032829 373.08357 
L 642.252724 373.148184 
L 643.472618 372.844687 
L 647.132301 372.452512 
L 649.57209 373.033566 
L 650.791984 372.980594 
L 652.011878 372.741731 
L 653.231773 372.831285 
L 655.671561 372.654124 
L 659.331244 373.256927 
L 660.551139 373.366685 
L 661.771033 373.242579 
L 662.990927 373.387254 
L 664.210822 373.239226 
L 667.870505 373.102593 
L 669.090399 373.082737 
L 670.310293 373.290104 
L 671.530188 373.171022 
L 672.750082 373.242134 
L 673.969976 373.530778 
L 675.189871 373.428731 
L 677.629659 373.409614 
L 678.849554 373.189787 
L 680.069448 373.217398 
L 681.289342 372.847514 
L 686.16892 373.319204 
L 687.388814 373.649647 
L 689.828603 373.564583 
L 692.268391 373.129451 
L 693.488286 373.031369 
L 694.70818 373.181181 
L 698.367863 373.206742 
L 699.587757 373.063812 
L 700.807652 373.338302 
L 703.24744 373.276447 
L 704.467335 373.347827 
L 705.687229 373.054515 
L 708.127018 373.217798 
L 709.346912 373.009131 
L 710.566806 373.363274 
L 713.006595 373.019021 
L 714.226489 373.117123 
L 716.666278 372.788981 
L 717.886172 372.917666 
L 719.106067 372.534209 
L 720.325961 372.538617 
L 721.545855 372.290675 
L 722.76575 372.483559 
L 723.985644 372.349856 
L 725.205538 372.457607 
L 726.425433 372.756074 
L 727.645327 372.677558 
L 730.085116 372.882953 
L 732.524904 373.310628 
L 733.744799 373.491066 
L 734.964693 373.481124 
L 737.404482 373.986968 
L 738.624376 373.936287 
L 739.84427 373.644514 
L 741.064165 373.672395 
L 742.284059 373.52581 
L 743.503953 373.505869 
L 744.723848 373.695041 
L 745.943742 373.679391 
L 745.943742 373.679391 
" style="fill:none;stroke:#dd8452;stroke-linecap:round;stroke-width:1.5;"/>
   </g>
   <g id="line2d_14">
    <path clip-path="url(#p13cebcff64)" d="M 138.436364 89.28 
L 149.415413 89.397087 
L 160.394462 89.746853 
L 171.373511 90.324828 
L 182.35256 91.123627 
L 193.331609 92.133045 
L 205.530552 93.485866 
L 217.729495 95.061391 
L 231.148333 97.02194 
L 245.787065 99.389631 
L 262.865586 102.383647 
L 287.263472 106.916514 
L 322.640408 113.489294 
L 339.718929 116.436504 
L 354.357661 118.748977 
L 367.776498 120.647781 
L 379.975442 122.158951 
L 392.174385 123.440633 
L 403.153434 124.381147 
L 414.132483 125.107336 
L 425.111532 125.609919 
L 436.090581 125.882476 
L 447.06963 125.921523 
L 458.048679 125.726563 
L 469.027728 125.300085 
L 480.006777 124.64754 
L 490.985826 123.777265 
L 501.964875 122.700379 
L 514.163819 121.27834 
L 526.362762 119.640699 
L 539.7816 117.621191 
L 555.640226 114.991449 
L 573.938641 111.717544 
L 606.875788 105.538923 
L 631.273675 101.075215 
L 648.352195 98.178999 
L 662.990927 95.925029 
L 676.409765 94.090669 
L 688.608708 92.646001 
L 700.807652 91.437281 
L 711.786701 90.567005 
L 722.76575 89.91446 
L 733.744799 89.487983 
L 744.723848 89.293022 
L 747.163636 89.281447 
L 747.163636 89.281447 
" style="fill:none;stroke:#c44e52;stroke-linecap:round;stroke-width:1.5;"/>
   </g>
   <g id="line2d_15">
    <path clip-path="url(#p13cebcff64)" d="M 138.436364 492.48 
L 201.870869 486.597979 
L 237.247805 483.550034 
L 266.525269 481.247085 
L 293.362944 479.358837 
L 317.760831 477.858604 
L 340.938823 476.64664 
L 364.116815 475.660061 
L 386.074913 474.946077 
L 408.033011 474.456132 
L 429.991109 474.196484 
L 451.949208 474.170451 
L 473.907306 474.378366 
L 495.865404 474.817573 
L 517.823502 475.48246 
L 539.7816 476.36453 
L 562.959592 477.518728 
L 587.357479 478.963396 
L 612.97526 480.70926 
L 641.032829 482.854981 
L 671.530188 485.413297 
L 709.346912 488.819861 
L 747.163636 492.364847 
L 747.163636 492.364847 
" style="fill:none;stroke:#c44e52;stroke-linecap:round;stroke-width:1.5;"/>
   </g>
   <g id="patch_3">
    <path d="M 108 512.64 
L 108 69.12 
" style="fill:none;stroke:#ffffff;stroke-linecap:square;stroke-linejoin:miter;stroke-width:1.25;"/>
   </g>
   <g id="patch_4">
    <path d="M 777.6 512.64 
L 777.6 69.12 
" style="fill:none;stroke:#ffffff;stroke-linecap:square;stroke-linejoin:miter;stroke-width:1.25;"/>
   </g>
   <g id="patch_5">
    <path d="M 108 512.64 
L 777.6 512.64 
" style="fill:none;stroke:#ffffff;stroke-linecap:square;stroke-linejoin:miter;stroke-width:1.25;"/>
   </g>
   <g id="patch_6">
    <path d="M 108 69.12 
L 777.6 69.12 
" style="fill:none;stroke:#ffffff;stroke-linecap:square;stroke-linejoin:miter;stroke-width:1.25;"/>
   </g>
   <g id="text_12">
    <!-- Second order AR parameters particle filter estimates (Alg1) -->
    <defs>
     <path d="M 4.5 23 
L 13.421875 23.78125 
Q 14.0625 18.40625 16.375 14.96875 
Q 18.703125 11.53125 23.578125 9.40625 
Q 28.46875 7.28125 34.578125 7.28125 
Q 39.984375 7.28125 44.140625 8.890625 
Q 48.296875 10.5 50.3125 13.296875 
Q 52.34375 16.109375 52.34375 19.4375 
Q 52.34375 22.796875 50.390625 25.3125 
Q 48.4375 27.828125 43.953125 29.546875 
Q 41.0625 30.671875 31.203125 33.03125 
Q 21.34375 35.40625 17.390625 37.5 
Q 12.25 40.1875 9.734375 44.15625 
Q 7.234375 48.140625 7.234375 53.078125 
Q 7.234375 58.5 10.296875 63.203125 
Q 13.375 67.921875 19.28125 70.359375 
Q 25.203125 72.796875 32.421875 72.796875 
Q 40.375 72.796875 46.453125 70.234375 
Q 52.546875 67.671875 55.8125 62.6875 
Q 59.078125 57.71875 59.328125 51.421875 
L 50.25 50.734375 
Q 49.515625 57.515625 45.28125 60.984375 
Q 41.0625 64.453125 32.8125 64.453125 
Q 24.21875 64.453125 20.28125 61.296875 
Q 16.359375 58.15625 16.359375 53.71875 
Q 16.359375 49.859375 19.140625 47.359375 
Q 21.875 44.875 33.421875 42.265625 
Q 44.96875 39.65625 49.265625 37.703125 
Q 55.515625 34.8125 58.484375 30.390625 
Q 61.46875 25.984375 61.46875 20.21875 
Q 61.46875 14.5 58.203125 9.4375 
Q 54.9375 4.390625 48.796875 1.578125 
Q 42.671875 -1.21875 35.015625 -1.21875 
Q 25.296875 -1.21875 18.71875 1.609375 
Q 12.15625 4.4375 8.421875 10.125 
Q 4.6875 15.828125 4.5 23 
z
" id="ArialMT-83"/>
     <path d="M 42.09375 16.703125 
L 51.171875 15.578125 
Q 49.03125 7.625 43.21875 3.21875 
Q 37.40625 -1.171875 28.375 -1.171875 
Q 17 -1.171875 10.328125 5.828125 
Q 3.65625 12.84375 3.65625 25.484375 
Q 3.65625 38.578125 10.390625 45.796875 
Q 17.140625 53.03125 27.875 53.03125 
Q 38.28125 53.03125 44.875 45.953125 
Q 51.46875 38.875 51.46875 26.03125 
Q 51.46875 25.25 51.421875 23.6875 
L 12.75 23.6875 
Q 13.234375 15.140625 17.578125 10.59375 
Q 21.921875 6.0625 28.421875 6.0625 
Q 33.25 6.0625 36.671875 8.59375 
Q 40.09375 11.140625 42.09375 16.703125 
z
M 13.234375 30.90625 
L 42.1875 30.90625 
Q 41.609375 37.453125 38.875 40.71875 
Q 34.671875 45.796875 27.984375 45.796875 
Q 21.921875 45.796875 17.796875 41.75 
Q 13.671875 37.703125 13.234375 30.90625 
z
" id="ArialMT-101"/>
     <path d="M 40.4375 19 
L 49.078125 17.875 
Q 47.65625 8.9375 41.8125 3.875 
Q 35.984375 -1.171875 27.484375 -1.171875 
Q 16.84375 -1.171875 10.375 5.78125 
Q 3.90625 12.75 3.90625 25.734375 
Q 3.90625 34.125 6.6875 40.421875 
Q 9.46875 46.734375 15.15625 49.875 
Q 20.84375 53.03125 27.546875 53.03125 
Q 35.984375 53.03125 41.359375 48.75 
Q 46.734375 44.484375 48.25 36.625 
L 39.703125 35.296875 
Q 38.484375 40.53125 35.375 43.15625 
Q 32.28125 45.796875 27.875 45.796875 
Q 21.234375 45.796875 17.078125 41.03125 
Q 12.9375 36.28125 12.9375 25.984375 
Q 12.9375 15.53125 16.9375 10.796875 
Q 20.953125 6.0625 27.390625 6.0625 
Q 32.5625 6.0625 36.03125 9.234375 
Q 39.5 12.40625 40.4375 19 
z
" id="ArialMT-99"/>
     <path d="M 3.328125 25.921875 
Q 3.328125 40.328125 11.328125 47.265625 
Q 18.015625 53.03125 27.640625 53.03125 
Q 38.328125 53.03125 45.109375 46.015625 
Q 51.90625 39.015625 51.90625 26.65625 
Q 51.90625 16.65625 48.90625 10.90625 
Q 45.90625 5.171875 40.15625 2 
Q 34.421875 -1.171875 27.640625 -1.171875 
Q 16.75 -1.171875 10.03125 5.8125 
Q 3.328125 12.796875 3.328125 25.921875 
z
M 12.359375 25.921875 
Q 12.359375 15.96875 16.703125 11.015625 
Q 21.046875 6.0625 27.640625 6.0625 
Q 34.1875 6.0625 38.53125 11.03125 
Q 42.875 16.015625 42.875 26.21875 
Q 42.875 35.84375 38.5 40.796875 
Q 34.125 45.75 27.640625 45.75 
Q 21.046875 45.75 16.703125 40.8125 
Q 12.359375 35.890625 12.359375 25.921875 
z
" id="ArialMT-111"/>
     <path d="M 6.59375 0 
L 6.59375 51.859375 
L 14.5 51.859375 
L 14.5 44.484375 
Q 20.21875 53.03125 31 53.03125 
Q 35.6875 53.03125 39.625 51.34375 
Q 43.5625 49.65625 45.515625 46.921875 
Q 47.46875 44.1875 48.25 40.4375 
Q 48.734375 37.984375 48.734375 31.890625 
L 48.734375 0 
L 39.9375 0 
L 39.9375 31.546875 
Q 39.9375 36.921875 38.90625 39.578125 
Q 37.890625 42.234375 35.28125 43.8125 
Q 32.671875 45.40625 29.15625 45.40625 
Q 23.53125 45.40625 19.453125 41.84375 
Q 15.375 38.28125 15.375 28.328125 
L 15.375 0 
z
" id="ArialMT-110"/>
     <path d="M 40.234375 0 
L 40.234375 6.546875 
Q 35.296875 -1.171875 25.734375 -1.171875 
Q 19.53125 -1.171875 14.328125 2.25 
Q 9.125 5.671875 6.265625 11.796875 
Q 3.421875 17.921875 3.421875 25.875 
Q 3.421875 33.640625 6 39.96875 
Q 8.59375 46.296875 13.765625 49.65625 
Q 18.953125 53.03125 25.34375 53.03125 
Q 30.03125 53.03125 33.6875 51.046875 
Q 37.359375 49.078125 39.65625 45.90625 
L 39.65625 71.578125 
L 48.390625 71.578125 
L 48.390625 0 
z
M 12.453125 25.875 
Q 12.453125 15.921875 16.640625 10.984375 
Q 20.84375 6.0625 26.5625 6.0625 
Q 32.328125 6.0625 36.34375 10.765625 
Q 40.375 15.484375 40.375 25.140625 
Q 40.375 35.796875 36.265625 40.765625 
Q 32.171875 45.75 26.171875 45.75 
Q 20.3125 45.75 16.375 40.96875 
Q 12.453125 36.1875 12.453125 25.875 
z
" id="ArialMT-100"/>
     <path id="ArialMT-32"/>
     <path d="M 6.5 0 
L 6.5 51.859375 
L 14.40625 51.859375 
L 14.40625 44 
Q 17.4375 49.515625 20 51.265625 
Q 22.5625 53.03125 25.640625 53.03125 
Q 30.078125 53.03125 34.671875 50.203125 
L 31.640625 42.046875 
Q 28.421875 43.953125 25.203125 43.953125 
Q 22.3125 43.953125 20.015625 42.21875 
Q 17.71875 40.484375 16.75 37.40625 
Q 15.28125 32.71875 15.28125 27.15625 
L 15.28125 0 
z
" id="ArialMT-114"/>
     <path d="M -0.140625 0 
L 27.34375 71.578125 
L 37.546875 71.578125 
L 66.84375 0 
L 56.0625 0 
L 47.703125 21.6875 
L 17.78125 21.6875 
L 9.90625 0 
z
M 20.515625 29.390625 
L 44.78125 29.390625 
L 37.3125 49.21875 
Q 33.890625 58.25 32.234375 64.0625 
Q 30.859375 57.171875 28.375 50.390625 
z
" id="ArialMT-65"/>
     <path d="M 7.859375 0 
L 7.859375 71.578125 
L 39.59375 71.578125 
Q 49.171875 71.578125 54.140625 69.640625 
Q 59.125 67.71875 62.109375 62.828125 
Q 65.09375 57.953125 65.09375 52.046875 
Q 65.09375 44.4375 60.15625 39.203125 
Q 55.21875 33.984375 44.921875 32.5625 
Q 48.6875 30.765625 50.640625 29 
Q 54.78125 25.203125 58.5 19.484375 
L 70.953125 0 
L 59.03125 0 
L 49.5625 14.890625 
Q 45.40625 21.34375 42.71875 24.75 
Q 40.046875 28.171875 37.921875 29.53125 
Q 35.796875 30.90625 33.59375 31.453125 
Q 31.984375 31.78125 28.328125 31.78125 
L 17.328125 31.78125 
L 17.328125 0 
z
M 17.328125 39.984375 
L 37.703125 39.984375 
Q 44.1875 39.984375 47.84375 41.328125 
Q 51.515625 42.671875 53.421875 45.625 
Q 55.328125 48.578125 55.328125 52.046875 
Q 55.328125 57.125 51.640625 60.390625 
Q 47.953125 63.671875 39.984375 63.671875 
L 17.328125 63.671875 
z
" id="ArialMT-82"/>
     <path d="M 6.59375 -19.875 
L 6.59375 51.859375 
L 14.59375 51.859375 
L 14.59375 45.125 
Q 17.4375 49.078125 21 51.046875 
Q 24.5625 53.03125 29.640625 53.03125 
Q 36.28125 53.03125 41.359375 49.609375 
Q 46.4375 46.1875 49.015625 39.953125 
Q 51.609375 33.734375 51.609375 26.3125 
Q 51.609375 18.359375 48.75 11.984375 
Q 45.90625 5.609375 40.453125 2.21875 
Q 35.015625 -1.171875 29 -1.171875 
Q 24.609375 -1.171875 21.109375 0.6875 
Q 17.625 2.546875 15.375 5.375 
L 15.375 -19.875 
z
M 14.546875 25.640625 
Q 14.546875 15.625 18.59375 10.84375 
Q 22.65625 6.0625 28.421875 6.0625 
Q 34.28125 6.0625 38.453125 11.015625 
Q 42.625 15.96875 42.625 26.375 
Q 42.625 36.28125 38.546875 41.203125 
Q 34.46875 46.140625 28.8125 46.140625 
Q 23.1875 46.140625 18.859375 40.890625 
Q 14.546875 35.640625 14.546875 25.640625 
z
" id="ArialMT-112"/>
     <path d="M 40.4375 6.390625 
Q 35.546875 2.25 31.03125 0.53125 
Q 26.515625 -1.171875 21.34375 -1.171875 
Q 12.796875 -1.171875 8.203125 3 
Q 3.609375 7.171875 3.609375 13.671875 
Q 3.609375 17.484375 5.34375 20.625 
Q 7.078125 23.78125 9.890625 25.6875 
Q 12.703125 27.59375 16.21875 28.5625 
Q 18.796875 29.25 24.03125 29.890625 
Q 34.671875 31.15625 39.703125 32.90625 
Q 39.75 34.71875 39.75 35.203125 
Q 39.75 40.578125 37.25 42.78125 
Q 33.890625 45.75 27.25 45.75 
Q 21.046875 45.75 18.09375 43.578125 
Q 15.140625 41.40625 13.71875 35.890625 
L 5.125 37.0625 
Q 6.296875 42.578125 8.984375 45.96875 
Q 11.671875 49.359375 16.75 51.1875 
Q 21.828125 53.03125 28.515625 53.03125 
Q 35.15625 53.03125 39.296875 51.46875 
Q 43.453125 49.90625 45.40625 47.53125 
Q 47.359375 45.171875 48.140625 41.546875 
Q 48.578125 39.3125 48.578125 33.453125 
L 48.578125 21.734375 
Q 48.578125 9.46875 49.140625 6.21875 
Q 49.703125 2.984375 51.375 0 
L 42.1875 0 
Q 40.828125 2.734375 40.4375 6.390625 
z
M 39.703125 26.03125 
Q 34.90625 24.078125 25.34375 22.703125 
Q 19.921875 21.921875 17.671875 20.9375 
Q 15.4375 19.96875 14.203125 18.09375 
Q 12.984375 16.21875 12.984375 13.921875 
Q 12.984375 10.40625 15.640625 8.0625 
Q 18.3125 5.71875 23.4375 5.71875 
Q 28.515625 5.71875 32.46875 7.9375 
Q 36.421875 10.15625 38.28125 14.015625 
Q 39.703125 17 39.703125 22.796875 
z
" id="ArialMT-97"/>
     <path d="M 6.59375 0 
L 6.59375 51.859375 
L 14.453125 51.859375 
L 14.453125 44.578125 
Q 16.890625 48.390625 20.9375 50.703125 
Q 25 53.03125 30.171875 53.03125 
Q 35.9375 53.03125 39.625 50.640625 
Q 43.3125 48.25 44.828125 43.953125 
Q 50.984375 53.03125 60.84375 53.03125 
Q 68.5625 53.03125 72.703125 48.75 
Q 76.859375 44.484375 76.859375 35.59375 
L 76.859375 0 
L 68.109375 0 
L 68.109375 32.671875 
Q 68.109375 37.9375 67.25 40.25 
Q 66.40625 42.578125 64.15625 43.984375 
Q 61.921875 45.40625 58.890625 45.40625 
Q 53.421875 45.40625 49.796875 41.765625 
Q 46.1875 38.140625 46.1875 30.125 
L 46.1875 0 
L 37.40625 0 
L 37.40625 33.6875 
Q 37.40625 39.546875 35.25 42.46875 
Q 33.109375 45.40625 28.21875 45.40625 
Q 24.515625 45.40625 21.359375 43.453125 
Q 18.21875 41.5 16.796875 37.734375 
Q 15.375 33.984375 15.375 26.90625 
L 15.375 0 
z
" id="ArialMT-109"/>
     <path d="M 25.78125 7.859375 
L 27.046875 0.09375 
Q 23.34375 -0.6875 20.40625 -0.6875 
Q 15.625 -0.6875 12.984375 0.828125 
Q 10.359375 2.34375 9.28125 4.8125 
Q 8.203125 7.28125 8.203125 15.1875 
L 8.203125 45.015625 
L 1.765625 45.015625 
L 1.765625 51.859375 
L 8.203125 51.859375 
L 8.203125 64.703125 
L 16.9375 69.96875 
L 16.9375 51.859375 
L 25.78125 51.859375 
L 25.78125 45.015625 
L 16.9375 45.015625 
L 16.9375 14.703125 
Q 16.9375 10.9375 17.40625 9.859375 
Q 17.875 8.796875 18.921875 8.15625 
Q 19.96875 7.515625 21.921875 7.515625 
Q 23.390625 7.515625 25.78125 7.859375 
z
" id="ArialMT-116"/>
     <path d="M 3.078125 15.484375 
L 11.765625 16.84375 
Q 12.5 11.625 15.84375 8.84375 
Q 19.1875 6.0625 25.203125 6.0625 
Q 31.25 6.0625 34.171875 8.515625 
Q 37.109375 10.984375 37.109375 14.3125 
Q 37.109375 17.28125 34.515625 19 
Q 32.71875 20.171875 25.53125 21.96875 
Q 15.875 24.421875 12.140625 26.203125 
Q 8.40625 27.984375 6.46875 31.125 
Q 4.546875 34.28125 4.546875 38.09375 
Q 4.546875 41.546875 6.125 44.5 
Q 7.71875 47.46875 10.453125 49.421875 
Q 12.5 50.921875 16.03125 51.96875 
Q 19.578125 53.03125 23.640625 53.03125 
Q 29.734375 53.03125 34.34375 51.265625 
Q 38.96875 49.515625 41.15625 46.5 
Q 43.359375 43.5 44.1875 38.484375 
L 35.59375 37.3125 
Q 35.015625 41.3125 32.203125 43.546875 
Q 29.390625 45.796875 24.265625 45.796875 
Q 18.21875 45.796875 15.625 43.796875 
Q 13.03125 41.796875 13.03125 39.109375 
Q 13.03125 37.40625 14.109375 36.03125 
Q 15.1875 34.625 17.484375 33.6875 
Q 18.796875 33.203125 25.25 31.453125 
Q 34.578125 28.953125 38.25 27.359375 
Q 41.9375 25.78125 44.03125 22.75 
Q 46.140625 19.734375 46.140625 15.234375 
Q 46.140625 10.84375 43.578125 6.953125 
Q 41.015625 3.078125 36.171875 0.953125 
Q 31.34375 -1.171875 25.25 -1.171875 
Q 15.140625 -1.171875 9.84375 3.03125 
Q 4.546875 7.234375 3.078125 15.484375 
z
" id="ArialMT-115"/>
     <path d="M 6.640625 61.46875 
L 6.640625 71.578125 
L 15.4375 71.578125 
L 15.4375 61.46875 
z
M 6.640625 0 
L 6.640625 51.859375 
L 15.4375 51.859375 
L 15.4375 0 
z
" id="ArialMT-105"/>
     <path d="M 6.390625 0 
L 6.390625 71.578125 
L 15.1875 71.578125 
L 15.1875 0 
z
" id="ArialMT-108"/>
     <path d="M 8.6875 0 
L 8.6875 45.015625 
L 0.921875 45.015625 
L 0.921875 51.859375 
L 8.6875 51.859375 
L 8.6875 57.375 
Q 8.6875 62.59375 9.625 65.140625 
Q 10.890625 68.5625 14.078125 70.671875 
Q 17.28125 72.796875 23.046875 72.796875 
Q 26.765625 72.796875 31.25 71.921875 
L 29.9375 64.265625 
Q 27.203125 64.75 24.75 64.75 
Q 20.75 64.75 19.09375 63.03125 
Q 17.4375 61.328125 17.4375 56.640625 
L 17.4375 51.859375 
L 27.546875 51.859375 
L 27.546875 45.015625 
L 17.4375 45.015625 
L 17.4375 0 
z
" id="ArialMT-102"/>
     <path d="M 23.390625 -21.046875 
Q 16.109375 -11.859375 11.078125 0.4375 
Q 6.0625 12.75 6.0625 25.921875 
Q 6.0625 37.546875 9.8125 48.1875 
Q 14.203125 60.546875 23.390625 72.796875 
L 29.6875 72.796875 
Q 23.78125 62.640625 21.875 58.296875 
Q 18.890625 51.5625 17.1875 44.234375 
Q 15.09375 35.109375 15.09375 25.875 
Q 15.09375 2.390625 29.6875 -21.046875 
z
" id="ArialMT-40"/>
     <path d="M 4.984375 -4.296875 
L 13.53125 -5.5625 
Q 14.0625 -9.515625 16.5 -11.328125 
Q 19.78125 -13.765625 25.4375 -13.765625 
Q 31.546875 -13.765625 34.859375 -11.328125 
Q 38.1875 -8.890625 39.359375 -4.5 
Q 40.046875 -1.8125 39.984375 6.78125 
Q 34.234375 0 25.640625 0 
Q 14.9375 0 9.078125 7.71875 
Q 3.21875 15.4375 3.21875 26.21875 
Q 3.21875 33.640625 5.90625 39.90625 
Q 8.59375 46.1875 13.6875 49.609375 
Q 18.796875 53.03125 25.6875 53.03125 
Q 34.859375 53.03125 40.828125 45.609375 
L 40.828125 51.859375 
L 48.921875 51.859375 
L 48.921875 7.03125 
Q 48.921875 -5.078125 46.453125 -10.125 
Q 44 -15.1875 38.640625 -18.109375 
Q 33.296875 -21.046875 25.484375 -21.046875 
Q 16.21875 -21.046875 10.5 -16.875 
Q 4.78125 -12.703125 4.984375 -4.296875 
z
M 12.25 26.859375 
Q 12.25 16.65625 16.296875 11.96875 
Q 20.359375 7.28125 26.46875 7.28125 
Q 32.515625 7.28125 36.609375 11.9375 
Q 40.71875 16.609375 40.71875 26.5625 
Q 40.71875 36.078125 36.5 40.90625 
Q 32.28125 45.75 26.3125 45.75 
Q 20.453125 45.75 16.34375 40.984375 
Q 12.25 36.234375 12.25 26.859375 
z
" id="ArialMT-103"/>
     <path d="M 12.359375 -21.046875 
L 6.0625 -21.046875 
Q 20.65625 2.390625 20.65625 25.875 
Q 20.65625 35.0625 18.5625 44.09375 
Q 16.890625 51.421875 13.921875 58.15625 
Q 12.015625 62.546875 6.0625 72.796875 
L 12.359375 72.796875 
Q 21.53125 60.546875 25.921875 48.1875 
Q 29.6875 37.546875 29.6875 25.921875 
Q 29.6875 12.75 24.625 0.4375 
Q 19.578125 -11.859375 12.359375 -21.046875 
z
" id="ArialMT-41"/>
    </defs>
    <g style="fill:#262626;" transform="translate(181.051562 63.12)scale(0.2 -0.2)">
     <use xlink:href="#ArialMT-83"/>
     <use x="66.699219" xlink:href="#ArialMT-101"/>
     <use x="122.314453" xlink:href="#ArialMT-99"/>
     <use x="172.314453" xlink:href="#ArialMT-111"/>
     <use x="227.929688" xlink:href="#ArialMT-110"/>
     <use x="283.544922" xlink:href="#ArialMT-100"/>
     <use x="339.160156" xlink:href="#ArialMT-32"/>
     <use x="366.943359" xlink:href="#ArialMT-111"/>
     <use x="422.558594" xlink:href="#ArialMT-114"/>
     <use x="455.859375" xlink:href="#ArialMT-100"/>
     <use x="511.474609" xlink:href="#ArialMT-101"/>
     <use x="567.089844" xlink:href="#ArialMT-114"/>
     <use x="600.390625" xlink:href="#ArialMT-32"/>
     <use x="628.095703" xlink:href="#ArialMT-65"/>
     <use x="694.794922" xlink:href="#ArialMT-82"/>
     <use x="767.011719" xlink:href="#ArialMT-32"/>
     <use x="794.794922" xlink:href="#ArialMT-112"/>
     <use x="850.410156" xlink:href="#ArialMT-97"/>
     <use x="906.025391" xlink:href="#ArialMT-114"/>
     <use x="939.326172" xlink:href="#ArialMT-97"/>
     <use x="994.941406" xlink:href="#ArialMT-109"/>
     <use x="1078.242188" xlink:href="#ArialMT-101"/>
     <use x="1133.857422" xlink:href="#ArialMT-116"/>
     <use x="1161.640625" xlink:href="#ArialMT-101"/>
     <use x="1217.255859" xlink:href="#ArialMT-114"/>
     <use x="1250.556641" xlink:href="#ArialMT-115"/>
     <use x="1300.556641" xlink:href="#ArialMT-32"/>
     <use x="1328.339844" xlink:href="#ArialMT-112"/>
     <use x="1383.955078" xlink:href="#ArialMT-97"/>
     <use x="1439.570312" xlink:href="#ArialMT-114"/>
     <use x="1472.871094" xlink:href="#ArialMT-116"/>
     <use x="1500.654297" xlink:href="#ArialMT-105"/>
     <use x="1522.871094" xlink:href="#ArialMT-99"/>
     <use x="1572.871094" xlink:href="#ArialMT-108"/>
     <use x="1595.087891" xlink:href="#ArialMT-101"/>
     <use x="1650.703125" xlink:href="#ArialMT-32"/>
     <use x="1678.486328" xlink:href="#ArialMT-102"/>
     <use x="1706.269531" xlink:href="#ArialMT-105"/>
     <use x="1728.486328" xlink:href="#ArialMT-108"/>
     <use x="1750.703125" xlink:href="#ArialMT-116"/>
     <use x="1778.486328" xlink:href="#ArialMT-101"/>
     <use x="1834.101562" xlink:href="#ArialMT-114"/>
     <use x="1867.402344" xlink:href="#ArialMT-32"/>
     <use x="1895.185547" xlink:href="#ArialMT-101"/>
     <use x="1950.800781" xlink:href="#ArialMT-115"/>
     <use x="2000.800781" xlink:href="#ArialMT-116"/>
     <use x="2028.583984" xlink:href="#ArialMT-105"/>
     <use x="2050.800781" xlink:href="#ArialMT-109"/>
     <use x="2134.101562" xlink:href="#ArialMT-97"/>
     <use x="2189.716797" xlink:href="#ArialMT-116"/>
     <use x="2217.5" xlink:href="#ArialMT-101"/>
     <use x="2273.115234" xlink:href="#ArialMT-115"/>
     <use x="2323.115234" xlink:href="#ArialMT-32"/>
     <use x="2350.898438" xlink:href="#ArialMT-40"/>
     <use x="2384.199219" xlink:href="#ArialMT-65"/>
     <use x="2450.898438" xlink:href="#ArialMT-108"/>
     <use x="2473.115234" xlink:href="#ArialMT-103"/>
     <use x="2528.730469" xlink:href="#ArialMT-49"/>
     <use x="2584.345703" xlink:href="#ArialMT-41"/>
    </g>
   </g>
   <g id="legend_1">
    <g id="patch_7">
     <path d="M 557.327813 319.041563 
L 765 319.041563 
Q 768.6 319.041563 768.6 315.441563 
L 768.6 266.318438 
Q 768.6 262.718438 765 262.718438 
L 557.327813 262.718438 
Q 553.727813 262.718438 553.727813 266.318438 
L 553.727813 315.441563 
Q 553.727813 319.041563 557.327813 319.041563 
z
" style="fill:#eaeaf2;opacity:0.8;stroke:#cccccc;stroke-linejoin:miter;"/>
    </g>
    <g id="line2d_16">
     <path d="M 560.927813 276.5025 
L 596.927813 276.5025 
" style="fill:none;stroke:#4c72b0;stroke-linecap:round;stroke-width:1.5;"/>
    </g>
    <g id="line2d_17"/>
    <g id="text_13">
     <!-- First Parameter -->
     <defs>
      <path d="M 8.203125 0 
L 8.203125 71.578125 
L 56.5 71.578125 
L 56.5 63.140625 
L 17.671875 63.140625 
L 17.671875 40.96875 
L 51.265625 40.96875 
L 51.265625 32.515625 
L 17.671875 32.515625 
L 17.671875 0 
z
" id="ArialMT-70"/>
      <path d="M 7.71875 0 
L 7.71875 71.578125 
L 34.71875 71.578125 
Q 41.84375 71.578125 45.609375 70.90625 
Q 50.875 70.015625 54.4375 67.546875 
Q 58.015625 65.09375 60.1875 60.640625 
Q 62.359375 56.203125 62.359375 50.875 
Q 62.359375 41.75 56.546875 35.421875 
Q 50.734375 29.109375 35.546875 29.109375 
L 17.1875 29.109375 
L 17.1875 0 
z
M 17.1875 37.546875 
L 35.6875 37.546875 
Q 44.875 37.546875 48.734375 40.96875 
Q 52.59375 44.390625 52.59375 50.59375 
Q 52.59375 55.078125 50.3125 58.265625 
Q 48.046875 61.46875 44.34375 62.5 
Q 41.9375 63.140625 35.5 63.140625 
L 17.1875 63.140625 
z
" id="ArialMT-80"/>
     </defs>
     <g style="fill:#262626;" transform="translate(611.327813 282.8025)scale(0.18 -0.18)">
      <use xlink:href="#ArialMT-70"/>
      <use x="61.083984" xlink:href="#ArialMT-105"/>
      <use x="83.300781" xlink:href="#ArialMT-114"/>
      <use x="116.601562" xlink:href="#ArialMT-115"/>
      <use x="166.601562" xlink:href="#ArialMT-116"/>
      <use x="194.384766" xlink:href="#ArialMT-32"/>
      <use x="222.167969" xlink:href="#ArialMT-80"/>
      <use x="288.867188" xlink:href="#ArialMT-97"/>
      <use x="344.482422" xlink:href="#ArialMT-114"/>
      <use x="377.783203" xlink:href="#ArialMT-97"/>
      <use x="433.398438" xlink:href="#ArialMT-109"/>
      <use x="516.699219" xlink:href="#ArialMT-101"/>
      <use x="572.314453" xlink:href="#ArialMT-116"/>
      <use x="600.097656" xlink:href="#ArialMT-101"/>
      <use x="655.712891" xlink:href="#ArialMT-114"/>
     </g>
    </g>
    <g id="line2d_18">
     <path d="M 560.927813 301.964063 
L 596.927813 301.964063 
" style="fill:none;stroke:#dd8452;stroke-linecap:round;stroke-width:1.5;"/>
    </g>
    <g id="line2d_19"/>
    <g id="text_14">
     <!-- Second Parameter -->
     <g style="fill:#262626;" transform="translate(611.327813 308.264063)scale(0.18 -0.18)">
      <use xlink:href="#ArialMT-83"/>
      <use x="66.699219" xlink:href="#ArialMT-101"/>
      <use x="122.314453" xlink:href="#ArialMT-99"/>
      <use x="172.314453" xlink:href="#ArialMT-111"/>
      <use x="227.929688" xlink:href="#ArialMT-110"/>
      <use x="283.544922" xlink:href="#ArialMT-100"/>
      <use x="339.160156" xlink:href="#ArialMT-32"/>
      <use x="366.943359" xlink:href="#ArialMT-80"/>
      <use x="433.642578" xlink:href="#ArialMT-97"/>
      <use x="489.257812" xlink:href="#ArialMT-114"/>
      <use x="522.558594" xlink:href="#ArialMT-97"/>
      <use x="578.173828" xlink:href="#ArialMT-109"/>
      <use x="661.474609" xlink:href="#ArialMT-101"/>
      <use x="717.089844" xlink:href="#ArialMT-116"/>
      <use x="744.873047" xlink:href="#ArialMT-101"/>
      <use x="800.488281" xlink:href="#ArialMT-114"/>
     </g>
    </g>
   </g>
  </g>
 </g>
 <defs>
  <clipPath id="p13cebcff64">
   <rect height="443.52" width="669.6" x="108" y="69.12"/>
  </clipPath>
 </defs>
</svg>
