<?xml version="1.0" encoding="utf-8" standalone="no"?>
<!DOCTYPE svg PUBLIC "-//W3C//DTD SVG 1.1//EN"
  "http://www.w3.org/Graphics/SVG/1.1/DTD/svg11.dtd">
<!-- Created with matplotlib (https://matplotlib.org/) -->
<svg height="288pt" version="1.1" viewBox="0 0 1152 288" width="1152pt" xmlns="http://www.w3.org/2000/svg" xmlns:xlink="http://www.w3.org/1999/xlink">
 <defs>
  <style type="text/css">
*{stroke-linecap:butt;stroke-linejoin:round;}
  </style>
 </defs>
 <g id="figure_1">
  <g id="patch_1">
   <path d="M 0 288 
L 1152 288 
L 1152 0 
L 0 0 
z
" style="fill:#ffffff;"/>
  </g>
  <g id="axes_1">
   <g id="patch_2">
    <path d="M 65.2725 96.12 
L 566.4825 96.12 
L 566.4825 33.444375 
L 65.2725 33.444375 
z
" style="fill:#eaeaf2;"/>
   </g>
   <g id="matplotlib.axis_1">
    <g id="xtick_1">
     <g id="line2d_1">
      <path clip-path="url(#p932ac191e2)" d="M 88.054773 96.12 
L 88.054773 33.444375 
" style="fill:none;stroke:#ffffff;stroke-linecap:round;"/>
     </g>
     <g id="text_1">
      <!-- 0 -->
      <defs>
       <path d="M 4.15625 35.296875 
Q 4.15625 48 6.765625 55.734375 
Q 9.375 63.484375 14.515625 67.671875 
Q 19.671875 71.875 27.484375 71.875 
Q 33.25 71.875 37.59375 69.546875 
Q 41.9375 67.234375 44.765625 62.859375 
Q 47.609375 58.5 49.21875 52.21875 
Q 50.828125 45.953125 50.828125 35.296875 
Q 50.828125 22.703125 48.234375 14.96875 
Q 45.65625 7.234375 40.5 3 
Q 35.359375 -1.21875 27.484375 -1.21875 
Q 17.140625 -1.21875 11.234375 6.203125 
Q 4.15625 15.140625 4.15625 35.296875 
z
M 13.1875 35.296875 
Q 13.1875 17.671875 17.3125 11.828125 
Q 21.4375 6 27.484375 6 
Q 33.546875 6 37.671875 11.859375 
Q 41.796875 17.71875 41.796875 35.296875 
Q 41.796875 52.984375 37.671875 58.78125 
Q 33.546875 64.59375 27.390625 64.59375 
Q 21.34375 64.59375 17.71875 59.46875 
Q 13.1875 52.9375 13.1875 35.296875 
z
" id="ArialMT-48"/>
      </defs>
      <g style="fill:#262626;" transform="translate(84.996257 113.493594)scale(0.11 -0.11)">
       <use xlink:href="#ArialMT-48"/>
      </g>
     </g>
    </g>
    <g id="xtick_2">
     <g id="line2d_2">
      <path clip-path="url(#p932ac191e2)" d="M 179.366487 96.12 
L 179.366487 33.444375 
" style="fill:none;stroke:#ffffff;stroke-linecap:round;"/>
     </g>
     <g id="text_2">
      <!-- 100 -->
      <defs>
       <path d="M 37.25 0 
L 28.46875 0 
L 28.46875 56 
Q 25.296875 52.984375 20.140625 49.953125 
Q 14.984375 46.921875 10.890625 45.40625 
L 10.890625 53.90625 
Q 18.265625 57.375 23.78125 62.296875 
Q 29.296875 67.234375 31.59375 71.875 
L 37.25 71.875 
z
" id="ArialMT-49"/>
      </defs>
      <g style="fill:#262626;" transform="translate(170.19094 113.493594)scale(0.11 -0.11)">
       <use xlink:href="#ArialMT-49"/>
       <use x="55.615234" xlink:href="#ArialMT-48"/>
       <use x="111.230469" xlink:href="#ArialMT-48"/>
      </g>
     </g>
    </g>
    <g id="xtick_3">
     <g id="line2d_3">
      <path clip-path="url(#p932ac191e2)" d="M 270.678201 96.12 
L 270.678201 33.444375 
" style="fill:none;stroke:#ffffff;stroke-linecap:round;"/>
     </g>
     <g id="text_3">
      <!-- 200 -->
      <defs>
       <path d="M 50.34375 8.453125 
L 50.34375 0 
L 3.03125 0 
Q 2.9375 3.171875 4.046875 6.109375 
Q 5.859375 10.9375 9.828125 15.625 
Q 13.8125 20.3125 21.34375 26.46875 
Q 33.015625 36.03125 37.109375 41.625 
Q 41.21875 47.21875 41.21875 52.203125 
Q 41.21875 57.421875 37.46875 61 
Q 33.734375 64.59375 27.734375 64.59375 
Q 21.390625 64.59375 17.578125 60.78125 
Q 13.765625 56.984375 13.71875 50.25 
L 4.6875 51.171875 
Q 5.609375 61.28125 11.65625 66.578125 
Q 17.71875 71.875 27.9375 71.875 
Q 38.234375 71.875 44.234375 66.15625 
Q 50.25 60.453125 50.25 52 
Q 50.25 47.703125 48.484375 43.546875 
Q 46.734375 39.40625 42.65625 34.8125 
Q 38.578125 30.21875 29.109375 22.21875 
Q 21.1875 15.578125 18.9375 13.203125 
Q 16.703125 10.84375 15.234375 8.453125 
z
" id="ArialMT-50"/>
      </defs>
      <g style="fill:#262626;" transform="translate(261.502655 113.493594)scale(0.11 -0.11)">
       <use xlink:href="#ArialMT-50"/>
       <use x="55.615234" xlink:href="#ArialMT-48"/>
       <use x="111.230469" xlink:href="#ArialMT-48"/>
      </g>
     </g>
    </g>
    <g id="xtick_4">
     <g id="line2d_4">
      <path clip-path="url(#p932ac191e2)" d="M 361.989916 96.12 
L 361.989916 33.444375 
" style="fill:none;stroke:#ffffff;stroke-linecap:round;"/>
     </g>
     <g id="text_4">
      <!-- 300 -->
      <defs>
       <path d="M 4.203125 18.890625 
L 12.984375 20.0625 
Q 14.5 12.59375 18.140625 9.296875 
Q 21.78125 6 27 6 
Q 33.203125 6 37.46875 10.296875 
Q 41.75 14.59375 41.75 20.953125 
Q 41.75 27 37.796875 30.921875 
Q 33.84375 34.859375 27.734375 34.859375 
Q 25.25 34.859375 21.53125 33.890625 
L 22.515625 41.609375 
Q 23.390625 41.5 23.921875 41.5 
Q 29.546875 41.5 34.03125 44.421875 
Q 38.53125 47.359375 38.53125 53.46875 
Q 38.53125 58.296875 35.25 61.46875 
Q 31.984375 64.65625 26.8125 64.65625 
Q 21.6875 64.65625 18.265625 61.421875 
Q 14.84375 58.203125 13.875 51.765625 
L 5.078125 53.328125 
Q 6.6875 62.15625 12.390625 67.015625 
Q 18.109375 71.875 26.609375 71.875 
Q 32.46875 71.875 37.390625 69.359375 
Q 42.328125 66.84375 44.9375 62.5 
Q 47.5625 58.15625 47.5625 53.265625 
Q 47.5625 48.640625 45.0625 44.828125 
Q 42.578125 41.015625 37.703125 38.765625 
Q 44.046875 37.3125 47.5625 32.6875 
Q 51.078125 28.078125 51.078125 21.140625 
Q 51.078125 11.765625 44.234375 5.25 
Q 37.40625 -1.265625 26.953125 -1.265625 
Q 17.53125 -1.265625 11.296875 4.34375 
Q 5.078125 9.96875 4.203125 18.890625 
z
" id="ArialMT-51"/>
      </defs>
      <g style="fill:#262626;" transform="translate(352.814369 113.493594)scale(0.11 -0.11)">
       <use xlink:href="#ArialMT-51"/>
       <use x="55.615234" xlink:href="#ArialMT-48"/>
       <use x="111.230469" xlink:href="#ArialMT-48"/>
      </g>
     </g>
    </g>
    <g id="xtick_5">
     <g id="line2d_5">
      <path clip-path="url(#p932ac191e2)" d="M 453.30163 96.12 
L 453.30163 33.444375 
" style="fill:none;stroke:#ffffff;stroke-linecap:round;"/>
     </g>
     <g id="text_5">
      <!-- 400 -->
      <defs>
       <path d="M 32.328125 0 
L 32.328125 17.140625 
L 1.265625 17.140625 
L 1.265625 25.203125 
L 33.9375 71.578125 
L 41.109375 71.578125 
L 41.109375 25.203125 
L 50.78125 25.203125 
L 50.78125 17.140625 
L 41.109375 17.140625 
L 41.109375 0 
z
M 32.328125 25.203125 
L 32.328125 57.46875 
L 9.90625 25.203125 
z
" id="ArialMT-52"/>
      </defs>
      <g style="fill:#262626;" transform="translate(444.126083 113.493594)scale(0.11 -0.11)">
       <use xlink:href="#ArialMT-52"/>
       <use x="55.615234" xlink:href="#ArialMT-48"/>
       <use x="111.230469" xlink:href="#ArialMT-48"/>
      </g>
     </g>
    </g>
    <g id="xtick_6">
     <g id="line2d_6">
      <path clip-path="url(#p932ac191e2)" d="M 544.613344 96.12 
L 544.613344 33.444375 
" style="fill:none;stroke:#ffffff;stroke-linecap:round;"/>
     </g>
     <g id="text_6">
      <!-- 500 -->
      <defs>
       <path d="M 4.15625 18.75 
L 13.375 19.53125 
Q 14.40625 12.796875 18.140625 9.390625 
Q 21.875 6 27.15625 6 
Q 33.5 6 37.890625 10.78125 
Q 42.28125 15.578125 42.28125 23.484375 
Q 42.28125 31 38.0625 35.34375 
Q 33.84375 39.703125 27 39.703125 
Q 22.75 39.703125 19.328125 37.765625 
Q 15.921875 35.84375 13.96875 32.765625 
L 5.71875 33.84375 
L 12.640625 70.609375 
L 48.25 70.609375 
L 48.25 62.203125 
L 19.671875 62.203125 
L 15.828125 42.96875 
Q 22.265625 47.46875 29.34375 47.46875 
Q 38.71875 47.46875 45.15625 40.96875 
Q 51.609375 34.46875 51.609375 24.265625 
Q 51.609375 14.546875 45.953125 7.46875 
Q 39.0625 -1.21875 27.15625 -1.21875 
Q 17.390625 -1.21875 11.203125 4.25 
Q 5.03125 9.71875 4.15625 18.75 
z
" id="ArialMT-53"/>
      </defs>
      <g style="fill:#262626;" transform="translate(535.437798 113.493594)scale(0.11 -0.11)">
       <use xlink:href="#ArialMT-53"/>
       <use x="55.615234" xlink:href="#ArialMT-48"/>
       <use x="111.230469" xlink:href="#ArialMT-48"/>
      </g>
     </g>
    </g>
    <g id="text_7">
     <!-- X -->
     <defs>
      <path d="M 0.4375 0 
L 28.125 37.3125 
L 3.71875 71.578125 
L 14.984375 71.578125 
L 27.984375 53.21875 
Q 32.03125 47.515625 33.734375 44.4375 
Q 36.140625 48.34375 39.40625 52.59375 
L 53.8125 71.578125 
L 64.109375 71.578125 
L 38.96875 37.84375 
L 66.0625 0 
L 54.34375 0 
L 36.328125 25.53125 
Q 34.8125 27.734375 33.203125 30.328125 
Q 30.8125 26.421875 29.78125 24.953125 
L 11.8125 0 
z
" id="ArialMT-88"/>
     </defs>
     <g style="fill:#262626;" transform="translate(309.874219 132.563906)scale(0.18 -0.18)">
      <use xlink:href="#ArialMT-88"/>
     </g>
    </g>
   </g>
   <g id="matplotlib.axis_2">
    <g id="ytick_1">
     <g id="line2d_7">
      <path clip-path="url(#p932ac191e2)" d="M 65.2725 83.878272 
L 566.4825 83.878272 
" style="fill:none;stroke:#ffffff;stroke-linecap:round;"/>
     </g>
     <g id="text_8">
      <!-- −2.5 -->
      <defs>
       <path d="M 52.828125 31.203125 
L 5.5625 31.203125 
L 5.5625 39.40625 
L 52.828125 39.40625 
z
" id="ArialMT-8722"/>
       <path d="M 9.078125 0 
L 9.078125 10.015625 
L 19.09375 10.015625 
L 19.09375 0 
z
" id="ArialMT-46"/>
      </defs>
      <g style="fill:#262626;" transform="translate(34.057812 87.815069)scale(0.11 -0.11)">
       <use xlink:href="#ArialMT-8722"/>
       <use x="58.398438" xlink:href="#ArialMT-50"/>
       <use x="114.013672" xlink:href="#ArialMT-46"/>
       <use x="141.796875" xlink:href="#ArialMT-53"/>
      </g>
     </g>
    </g>
    <g id="ytick_2">
     <g id="line2d_8">
      <path clip-path="url(#p932ac191e2)" d="M 65.2725 64.82141 
L 566.4825 64.82141 
" style="fill:none;stroke:#ffffff;stroke-linecap:round;"/>
     </g>
     <g id="text_9">
      <!-- 0.0 -->
      <g style="fill:#262626;" transform="translate(40.4825 68.758207)scale(0.11 -0.11)">
       <use xlink:href="#ArialMT-48"/>
       <use x="55.615234" xlink:href="#ArialMT-46"/>
       <use x="83.398438" xlink:href="#ArialMT-48"/>
      </g>
     </g>
    </g>
    <g id="ytick_3">
     <g id="line2d_9">
      <path clip-path="url(#p932ac191e2)" d="M 65.2725 45.764548 
L 566.4825 45.764548 
" style="fill:none;stroke:#ffffff;stroke-linecap:round;"/>
     </g>
     <g id="text_10">
      <!-- 2.5 -->
      <g style="fill:#262626;" transform="translate(40.4825 49.701345)scale(0.11 -0.11)">
       <use xlink:href="#ArialMT-50"/>
       <use x="55.615234" xlink:href="#ArialMT-46"/>
       <use x="83.398438" xlink:href="#ArialMT-53"/>
      </g>
     </g>
    </g>
    <g id="text_11">
     <!-- Y -->
     <defs>
      <path d="M 27.875 0 
L 27.875 30.328125 
L 0.296875 71.578125 
L 11.8125 71.578125 
L 25.921875 50 
Q 29.828125 43.953125 33.203125 37.890625 
Q 36.421875 43.5 41.015625 50.53125 
L 54.890625 71.578125 
L 65.921875 71.578125 
L 37.359375 30.328125 
L 37.359375 0 
z
" id="ArialMT-89"/>
     </defs>
     <g style="fill:#262626;" transform="translate(26.480312 70.785469)rotate(-90)scale(0.18 -0.18)">
      <use xlink:href="#ArialMT-89"/>
     </g>
    </g>
   </g>
   <g id="line2d_10">
    <path clip-path="url(#p932ac191e2)" d="M 88.054773 58.973815 
L 88.96789 61.334809 
L 89.881007 69.557841 
L 90.794124 64.58566 
L 91.707241 73.462313 
L 92.620358 53.517166 
L 93.533476 78.965065 
L 94.446593 75.951537 
L 95.35971 57.303918 
L 96.272827 62.040259 
L 97.185944 64.282123 
L 98.099061 55.818369 
L 99.012178 71.96638 
L 99.925296 64.841072 
L 100.838413 60.353533 
L 101.75153 59.872479 
L 102.664647 78.871349 
L 103.577764 65.158757 
L 104.490881 66.257811 
L 105.403998 60.311407 
L 106.317116 65.809546 
L 107.230233 73.682458 
L 108.14335 66.910201 
L 109.056467 56.292048 
L 109.969584 66.164763 
L 110.882701 60.381378 
L 111.795818 53.028419 
L 112.708936 63.93273 
L 113.622053 69.699643 
L 114.53517 65.400207 
L 116.361404 51.219454 
L 117.274521 70.920157 
L 118.187638 71.120892 
L 119.100756 70.148167 
L 120.013873 71.210427 
L 120.92699 45.865002 
L 121.840107 61.799648 
L 122.753224 63.96005 
L 123.666341 63.494411 
L 124.579458 70.376261 
L 125.492576 59.336608 
L 126.405693 72.03095 
L 128.231927 64.05689 
L 129.145044 67.213244 
L 130.058161 76.012483 
L 130.971278 70.721825 
L 131.884396 63.359114 
L 132.797513 68.265056 
L 133.71063 60.211188 
L 134.623747 68.858694 
L 135.536864 76.17266 
L 136.449981 71.885029 
L 137.363098 69.658211 
L 138.276216 60.110409 
L 139.189333 63.299602 
L 140.10245 69.363746 
L 141.015567 59.812751 
L 141.928684 57.403179 
L 142.841801 78.525453 
L 143.754918 64.053409 
L 144.668036 64.959225 
L 145.581153 58.574349 
L 146.49427 72.792062 
L 147.407387 73.790127 
L 148.320504 61.547776 
L 149.233621 45.715856 
L 150.146738 62.535659 
L 151.059856 74.721464 
L 151.972973 63.522057 
L 152.88609 62.191711 
L 153.799207 52.423647 
L 154.712324 65.096801 
L 155.625441 62.192331 
L 156.538558 51.519471 
L 157.451676 58.482461 
L 158.364793 52.756052 
L 159.27791 45.915547 
L 160.191027 64.843793 
L 161.104144 76.710353 
L 162.017261 83.95112 
L 162.930378 65.488476 
L 163.843496 74.352213 
L 164.756613 68.366944 
L 165.66973 59.291527 
L 166.582847 59.990436 
L 167.495964 66.983443 
L 168.409081 68.434771 
L 169.322198 62.37386 
L 170.235316 54.361286 
L 171.148433 59.899103 
L 172.06155 68.617389 
L 172.974667 61.516947 
L 173.887784 43.574004 
L 174.800901 60.809206 
L 175.714018 62.876666 
L 176.627136 65.693248 
L 177.540253 51.511164 
L 178.45337 70.558799 
L 179.366487 63.949163 
L 180.279604 65.394443 
L 181.192721 60.349527 
L 182.105838 70.624759 
L 183.018956 93.271108 
L 183.932073 76.472277 
L 184.84519 56.862773 
L 185.758307 61.425275 
L 186.671424 58.965088 
L 187.584541 61.170276 
L 188.497658 65.032441 
L 189.410776 75.781958 
L 190.323893 73.670729 
L 191.23701 67.861212 
L 192.150127 64.726284 
L 193.063244 60.993159 
L 193.976361 53.309675 
L 194.889479 58.97386 
L 195.802596 63.374088 
L 196.715713 59.147804 
L 197.62883 62.354872 
L 198.541947 68.826291 
L 199.455064 78.2593 
L 200.368181 66.909631 
L 201.281299 71.613996 
L 202.194416 52.876078 
L 203.107533 77.487376 
L 204.02065 67.924955 
L 204.933767 53.701856 
L 205.846884 63.978404 
L 206.760001 70.828255 
L 207.673119 74.30832 
L 208.586236 56.65928 
L 209.499353 45.767562 
L 210.41247 71.15292 
L 211.325587 70.962457 
L 212.238704 62.061059 
L 213.151821 71.379483 
L 214.064939 59.23575 
L 214.978056 60.871038 
L 215.891173 67.756107 
L 216.80429 57.439522 
L 217.717407 56.278141 
L 218.630524 66.350988 
L 219.543641 60.681647 
L 220.456759 70.316065 
L 222.282993 69.62814 
L 223.19611 67.047362 
L 224.109227 72.135233 
L 225.022344 52.634876 
L 225.935461 68.157604 
L 226.848579 63.777366 
L 227.761696 74.47193 
L 228.674813 68.642519 
L 229.58793 65.184905 
L 230.501047 64.711803 
L 231.414164 51.930065 
L 232.327281 63.840605 
L 233.240399 67.47814 
L 234.153516 76.385023 
L 235.066633 44.48911 
L 235.97975 55.972642 
L 236.892867 60.611458 
L 237.805984 63.465647 
L 238.719101 64.394831 
L 239.632219 67.858262 
L 240.545336 86.017776 
L 241.458453 67.879522 
L 242.37157 65.218887 
L 243.284687 60.54133 
L 244.197804 59.902711 
L 245.110921 66.488247 
L 246.024039 49.56894 
L 246.937156 61.155826 
L 247.850273 62.785035 
L 248.76339 60.467894 
L 250.589624 69.602721 
L 251.502741 64.165802 
L 252.415859 61.962328 
L 253.328976 63.203921 
L 254.242093 71.832559 
L 255.15521 62.046444 
L 256.068327 78.949931 
L 256.981444 57.997937 
L 257.894561 72.570861 
L 258.807679 46.444752 
L 259.720796 68.50704 
L 260.633913 65.97508 
L 261.54703 64.34344 
L 262.460147 66.418482 
L 263.373264 73.648472 
L 264.286381 78.654269 
L 265.199499 65.96524 
L 266.112616 64.288839 
L 267.025733 65.306447 
L 267.93885 68.528094 
L 268.851967 62.652904 
L 269.765084 62.869312 
L 270.678201 60.946273 
L 271.591319 61.255801 
L 272.504436 61.878487 
L 273.417553 63.596258 
L 274.33067 70.37798 
L 276.156904 58.200097 
L 277.070021 78.215358 
L 277.983139 64.396632 
L 278.896256 69.775981 
L 279.809373 59.583843 
L 280.72249 58.302537 
L 281.635607 69.249437 
L 282.548724 63.320282 
L 283.461841 62.061845 
L 284.374959 53.823453 
L 285.288076 58.132963 
L 286.201193 68.896986 
L 287.11431 55.228195 
L 288.027427 67.588233 
L 288.940544 62.510995 
L 289.853661 74.44718 
L 290.766779 76.975464 
L 291.679896 63.536577 
L 292.593013 56.10961 
L 293.50613 55.076291 
L 295.332364 63.650139 
L 296.245481 55.599894 
L 297.158599 72.333238 
L 298.071716 59.705824 
L 298.984833 70.467846 
L 299.89795 73.038657 
L 300.811067 49.099834 
L 301.724184 69.702022 
L 302.637301 60.733068 
L 303.550419 76.112547 
L 304.463536 40.816983 
L 305.376653 71.821852 
L 306.28977 65.685965 
L 307.202887 62.782004 
L 308.116004 61.341022 
L 309.029121 70.134414 
L 309.942239 72.629677 
L 310.855356 66.710117 
L 311.768473 56.256757 
L 312.68159 68.015596 
L 313.594707 71.607046 
L 314.507824 65.253774 
L 315.420941 69.888405 
L 316.334059 69.526973 
L 317.247176 58.03654 
L 318.160293 57.163224 
L 319.07341 61.026508 
L 319.986527 70.603368 
L 320.899644 64.738154 
L 321.812761 65.795618 
L 322.725879 62.978799 
L 323.638996 68.010232 
L 324.552113 62.48973 
L 325.46523 72.43405 
L 326.378347 73.410038 
L 327.291464 61.751575 
L 328.204581 79.229881 
L 329.117699 74.078463 
L 330.030816 65.392093 
L 330.943933 61.766702 
L 331.85705 59.880062 
L 332.770167 70.313495 
L 333.683284 58.482707 
L 334.596401 68.102126 
L 335.509519 66.733388 
L 336.422636 61.387166 
L 337.335753 64.910749 
L 338.24887 59.970511 
L 339.161987 67.751733 
L 340.075104 63.797388 
L 340.988221 78.297138 
L 341.901339 57.42937 
L 342.814456 78.099997 
L 343.727573 75.944001 
L 344.64069 63.961455 
L 345.553807 61.783786 
L 346.466924 62.488939 
L 347.380041 65.81544 
L 348.293159 65.973021 
L 349.206276 69.843151 
L 350.119393 67.25703 
L 351.03251 74.488831 
L 351.945627 69.110939 
L 352.858744 65.694604 
L 353.771861 66.054942 
L 354.684979 55.596067 
L 355.598096 48.536447 
L 356.511213 77.663076 
L 357.42433 57.661969 
L 358.337447 58.411313 
L 359.250564 58.126405 
L 360.163681 66.620775 
L 361.076799 64.90743 
L 361.989916 64.381066 
L 362.903033 79.847137 
L 363.81615 80.200857 
L 364.729267 64.048552 
L 365.642384 73.050086 
L 366.555501 70.680172 
L 367.468619 74.320872 
L 368.381736 76.505405 
L 369.294853 72.620117 
L 370.20797 61.560406 
L 371.121087 81.931567 
L 372.034204 66.967556 
L 372.947321 70.741949 
L 373.860439 57.247377 
L 374.773556 60.576438 
L 375.686673 62.415183 
L 376.59979 54.438368 
L 377.512907 66.95636 
L 378.426024 58.496986 
L 379.339141 65.739757 
L 380.252259 62.115145 
L 381.165376 70.984217 
L 382.078493 59.32256 
L 382.99161 65.700713 
L 383.904727 70.855212 
L 384.817844 55.553308 
L 385.730961 79.122821 
L 386.644079 76.58382 
L 387.557196 61.718791 
L 388.470313 57.577379 
L 389.38343 72.718689 
L 390.296547 80.513698 
L 391.209664 66.967635 
L 392.122781 51.519287 
L 393.035899 62.065305 
L 393.949016 56.546402 
L 394.862133 53.899111 
L 395.77525 71.3803 
L 396.688367 64.203338 
L 397.601484 63.708464 
L 398.514601 73.302935 
L 399.427719 68.862373 
L 400.340836 59.325838 
L 401.253953 67.865118 
L 402.16707 68.972098 
L 403.080187 54.836602 
L 403.993304 70.941037 
L 404.906421 58.100832 
L 406.732656 72.687143 
L 407.645773 71.160336 
L 408.55889 61.662426 
L 409.472007 64.348517 
L 410.385124 80.924575 
L 411.298241 50.841814 
L 412.211359 54.394124 
L 413.124476 66.669027 
L 414.037593 53.682703 
L 414.95071 68.23624 
L 415.863827 60.048545 
L 416.776944 61.719503 
L 417.690061 58.362316 
L 418.603179 71.541198 
L 419.516296 63.37035 
L 420.429413 73.074952 
L 421.34253 63.665621 
L 422.255647 72.435308 
L 423.168764 59.966018 
L 424.081881 60.771123 
L 424.994999 63.030971 
L 425.908116 74.156704 
L 426.821233 60.858497 
L 427.73435 66.680081 
L 428.647467 66.507754 
L 429.560584 67.906827 
L 430.473701 66.658856 
L 431.386819 64.506029 
L 432.299936 64.431544 
L 433.213053 36.293267 
L 434.12617 64.324208 
L 435.039287 64.554376 
L 435.952404 62.00132 
L 436.865521 70.727668 
L 437.778639 77.430095 
L 438.691756 60.39827 
L 439.604873 50.904972 
L 440.51799 58.426915 
L 441.431107 64.496189 
L 442.344224 53.008519 
L 443.257342 59.811185 
L 444.170459 79.541161 
L 445.083576 54.849609 
L 445.996693 54.743296 
L 446.90981 70.110055 
L 447.822927 52.380508 
L 448.736044 57.124889 
L 449.649162 54.05341 
L 450.562279 55.818935 
L 451.475396 58.436104 
L 452.388513 75.793945 
L 453.30163 75.629587 
L 454.214747 66.624624 
L 455.127864 63.633131 
L 456.040982 50.557949 
L 456.954099 70.81863 
L 457.867216 68.264566 
L 458.780333 61.910712 
L 459.69345 63.00952 
L 460.606567 60.024979 
L 461.519684 73.280476 
L 462.432802 63.646703 
L 463.345919 74.053432 
L 464.259036 55.560419 
L 465.172153 61.315494 
L 466.08527 72.389883 
L 466.998387 58.569862 
L 467.911504 66.419423 
L 468.824622 65.069382 
L 469.737739 63.165614 
L 471.563973 63.822482 
L 472.47709 68.7915 
L 473.390207 61.890969 
L 474.303324 65.32708 
L 475.216442 63.79687 
L 476.129559 68.741084 
L 477.042676 71.934071 
L 477.955793 61.820342 
L 478.86891 46.545533 
L 479.782027 54.901412 
L 480.695144 76.36903 
L 481.608262 72.318725 
L 482.521379 54.32885 
L 483.434496 70.701339 
L 484.347613 56.201609 
L 485.26073 72.427794 
L 486.173847 72.638346 
L 487.086964 77.13378 
L 488.000082 68.675649 
L 488.913199 65.74642 
L 489.826316 67.431499 
L 490.739433 70.142658 
L 491.65255 63.811613 
L 492.565667 67.927557 
L 493.478784 53.930259 
L 494.391902 64.337005 
L 495.305019 69.251809 
L 496.218136 55.802802 
L 497.131253 65.554157 
L 498.04437 68.009825 
L 498.957487 69.757952 
L 499.870604 72.452667 
L 500.783722 61.128282 
L 501.696839 62.221908 
L 502.609956 55.683233 
L 503.523073 67.57025 
L 504.43619 67.310704 
L 505.349307 62.651781 
L 506.262424 58.885447 
L 507.175542 70.959209 
L 508.088659 66.298409 
L 509.001776 77.821697 
L 509.914893 71.641667 
L 510.82801 49.382138 
L 512.654244 75.167235 
L 513.567362 76.333666 
L 514.480479 62.451257 
L 515.393596 64.742112 
L 516.306713 64.579273 
L 517.21983 61.191124 
L 518.132947 58.777836 
L 519.046064 55.61007 
L 519.959182 49.578463 
L 520.872299 49.713398 
L 521.785416 58.947388 
L 522.698533 62.742971 
L 523.61165 63.347589 
L 524.524767 59.881651 
L 525.437884 67.784584 
L 527.264119 57.587293 
L 528.177236 64.736199 
L 529.090353 54.956901 
L 530.00347 57.01362 
L 530.916587 55.567457 
L 531.829704 54.429886 
L 532.742822 70.27246 
L 533.655939 68.168194 
L 534.569056 64.24061 
L 535.482173 72.866037 
L 536.39529 64.353676 
L 537.308407 66.549297 
L 538.221524 60.922354 
L 539.134642 64.400364 
L 540.047759 71.398113 
L 540.960876 66.965002 
L 541.873993 72.440865 
L 542.78711 72.384278 
L 543.700227 61.907633 
L 543.700227 61.907633 
" style="fill:none;stroke:#4c72b0;stroke-linecap:round;stroke-width:1.5;"/>
   </g>
   <g id="patch_3">
    <path d="M 65.2725 96.12 
L 65.2725 33.444375 
" style="fill:none;stroke:#ffffff;stroke-linecap:square;stroke-linejoin:miter;stroke-width:1.25;"/>
   </g>
   <g id="patch_4">
    <path d="M 566.4825 96.12 
L 566.4825 33.444375 
" style="fill:none;stroke:#ffffff;stroke-linecap:square;stroke-linejoin:miter;stroke-width:1.25;"/>
   </g>
   <g id="patch_5">
    <path d="M 65.2725 96.12 
L 566.4825 96.12 
" style="fill:none;stroke:#ffffff;stroke-linecap:square;stroke-linejoin:miter;stroke-width:1.25;"/>
   </g>
   <g id="patch_6">
    <path d="M 65.2725 33.444375 
L 566.4825 33.444375 
" style="fill:none;stroke:#ffffff;stroke-linecap:square;stroke-linejoin:miter;stroke-width:1.25;"/>
   </g>
   <g id="text_12">
    <!-- Random Excitation Signal -->
    <defs>
     <path d="M 7.859375 0 
L 7.859375 71.578125 
L 39.59375 71.578125 
Q 49.171875 71.578125 54.140625 69.640625 
Q 59.125 67.71875 62.109375 62.828125 
Q 65.09375 57.953125 65.09375 52.046875 
Q 65.09375 44.4375 60.15625 39.203125 
Q 55.21875 33.984375 44.921875 32.5625 
Q 48.6875 30.765625 50.640625 29 
Q 54.78125 25.203125 58.5 19.484375 
L 70.953125 0 
L 59.03125 0 
L 49.5625 14.890625 
Q 45.40625 21.34375 42.71875 24.75 
Q 40.046875 28.171875 37.921875 29.53125 
Q 35.796875 30.90625 33.59375 31.453125 
Q 31.984375 31.78125 28.328125 31.78125 
L 17.328125 31.78125 
L 17.328125 0 
z
M 17.328125 39.984375 
L 37.703125 39.984375 
Q 44.1875 39.984375 47.84375 41.328125 
Q 51.515625 42.671875 53.421875 45.625 
Q 55.328125 48.578125 55.328125 52.046875 
Q 55.328125 57.125 51.640625 60.390625 
Q 47.953125 63.671875 39.984375 63.671875 
L 17.328125 63.671875 
z
" id="ArialMT-82"/>
     <path d="M 40.4375 6.390625 
Q 35.546875 2.25 31.03125 0.53125 
Q 26.515625 -1.171875 21.34375 -1.171875 
Q 12.796875 -1.171875 8.203125 3 
Q 3.609375 7.171875 3.609375 13.671875 
Q 3.609375 17.484375 5.34375 20.625 
Q 7.078125 23.78125 9.890625 25.6875 
Q 12.703125 27.59375 16.21875 28.5625 
Q 18.796875 29.25 24.03125 29.890625 
Q 34.671875 31.15625 39.703125 32.90625 
Q 39.75 34.71875 39.75 35.203125 
Q 39.75 40.578125 37.25 42.78125 
Q 33.890625 45.75 27.25 45.75 
Q 21.046875 45.75 18.09375 43.578125 
Q 15.140625 41.40625 13.71875 35.890625 
L 5.125 37.0625 
Q 6.296875 42.578125 8.984375 45.96875 
Q 11.671875 49.359375 16.75 51.1875 
Q 21.828125 53.03125 28.515625 53.03125 
Q 35.15625 53.03125 39.296875 51.46875 
Q 43.453125 49.90625 45.40625 47.53125 
Q 47.359375 45.171875 48.140625 41.546875 
Q 48.578125 39.3125 48.578125 33.453125 
L 48.578125 21.734375 
Q 48.578125 9.46875 49.140625 6.21875 
Q 49.703125 2.984375 51.375 0 
L 42.1875 0 
Q 40.828125 2.734375 40.4375 6.390625 
z
M 39.703125 26.03125 
Q 34.90625 24.078125 25.34375 22.703125 
Q 19.921875 21.921875 17.671875 20.9375 
Q 15.4375 19.96875 14.203125 18.09375 
Q 12.984375 16.21875 12.984375 13.921875 
Q 12.984375 10.40625 15.640625 8.0625 
Q 18.3125 5.71875 23.4375 5.71875 
Q 28.515625 5.71875 32.46875 7.9375 
Q 36.421875 10.15625 38.28125 14.015625 
Q 39.703125 17 39.703125 22.796875 
z
" id="ArialMT-97"/>
     <path d="M 6.59375 0 
L 6.59375 51.859375 
L 14.5 51.859375 
L 14.5 44.484375 
Q 20.21875 53.03125 31 53.03125 
Q 35.6875 53.03125 39.625 51.34375 
Q 43.5625 49.65625 45.515625 46.921875 
Q 47.46875 44.1875 48.25 40.4375 
Q 48.734375 37.984375 48.734375 31.890625 
L 48.734375 0 
L 39.9375 0 
L 39.9375 31.546875 
Q 39.9375 36.921875 38.90625 39.578125 
Q 37.890625 42.234375 35.28125 43.8125 
Q 32.671875 45.40625 29.15625 45.40625 
Q 23.53125 45.40625 19.453125 41.84375 
Q 15.375 38.28125 15.375 28.328125 
L 15.375 0 
z
" id="ArialMT-110"/>
     <path d="M 40.234375 0 
L 40.234375 6.546875 
Q 35.296875 -1.171875 25.734375 -1.171875 
Q 19.53125 -1.171875 14.328125 2.25 
Q 9.125 5.671875 6.265625 11.796875 
Q 3.421875 17.921875 3.421875 25.875 
Q 3.421875 33.640625 6 39.96875 
Q 8.59375 46.296875 13.765625 49.65625 
Q 18.953125 53.03125 25.34375 53.03125 
Q 30.03125 53.03125 33.6875 51.046875 
Q 37.359375 49.078125 39.65625 45.90625 
L 39.65625 71.578125 
L 48.390625 71.578125 
L 48.390625 0 
z
M 12.453125 25.875 
Q 12.453125 15.921875 16.640625 10.984375 
Q 20.84375 6.0625 26.5625 6.0625 
Q 32.328125 6.0625 36.34375 10.765625 
Q 40.375 15.484375 40.375 25.140625 
Q 40.375 35.796875 36.265625 40.765625 
Q 32.171875 45.75 26.171875 45.75 
Q 20.3125 45.75 16.375 40.96875 
Q 12.453125 36.1875 12.453125 25.875 
z
" id="ArialMT-100"/>
     <path d="M 3.328125 25.921875 
Q 3.328125 40.328125 11.328125 47.265625 
Q 18.015625 53.03125 27.640625 53.03125 
Q 38.328125 53.03125 45.109375 46.015625 
Q 51.90625 39.015625 51.90625 26.65625 
Q 51.90625 16.65625 48.90625 10.90625 
Q 45.90625 5.171875 40.15625 2 
Q 34.421875 -1.171875 27.640625 -1.171875 
Q 16.75 -1.171875 10.03125 5.8125 
Q 3.328125 12.796875 3.328125 25.921875 
z
M 12.359375 25.921875 
Q 12.359375 15.96875 16.703125 11.015625 
Q 21.046875 6.0625 27.640625 6.0625 
Q 34.1875 6.0625 38.53125 11.03125 
Q 42.875 16.015625 42.875 26.21875 
Q 42.875 35.84375 38.5 40.796875 
Q 34.125 45.75 27.640625 45.75 
Q 21.046875 45.75 16.703125 40.8125 
Q 12.359375 35.890625 12.359375 25.921875 
z
" id="ArialMT-111"/>
     <path d="M 6.59375 0 
L 6.59375 51.859375 
L 14.453125 51.859375 
L 14.453125 44.578125 
Q 16.890625 48.390625 20.9375 50.703125 
Q 25 53.03125 30.171875 53.03125 
Q 35.9375 53.03125 39.625 50.640625 
Q 43.3125 48.25 44.828125 43.953125 
Q 50.984375 53.03125 60.84375 53.03125 
Q 68.5625 53.03125 72.703125 48.75 
Q 76.859375 44.484375 76.859375 35.59375 
L 76.859375 0 
L 68.109375 0 
L 68.109375 32.671875 
Q 68.109375 37.9375 67.25 40.25 
Q 66.40625 42.578125 64.15625 43.984375 
Q 61.921875 45.40625 58.890625 45.40625 
Q 53.421875 45.40625 49.796875 41.765625 
Q 46.1875 38.140625 46.1875 30.125 
L 46.1875 0 
L 37.40625 0 
L 37.40625 33.6875 
Q 37.40625 39.546875 35.25 42.46875 
Q 33.109375 45.40625 28.21875 45.40625 
Q 24.515625 45.40625 21.359375 43.453125 
Q 18.21875 41.5 16.796875 37.734375 
Q 15.375 33.984375 15.375 26.90625 
L 15.375 0 
z
" id="ArialMT-109"/>
     <path id="ArialMT-32"/>
     <path d="M 7.90625 0 
L 7.90625 71.578125 
L 59.671875 71.578125 
L 59.671875 63.140625 
L 17.390625 63.140625 
L 17.390625 41.21875 
L 56.984375 41.21875 
L 56.984375 32.8125 
L 17.390625 32.8125 
L 17.390625 8.453125 
L 61.328125 8.453125 
L 61.328125 0 
z
" id="ArialMT-69"/>
     <path d="M 0.734375 0 
L 19.671875 26.953125 
L 2.15625 51.859375 
L 13.140625 51.859375 
L 21.09375 39.703125 
Q 23.34375 36.234375 24.703125 33.890625 
Q 26.859375 37.109375 28.65625 39.59375 
L 37.40625 51.859375 
L 47.90625 51.859375 
L 29.984375 27.4375 
L 49.265625 0 
L 38.484375 0 
L 27.828125 16.109375 
L 25 20.453125 
L 11.375 0 
z
" id="ArialMT-120"/>
     <path d="M 40.4375 19 
L 49.078125 17.875 
Q 47.65625 8.9375 41.8125 3.875 
Q 35.984375 -1.171875 27.484375 -1.171875 
Q 16.84375 -1.171875 10.375 5.78125 
Q 3.90625 12.75 3.90625 25.734375 
Q 3.90625 34.125 6.6875 40.421875 
Q 9.46875 46.734375 15.15625 49.875 
Q 20.84375 53.03125 27.546875 53.03125 
Q 35.984375 53.03125 41.359375 48.75 
Q 46.734375 44.484375 48.25 36.625 
L 39.703125 35.296875 
Q 38.484375 40.53125 35.375 43.15625 
Q 32.28125 45.796875 27.875 45.796875 
Q 21.234375 45.796875 17.078125 41.03125 
Q 12.9375 36.28125 12.9375 25.984375 
Q 12.9375 15.53125 16.9375 10.796875 
Q 20.953125 6.0625 27.390625 6.0625 
Q 32.5625 6.0625 36.03125 9.234375 
Q 39.5 12.40625 40.4375 19 
z
" id="ArialMT-99"/>
     <path d="M 6.640625 61.46875 
L 6.640625 71.578125 
L 15.4375 71.578125 
L 15.4375 61.46875 
z
M 6.640625 0 
L 6.640625 51.859375 
L 15.4375 51.859375 
L 15.4375 0 
z
" id="ArialMT-105"/>
     <path d="M 25.78125 7.859375 
L 27.046875 0.09375 
Q 23.34375 -0.6875 20.40625 -0.6875 
Q 15.625 -0.6875 12.984375 0.828125 
Q 10.359375 2.34375 9.28125 4.8125 
Q 8.203125 7.28125 8.203125 15.1875 
L 8.203125 45.015625 
L 1.765625 45.015625 
L 1.765625 51.859375 
L 8.203125 51.859375 
L 8.203125 64.703125 
L 16.9375 69.96875 
L 16.9375 51.859375 
L 25.78125 51.859375 
L 25.78125 45.015625 
L 16.9375 45.015625 
L 16.9375 14.703125 
Q 16.9375 10.9375 17.40625 9.859375 
Q 17.875 8.796875 18.921875 8.15625 
Q 19.96875 7.515625 21.921875 7.515625 
Q 23.390625 7.515625 25.78125 7.859375 
z
" id="ArialMT-116"/>
     <path d="M 4.5 23 
L 13.421875 23.78125 
Q 14.0625 18.40625 16.375 14.96875 
Q 18.703125 11.53125 23.578125 9.40625 
Q 28.46875 7.28125 34.578125 7.28125 
Q 39.984375 7.28125 44.140625 8.890625 
Q 48.296875 10.5 50.3125 13.296875 
Q 52.34375 16.109375 52.34375 19.4375 
Q 52.34375 22.796875 50.390625 25.3125 
Q 48.4375 27.828125 43.953125 29.546875 
Q 41.0625 30.671875 31.203125 33.03125 
Q 21.34375 35.40625 17.390625 37.5 
Q 12.25 40.1875 9.734375 44.15625 
Q 7.234375 48.140625 7.234375 53.078125 
Q 7.234375 58.5 10.296875 63.203125 
Q 13.375 67.921875 19.28125 70.359375 
Q 25.203125 72.796875 32.421875 72.796875 
Q 40.375 72.796875 46.453125 70.234375 
Q 52.546875 67.671875 55.8125 62.6875 
Q 59.078125 57.71875 59.328125 51.421875 
L 50.25 50.734375 
Q 49.515625 57.515625 45.28125 60.984375 
Q 41.0625 64.453125 32.8125 64.453125 
Q 24.21875 64.453125 20.28125 61.296875 
Q 16.359375 58.15625 16.359375 53.71875 
Q 16.359375 49.859375 19.140625 47.359375 
Q 21.875 44.875 33.421875 42.265625 
Q 44.96875 39.65625 49.265625 37.703125 
Q 55.515625 34.8125 58.484375 30.390625 
Q 61.46875 25.984375 61.46875 20.21875 
Q 61.46875 14.5 58.203125 9.4375 
Q 54.9375 4.390625 48.796875 1.578125 
Q 42.671875 -1.21875 35.015625 -1.21875 
Q 25.296875 -1.21875 18.71875 1.609375 
Q 12.15625 4.4375 8.421875 10.125 
Q 4.6875 15.828125 4.5 23 
z
" id="ArialMT-83"/>
     <path d="M 4.984375 -4.296875 
L 13.53125 -5.5625 
Q 14.0625 -9.515625 16.5 -11.328125 
Q 19.78125 -13.765625 25.4375 -13.765625 
Q 31.546875 -13.765625 34.859375 -11.328125 
Q 38.1875 -8.890625 39.359375 -4.5 
Q 40.046875 -1.8125 39.984375 6.78125 
Q 34.234375 0 25.640625 0 
Q 14.9375 0 9.078125 7.71875 
Q 3.21875 15.4375 3.21875 26.21875 
Q 3.21875 33.640625 5.90625 39.90625 
Q 8.59375 46.1875 13.6875 49.609375 
Q 18.796875 53.03125 25.6875 53.03125 
Q 34.859375 53.03125 40.828125 45.609375 
L 40.828125 51.859375 
L 48.921875 51.859375 
L 48.921875 7.03125 
Q 48.921875 -5.078125 46.453125 -10.125 
Q 44 -15.1875 38.640625 -18.109375 
Q 33.296875 -21.046875 25.484375 -21.046875 
Q 16.21875 -21.046875 10.5 -16.875 
Q 4.78125 -12.703125 4.984375 -4.296875 
z
M 12.25 26.859375 
Q 12.25 16.65625 16.296875 11.96875 
Q 20.359375 7.28125 26.46875 7.28125 
Q 32.515625 7.28125 36.609375 11.9375 
Q 40.71875 16.609375 40.71875 26.5625 
Q 40.71875 36.078125 36.5 40.90625 
Q 32.28125 45.75 26.3125 45.75 
Q 20.453125 45.75 16.34375 40.984375 
Q 12.25 36.234375 12.25 26.859375 
z
" id="ArialMT-103"/>
     <path d="M 6.390625 0 
L 6.390625 71.578125 
L 15.1875 71.578125 
L 15.1875 0 
z
" id="ArialMT-108"/>
    </defs>
    <g style="fill:#262626;" transform="translate(201.375937 27.444375)scale(0.2 -0.2)">
     <use xlink:href="#ArialMT-82"/>
     <use x="72.216797" xlink:href="#ArialMT-97"/>
     <use x="127.832031" xlink:href="#ArialMT-110"/>
     <use x="183.447266" xlink:href="#ArialMT-100"/>
     <use x="239.0625" xlink:href="#ArialMT-111"/>
     <use x="294.677734" xlink:href="#ArialMT-109"/>
     <use x="377.978516" xlink:href="#ArialMT-32"/>
     <use x="405.761719" xlink:href="#ArialMT-69"/>
     <use x="472.460938" xlink:href="#ArialMT-120"/>
     <use x="522.460938" xlink:href="#ArialMT-99"/>
     <use x="572.460938" xlink:href="#ArialMT-105"/>
     <use x="594.677734" xlink:href="#ArialMT-116"/>
     <use x="622.460938" xlink:href="#ArialMT-97"/>
     <use x="678.076172" xlink:href="#ArialMT-116"/>
     <use x="705.859375" xlink:href="#ArialMT-105"/>
     <use x="728.076172" xlink:href="#ArialMT-111"/>
     <use x="783.691406" xlink:href="#ArialMT-110"/>
     <use x="839.306641" xlink:href="#ArialMT-32"/>
     <use x="867.089844" xlink:href="#ArialMT-83"/>
     <use x="933.789062" xlink:href="#ArialMT-105"/>
     <use x="956.005859" xlink:href="#ArialMT-103"/>
     <use x="1011.621094" xlink:href="#ArialMT-110"/>
     <use x="1067.236328" xlink:href="#ArialMT-97"/>
     <use x="1122.851562" xlink:href="#ArialMT-108"/>
    </g>
   </g>
  </g>
  <g id="axes_2">
   <g id="patch_7">
    <path d="M 637.83 96.12 
L 1139.04 96.12 
L 1139.04 33.444375 
L 637.83 33.444375 
z
" style="fill:#eaeaf2;"/>
   </g>
   <g id="matplotlib.axis_3">
    <g id="xtick_7">
     <g id="line2d_11">
      <path clip-path="url(#pd53c0d4ff2)" d="M 660.612273 96.12 
L 660.612273 33.444375 
" style="fill:none;stroke:#ffffff;stroke-linecap:round;"/>
     </g>
     <g id="text_13">
      <!-- 0 -->
      <g style="fill:#262626;" transform="translate(657.553757 113.493594)scale(0.11 -0.11)">
       <use xlink:href="#ArialMT-48"/>
      </g>
     </g>
    </g>
    <g id="xtick_8">
     <g id="line2d_12">
      <path clip-path="url(#pd53c0d4ff2)" d="M 751.923987 96.12 
L 751.923987 33.444375 
" style="fill:none;stroke:#ffffff;stroke-linecap:round;"/>
     </g>
     <g id="text_14">
      <!-- 100 -->
      <g style="fill:#262626;" transform="translate(742.74844 113.493594)scale(0.11 -0.11)">
       <use xlink:href="#ArialMT-49"/>
       <use x="55.615234" xlink:href="#ArialMT-48"/>
       <use x="111.230469" xlink:href="#ArialMT-48"/>
      </g>
     </g>
    </g>
    <g id="xtick_9">
     <g id="line2d_13">
      <path clip-path="url(#pd53c0d4ff2)" d="M 843.235701 96.12 
L 843.235701 33.444375 
" style="fill:none;stroke:#ffffff;stroke-linecap:round;"/>
     </g>
     <g id="text_15">
      <!-- 200 -->
      <g style="fill:#262626;" transform="translate(834.060155 113.493594)scale(0.11 -0.11)">
       <use xlink:href="#ArialMT-50"/>
       <use x="55.615234" xlink:href="#ArialMT-48"/>
       <use x="111.230469" xlink:href="#ArialMT-48"/>
      </g>
     </g>
    </g>
    <g id="xtick_10">
     <g id="line2d_14">
      <path clip-path="url(#pd53c0d4ff2)" d="M 934.547416 96.12 
L 934.547416 33.444375 
" style="fill:none;stroke:#ffffff;stroke-linecap:round;"/>
     </g>
     <g id="text_16">
      <!-- 300 -->
      <g style="fill:#262626;" transform="translate(925.371869 113.493594)scale(0.11 -0.11)">
       <use xlink:href="#ArialMT-51"/>
       <use x="55.615234" xlink:href="#ArialMT-48"/>
       <use x="111.230469" xlink:href="#ArialMT-48"/>
      </g>
     </g>
    </g>
    <g id="xtick_11">
     <g id="line2d_15">
      <path clip-path="url(#pd53c0d4ff2)" d="M 1025.85913 96.12 
L 1025.85913 33.444375 
" style="fill:none;stroke:#ffffff;stroke-linecap:round;"/>
     </g>
     <g id="text_17">
      <!-- 400 -->
      <g style="fill:#262626;" transform="translate(1016.683583 113.493594)scale(0.11 -0.11)">
       <use xlink:href="#ArialMT-52"/>
       <use x="55.615234" xlink:href="#ArialMT-48"/>
       <use x="111.230469" xlink:href="#ArialMT-48"/>
      </g>
     </g>
    </g>
    <g id="xtick_12">
     <g id="line2d_16">
      <path clip-path="url(#pd53c0d4ff2)" d="M 1117.170844 96.12 
L 1117.170844 33.444375 
" style="fill:none;stroke:#ffffff;stroke-linecap:round;"/>
     </g>
     <g id="text_18">
      <!-- 500 -->
      <g style="fill:#262626;" transform="translate(1107.995298 113.493594)scale(0.11 -0.11)">
       <use xlink:href="#ArialMT-53"/>
       <use x="55.615234" xlink:href="#ArialMT-48"/>
       <use x="111.230469" xlink:href="#ArialMT-48"/>
      </g>
     </g>
    </g>
    <g id="text_19">
     <!-- X -->
     <g style="fill:#262626;" transform="translate(882.431719 132.563906)scale(0.18 -0.18)">
      <use xlink:href="#ArialMT-88"/>
     </g>
    </g>
   </g>
   <g id="matplotlib.axis_4">
    <g id="ytick_4">
     <g id="line2d_17">
      <path clip-path="url(#pd53c0d4ff2)" d="M 637.83 93.271108 
L 1139.04 93.271108 
" style="fill:none;stroke:#ffffff;stroke-linecap:round;"/>
     </g>
     <g id="text_20">
      <!-- 1.3 -->
      <g style="fill:#262626;" transform="translate(613.04 97.207905)scale(0.11 -0.11)">
       <use xlink:href="#ArialMT-49"/>
       <use x="55.615234" xlink:href="#ArialMT-46"/>
       <use x="83.398438" xlink:href="#ArialMT-51"/>
      </g>
     </g>
    </g>
    <g id="ytick_5">
     <g id="line2d_18">
      <path clip-path="url(#pd53c0d4ff2)" d="M 637.83 64.782188 
L 1139.04 64.782188 
" style="fill:none;stroke:#ffffff;stroke-linecap:round;"/>
     </g>
     <g id="text_21">
      <!-- 1.4 -->
      <g style="fill:#262626;" transform="translate(613.04 68.718984)scale(0.11 -0.11)">
       <use xlink:href="#ArialMT-49"/>
       <use x="55.615234" xlink:href="#ArialMT-46"/>
       <use x="83.398438" xlink:href="#ArialMT-52"/>
      </g>
     </g>
    </g>
    <g id="ytick_6">
     <g id="line2d_19">
      <path clip-path="url(#pd53c0d4ff2)" d="M 637.83 36.293267 
L 1139.04 36.293267 
" style="fill:none;stroke:#ffffff;stroke-linecap:round;"/>
     </g>
     <g id="text_22">
      <!-- 1.5 -->
      <g style="fill:#262626;" transform="translate(613.04 40.230064)scale(0.11 -0.11)">
       <use xlink:href="#ArialMT-49"/>
       <use x="55.615234" xlink:href="#ArialMT-46"/>
       <use x="83.398438" xlink:href="#ArialMT-53"/>
      </g>
     </g>
    </g>
    <g id="text_23">
     <!-- Y -->
     <g style="fill:#262626;" transform="translate(605.4625 70.785469)rotate(-90)scale(0.18 -0.18)">
      <use xlink:href="#ArialMT-89"/>
     </g>
    </g>
   </g>
   <g id="line2d_20">
    <path clip-path="url(#pd53c0d4ff2)" d="M 660.612273 36.293267 
L 667.004093 36.403416 
L 673.395913 36.733012 
L 679.787733 37.279507 
L 686.179553 38.038673 
L 692.571373 39.004642 
L 699.87631 40.352179 
L 707.181247 41.946409 
L 714.486184 43.771235 
L 722.704238 46.076768 
L 730.922293 48.621308 
L 740.053464 51.689253 
L 750.097753 55.300518 
L 762.881393 60.14883 
L 803.058547 75.601684 
L 813.102836 79.129869 
L 822.234007 82.101465 
L 830.452061 84.543621 
L 837.756999 86.503352 
L 845.061936 88.243742 
L 852.366873 89.747219 
L 859.67181 90.998599 
L 866.06363 91.876761 
L 872.45545 92.545406 
L 878.84727 92.999364 
L 885.23909 93.235125 
L 891.63091 93.250866 
L 898.02273 93.046464 
L 904.41455 92.623501 
L 910.80637 91.985248 
L 917.19819 91.136638 
L 923.59001 90.084236 
L 930.894947 88.642457 
L 938.199884 86.959738 
L 945.504821 85.053071 
L 953.722876 82.664437 
L 961.94093 80.047314 
L 971.072101 76.91218 
L 982.029507 72.902079 
L 996.639381 67.284973 
L 1025.85913 55.978627 
L 1036.816536 52.008234 
L 1045.947707 48.917402 
L 1054.165762 46.348262 
L 1062.383816 44.014658 
L 1069.688753 42.162258 
L 1076.99369 40.538273 
L 1084.298627 39.159103 
L 1090.690447 38.164165 
L 1097.082267 37.375058 
L 1103.474087 36.797884 
L 1109.865907 36.437107 
L 1116.257727 36.295516 
L 1116.257727 36.295516 
" style="fill:none;stroke:#4c72b0;stroke-linecap:round;stroke-width:1.5;"/>
   </g>
   <g id="patch_8">
    <path d="M 637.83 96.12 
L 637.83 33.444375 
" style="fill:none;stroke:#ffffff;stroke-linecap:square;stroke-linejoin:miter;stroke-width:1.25;"/>
   </g>
   <g id="patch_9">
    <path d="M 1139.04 96.12 
L 1139.04 33.444375 
" style="fill:none;stroke:#ffffff;stroke-linecap:square;stroke-linejoin:miter;stroke-width:1.25;"/>
   </g>
   <g id="patch_10">
    <path d="M 637.83 96.12 
L 1139.04 96.12 
" style="fill:none;stroke:#ffffff;stroke-linecap:square;stroke-linejoin:miter;stroke-width:1.25;"/>
   </g>
   <g id="patch_11">
    <path d="M 637.83 33.444375 
L 1139.04 33.444375 
" style="fill:none;stroke:#ffffff;stroke-linecap:square;stroke-linejoin:miter;stroke-width:1.25;"/>
   </g>
   <g id="text_24">
    <!-- Coefficient a0 -->
    <defs>
     <path d="M 58.796875 25.09375 
L 68.265625 22.703125 
Q 65.28125 11.03125 57.546875 4.90625 
Q 49.8125 -1.21875 38.625 -1.21875 
Q 27.046875 -1.21875 19.796875 3.484375 
Q 12.546875 8.203125 8.765625 17.140625 
Q 4.984375 26.078125 4.984375 36.328125 
Q 4.984375 47.515625 9.25 55.828125 
Q 13.53125 64.15625 21.40625 68.46875 
Q 29.296875 72.796875 38.765625 72.796875 
Q 49.515625 72.796875 56.828125 67.328125 
Q 64.15625 61.859375 67.046875 51.953125 
L 57.71875 49.75 
Q 55.21875 57.5625 50.484375 61.125 
Q 45.75 64.703125 38.578125 64.703125 
Q 30.328125 64.703125 24.78125 60.734375 
Q 19.234375 56.78125 16.984375 50.109375 
Q 14.75 43.453125 14.75 36.375 
Q 14.75 27.25 17.40625 20.4375 
Q 20.0625 13.625 25.671875 10.25 
Q 31.296875 6.890625 37.84375 6.890625 
Q 45.796875 6.890625 51.3125 11.46875 
Q 56.84375 16.0625 58.796875 25.09375 
z
" id="ArialMT-67"/>
     <path d="M 42.09375 16.703125 
L 51.171875 15.578125 
Q 49.03125 7.625 43.21875 3.21875 
Q 37.40625 -1.171875 28.375 -1.171875 
Q 17 -1.171875 10.328125 5.828125 
Q 3.65625 12.84375 3.65625 25.484375 
Q 3.65625 38.578125 10.390625 45.796875 
Q 17.140625 53.03125 27.875 53.03125 
Q 38.28125 53.03125 44.875 45.953125 
Q 51.46875 38.875 51.46875 26.03125 
Q 51.46875 25.25 51.421875 23.6875 
L 12.75 23.6875 
Q 13.234375 15.140625 17.578125 10.59375 
Q 21.921875 6.0625 28.421875 6.0625 
Q 33.25 6.0625 36.671875 8.59375 
Q 40.09375 11.140625 42.09375 16.703125 
z
M 13.234375 30.90625 
L 42.1875 30.90625 
Q 41.609375 37.453125 38.875 40.71875 
Q 34.671875 45.796875 27.984375 45.796875 
Q 21.921875 45.796875 17.796875 41.75 
Q 13.671875 37.703125 13.234375 30.90625 
z
" id="ArialMT-101"/>
     <path d="M 8.6875 0 
L 8.6875 45.015625 
L 0.921875 45.015625 
L 0.921875 51.859375 
L 8.6875 51.859375 
L 8.6875 57.375 
Q 8.6875 62.59375 9.625 65.140625 
Q 10.890625 68.5625 14.078125 70.671875 
Q 17.28125 72.796875 23.046875 72.796875 
Q 26.765625 72.796875 31.25 71.921875 
L 29.9375 64.265625 
Q 27.203125 64.75 24.75 64.75 
Q 20.75 64.75 19.09375 63.03125 
Q 17.4375 61.328125 17.4375 56.640625 
L 17.4375 51.859375 
L 27.546875 51.859375 
L 27.546875 45.015625 
L 17.4375 45.015625 
L 17.4375 0 
z
" id="ArialMT-102"/>
    </defs>
    <g style="fill:#262626;" transform="translate(827.292812 27.444375)scale(0.2 -0.2)">
     <use xlink:href="#ArialMT-67"/>
     <use x="72.216797" xlink:href="#ArialMT-111"/>
     <use x="127.832031" xlink:href="#ArialMT-101"/>
     <use x="183.447266" xlink:href="#ArialMT-102"/>
     <use x="211.214844" xlink:href="#ArialMT-102"/>
     <use x="238.998047" xlink:href="#ArialMT-105"/>
     <use x="261.214844" xlink:href="#ArialMT-99"/>
     <use x="311.214844" xlink:href="#ArialMT-105"/>
     <use x="333.431641" xlink:href="#ArialMT-101"/>
     <use x="389.046875" xlink:href="#ArialMT-110"/>
     <use x="444.662109" xlink:href="#ArialMT-116"/>
     <use x="472.445312" xlink:href="#ArialMT-32"/>
     <use x="500.228516" xlink:href="#ArialMT-97"/>
     <use x="555.84375" xlink:href="#ArialMT-48"/>
    </g>
   </g>
  </g>
  <g id="axes_3">
   <g id="patch_12">
    <path d="M 65.2725 233.64 
L 566.4825 233.64 
L 566.4825 170.964375 
L 65.2725 170.964375 
z
" style="fill:#eaeaf2;"/>
   </g>
   <g id="matplotlib.axis_5">
    <g id="xtick_13">
     <g id="line2d_21">
      <path clip-path="url(#pe0f9d3ee77)" d="M 88.054773 233.64 
L 88.054773 170.964375 
" style="fill:none;stroke:#ffffff;stroke-linecap:round;"/>
     </g>
     <g id="text_25">
      <!-- 0 -->
      <g style="fill:#262626;" transform="translate(84.996257 251.013594)scale(0.11 -0.11)">
       <use xlink:href="#ArialMT-48"/>
      </g>
     </g>
    </g>
    <g id="xtick_14">
     <g id="line2d_22">
      <path clip-path="url(#pe0f9d3ee77)" d="M 179.366487 233.64 
L 179.366487 170.964375 
" style="fill:none;stroke:#ffffff;stroke-linecap:round;"/>
     </g>
     <g id="text_26">
      <!-- 100 -->
      <g style="fill:#262626;" transform="translate(170.19094 251.013594)scale(0.11 -0.11)">
       <use xlink:href="#ArialMT-49"/>
       <use x="55.615234" xlink:href="#ArialMT-48"/>
       <use x="111.230469" xlink:href="#ArialMT-48"/>
      </g>
     </g>
    </g>
    <g id="xtick_15">
     <g id="line2d_23">
      <path clip-path="url(#pe0f9d3ee77)" d="M 270.678201 233.64 
L 270.678201 170.964375 
" style="fill:none;stroke:#ffffff;stroke-linecap:round;"/>
     </g>
     <g id="text_27">
      <!-- 200 -->
      <g style="fill:#262626;" transform="translate(261.502655 251.013594)scale(0.11 -0.11)">
       <use xlink:href="#ArialMT-50"/>
       <use x="55.615234" xlink:href="#ArialMT-48"/>
       <use x="111.230469" xlink:href="#ArialMT-48"/>
      </g>
     </g>
    </g>
    <g id="xtick_16">
     <g id="line2d_24">
      <path clip-path="url(#pe0f9d3ee77)" d="M 361.989916 233.64 
L 361.989916 170.964375 
" style="fill:none;stroke:#ffffff;stroke-linecap:round;"/>
     </g>
     <g id="text_28">
      <!-- 300 -->
      <g style="fill:#262626;" transform="translate(352.814369 251.013594)scale(0.11 -0.11)">
       <use xlink:href="#ArialMT-51"/>
       <use x="55.615234" xlink:href="#ArialMT-48"/>
       <use x="111.230469" xlink:href="#ArialMT-48"/>
      </g>
     </g>
    </g>
    <g id="xtick_17">
     <g id="line2d_25">
      <path clip-path="url(#pe0f9d3ee77)" d="M 453.30163 233.64 
L 453.30163 170.964375 
" style="fill:none;stroke:#ffffff;stroke-linecap:round;"/>
     </g>
     <g id="text_29">
      <!-- 400 -->
      <g style="fill:#262626;" transform="translate(444.126083 251.013594)scale(0.11 -0.11)">
       <use xlink:href="#ArialMT-52"/>
       <use x="55.615234" xlink:href="#ArialMT-48"/>
       <use x="111.230469" xlink:href="#ArialMT-48"/>
      </g>
     </g>
    </g>
    <g id="xtick_18">
     <g id="line2d_26">
      <path clip-path="url(#pe0f9d3ee77)" d="M 544.613344 233.64 
L 544.613344 170.964375 
" style="fill:none;stroke:#ffffff;stroke-linecap:round;"/>
     </g>
     <g id="text_30">
      <!-- 500 -->
      <g style="fill:#262626;" transform="translate(535.437798 251.013594)scale(0.11 -0.11)">
       <use xlink:href="#ArialMT-53"/>
       <use x="55.615234" xlink:href="#ArialMT-48"/>
       <use x="111.230469" xlink:href="#ArialMT-48"/>
      </g>
     </g>
    </g>
    <g id="text_31">
     <!-- X -->
     <g style="fill:#262626;" transform="translate(309.874219 270.083906)scale(0.18 -0.18)">
      <use xlink:href="#ArialMT-88"/>
     </g>
    </g>
   </g>
   <g id="matplotlib.axis_6">
    <g id="ytick_7">
     <g id="line2d_27">
      <path clip-path="url(#pe0f9d3ee77)" d="M 65.2725 205.226766 
L 566.4825 205.226766 
" style="fill:none;stroke:#ffffff;stroke-linecap:round;"/>
     </g>
     <g id="text_32">
      <!-- 0 -->
      <g style="fill:#262626;" transform="translate(49.655469 209.163563)scale(0.11 -0.11)">
       <use xlink:href="#ArialMT-48"/>
      </g>
     </g>
    </g>
    <g id="ytick_8">
     <g id="line2d_28">
      <path clip-path="url(#pe0f9d3ee77)" d="M 65.2725 173.324522 
L 566.4825 173.324522 
" style="fill:none;stroke:#ffffff;stroke-linecap:round;"/>
     </g>
     <g id="text_33">
      <!-- 10 -->
      <g style="fill:#262626;" transform="translate(43.538437 177.261318)scale(0.11 -0.11)">
       <use xlink:href="#ArialMT-49"/>
       <use x="55.615234" xlink:href="#ArialMT-48"/>
      </g>
     </g>
    </g>
    <g id="text_34">
     <!-- Y -->
     <g style="fill:#262626;" transform="translate(35.960937 208.305469)rotate(-90)scale(0.18 -0.18)">
      <use xlink:href="#ArialMT-89"/>
     </g>
    </g>
   </g>
   <g id="line2d_29">
    <path clip-path="url(#pe0f9d3ee77)" d="M 88.054773 202.779466 
L 88.96789 203.767575 
L 89.881007 206.730323 
L 90.794124 208.402013 
L 91.707241 212.556862 
L 92.620358 209.276781 
L 93.533476 212.116515 
L 94.446593 217.399634 
L 95.35971 215.545541 
L 97.185944 206.621216 
L 98.099061 199.490863 
L 99.012178 198.65408 
L 99.925296 199.353048 
L 100.838413 199.098526 
L 101.75153 198.03039 
L 102.664647 204.555058 
L 103.577764 209.322657 
L 104.490881 212.423938 
L 105.403998 211.296265 
L 106.317116 209.777679 
L 107.230233 211.577056 
L 108.14335 212.479344 
L 109.056467 208.152142 
L 109.969584 205.195986 
L 110.882701 201.320531 
L 111.795818 194.473594 
L 112.708936 191.4548 
L 113.622053 194.033816 
L 114.53517 198.143901 
L 115.448287 199.720679 
L 116.361404 196.137198 
L 117.274521 197.961629 
L 118.187638 203.202637 
L 120.013873 215.448305 
L 121.840107 203.728159 
L 122.753224 199.599092 
L 123.666341 197.308799 
L 124.579458 199.571955 
L 125.492576 199.863343 
L 127.31881 208.539105 
L 128.231927 210.595526 
L 129.145044 211.971119 
L 130.058161 216.312226 
L 130.971278 219.611808 
L 131.884396 218.50795 
L 132.797513 216.712221 
L 133.71063 211.419736 
L 134.623747 208.404949 
L 135.536864 210.542904 
L 136.449981 213.922746 
L 137.363098 216.557991 
L 138.276216 214.199327 
L 139.189333 210.294225 
L 140.10245 208.63818 
L 141.015567 204.794412 
L 141.928684 199.220549 
L 142.841801 202.402292 
L 143.754918 204.727377 
L 144.668036 206.419631 
L 145.581153 204.696428 
L 146.49427 206.995015 
L 147.407387 211.927066 
L 148.320504 212.523088 
L 149.233621 203.515218 
L 150.146738 196.956519 
L 151.059856 198.382783 
L 151.972973 200.102183 
L 152.88609 201.125619 
L 153.799207 197.406336 
L 154.712324 196.607212 
L 155.625441 196.667363 
L 156.538558 192.815815 
L 157.451676 190.079883 
L 158.364793 186.222743 
L 159.27791 179.540329 
L 160.191027 180.269401 
L 161.104144 190.667913 
L 162.017261 208.339934 
L 162.930378 219.498375 
L 163.843496 227.890418 
L 164.756613 230.28506 
L 165.66973 224.490355 
L 166.582847 214.828997 
L 167.495964 207.532872 
L 168.409081 203.853681 
L 169.322198 200.728161 
L 170.235316 195.247056 
L 171.148433 191.687178 
L 172.974667 196.065169 
L 173.887784 190.551656 
L 174.800901 188.360382 
L 175.714018 189.638891 
L 176.627136 194.072376 
L 177.540253 193.680056 
L 179.366487 202.282768 
L 180.279604 205.727603 
L 181.192721 205.955443 
L 182.105838 208.375197 
L 183.018956 221.157511 
L 183.932073 230.791108 
L 184.84519 228.123414 
L 185.758307 220.071324 
L 186.671424 209.28246 
L 187.584541 200.005516 
L 188.497658 195.327032 
L 189.410776 199.100551 
L 190.323893 206.543238 
L 191.23701 212.250827 
L 192.150127 214.282331 
L 193.063244 211.963545 
L 194.889479 197.040547 
L 195.802596 193.750033 
L 196.715713 191.872135 
L 197.62883 192.662224 
L 198.541947 197.677332 
L 199.455064 208.176683 
L 200.368181 214.995542 
L 201.281299 219.900453 
L 202.194416 214.623254 
L 203.107533 214.443429 
L 204.02065 213.500996 
L 204.933767 206.338035 
L 205.846884 201.231784 
L 206.760001 201.475943 
L 207.673119 206.477825 
L 208.586236 205.900241 
L 209.499353 197.405627 
L 210.41247 196.594068 
L 211.325587 200.707424 
L 212.238704 203.19848 
L 213.151821 207.98309 
L 214.064939 207.968271 
L 214.978056 205.645448 
L 215.891173 205.32547 
L 216.80429 202.012908 
L 217.717407 197.158614 
L 218.630524 196.7507 
L 219.543641 196.8415 
L 220.456759 201.259022 
L 222.282993 212.299998 
L 224.109227 216.866565 
L 225.022344 210.207015 
L 225.935461 206.233621 
L 226.848579 203.086289 
L 227.761696 205.720503 
L 228.674813 208.821647 
L 229.58793 209.97461 
L 230.501047 209.429736 
L 231.414164 202.62374 
L 232.327281 198.686859 
L 233.240399 199.05699 
L 234.153516 205.717061 
L 235.066633 201.178243 
L 235.97975 195.735547 
L 236.892867 193.101444 
L 237.805984 194.084609 
L 238.719101 197.430043 
L 239.632219 202.803397 
L 240.545336 215.608744 
L 241.458453 221.992789 
L 242.37157 221.624273 
L 243.284687 215.246382 
L 244.197804 206.611824 
L 245.110921 201.656601 
L 246.024039 193.200759 
L 246.937156 189.732884 
L 247.850273 190.940467 
L 248.76339 193.718936 
L 249.676507 198.601846 
L 250.589624 205.382711 
L 251.502741 209.200706 
L 252.415859 209.245358 
L 253.328976 207.494698 
L 254.242093 208.739946 
L 255.15521 207.369313 
L 256.068327 211.856936 
L 256.981444 209.89627 
L 257.894561 210.652433 
L 258.807679 201.912768 
L 259.720796 199.069409 
L 260.633913 199.545256 
L 261.54703 201.224433 
L 262.460147 204.034574 
L 263.373264 209.768559 
L 264.286381 217.754834 
L 265.199499 219.536675 
L 266.112616 216.344248 
L 267.025733 211.461255 
L 267.93885 208.284574 
L 268.851967 204.583685 
L 269.765084 201.71077 
L 270.678201 199.356019 
L 271.591319 198.120846 
L 272.504436 198.180965 
L 273.417553 199.729435 
L 274.33067 204.573127 
L 275.243787 207.409625 
L 276.156904 205.720563 
L 277.070021 210.163656 
L 278.896256 212.212095 
L 279.809373 208.577599 
L 280.72249 202.681988 
L 281.635607 201.723273 
L 283.461841 201.353645 
L 284.374959 197.772685 
L 285.288076 195.002923 
L 286.201193 198.043213 
L 287.11431 197.970853 
L 288.027427 201.221386 
L 288.940544 203.391103 
L 289.853661 209.266727 
L 290.766779 216.694338 
L 291.679896 217.232489 
L 292.593013 210.355897 
L 293.50613 200.623058 
L 294.419247 193.928781 
L 295.332364 192.769354 
L 296.245481 191.915062 
L 297.158599 198.504548 
L 298.071716 202.323339 
L 299.89795 213.820475 
L 300.811067 208.265812 
L 301.724184 206.065687 
L 302.637301 202.783046 
L 303.550419 206.267978 
L 304.463536 198.002589 
L 305.376653 198.131897 
L 306.28977 200.694728 
L 307.202887 202.736345 
L 308.116004 203.250984 
L 309.029121 206.375385 
L 309.942239 211.173943 
L 310.855356 213.060983 
L 311.768473 208.259768 
L 312.68159 205.806086 
L 313.594707 206.999951 
L 314.507824 207.365316 
L 316.334059 210.900853 
L 317.247176 207.461459 
L 318.160293 201.522383 
L 319.07341 197.481731 
L 319.986527 199.799819 
L 321.812761 205.71374 
L 322.725879 206.555224 
L 323.638996 207.996752 
L 324.552113 207.056391 
L 325.46523 209.130178 
L 326.378347 212.801173 
L 327.291464 211.454167 
L 329.117699 217.839875 
L 330.030816 216.128601 
L 330.943933 210.568441 
L 331.85705 203.56775 
L 332.770167 202.155915 
L 333.683284 199.569703 
L 334.596401 201.072769 
L 335.509519 204.011534 
L 337.335753 205.309447 
L 338.24887 203.620253 
L 339.161987 204.307107 
L 340.075104 204.563823 
L 340.988221 210.554056 
L 341.901339 209.489999 
L 342.814456 213.149045 
L 343.727573 217.67083 
L 344.64069 216.369032 
L 346.466924 205.144964 
L 347.380041 202.035875 
L 348.293159 201.579482 
L 350.119393 207.456311 
L 351.03251 212.650499 
L 351.945627 215.415844 
L 352.858744 214.48648 
L 353.771861 211.753781 
L 354.684979 204.351885 
L 355.598096 193.321586 
L 356.511213 195.475305 
L 357.42433 196.592117 
L 358.337447 197.070043 
L 359.250564 196.901062 
L 361.989916 205.735403 
L 362.903033 213.335553 
L 363.81615 222.063877 
L 364.729267 222.241568 
L 365.642384 220.968512 
L 366.555501 218.19479 
L 367.468619 216.827427 
L 368.381736 217.619528 
L 369.294853 217.879493 
L 370.20797 213.122814 
L 371.121087 215.185986 
L 372.947321 214.051 
L 374.773556 201.936954 
L 375.686673 198.078607 
L 376.59979 193.358406 
L 377.512907 194.64632 
L 378.426024 195.689685 
L 379.339141 199.322449 
L 380.252259 202.017484 
L 381.165376 207.114809 
L 382.078493 207.40988 
L 382.99161 207.366067 
L 383.904727 209.286064 
L 384.817844 205.485456 
L 385.730961 209.078343 
L 386.644079 215.165035 
L 387.557196 214.932132 
L 388.470313 209.169356 
L 389.38343 207.896989 
L 390.296547 212.976764 
L 391.209664 214.9395 
L 393.035899 201.880033 
L 394.862133 189.588813 
L 395.77525 192.75826 
L 397.601484 202.205964 
L 398.514601 209.317108 
L 399.427719 214.335479 
L 401.253953 211.178576 
L 402.16707 210.403496 
L 403.080187 204.430835 
L 403.993304 203.504589 
L 404.906421 200.554306 
L 405.819539 200.139129 
L 406.732656 204.450271 
L 407.645773 209.966344 
L 408.55889 210.880326 
L 409.472007 209.844905 
L 410.385124 214.799052 
L 411.298241 209.661604 
L 412.211359 201.017045 
L 413.124476 197.450288 
L 414.037593 192.469838 
L 415.863827 195.546493 
L 416.776944 197.610561 
L 417.690061 198.028365 
L 418.603179 202.829054 
L 419.516296 205.791681 
L 420.429413 210.961636 
L 421.34253 212.346928 
L 422.255647 214.714537 
L 423.168764 211.926395 
L 424.081881 206.910584 
L 424.994999 202.623617 
L 425.908116 204.449726 
L 426.821233 204.117846 
L 427.73435 204.944294 
L 428.647467 206.234626 
L 429.560584 208.105425 
L 430.473701 209.39165 
L 431.386819 209.118053 
L 432.299936 207.896542 
L 433.213053 194.58111 
L 434.12617 188.376408 
L 435.039287 188.141917 
L 435.952404 190.648541 
L 436.865521 197.966629 
L 437.778639 209.493636 
L 438.691756 213.995956 
L 439.604873 209.08468 
L 440.51799 202.442159 
L 441.431107 198.701307 
L 442.344224 192.810182 
L 443.257342 189.678103 
L 444.170459 197.227851 
L 445.083576 199.595704 
L 445.996693 198.103221 
L 446.90981 200.898462 
L 447.822927 198.404433 
L 448.736044 195.049262 
L 449.649162 190.567114 
L 450.562279 187.046076 
L 451.475396 185.968524 
L 452.388513 193.933965 
L 453.30163 205.940048 
L 454.214747 214.249863 
L 455.127864 217.203997 
L 456.040982 210.638563 
L 456.954099 207.801454 
L 457.867216 206.883049 
L 459.69345 202.687525 
L 460.606567 199.881843 
L 461.519684 202.702694 
L 462.432802 204.549016 
L 463.345919 209.744965 
L 464.259036 208.317812 
L 465.172153 205.301138 
L 466.08527 206.497182 
L 466.998387 204.401917 
L 467.911504 203.874816 
L 468.824622 203.906029 
L 471.563973 202.734618 
L 472.47709 204.700144 
L 473.390207 204.860936 
L 474.303324 205.249621 
L 475.216442 205.070567 
L 476.129559 206.624383 
L 477.042676 210.346077 
L 477.955793 210.53258 
L 479.782027 192.832323 
L 480.695144 194.05559 
L 481.608262 200.15745 
L 482.521379 200.762515 
L 483.434496 204.481686 
L 484.347613 203.470938 
L 485.26073 206.323755 
L 486.173847 211.2705 
L 487.086964 218.539961 
L 488.000082 222.424487 
L 488.913199 222.108095 
L 490.739433 217.693714 
L 491.65255 213.520423 
L 492.565667 210.473547 
L 493.478784 202.894473 
L 494.391902 198.084102 
L 495.305019 198.080172 
L 496.218136 195.651572 
L 497.131253 196.141149 
L 498.04437 199.514055 
L 498.957487 204.911985 
L 499.870604 211.779946 
L 500.783722 213.606264 
L 501.696839 212.169628 
L 502.609956 206.076987 
L 503.523073 202.972986 
L 504.43619 202.349534 
L 505.349307 201.561384 
L 506.262424 199.2333 
L 507.175542 201.35551 
L 508.088659 204.132286 
L 509.914893 218.391375 
L 510.82801 214.02092 
L 511.741127 208.48754 
L 512.654244 208.452696 
L 513.567362 212.641289 
L 514.480479 213.102023 
L 515.393596 211.901554 
L 516.306713 209.727346 
L 517.21983 205.879428 
L 518.132947 200.603301 
L 519.046064 194.01938 
L 520.872299 176.720077 
L 521.785416 173.813267 
L 522.698533 176.904887 
L 524.524767 190.50826 
L 525.437884 199.169518 
L 526.351002 205.332145 
L 527.264119 206.524891 
L 528.177236 207.062409 
L 529.090353 202.952776 
L 530.916587 191.027416 
L 531.829704 185.089322 
L 532.742822 187.152444 
L 534.569056 199.903439 
L 535.482173 208.761051 
L 536.39529 214.026425 
L 537.308407 216.688714 
L 538.221524 214.662377 
L 539.134642 211.221125 
L 540.960876 209.693509 
L 541.873993 211.507897 
L 542.78711 214.692322 
L 543.700227 213.812724 
L 543.700227 213.812724 
" style="fill:none;stroke:#8172b3;stroke-linecap:round;stroke-width:1.5;"/>
   </g>
   <g id="patch_13">
    <path d="M 65.2725 233.64 
L 65.2725 170.964375 
" style="fill:none;stroke:#ffffff;stroke-linecap:square;stroke-linejoin:miter;stroke-width:1.25;"/>
   </g>
   <g id="patch_14">
    <path d="M 566.4825 233.64 
L 566.4825 170.964375 
" style="fill:none;stroke:#ffffff;stroke-linecap:square;stroke-linejoin:miter;stroke-width:1.25;"/>
   </g>
   <g id="patch_15">
    <path d="M 65.2725 233.64 
L 566.4825 233.64 
" style="fill:none;stroke:#ffffff;stroke-linecap:square;stroke-linejoin:miter;stroke-width:1.25;"/>
   </g>
   <g id="patch_16">
    <path d="M 65.2725 170.964375 
L 566.4825 170.964375 
" style="fill:none;stroke:#ffffff;stroke-linecap:square;stroke-linejoin:miter;stroke-width:1.25;"/>
   </g>
   <g id="text_35">
    <!-- Time Varying Autoregressive Process -->
    <defs>
     <path d="M 25.921875 0 
L 25.921875 63.140625 
L 2.34375 63.140625 
L 2.34375 71.578125 
L 59.078125 71.578125 
L 59.078125 63.140625 
L 35.40625 63.140625 
L 35.40625 0 
z
" id="ArialMT-84"/>
     <path d="M 28.171875 0 
L 0.4375 71.578125 
L 10.6875 71.578125 
L 29.296875 19.578125 
Q 31.546875 13.328125 33.0625 7.859375 
Q 34.71875 13.71875 36.921875 19.578125 
L 56.25 71.578125 
L 65.921875 71.578125 
L 37.890625 0 
z
" id="ArialMT-86"/>
     <path d="M 6.5 0 
L 6.5 51.859375 
L 14.40625 51.859375 
L 14.40625 44 
Q 17.4375 49.515625 20 51.265625 
Q 22.5625 53.03125 25.640625 53.03125 
Q 30.078125 53.03125 34.671875 50.203125 
L 31.640625 42.046875 
Q 28.421875 43.953125 25.203125 43.953125 
Q 22.3125 43.953125 20.015625 42.21875 
Q 17.71875 40.484375 16.75 37.40625 
Q 15.28125 32.71875 15.28125 27.15625 
L 15.28125 0 
z
" id="ArialMT-114"/>
     <path d="M 6.203125 -19.96875 
L 5.21875 -11.71875 
Q 8.109375 -12.5 10.25 -12.5 
Q 13.1875 -12.5 14.9375 -11.515625 
Q 16.703125 -10.546875 17.828125 -8.796875 
Q 18.65625 -7.46875 20.515625 -2.25 
Q 20.75 -1.515625 21.296875 -0.09375 
L 1.609375 51.859375 
L 11.078125 51.859375 
L 21.875 21.828125 
Q 23.96875 16.109375 25.640625 9.8125 
Q 27.15625 15.875 29.25 21.625 
L 40.328125 51.859375 
L 49.125 51.859375 
L 29.390625 -0.875 
Q 26.21875 -9.421875 24.46875 -12.640625 
Q 22.125 -17 19.09375 -19.015625 
Q 16.0625 -21.046875 11.859375 -21.046875 
Q 9.328125 -21.046875 6.203125 -19.96875 
z
" id="ArialMT-121"/>
     <path d="M -0.140625 0 
L 27.34375 71.578125 
L 37.546875 71.578125 
L 66.84375 0 
L 56.0625 0 
L 47.703125 21.6875 
L 17.78125 21.6875 
L 9.90625 0 
z
M 20.515625 29.390625 
L 44.78125 29.390625 
L 37.3125 49.21875 
Q 33.890625 58.25 32.234375 64.0625 
Q 30.859375 57.171875 28.375 50.390625 
z
" id="ArialMT-65"/>
     <path d="M 40.578125 0 
L 40.578125 7.625 
Q 34.515625 -1.171875 24.125 -1.171875 
Q 19.53125 -1.171875 15.546875 0.578125 
Q 11.578125 2.34375 9.640625 5 
Q 7.71875 7.671875 6.9375 11.53125 
Q 6.390625 14.109375 6.390625 19.734375 
L 6.390625 51.859375 
L 15.1875 51.859375 
L 15.1875 23.09375 
Q 15.1875 16.21875 15.71875 13.8125 
Q 16.546875 10.359375 19.234375 8.375 
Q 21.921875 6.390625 25.875 6.390625 
Q 29.828125 6.390625 33.296875 8.421875 
Q 36.765625 10.453125 38.203125 13.9375 
Q 39.65625 17.4375 39.65625 24.078125 
L 39.65625 51.859375 
L 48.4375 51.859375 
L 48.4375 0 
z
" id="ArialMT-117"/>
     <path d="M 3.078125 15.484375 
L 11.765625 16.84375 
Q 12.5 11.625 15.84375 8.84375 
Q 19.1875 6.0625 25.203125 6.0625 
Q 31.25 6.0625 34.171875 8.515625 
Q 37.109375 10.984375 37.109375 14.3125 
Q 37.109375 17.28125 34.515625 19 
Q 32.71875 20.171875 25.53125 21.96875 
Q 15.875 24.421875 12.140625 26.203125 
Q 8.40625 27.984375 6.46875 31.125 
Q 4.546875 34.28125 4.546875 38.09375 
Q 4.546875 41.546875 6.125 44.5 
Q 7.71875 47.46875 10.453125 49.421875 
Q 12.5 50.921875 16.03125 51.96875 
Q 19.578125 53.03125 23.640625 53.03125 
Q 29.734375 53.03125 34.34375 51.265625 
Q 38.96875 49.515625 41.15625 46.5 
Q 43.359375 43.5 44.1875 38.484375 
L 35.59375 37.3125 
Q 35.015625 41.3125 32.203125 43.546875 
Q 29.390625 45.796875 24.265625 45.796875 
Q 18.21875 45.796875 15.625 43.796875 
Q 13.03125 41.796875 13.03125 39.109375 
Q 13.03125 37.40625 14.109375 36.03125 
Q 15.1875 34.625 17.484375 33.6875 
Q 18.796875 33.203125 25.25 31.453125 
Q 34.578125 28.953125 38.25 27.359375 
Q 41.9375 25.78125 44.03125 22.75 
Q 46.140625 19.734375 46.140625 15.234375 
Q 46.140625 10.84375 43.578125 6.953125 
Q 41.015625 3.078125 36.171875 0.953125 
Q 31.34375 -1.171875 25.25 -1.171875 
Q 15.140625 -1.171875 9.84375 3.03125 
Q 4.546875 7.234375 3.078125 15.484375 
z
" id="ArialMT-115"/>
     <path d="M 21 0 
L 1.265625 51.859375 
L 10.546875 51.859375 
L 21.6875 20.796875 
Q 23.484375 15.765625 25 10.359375 
Q 26.171875 14.453125 28.265625 20.21875 
L 39.796875 51.859375 
L 48.828125 51.859375 
L 29.203125 0 
z
" id="ArialMT-118"/>
     <path d="M 7.71875 0 
L 7.71875 71.578125 
L 34.71875 71.578125 
Q 41.84375 71.578125 45.609375 70.90625 
Q 50.875 70.015625 54.4375 67.546875 
Q 58.015625 65.09375 60.1875 60.640625 
Q 62.359375 56.203125 62.359375 50.875 
Q 62.359375 41.75 56.546875 35.421875 
Q 50.734375 29.109375 35.546875 29.109375 
L 17.1875 29.109375 
L 17.1875 0 
z
M 17.1875 37.546875 
L 35.6875 37.546875 
Q 44.875 37.546875 48.734375 40.96875 
Q 52.59375 44.390625 52.59375 50.59375 
Q 52.59375 55.078125 50.3125 58.265625 
Q 48.046875 61.46875 44.34375 62.5 
Q 41.9375 63.140625 35.5 63.140625 
L 17.1875 63.140625 
z
" id="ArialMT-80"/>
    </defs>
    <g style="fill:#262626;" transform="translate(148.624375 164.964375)scale(0.2 -0.2)">
     <use xlink:href="#ArialMT-84"/>
     <use x="61.037109" xlink:href="#ArialMT-105"/>
     <use x="83.253906" xlink:href="#ArialMT-109"/>
     <use x="166.554688" xlink:href="#ArialMT-101"/>
     <use x="222.169922" xlink:href="#ArialMT-32"/>
     <use x="249.953125" xlink:href="#ArialMT-86"/>
     <use x="316.542969" xlink:href="#ArialMT-97"/>
     <use x="372.158203" xlink:href="#ArialMT-114"/>
     <use x="405.458984" xlink:href="#ArialMT-121"/>
     <use x="455.458984" xlink:href="#ArialMT-105"/>
     <use x="477.675781" xlink:href="#ArialMT-110"/>
     <use x="533.291016" xlink:href="#ArialMT-103"/>
     <use x="588.90625" xlink:href="#ArialMT-32"/>
     <use x="616.611328" xlink:href="#ArialMT-65"/>
     <use x="683.310547" xlink:href="#ArialMT-117"/>
     <use x="738.925781" xlink:href="#ArialMT-116"/>
     <use x="766.708984" xlink:href="#ArialMT-111"/>
     <use x="822.324219" xlink:href="#ArialMT-114"/>
     <use x="855.625" xlink:href="#ArialMT-101"/>
     <use x="911.240234" xlink:href="#ArialMT-103"/>
     <use x="966.855469" xlink:href="#ArialMT-114"/>
     <use x="1000.15625" xlink:href="#ArialMT-101"/>
     <use x="1055.771484" xlink:href="#ArialMT-115"/>
     <use x="1105.771484" xlink:href="#ArialMT-115"/>
     <use x="1155.771484" xlink:href="#ArialMT-105"/>
     <use x="1177.988281" xlink:href="#ArialMT-118"/>
     <use x="1227.988281" xlink:href="#ArialMT-101"/>
     <use x="1283.603516" xlink:href="#ArialMT-32"/>
     <use x="1311.386719" xlink:href="#ArialMT-80"/>
     <use x="1378.085938" xlink:href="#ArialMT-114"/>
     <use x="1411.386719" xlink:href="#ArialMT-111"/>
     <use x="1467.001953" xlink:href="#ArialMT-99"/>
     <use x="1517.001953" xlink:href="#ArialMT-101"/>
     <use x="1572.617188" xlink:href="#ArialMT-115"/>
     <use x="1622.617188" xlink:href="#ArialMT-115"/>
    </g>
   </g>
  </g>
  <g id="axes_4">
   <g id="patch_17">
    <path d="M 637.83 233.64 
L 1139.04 233.64 
L 1139.04 170.964375 
L 637.83 170.964375 
z
" style="fill:#eaeaf2;"/>
   </g>
   <g id="matplotlib.axis_7">
    <g id="xtick_19">
     <g id="line2d_30">
      <path clip-path="url(#p75e18acc81)" d="M 660.612273 233.64 
L 660.612273 170.964375 
" style="fill:none;stroke:#ffffff;stroke-linecap:round;"/>
     </g>
     <g id="text_36">
      <!-- 0 -->
      <g style="fill:#262626;" transform="translate(657.553757 251.013594)scale(0.11 -0.11)">
       <use xlink:href="#ArialMT-48"/>
      </g>
     </g>
    </g>
    <g id="xtick_20">
     <g id="line2d_31">
      <path clip-path="url(#p75e18acc81)" d="M 751.923987 233.64 
L 751.923987 170.964375 
" style="fill:none;stroke:#ffffff;stroke-linecap:round;"/>
     </g>
     <g id="text_37">
      <!-- 100 -->
      <g style="fill:#262626;" transform="translate(742.74844 251.013594)scale(0.11 -0.11)">
       <use xlink:href="#ArialMT-49"/>
       <use x="55.615234" xlink:href="#ArialMT-48"/>
       <use x="111.230469" xlink:href="#ArialMT-48"/>
      </g>
     </g>
    </g>
    <g id="xtick_21">
     <g id="line2d_32">
      <path clip-path="url(#p75e18acc81)" d="M 843.235701 233.64 
L 843.235701 170.964375 
" style="fill:none;stroke:#ffffff;stroke-linecap:round;"/>
     </g>
     <g id="text_38">
      <!-- 200 -->
      <g style="fill:#262626;" transform="translate(834.060155 251.013594)scale(0.11 -0.11)">
       <use xlink:href="#ArialMT-50"/>
       <use x="55.615234" xlink:href="#ArialMT-48"/>
       <use x="111.230469" xlink:href="#ArialMT-48"/>
      </g>
     </g>
    </g>
    <g id="xtick_22">
     <g id="line2d_33">
      <path clip-path="url(#p75e18acc81)" d="M 934.547416 233.64 
L 934.547416 170.964375 
" style="fill:none;stroke:#ffffff;stroke-linecap:round;"/>
     </g>
     <g id="text_39">
      <!-- 300 -->
      <g style="fill:#262626;" transform="translate(925.371869 251.013594)scale(0.11 -0.11)">
       <use xlink:href="#ArialMT-51"/>
       <use x="55.615234" xlink:href="#ArialMT-48"/>
       <use x="111.230469" xlink:href="#ArialMT-48"/>
      </g>
     </g>
    </g>
    <g id="xtick_23">
     <g id="line2d_34">
      <path clip-path="url(#p75e18acc81)" d="M 1025.85913 233.64 
L 1025.85913 170.964375 
" style="fill:none;stroke:#ffffff;stroke-linecap:round;"/>
     </g>
     <g id="text_40">
      <!-- 400 -->
      <g style="fill:#262626;" transform="translate(1016.683583 251.013594)scale(0.11 -0.11)">
       <use xlink:href="#ArialMT-52"/>
       <use x="55.615234" xlink:href="#ArialMT-48"/>
       <use x="111.230469" xlink:href="#ArialMT-48"/>
      </g>
     </g>
    </g>
    <g id="xtick_24">
     <g id="line2d_35">
      <path clip-path="url(#p75e18acc81)" d="M 1117.170844 233.64 
L 1117.170844 170.964375 
" style="fill:none;stroke:#ffffff;stroke-linecap:round;"/>
     </g>
     <g id="text_41">
      <!-- 500 -->
      <g style="fill:#262626;" transform="translate(1107.995298 251.013594)scale(0.11 -0.11)">
       <use xlink:href="#ArialMT-53"/>
       <use x="55.615234" xlink:href="#ArialMT-48"/>
       <use x="111.230469" xlink:href="#ArialMT-48"/>
      </g>
     </g>
    </g>
    <g id="text_42">
     <!-- X -->
     <g style="fill:#262626;" transform="translate(882.431719 270.083906)scale(0.18 -0.18)">
      <use xlink:href="#ArialMT-88"/>
     </g>
    </g>
   </g>
   <g id="matplotlib.axis_8">
    <g id="ytick_9">
     <g id="line2d_36">
      <path clip-path="url(#p75e18acc81)" d="M 637.83 230.791108 
L 1139.04 230.791108 
" style="fill:none;stroke:#ffffff;stroke-linecap:round;"/>
     </g>
     <g id="text_43">
      <!-- −0.7 -->
      <defs>
       <path d="M 4.734375 62.203125 
L 4.734375 70.65625 
L 51.078125 70.65625 
L 51.078125 63.8125 
Q 44.234375 56.546875 37.515625 44.484375 
Q 30.8125 32.421875 27.15625 19.671875 
Q 24.515625 10.6875 23.78125 0 
L 14.75 0 
Q 14.890625 8.453125 18.0625 20.40625 
Q 21.234375 32.375 27.171875 43.484375 
Q 33.109375 54.59375 39.796875 62.203125 
z
" id="ArialMT-55"/>
      </defs>
      <g style="fill:#262626;" transform="translate(606.615312 234.727905)scale(0.11 -0.11)">
       <use xlink:href="#ArialMT-8722"/>
       <use x="58.398438" xlink:href="#ArialMT-48"/>
       <use x="114.013672" xlink:href="#ArialMT-46"/>
       <use x="141.796875" xlink:href="#ArialMT-55"/>
      </g>
     </g>
    </g>
    <g id="ytick_10">
     <g id="line2d_37">
      <path clip-path="url(#p75e18acc81)" d="M 637.83 173.813267 
L 1139.04 173.813267 
" style="fill:none;stroke:#ffffff;stroke-linecap:round;"/>
     </g>
     <g id="text_44">
      <!-- −0.6 -->
      <defs>
       <path d="M 49.75 54.046875 
L 41.015625 53.375 
Q 39.84375 58.546875 37.703125 60.890625 
Q 34.125 64.65625 28.90625 64.65625 
Q 24.703125 64.65625 21.53125 62.3125 
Q 17.390625 59.28125 14.984375 53.46875 
Q 12.59375 47.65625 12.5 36.921875 
Q 15.671875 41.75 20.265625 44.09375 
Q 24.859375 46.4375 29.890625 46.4375 
Q 38.671875 46.4375 44.84375 39.96875 
Q 51.03125 33.5 51.03125 23.25 
Q 51.03125 16.5 48.125 10.71875 
Q 45.21875 4.9375 40.140625 1.859375 
Q 35.0625 -1.21875 28.609375 -1.21875 
Q 17.625 -1.21875 10.6875 6.859375 
Q 3.765625 14.9375 3.765625 33.5 
Q 3.765625 54.25 11.421875 63.671875 
Q 18.109375 71.875 29.4375 71.875 
Q 37.890625 71.875 43.28125 67.140625 
Q 48.6875 62.40625 49.75 54.046875 
z
M 13.875 23.1875 
Q 13.875 18.65625 15.796875 14.5 
Q 17.71875 10.359375 21.1875 8.171875 
Q 24.65625 6 28.46875 6 
Q 34.03125 6 38.03125 10.484375 
Q 42.046875 14.984375 42.046875 22.703125 
Q 42.046875 30.125 38.078125 34.390625 
Q 34.125 38.671875 28.125 38.671875 
Q 22.171875 38.671875 18.015625 34.390625 
Q 13.875 30.125 13.875 23.1875 
z
" id="ArialMT-54"/>
      </defs>
      <g style="fill:#262626;" transform="translate(606.615312 177.750064)scale(0.11 -0.11)">
       <use xlink:href="#ArialMT-8722"/>
       <use x="58.398438" xlink:href="#ArialMT-48"/>
       <use x="114.013672" xlink:href="#ArialMT-46"/>
       <use x="141.796875" xlink:href="#ArialMT-54"/>
      </g>
     </g>
    </g>
    <g id="text_45">
     <!-- Y -->
     <g style="fill:#262626;" transform="translate(599.037812 208.305469)rotate(-90)scale(0.18 -0.18)">
      <use xlink:href="#ArialMT-89"/>
     </g>
    </g>
   </g>
   <g id="line2d_38">
    <path clip-path="url(#p75e18acc81)" d="M 660.612273 230.791108 
L 694.397607 217.664016 
L 712.65995 210.818419 
L 728.182941 205.2432 
L 741.879698 200.563726 
L 754.663338 196.437484 
L 766.533861 192.84319 
L 777.491267 189.749455 
L 788.448673 186.888927 
L 798.492961 184.485549 
L 808.53725 182.30328 
L 818.581539 180.352539 
L 828.625827 178.642642 
L 837.756999 177.30408 
L 846.88817 176.176606 
L 856.019341 175.264671 
L 865.150513 174.571873 
L 874.281684 174.100947 
L 883.412856 173.853751 
L 892.544027 173.831261 
L 901.675199 174.033566 
L 910.80637 174.459866 
L 919.937541 175.10848 
L 929.068713 175.976848 
L 938.199884 177.061543 
L 947.331056 178.358284 
L 956.462227 179.861953 
L 966.506516 181.747886 
L 976.550804 183.867999 
L 986.595093 186.212169 
L 997.552499 189.011801 
L 1008.509904 192.048833 
L 1020.380427 195.586801 
L 1032.25095 199.359517 
L 1045.03459 203.656083 
L 1058.731347 208.491481 
L 1074.254339 214.208496 
L 1093.429799 221.524393 
L 1116.257727 230.433108 
L 1116.257727 230.433108 
" style="fill:none;stroke:#8172b3;stroke-linecap:round;stroke-width:1.5;"/>
   </g>
   <g id="patch_18">
    <path d="M 637.83 233.64 
L 637.83 170.964375 
" style="fill:none;stroke:#ffffff;stroke-linecap:square;stroke-linejoin:miter;stroke-width:1.25;"/>
   </g>
   <g id="patch_19">
    <path d="M 1139.04 233.64 
L 1139.04 170.964375 
" style="fill:none;stroke:#ffffff;stroke-linecap:square;stroke-linejoin:miter;stroke-width:1.25;"/>
   </g>
   <g id="patch_20">
    <path d="M 637.83 233.64 
L 1139.04 233.64 
" style="fill:none;stroke:#ffffff;stroke-linecap:square;stroke-linejoin:miter;stroke-width:1.25;"/>
   </g>
   <g id="patch_21">
    <path d="M 637.83 170.964375 
L 1139.04 170.964375 
" style="fill:none;stroke:#ffffff;stroke-linecap:square;stroke-linejoin:miter;stroke-width:1.25;"/>
   </g>
   <g id="text_46">
    <!-- Coefficient a1 -->
    <g style="fill:#262626;" transform="translate(827.292812 164.964375)scale(0.2 -0.2)">
     <use xlink:href="#ArialMT-67"/>
     <use x="72.216797" xlink:href="#ArialMT-111"/>
     <use x="127.832031" xlink:href="#ArialMT-101"/>
     <use x="183.447266" xlink:href="#ArialMT-102"/>
     <use x="211.214844" xlink:href="#ArialMT-102"/>
     <use x="238.998047" xlink:href="#ArialMT-105"/>
     <use x="261.214844" xlink:href="#ArialMT-99"/>
     <use x="311.214844" xlink:href="#ArialMT-105"/>
     <use x="333.431641" xlink:href="#ArialMT-101"/>
     <use x="389.046875" xlink:href="#ArialMT-110"/>
     <use x="444.662109" xlink:href="#ArialMT-116"/>
     <use x="472.445312" xlink:href="#ArialMT-32"/>
     <use x="500.228516" xlink:href="#ArialMT-97"/>
     <use x="555.84375" xlink:href="#ArialMT-49"/>
    </g>
   </g>
  </g>
 </g>
 <defs>
  <clipPath id="p932ac191e2">
   <rect height="62.675625" width="501.21" x="65.2725" y="33.444375"/>
  </clipPath>
  <clipPath id="pd53c0d4ff2">
   <rect height="62.675625" width="501.21" x="637.83" y="33.444375"/>
  </clipPath>
  <clipPath id="pe0f9d3ee77">
   <rect height="62.675625" width="501.21" x="65.2725" y="170.964375"/>
  </clipPath>
  <clipPath id="p75e18acc81">
   <rect height="62.675625" width="501.21" x="637.83" y="170.964375"/>
  </clipPath>
 </defs>
</svg>
